G04 #@! TF.GenerationSoftware,KiCad,Pcbnew,(5.1.2)-1*
G04 #@! TF.CreationDate,2019-10-08T11:37:34+11:00*
G04 #@! TF.ProjectId,AnalogDiscovery_x20_powerMainsProbe,416e616c-6f67-4446-9973-636f76657279,rev?*
G04 #@! TF.SameCoordinates,PX69618a0PY7bfa480*
G04 #@! TF.FileFunction,Legend,Top*
G04 #@! TF.FilePolarity,Positive*
%FSLAX46Y46*%
G04 Gerber Fmt 4.6, Leading zero omitted, Abs format (unit mm)*
G04 Created by KiCad (PCBNEW (5.1.2)-1) date 2019-10-08 11:37:34*
%MOMM*%
%LPD*%
G04 APERTURE LIST*
%ADD10C,0.150000*%
%ADD11C,0.300000*%
%ADD12C,0.200000*%
%ADD13C,0.250000*%
%ADD14C,0.120000*%
G04 APERTURE END LIST*
D10*
X19004761Y1138096D02*
X19052380Y1280953D01*
X19052380Y1519048D01*
X19004761Y1614286D01*
X18957142Y1661905D01*
X18861904Y1709524D01*
X18766666Y1709524D01*
X18671428Y1661905D01*
X18623809Y1614286D01*
X18576190Y1519048D01*
X18528571Y1328572D01*
X18480952Y1233334D01*
X18433333Y1185715D01*
X18338095Y1138096D01*
X18242857Y1138096D01*
X18147619Y1185715D01*
X18100000Y1233334D01*
X18052380Y1328572D01*
X18052380Y1566667D01*
X18100000Y1709524D01*
X18957142Y2709524D02*
X19004761Y2661905D01*
X19052380Y2519048D01*
X19052380Y2423810D01*
X19004761Y2280953D01*
X18909523Y2185715D01*
X18814285Y2138096D01*
X18623809Y2090477D01*
X18480952Y2090477D01*
X18290476Y2138096D01*
X18195238Y2185715D01*
X18100000Y2280953D01*
X18052380Y2423810D01*
X18052380Y2519048D01*
X18100000Y2661905D01*
X18147619Y2709524D01*
X18147619Y3090477D02*
X18100000Y3138096D01*
X18052380Y3233334D01*
X18052380Y3471429D01*
X18100000Y3566667D01*
X18147619Y3614286D01*
X18242857Y3661905D01*
X18338095Y3661905D01*
X18480952Y3614286D01*
X19052380Y3042858D01*
X19052380Y3661905D01*
X16504761Y1138096D02*
X16552380Y1280953D01*
X16552380Y1519048D01*
X16504761Y1614286D01*
X16457142Y1661905D01*
X16361904Y1709524D01*
X16266666Y1709524D01*
X16171428Y1661905D01*
X16123809Y1614286D01*
X16076190Y1519048D01*
X16028571Y1328572D01*
X15980952Y1233334D01*
X15933333Y1185715D01*
X15838095Y1138096D01*
X15742857Y1138096D01*
X15647619Y1185715D01*
X15600000Y1233334D01*
X15552380Y1328572D01*
X15552380Y1566667D01*
X15600000Y1709524D01*
X16457142Y2709524D02*
X16504761Y2661905D01*
X16552380Y2519048D01*
X16552380Y2423810D01*
X16504761Y2280953D01*
X16409523Y2185715D01*
X16314285Y2138096D01*
X16123809Y2090477D01*
X15980952Y2090477D01*
X15790476Y2138096D01*
X15695238Y2185715D01*
X15600000Y2280953D01*
X15552380Y2423810D01*
X15552380Y2519048D01*
X15600000Y2661905D01*
X15647619Y2709524D01*
X16552380Y3661905D02*
X16552380Y3090477D01*
X16552380Y3376191D02*
X15552380Y3376191D01*
X15695238Y3280953D01*
X15790476Y3185715D01*
X15838095Y3090477D01*
X13000000Y1661905D02*
X12952380Y1566667D01*
X12952380Y1423810D01*
X13000000Y1280953D01*
X13095238Y1185715D01*
X13190476Y1138096D01*
X13380952Y1090477D01*
X13523809Y1090477D01*
X13714285Y1138096D01*
X13809523Y1185715D01*
X13904761Y1280953D01*
X13952380Y1423810D01*
X13952380Y1519048D01*
X13904761Y1661905D01*
X13857142Y1709524D01*
X13523809Y1709524D01*
X13523809Y1519048D01*
X13952380Y2138096D02*
X12952380Y2138096D01*
X13952380Y2709524D01*
X12952380Y2709524D01*
X13952380Y3709524D02*
X13952380Y3138096D01*
X13952380Y3423810D02*
X12952380Y3423810D01*
X13095238Y3328572D01*
X13190476Y3233334D01*
X13238095Y3138096D01*
X10580952Y58166667D02*
X10533333Y58214286D01*
X10438095Y58357143D01*
X10390476Y58452381D01*
X10342857Y58595239D01*
X10295238Y58833334D01*
X10295238Y59023810D01*
X10342857Y59261905D01*
X10390476Y59404762D01*
X10438095Y59500000D01*
X10533333Y59642858D01*
X10580952Y59690477D01*
X11533333Y58642858D02*
X11485714Y58595239D01*
X11342857Y58547620D01*
X11247619Y58547620D01*
X11104761Y58595239D01*
X11009523Y58690477D01*
X10961904Y58785715D01*
X10914285Y58976191D01*
X10914285Y59119048D01*
X10961904Y59309524D01*
X11009523Y59404762D01*
X11104761Y59500000D01*
X11247619Y59547620D01*
X11342857Y59547620D01*
X11485714Y59500000D01*
X11533333Y59452381D01*
X11866666Y58166667D02*
X11914285Y58214286D01*
X12009523Y58357143D01*
X12057142Y58452381D01*
X12104761Y58595239D01*
X12152380Y58833334D01*
X12152380Y59023810D01*
X12104761Y59261905D01*
X12057142Y59404762D01*
X12009523Y59500000D01*
X11914285Y59642858D01*
X11866666Y59690477D01*
X13342857Y58833334D02*
X13819047Y58833334D01*
X13247619Y58547620D02*
X13580952Y59547620D01*
X13914285Y58547620D01*
X14247619Y59214286D02*
X14247619Y58547620D01*
X14247619Y59119048D02*
X14295238Y59166667D01*
X14390476Y59214286D01*
X14533333Y59214286D01*
X14628571Y59166667D01*
X14676190Y59071429D01*
X14676190Y58547620D01*
X15580952Y58547620D02*
X15580952Y59071429D01*
X15533333Y59166667D01*
X15438095Y59214286D01*
X15247619Y59214286D01*
X15152380Y59166667D01*
X15580952Y58595239D02*
X15485714Y58547620D01*
X15247619Y58547620D01*
X15152380Y58595239D01*
X15104761Y58690477D01*
X15104761Y58785715D01*
X15152380Y58880953D01*
X15247619Y58928572D01*
X15485714Y58928572D01*
X15580952Y58976191D01*
X16200000Y58547620D02*
X16104761Y58595239D01*
X16057142Y58690477D01*
X16057142Y59547620D01*
X16723809Y58547620D02*
X16628571Y58595239D01*
X16580952Y58642858D01*
X16533333Y58738096D01*
X16533333Y59023810D01*
X16580952Y59119048D01*
X16628571Y59166667D01*
X16723809Y59214286D01*
X16866666Y59214286D01*
X16961904Y59166667D01*
X17009523Y59119048D01*
X17057142Y59023810D01*
X17057142Y58738096D01*
X17009523Y58642858D01*
X16961904Y58595239D01*
X16866666Y58547620D01*
X16723809Y58547620D01*
X17914285Y59214286D02*
X17914285Y58404762D01*
X17866666Y58309524D01*
X17819047Y58261905D01*
X17723809Y58214286D01*
X17580952Y58214286D01*
X17485714Y58261905D01*
X17914285Y58595239D02*
X17819047Y58547620D01*
X17628571Y58547620D01*
X17533333Y58595239D01*
X17485714Y58642858D01*
X17438095Y58738096D01*
X17438095Y59023810D01*
X17485714Y59119048D01*
X17533333Y59166667D01*
X17628571Y59214286D01*
X17819047Y59214286D01*
X17914285Y59166667D01*
X19580952Y58547620D02*
X19580952Y59547620D01*
X19580952Y58595239D02*
X19485714Y58547620D01*
X19295238Y58547620D01*
X19200000Y58595239D01*
X19152380Y58642858D01*
X19104761Y58738096D01*
X19104761Y59023810D01*
X19152380Y59119048D01*
X19200000Y59166667D01*
X19295238Y59214286D01*
X19485714Y59214286D01*
X19580952Y59166667D01*
X20057142Y58547620D02*
X20057142Y59214286D01*
X20057142Y59547620D02*
X20009523Y59500000D01*
X20057142Y59452381D01*
X20104761Y59500000D01*
X20057142Y59547620D01*
X20057142Y59452381D01*
X20485714Y58595239D02*
X20580952Y58547620D01*
X20771428Y58547620D01*
X20866666Y58595239D01*
X20914285Y58690477D01*
X20914285Y58738096D01*
X20866666Y58833334D01*
X20771428Y58880953D01*
X20628571Y58880953D01*
X20533333Y58928572D01*
X20485714Y59023810D01*
X20485714Y59071429D01*
X20533333Y59166667D01*
X20628571Y59214286D01*
X20771428Y59214286D01*
X20866666Y59166667D01*
X21771428Y58595239D02*
X21676190Y58547620D01*
X21485714Y58547620D01*
X21390476Y58595239D01*
X21342857Y58642858D01*
X21295238Y58738096D01*
X21295238Y59023810D01*
X21342857Y59119048D01*
X21390476Y59166667D01*
X21485714Y59214286D01*
X21676190Y59214286D01*
X21771428Y59166667D01*
X22342857Y58547620D02*
X22247619Y58595239D01*
X22200000Y58642858D01*
X22152380Y58738096D01*
X22152380Y59023810D01*
X22200000Y59119048D01*
X22247619Y59166667D01*
X22342857Y59214286D01*
X22485714Y59214286D01*
X22580952Y59166667D01*
X22628571Y59119048D01*
X22676190Y59023810D01*
X22676190Y58738096D01*
X22628571Y58642858D01*
X22580952Y58595239D01*
X22485714Y58547620D01*
X22342857Y58547620D01*
X23009523Y59214286D02*
X23247619Y58547620D01*
X23485714Y59214286D01*
X24247619Y58595239D02*
X24152380Y58547620D01*
X23961904Y58547620D01*
X23866666Y58595239D01*
X23819047Y58690477D01*
X23819047Y59071429D01*
X23866666Y59166667D01*
X23961904Y59214286D01*
X24152380Y59214286D01*
X24247619Y59166667D01*
X24295238Y59071429D01*
X24295238Y58976191D01*
X23819047Y58880953D01*
X24723809Y58547620D02*
X24723809Y59214286D01*
X24723809Y59023810D02*
X24771428Y59119048D01*
X24819047Y59166667D01*
X24914285Y59214286D01*
X25009523Y59214286D01*
X25247619Y59214286D02*
X25485714Y58547620D01*
X25723809Y59214286D02*
X25485714Y58547620D01*
X25390476Y58309524D01*
X25342857Y58261905D01*
X25247619Y58214286D01*
X26866666Y58547620D02*
X26866666Y59214286D01*
X26866666Y59547620D02*
X26819047Y59500000D01*
X26866666Y59452381D01*
X26914285Y59500000D01*
X26866666Y59547620D01*
X26866666Y59452381D01*
X27295238Y58595239D02*
X27390476Y58547620D01*
X27580952Y58547620D01*
X27676190Y58595239D01*
X27723809Y58690477D01*
X27723809Y58738096D01*
X27676190Y58833334D01*
X27580952Y58880953D01*
X27438095Y58880953D01*
X27342857Y58928572D01*
X27295238Y59023810D01*
X27295238Y59071429D01*
X27342857Y59166667D01*
X27438095Y59214286D01*
X27580952Y59214286D01*
X27676190Y59166667D01*
X29342857Y58547620D02*
X29342857Y59071429D01*
X29295238Y59166667D01*
X29200000Y59214286D01*
X29009523Y59214286D01*
X28914285Y59166667D01*
X29342857Y58595239D02*
X29247619Y58547620D01*
X29009523Y58547620D01*
X28914285Y58595239D01*
X28866666Y58690477D01*
X28866666Y58785715D01*
X28914285Y58880953D01*
X29009523Y58928572D01*
X29247619Y58928572D01*
X29342857Y58976191D01*
X30580952Y58547620D02*
X30580952Y59547620D01*
X30819047Y59547620D01*
X30961904Y59500000D01*
X31057142Y59404762D01*
X31104761Y59309524D01*
X31152380Y59119048D01*
X31152380Y58976191D01*
X31104761Y58785715D01*
X31057142Y58690477D01*
X30961904Y58595239D01*
X30819047Y58547620D01*
X30580952Y58547620D01*
X31580952Y58547620D02*
X31580952Y59214286D01*
X31580952Y59547620D02*
X31533333Y59500000D01*
X31580952Y59452381D01*
X31628571Y59500000D01*
X31580952Y59547620D01*
X31580952Y59452381D01*
X32485714Y59214286D02*
X32485714Y58404762D01*
X32438095Y58309524D01*
X32390476Y58261905D01*
X32295238Y58214286D01*
X32152380Y58214286D01*
X32057142Y58261905D01*
X32485714Y58595239D02*
X32390476Y58547620D01*
X32200000Y58547620D01*
X32104761Y58595239D01*
X32057142Y58642858D01*
X32009523Y58738096D01*
X32009523Y59023810D01*
X32057142Y59119048D01*
X32104761Y59166667D01*
X32200000Y59214286D01*
X32390476Y59214286D01*
X32485714Y59166667D01*
X32961904Y58547620D02*
X32961904Y59214286D01*
X32961904Y59547620D02*
X32914285Y59500000D01*
X32961904Y59452381D01*
X33009523Y59500000D01*
X32961904Y59547620D01*
X32961904Y59452381D01*
X33580952Y58547620D02*
X33485714Y58595239D01*
X33438095Y58690477D01*
X33438095Y59547620D01*
X34342857Y58595239D02*
X34247619Y58547620D01*
X34057142Y58547620D01*
X33961904Y58595239D01*
X33914285Y58690477D01*
X33914285Y59071429D01*
X33961904Y59166667D01*
X34057142Y59214286D01*
X34247619Y59214286D01*
X34342857Y59166667D01*
X34390476Y59071429D01*
X34390476Y58976191D01*
X33914285Y58880953D01*
X34819047Y59214286D02*
X34819047Y58547620D01*
X34819047Y59119048D02*
X34866666Y59166667D01*
X34961904Y59214286D01*
X35104761Y59214286D01*
X35200000Y59166667D01*
X35247619Y59071429D01*
X35247619Y58547620D01*
X35580952Y59214286D02*
X35961904Y59214286D01*
X35723809Y59547620D02*
X35723809Y58690477D01*
X35771428Y58595239D01*
X35866666Y58547620D01*
X35961904Y58547620D01*
X36914285Y59214286D02*
X37295238Y59214286D01*
X37057142Y59547620D02*
X37057142Y58690477D01*
X37104761Y58595239D01*
X37200000Y58547620D01*
X37295238Y58547620D01*
X37628571Y58547620D02*
X37628571Y59214286D01*
X37628571Y59023810D02*
X37676190Y59119048D01*
X37723809Y59166667D01*
X37819047Y59214286D01*
X37914285Y59214286D01*
X38676190Y58547620D02*
X38676190Y59071429D01*
X38628571Y59166667D01*
X38533333Y59214286D01*
X38342857Y59214286D01*
X38247619Y59166667D01*
X38676190Y58595239D02*
X38580952Y58547620D01*
X38342857Y58547620D01*
X38247619Y58595239D01*
X38200000Y58690477D01*
X38200000Y58785715D01*
X38247619Y58880953D01*
X38342857Y58928572D01*
X38580952Y58928572D01*
X38676190Y58976191D01*
X39580952Y58547620D02*
X39580952Y59547620D01*
X39580952Y58595239D02*
X39485714Y58547620D01*
X39295238Y58547620D01*
X39200000Y58595239D01*
X39152380Y58642858D01*
X39104761Y58738096D01*
X39104761Y59023810D01*
X39152380Y59119048D01*
X39200000Y59166667D01*
X39295238Y59214286D01*
X39485714Y59214286D01*
X39580952Y59166667D01*
X40438095Y58595239D02*
X40342857Y58547620D01*
X40152380Y58547620D01*
X40057142Y58595239D01*
X40009523Y58690477D01*
X40009523Y59071429D01*
X40057142Y59166667D01*
X40152380Y59214286D01*
X40342857Y59214286D01*
X40438095Y59166667D01*
X40485714Y59071429D01*
X40485714Y58976191D01*
X40009523Y58880953D01*
X40914285Y58547620D02*
X40914285Y59214286D01*
X40914285Y59119048D02*
X40961904Y59166667D01*
X41057142Y59214286D01*
X41199999Y59214286D01*
X41295238Y59166667D01*
X41342857Y59071429D01*
X41342857Y58547620D01*
X41342857Y59071429D02*
X41390476Y59166667D01*
X41485714Y59214286D01*
X41628571Y59214286D01*
X41723809Y59166667D01*
X41771428Y59071429D01*
X41771428Y58547620D01*
X42676190Y58547620D02*
X42676190Y59071429D01*
X42628571Y59166667D01*
X42533333Y59214286D01*
X42342857Y59214286D01*
X42247619Y59166667D01*
X42676190Y58595239D02*
X42580952Y58547620D01*
X42342857Y58547620D01*
X42247619Y58595239D01*
X42199999Y58690477D01*
X42199999Y58785715D01*
X42247619Y58880953D01*
X42342857Y58928572D01*
X42580952Y58928572D01*
X42676190Y58976191D01*
X43152380Y58547620D02*
X43152380Y59214286D01*
X43152380Y59023810D02*
X43199999Y59119048D01*
X43247619Y59166667D01*
X43342857Y59214286D01*
X43438095Y59214286D01*
X43771428Y58547620D02*
X43771428Y59547620D01*
X43866666Y58928572D02*
X44152380Y58547620D01*
X44152380Y59214286D02*
X43771428Y58833334D01*
X2873928Y12547620D02*
X3492976Y12547620D01*
X3159642Y12166667D01*
X3302500Y12166667D01*
X3397738Y12119048D01*
X3445357Y12071429D01*
X3492976Y11976191D01*
X3492976Y11738096D01*
X3445357Y11642858D01*
X3397738Y11595239D01*
X3302500Y11547620D01*
X3016785Y11547620D01*
X2921547Y11595239D01*
X2873928Y11642858D01*
X4112023Y12547620D02*
X4207261Y12547620D01*
X4302500Y12500000D01*
X4350119Y12452381D01*
X4397738Y12357143D01*
X4445357Y12166667D01*
X4445357Y11928572D01*
X4397738Y11738096D01*
X4350119Y11642858D01*
X4302500Y11595239D01*
X4207261Y11547620D01*
X4112023Y11547620D01*
X4016785Y11595239D01*
X3969166Y11642858D01*
X3921547Y11738096D01*
X3873928Y11928572D01*
X3873928Y12166667D01*
X3921547Y12357143D01*
X3969166Y12452381D01*
X4016785Y12500000D01*
X4112023Y12547620D01*
X5588214Y12452381D02*
X5635833Y12500000D01*
X5731071Y12547620D01*
X5969166Y12547620D01*
X6064404Y12500000D01*
X6112023Y12452381D01*
X6159642Y12357143D01*
X6159642Y12261905D01*
X6112023Y12119048D01*
X5540595Y11547620D01*
X6159642Y11547620D01*
X6635833Y11547620D02*
X6826309Y11547620D01*
X6921547Y11595239D01*
X6969166Y11642858D01*
X7064404Y11785715D01*
X7112023Y11976191D01*
X7112023Y12357143D01*
X7064404Y12452381D01*
X7016785Y12500000D01*
X6921547Y12547620D01*
X6731071Y12547620D01*
X6635833Y12500000D01*
X6588214Y12452381D01*
X6540595Y12357143D01*
X6540595Y12119048D01*
X6588214Y12023810D01*
X6635833Y11976191D01*
X6731071Y11928572D01*
X6921547Y11928572D01*
X7016785Y11976191D01*
X7064404Y12023810D01*
X7112023Y12119048D01*
D11*
X11435714Y37892858D02*
X11507142Y37821429D01*
X11578571Y37607143D01*
X11578571Y37464286D01*
X11507142Y37250000D01*
X11364285Y37107143D01*
X11221428Y37035715D01*
X10935714Y36964286D01*
X10721428Y36964286D01*
X10435714Y37035715D01*
X10292857Y37107143D01*
X10150000Y37250000D01*
X10078571Y37464286D01*
X10078571Y37607143D01*
X10150000Y37821429D01*
X10221428Y37892858D01*
X11578571Y38535715D02*
X10078571Y38535715D01*
X10792857Y38535715D02*
X10792857Y39392858D01*
X11578571Y39392858D02*
X10078571Y39392858D01*
X10221428Y41178572D02*
X10150000Y41250000D01*
X10078571Y41392858D01*
X10078571Y41750000D01*
X10150000Y41892858D01*
X10221428Y41964286D01*
X10364285Y42035715D01*
X10507142Y42035715D01*
X10721428Y41964286D01*
X11578571Y41107143D01*
X11578571Y42035715D01*
X11435714Y15392858D02*
X11507142Y15321429D01*
X11578571Y15107143D01*
X11578571Y14964286D01*
X11507142Y14750000D01*
X11364285Y14607143D01*
X11221428Y14535715D01*
X10935714Y14464286D01*
X10721428Y14464286D01*
X10435714Y14535715D01*
X10292857Y14607143D01*
X10150000Y14750000D01*
X10078571Y14964286D01*
X10078571Y15107143D01*
X10150000Y15321429D01*
X10221428Y15392858D01*
X11578571Y16035715D02*
X10078571Y16035715D01*
X10792857Y16035715D02*
X10792857Y16892858D01*
X11578571Y16892858D02*
X10078571Y16892858D01*
X11578571Y19535715D02*
X11578571Y18678572D01*
X11578571Y19107143D02*
X10078571Y19107143D01*
X10292857Y18964286D01*
X10435714Y18821429D01*
X10507142Y18678572D01*
X17150000Y36421429D02*
X17150000Y37135715D01*
X17578571Y36278572D02*
X16078571Y36778572D01*
X17578571Y37278572D01*
X17435714Y38635715D02*
X17507142Y38564286D01*
X17578571Y38350000D01*
X17578571Y38207143D01*
X17507142Y37992858D01*
X17364285Y37850000D01*
X17221428Y37778572D01*
X16935714Y37707143D01*
X16721428Y37707143D01*
X16435714Y37778572D01*
X16292857Y37850000D01*
X16150000Y37992858D01*
X16078571Y38207143D01*
X16078571Y38350000D01*
X16150000Y38564286D01*
X16221428Y38635715D01*
X17578571Y40421429D02*
X16078571Y40421429D01*
X16078571Y40778572D01*
X16150000Y40992858D01*
X16292857Y41135715D01*
X16435714Y41207143D01*
X16721428Y41278572D01*
X16935714Y41278572D01*
X17221428Y41207143D01*
X17364285Y41135715D01*
X17507142Y40992858D01*
X17578571Y40778572D01*
X17578571Y40421429D01*
X17435714Y42778572D02*
X17507142Y42707143D01*
X17578571Y42492858D01*
X17578571Y42350000D01*
X17507142Y42135715D01*
X17364285Y41992858D01*
X17221428Y41921429D01*
X16935714Y41850000D01*
X16721428Y41850000D01*
X16435714Y41921429D01*
X16292857Y41992858D01*
X16150000Y42135715D01*
X16078571Y42350000D01*
X16078571Y42492858D01*
X16150000Y42707143D01*
X16221428Y42778572D01*
X17150000Y13921429D02*
X17150000Y14635715D01*
X17578571Y13778572D02*
X16078571Y14278572D01*
X17578571Y14778572D01*
X17435714Y16135715D02*
X17507142Y16064286D01*
X17578571Y15850000D01*
X17578571Y15707143D01*
X17507142Y15492858D01*
X17364285Y15350000D01*
X17221428Y15278572D01*
X16935714Y15207143D01*
X16721428Y15207143D01*
X16435714Y15278572D01*
X16292857Y15350000D01*
X16150000Y15492858D01*
X16078571Y15707143D01*
X16078571Y15850000D01*
X16150000Y16064286D01*
X16221428Y16135715D01*
X17578571Y17921429D02*
X16078571Y17921429D01*
X16078571Y18278572D01*
X16150000Y18492858D01*
X16292857Y18635715D01*
X16435714Y18707143D01*
X16721428Y18778572D01*
X16935714Y18778572D01*
X17221428Y18707143D01*
X17364285Y18635715D01*
X17507142Y18492858D01*
X17578571Y18278572D01*
X17578571Y17921429D01*
X17435714Y20278572D02*
X17507142Y20207143D01*
X17578571Y19992858D01*
X17578571Y19850000D01*
X17507142Y19635715D01*
X17364285Y19492858D01*
X17221428Y19421429D01*
X16935714Y19350000D01*
X16721428Y19350000D01*
X16435714Y19421429D01*
X16292857Y19492858D01*
X16150000Y19635715D01*
X16078571Y19850000D01*
X16078571Y19992858D01*
X16150000Y20207143D01*
X16221428Y20278572D01*
D12*
X21572857Y5297620D02*
X21810952Y4297620D01*
X22001428Y5011905D01*
X22191904Y4297620D01*
X22430000Y5297620D01*
X22763333Y4583334D02*
X23239523Y4583334D01*
X22668095Y4297620D02*
X23001428Y5297620D01*
X23334761Y4297620D01*
X24239523Y4297620D02*
X23906190Y4773810D01*
X23668095Y4297620D02*
X23668095Y5297620D01*
X24049047Y5297620D01*
X24144285Y5250000D01*
X24191904Y5202381D01*
X24239523Y5107143D01*
X24239523Y4964286D01*
X24191904Y4869048D01*
X24144285Y4821429D01*
X24049047Y4773810D01*
X23668095Y4773810D01*
X24668095Y4297620D02*
X24668095Y5297620D01*
X25239523Y4297620D01*
X25239523Y5297620D01*
X25715714Y4297620D02*
X25715714Y5297620D01*
X26191904Y4297620D02*
X26191904Y5297620D01*
X26763333Y4297620D01*
X26763333Y5297620D01*
X27763333Y5250000D02*
X27668095Y5297620D01*
X27525238Y5297620D01*
X27382380Y5250000D01*
X27287142Y5154762D01*
X27239523Y5059524D01*
X27191904Y4869048D01*
X27191904Y4726191D01*
X27239523Y4535715D01*
X27287142Y4440477D01*
X27382380Y4345239D01*
X27525238Y4297620D01*
X27620476Y4297620D01*
X27763333Y4345239D01*
X27810952Y4392858D01*
X27810952Y4726191D01*
X27620476Y4726191D01*
X28239523Y4392858D02*
X28287142Y4345239D01*
X28239523Y4297620D01*
X28191904Y4345239D01*
X28239523Y4392858D01*
X28239523Y4297620D01*
X28239523Y4916667D02*
X28287142Y4869048D01*
X28239523Y4821429D01*
X28191904Y4869048D01*
X28239523Y4916667D01*
X28239523Y4821429D01*
X29477619Y5297620D02*
X29477619Y4488096D01*
X29525238Y4392858D01*
X29572857Y4345239D01*
X29668095Y4297620D01*
X29858571Y4297620D01*
X29953809Y4345239D01*
X30001428Y4392858D01*
X30049047Y4488096D01*
X30049047Y5297620D01*
X30477619Y4345239D02*
X30572857Y4297620D01*
X30763333Y4297620D01*
X30858571Y4345239D01*
X30906190Y4440477D01*
X30906190Y4488096D01*
X30858571Y4583334D01*
X30763333Y4630953D01*
X30620476Y4630953D01*
X30525238Y4678572D01*
X30477619Y4773810D01*
X30477619Y4821429D01*
X30525238Y4916667D01*
X30620476Y4964286D01*
X30763333Y4964286D01*
X30858571Y4916667D01*
X31715714Y4345239D02*
X31620476Y4297620D01*
X31430000Y4297620D01*
X31334761Y4345239D01*
X31287142Y4440477D01*
X31287142Y4821429D01*
X31334761Y4916667D01*
X31430000Y4964286D01*
X31620476Y4964286D01*
X31715714Y4916667D01*
X31763333Y4821429D01*
X31763333Y4726191D01*
X31287142Y4630953D01*
X33382380Y4297620D02*
X33382380Y4821429D01*
X33334761Y4916667D01*
X33239523Y4964286D01*
X33049047Y4964286D01*
X32953809Y4916667D01*
X33382380Y4345239D02*
X33287142Y4297620D01*
X33049047Y4297620D01*
X32953809Y4345239D01*
X32906190Y4440477D01*
X32906190Y4535715D01*
X32953809Y4630953D01*
X33049047Y4678572D01*
X33287142Y4678572D01*
X33382380Y4726191D01*
X33715714Y4964286D02*
X34096666Y4964286D01*
X33858571Y5297620D02*
X33858571Y4440477D01*
X33906190Y4345239D01*
X34001428Y4297620D01*
X34096666Y4297620D01*
X35715714Y4297620D02*
X35144285Y4297620D01*
X35430000Y4297620D02*
X35430000Y5297620D01*
X35334761Y5154762D01*
X35239523Y5059524D01*
X35144285Y5011905D01*
X36096666Y5202381D02*
X36144285Y5250000D01*
X36239523Y5297620D01*
X36477619Y5297620D01*
X36572857Y5250000D01*
X36620476Y5202381D01*
X36668095Y5107143D01*
X36668095Y5011905D01*
X36620476Y4869048D01*
X36049047Y4297620D01*
X36668095Y4297620D01*
X37287142Y5297620D02*
X37382380Y5297620D01*
X37477619Y5250000D01*
X37525238Y5202381D01*
X37572857Y5107143D01*
X37620476Y4916667D01*
X37620476Y4678572D01*
X37572857Y4488096D01*
X37525238Y4392858D01*
X37477619Y4345239D01*
X37382380Y4297620D01*
X37287142Y4297620D01*
X37191904Y4345239D01*
X37144285Y4392858D01*
X37096666Y4488096D01*
X37049047Y4678572D01*
X37049047Y4916667D01*
X37096666Y5107143D01*
X37144285Y5202381D01*
X37191904Y5250000D01*
X37287142Y5297620D01*
X38763333Y5345239D02*
X37906190Y4059524D01*
X39049047Y5202381D02*
X39096666Y5250000D01*
X39191904Y5297620D01*
X39430000Y5297620D01*
X39525238Y5250000D01*
X39572857Y5202381D01*
X39620476Y5107143D01*
X39620476Y5011905D01*
X39572857Y4869048D01*
X39001428Y4297620D01*
X39620476Y4297620D01*
X40477619Y4964286D02*
X40477619Y4297620D01*
X40239523Y5345239D02*
X40001428Y4630953D01*
X40620476Y4630953D01*
X41191904Y5297620D02*
X41287142Y5297620D01*
X41382380Y5250000D01*
X41430000Y5202381D01*
X41477619Y5107143D01*
X41525238Y4916667D01*
X41525238Y4678572D01*
X41477619Y4488096D01*
X41430000Y4392858D01*
X41382380Y4345239D01*
X41287142Y4297620D01*
X41191904Y4297620D01*
X41096666Y4345239D01*
X41049047Y4392858D01*
X41001428Y4488096D01*
X40953809Y4678572D01*
X40953809Y4916667D01*
X41001428Y5107143D01*
X41049047Y5202381D01*
X41096666Y5250000D01*
X41191904Y5297620D01*
X41810952Y5297620D02*
X42144285Y4297620D01*
X42477619Y5297620D01*
X43239523Y4297620D02*
X43239523Y4821429D01*
X43191904Y4916667D01*
X43096666Y4964286D01*
X42906190Y4964286D01*
X42810952Y4916667D01*
X43239523Y4345239D02*
X43144285Y4297620D01*
X42906190Y4297620D01*
X42810952Y4345239D01*
X42763333Y4440477D01*
X42763333Y4535715D01*
X42810952Y4630953D01*
X42906190Y4678572D01*
X43144285Y4678572D01*
X43239523Y4726191D01*
X44144285Y4345239D02*
X44049047Y4297620D01*
X43858571Y4297620D01*
X43763333Y4345239D01*
X43715714Y4392858D01*
X43668095Y4488096D01*
X43668095Y4773810D01*
X43715714Y4869048D01*
X43763333Y4916667D01*
X43858571Y4964286D01*
X44049047Y4964286D01*
X44144285Y4916667D01*
X45334761Y4297620D02*
X45334761Y5297620D01*
X45668095Y4583334D01*
X46001428Y5297620D01*
X46001428Y4297620D01*
X46906190Y4297620D02*
X46906190Y4821429D01*
X46858571Y4916667D01*
X46763333Y4964286D01*
X46572857Y4964286D01*
X46477619Y4916667D01*
X46906190Y4345239D02*
X46810952Y4297620D01*
X46572857Y4297620D01*
X46477619Y4345239D01*
X46430000Y4440477D01*
X46430000Y4535715D01*
X46477619Y4630953D01*
X46572857Y4678572D01*
X46810952Y4678572D01*
X46906190Y4726191D01*
X47382380Y4297620D02*
X47382380Y4964286D01*
X47382380Y5297620D02*
X47334761Y5250000D01*
X47382380Y5202381D01*
X47430000Y5250000D01*
X47382380Y5297620D01*
X47382380Y5202381D01*
X47858571Y4964286D02*
X47858571Y4297620D01*
X47858571Y4869048D02*
X47906190Y4916667D01*
X48001428Y4964286D01*
X48144285Y4964286D01*
X48239523Y4916667D01*
X48287142Y4821429D01*
X48287142Y4297620D01*
X48715714Y4345239D02*
X48810952Y4297620D01*
X49001428Y4297620D01*
X49096666Y4345239D01*
X49144285Y4440477D01*
X49144285Y4488096D01*
X49096666Y4583334D01*
X49001428Y4630953D01*
X48858571Y4630953D01*
X48763333Y4678572D01*
X48715714Y4773810D01*
X48715714Y4821429D01*
X48763333Y4916667D01*
X48858571Y4964286D01*
X49001428Y4964286D01*
X49096666Y4916667D01*
X22096666Y3264286D02*
X22096666Y2597620D01*
X21668095Y3264286D02*
X21668095Y2740477D01*
X21715714Y2645239D01*
X21810952Y2597620D01*
X21953809Y2597620D01*
X22049047Y2645239D01*
X22096666Y2692858D01*
X22572857Y3264286D02*
X22572857Y2597620D01*
X22572857Y3169048D02*
X22620476Y3216667D01*
X22715714Y3264286D01*
X22858571Y3264286D01*
X22953809Y3216667D01*
X23001428Y3121429D01*
X23001428Y2597620D01*
X23906190Y2597620D02*
X23906190Y3597620D01*
X23906190Y2645239D02*
X23810952Y2597620D01*
X23620476Y2597620D01*
X23525238Y2645239D01*
X23477619Y2692858D01*
X23430000Y2788096D01*
X23430000Y3073810D01*
X23477619Y3169048D01*
X23525238Y3216667D01*
X23620476Y3264286D01*
X23810952Y3264286D01*
X23906190Y3216667D01*
X24763333Y2645239D02*
X24668095Y2597620D01*
X24477619Y2597620D01*
X24382380Y2645239D01*
X24334761Y2740477D01*
X24334761Y3121429D01*
X24382380Y3216667D01*
X24477619Y3264286D01*
X24668095Y3264286D01*
X24763333Y3216667D01*
X24810952Y3121429D01*
X24810952Y3026191D01*
X24334761Y2930953D01*
X25239523Y2597620D02*
X25239523Y3264286D01*
X25239523Y3073810D02*
X25287142Y3169048D01*
X25334761Y3216667D01*
X25430000Y3264286D01*
X25525238Y3264286D01*
X26525238Y3264286D02*
X26763333Y2597620D01*
X27001428Y3264286D02*
X26763333Y2597620D01*
X26668095Y2359524D01*
X26620476Y2311905D01*
X26525238Y2264286D01*
X27525238Y2597620D02*
X27430000Y2645239D01*
X27382380Y2692858D01*
X27334761Y2788096D01*
X27334761Y3073810D01*
X27382380Y3169048D01*
X27430000Y3216667D01*
X27525238Y3264286D01*
X27668095Y3264286D01*
X27763333Y3216667D01*
X27810952Y3169048D01*
X27858571Y3073810D01*
X27858571Y2788096D01*
X27810952Y2692858D01*
X27763333Y2645239D01*
X27668095Y2597620D01*
X27525238Y2597620D01*
X28715714Y3264286D02*
X28715714Y2597620D01*
X28287142Y3264286D02*
X28287142Y2740477D01*
X28334761Y2645239D01*
X28430000Y2597620D01*
X28572857Y2597620D01*
X28668095Y2645239D01*
X28715714Y2692858D01*
X29191904Y2597620D02*
X29191904Y3264286D01*
X29191904Y3073810D02*
X29239523Y3169048D01*
X29287142Y3216667D01*
X29382380Y3264286D01*
X29477619Y3264286D01*
X30715714Y2597620D02*
X30620476Y2645239D01*
X30572857Y2692858D01*
X30525238Y2788096D01*
X30525238Y3073810D01*
X30572857Y3169048D01*
X30620476Y3216667D01*
X30715714Y3264286D01*
X30858571Y3264286D01*
X30953809Y3216667D01*
X31001428Y3169048D01*
X31049047Y3073810D01*
X31049047Y2788096D01*
X31001428Y2692858D01*
X30953809Y2645239D01*
X30858571Y2597620D01*
X30715714Y2597620D01*
X31382380Y3264286D02*
X31572857Y2597620D01*
X31763333Y3073810D01*
X31953809Y2597620D01*
X32144285Y3264286D01*
X32525238Y3264286D02*
X32525238Y2597620D01*
X32525238Y3169048D02*
X32572857Y3216667D01*
X32668095Y3264286D01*
X32810952Y3264286D01*
X32906190Y3216667D01*
X32953809Y3121429D01*
X32953809Y2597620D01*
X34191904Y2597620D02*
X34191904Y3264286D01*
X34191904Y3073810D02*
X34239523Y3169048D01*
X34287142Y3216667D01*
X34382380Y3264286D01*
X34477619Y3264286D01*
X35191904Y2645239D02*
X35096666Y2597620D01*
X34906190Y2597620D01*
X34810952Y2645239D01*
X34763333Y2740477D01*
X34763333Y3121429D01*
X34810952Y3216667D01*
X34906190Y3264286D01*
X35096666Y3264286D01*
X35191904Y3216667D01*
X35239523Y3121429D01*
X35239523Y3026191D01*
X34763333Y2930953D01*
X35620476Y2645239D02*
X35715714Y2597620D01*
X35906190Y2597620D01*
X36001428Y2645239D01*
X36049047Y2740477D01*
X36049047Y2788096D01*
X36001428Y2883334D01*
X35906190Y2930953D01*
X35763333Y2930953D01*
X35668095Y2978572D01*
X35620476Y3073810D01*
X35620476Y3121429D01*
X35668095Y3216667D01*
X35763333Y3264286D01*
X35906190Y3264286D01*
X36001428Y3216667D01*
X36477619Y3264286D02*
X36477619Y2264286D01*
X36477619Y3216667D02*
X36572857Y3264286D01*
X36763333Y3264286D01*
X36858571Y3216667D01*
X36906190Y3169048D01*
X36953809Y3073810D01*
X36953809Y2788096D01*
X36906190Y2692858D01*
X36858571Y2645239D01*
X36763333Y2597620D01*
X36572857Y2597620D01*
X36477619Y2645239D01*
X37525238Y2597620D02*
X37430000Y2645239D01*
X37382380Y2692858D01*
X37334761Y2788096D01*
X37334761Y3073810D01*
X37382380Y3169048D01*
X37430000Y3216667D01*
X37525238Y3264286D01*
X37668095Y3264286D01*
X37763333Y3216667D01*
X37810952Y3169048D01*
X37858571Y3073810D01*
X37858571Y2788096D01*
X37810952Y2692858D01*
X37763333Y2645239D01*
X37668095Y2597620D01*
X37525238Y2597620D01*
X38287142Y3264286D02*
X38287142Y2597620D01*
X38287142Y3169048D02*
X38334761Y3216667D01*
X38430000Y3264286D01*
X38572857Y3264286D01*
X38668095Y3216667D01*
X38715714Y3121429D01*
X38715714Y2597620D01*
X39144285Y2645239D02*
X39239523Y2597620D01*
X39430000Y2597620D01*
X39525238Y2645239D01*
X39572857Y2740477D01*
X39572857Y2788096D01*
X39525238Y2883334D01*
X39430000Y2930953D01*
X39287142Y2930953D01*
X39191904Y2978572D01*
X39144285Y3073810D01*
X39144285Y3121429D01*
X39191904Y3216667D01*
X39287142Y3264286D01*
X39430000Y3264286D01*
X39525238Y3216667D01*
X40430000Y2597620D02*
X40430000Y3121429D01*
X40382380Y3216667D01*
X40287142Y3264286D01*
X40096666Y3264286D01*
X40001428Y3216667D01*
X40430000Y2645239D02*
X40334761Y2597620D01*
X40096666Y2597620D01*
X40001428Y2645239D01*
X39953809Y2740477D01*
X39953809Y2835715D01*
X40001428Y2930953D01*
X40096666Y2978572D01*
X40334761Y2978572D01*
X40430000Y3026191D01*
X40906190Y2597620D02*
X40906190Y3597620D01*
X40906190Y3216667D02*
X41001428Y3264286D01*
X41191904Y3264286D01*
X41287142Y3216667D01*
X41334761Y3169048D01*
X41382380Y3073810D01*
X41382380Y2788096D01*
X41334761Y2692858D01*
X41287142Y2645239D01*
X41191904Y2597620D01*
X41001428Y2597620D01*
X40906190Y2645239D01*
X41810952Y2597620D02*
X41810952Y3264286D01*
X41810952Y3597620D02*
X41763333Y3550000D01*
X41810952Y3502381D01*
X41858571Y3550000D01*
X41810952Y3597620D01*
X41810952Y3502381D01*
X42430000Y2597620D02*
X42334761Y2645239D01*
X42287142Y2740477D01*
X42287142Y3597620D01*
X42810952Y2597620D02*
X42810952Y3264286D01*
X42810952Y3597620D02*
X42763333Y3550000D01*
X42810952Y3502381D01*
X42858571Y3550000D01*
X42810952Y3597620D01*
X42810952Y3502381D01*
X43144285Y3264286D02*
X43525238Y3264286D01*
X43287142Y3597620D02*
X43287142Y2740477D01*
X43334761Y2645239D01*
X43430000Y2597620D01*
X43525238Y2597620D01*
X43763333Y3264286D02*
X44001428Y2597620D01*
X44239523Y3264286D02*
X44001428Y2597620D01*
X43906190Y2359524D01*
X43858571Y2311905D01*
X43763333Y2264286D01*
X10572857Y57221429D02*
X11072857Y55721429D01*
X11572857Y57221429D01*
X12644285Y55792858D02*
X12501428Y55721429D01*
X12215714Y55721429D01*
X12072857Y55792858D01*
X12001428Y55935715D01*
X12001428Y56507143D01*
X12072857Y56650000D01*
X12215714Y56721429D01*
X12501428Y56721429D01*
X12644285Y56650000D01*
X12715714Y56507143D01*
X12715714Y56364286D01*
X12001428Y56221429D01*
X13358571Y55721429D02*
X13358571Y56721429D01*
X13358571Y56435715D02*
X13430000Y56578572D01*
X13501428Y56650000D01*
X13644285Y56721429D01*
X13787142Y56721429D01*
X16215714Y55721429D02*
X15358571Y55721429D01*
X15787142Y55721429D02*
X15787142Y57221429D01*
X15644285Y57007143D01*
X15501428Y56864286D01*
X15358571Y56792858D01*
X16858571Y55864286D02*
X16930000Y55792858D01*
X16858571Y55721429D01*
X16787142Y55792858D01*
X16858571Y55864286D01*
X16858571Y55721429D01*
X17858571Y57221429D02*
X18001428Y57221429D01*
X18144285Y57150000D01*
X18215714Y57078572D01*
X18287142Y56935715D01*
X18358571Y56650000D01*
X18358571Y56292858D01*
X18287142Y56007143D01*
X18215714Y55864286D01*
X18144285Y55792858D01*
X18001428Y55721429D01*
X17858571Y55721429D01*
X17715714Y55792858D01*
X17644285Y55864286D01*
X17572857Y56007143D01*
X17501428Y56292858D01*
X17501428Y56650000D01*
X17572857Y56935715D01*
X17644285Y57078572D01*
X17715714Y57150000D01*
X17858571Y57221429D01*
X21715714Y57221429D02*
X21715714Y56150000D01*
X21644285Y55935715D01*
X21501428Y55792858D01*
X21287142Y55721429D01*
X21144285Y55721429D01*
X22430000Y57221429D02*
X22430000Y56007143D01*
X22501428Y55864286D01*
X22572857Y55792858D01*
X22715714Y55721429D01*
X23001428Y55721429D01*
X23144285Y55792858D01*
X23215714Y55864286D01*
X23287142Y56007143D01*
X23287142Y57221429D01*
X24501428Y56507143D02*
X24715714Y56435715D01*
X24787142Y56364286D01*
X24858571Y56221429D01*
X24858571Y56007143D01*
X24787142Y55864286D01*
X24715714Y55792858D01*
X24572857Y55721429D01*
X24001428Y55721429D01*
X24001428Y57221429D01*
X24501428Y57221429D01*
X24644285Y57150000D01*
X24715714Y57078572D01*
X24787142Y56935715D01*
X24787142Y56792858D01*
X24715714Y56650000D01*
X24644285Y56578572D01*
X24501428Y56507143D01*
X24001428Y56507143D01*
X25501428Y56507143D02*
X26001428Y56507143D01*
X26215714Y55721429D02*
X25501428Y55721429D01*
X25501428Y57221429D01*
X26215714Y57221429D01*
X27144285Y57221429D02*
X27430000Y57221429D01*
X27572857Y57150000D01*
X27715714Y57007143D01*
X27787142Y56721429D01*
X27787142Y56221429D01*
X27715714Y55935715D01*
X27572857Y55792858D01*
X27430000Y55721429D01*
X27144285Y55721429D01*
X27001428Y55792858D01*
X26858571Y55935715D01*
X26787142Y56221429D01*
X26787142Y56721429D01*
X26858571Y57007143D01*
X27001428Y57150000D01*
X27144285Y57221429D01*
X29287142Y55721429D02*
X28787142Y56435715D01*
X28430000Y55721429D02*
X28430000Y57221429D01*
X29001428Y57221429D01*
X29144285Y57150000D01*
X29215714Y57078572D01*
X29287142Y56935715D01*
X29287142Y56721429D01*
X29215714Y56578572D01*
X29144285Y56507143D01*
X29001428Y56435715D01*
X28430000Y56435715D01*
X29930000Y55721429D02*
X29930000Y57221429D01*
X30430000Y56150000D01*
X30930000Y57221429D01*
X30930000Y55721429D01*
X31644285Y55721429D02*
X31644285Y57221429D01*
X32501428Y55721429D02*
X31858571Y56578572D01*
X32501428Y57221429D02*
X31644285Y56364286D01*
X33930000Y55721429D02*
X33072857Y55721429D01*
X33501428Y55721429D02*
X33501428Y57221429D01*
X33358571Y57007143D01*
X33215714Y56864286D01*
X33072857Y56792858D01*
X36644285Y56435715D02*
X36572857Y56507143D01*
X36430000Y56578572D01*
X36287142Y56578572D01*
X36144285Y56507143D01*
X36072857Y56435715D01*
X36001428Y56292858D01*
X36001428Y56150000D01*
X36072857Y56007143D01*
X36144285Y55935715D01*
X36287142Y55864286D01*
X36430000Y55864286D01*
X36572857Y55935715D01*
X36644285Y56007143D01*
X36644285Y56578572D02*
X36644285Y56007143D01*
X36715714Y55935715D01*
X36787142Y55935715D01*
X36930000Y56007143D01*
X37001428Y56150000D01*
X37001428Y56507143D01*
X36858571Y56721429D01*
X36644285Y56864286D01*
X36358571Y56935715D01*
X36072857Y56864286D01*
X35858571Y56721429D01*
X35715714Y56507143D01*
X35644285Y56221429D01*
X35715714Y55935715D01*
X35858571Y55721429D01*
X36072857Y55578572D01*
X36358571Y55507143D01*
X36644285Y55578572D01*
X36858571Y55721429D01*
X39572857Y57150000D02*
X39430000Y57221429D01*
X39215714Y57221429D01*
X39001428Y57150000D01*
X38858571Y57007143D01*
X38787142Y56864286D01*
X38715714Y56578572D01*
X38715714Y56364286D01*
X38787142Y56078572D01*
X38858571Y55935715D01*
X39001428Y55792858D01*
X39215714Y55721429D01*
X39358571Y55721429D01*
X39572857Y55792858D01*
X39644285Y55864286D01*
X39644285Y56364286D01*
X39358571Y56364286D01*
X40287142Y55721429D02*
X40287142Y57221429D01*
X40787142Y57221429D02*
X41644285Y57221429D01*
X41215714Y55721429D02*
X41215714Y57221429D01*
X42144285Y55721429D02*
X42144285Y57221429D01*
X42144285Y56507143D02*
X43001428Y56507143D01*
X43001428Y55721429D02*
X43001428Y57221429D01*
X43715714Y57221429D02*
X43715714Y56007143D01*
X43787142Y55864286D01*
X43858571Y55792858D01*
X44001428Y55721429D01*
X44287142Y55721429D01*
X44430000Y55792858D01*
X44501428Y55864286D01*
X44572857Y56007143D01*
X44572857Y57221429D01*
X45787142Y56507143D02*
X46001428Y56435715D01*
X46072857Y56364286D01*
X46144285Y56221429D01*
X46144285Y56007143D01*
X46072857Y55864286D01*
X46001428Y55792858D01*
X45858571Y55721429D01*
X45287142Y55721429D01*
X45287142Y57221429D01*
X45787142Y57221429D01*
X45930000Y57150000D01*
X46001428Y57078572D01*
X46072857Y56935715D01*
X46072857Y56792858D01*
X46001428Y56650000D01*
X45930000Y56578572D01*
X45787142Y56507143D01*
X45287142Y56507143D01*
X21572857Y9197620D02*
X21810952Y8197620D01*
X22001428Y8911905D01*
X22191904Y8197620D01*
X22430000Y9197620D01*
X22763333Y8483334D02*
X23239523Y8483334D01*
X22668095Y8197620D02*
X23001428Y9197620D01*
X23334761Y8197620D01*
X24239523Y8197620D02*
X23906190Y8673810D01*
X23668095Y8197620D02*
X23668095Y9197620D01*
X24049047Y9197620D01*
X24144285Y9150000D01*
X24191904Y9102381D01*
X24239523Y9007143D01*
X24239523Y8864286D01*
X24191904Y8769048D01*
X24144285Y8721429D01*
X24049047Y8673810D01*
X23668095Y8673810D01*
X24668095Y8197620D02*
X24668095Y9197620D01*
X25239523Y8197620D01*
X25239523Y9197620D01*
X25715714Y8197620D02*
X25715714Y9197620D01*
X26191904Y8197620D02*
X26191904Y9197620D01*
X26763333Y8197620D01*
X26763333Y9197620D01*
X27763333Y9150000D02*
X27668095Y9197620D01*
X27525238Y9197620D01*
X27382380Y9150000D01*
X27287142Y9054762D01*
X27239523Y8959524D01*
X27191904Y8769048D01*
X27191904Y8626191D01*
X27239523Y8435715D01*
X27287142Y8340477D01*
X27382380Y8245239D01*
X27525238Y8197620D01*
X27620476Y8197620D01*
X27763333Y8245239D01*
X27810952Y8292858D01*
X27810952Y8626191D01*
X27620476Y8626191D01*
X28239523Y8292858D02*
X28287142Y8245239D01*
X28239523Y8197620D01*
X28191904Y8245239D01*
X28239523Y8292858D01*
X28239523Y8197620D01*
X28239523Y8816667D02*
X28287142Y8769048D01*
X28239523Y8721429D01*
X28191904Y8769048D01*
X28239523Y8816667D01*
X28239523Y8721429D01*
X29477619Y8197620D02*
X29477619Y9197620D01*
X30049047Y8197620D01*
X30049047Y9197620D01*
X30525238Y8721429D02*
X30858571Y8721429D01*
X31001428Y8197620D02*
X30525238Y8197620D01*
X30525238Y9197620D01*
X31001428Y9197620D01*
X31430000Y9197620D02*
X31430000Y8388096D01*
X31477619Y8292858D01*
X31525238Y8245239D01*
X31620476Y8197620D01*
X31810952Y8197620D01*
X31906190Y8245239D01*
X31953809Y8292858D01*
X32001428Y8388096D01*
X32001428Y9197620D01*
X32334761Y9197620D02*
X32906190Y9197620D01*
X32620476Y8197620D02*
X32620476Y9197620D01*
X33810952Y8197620D02*
X33477619Y8673810D01*
X33239523Y8197620D02*
X33239523Y9197620D01*
X33620476Y9197620D01*
X33715714Y9150000D01*
X33763333Y9102381D01*
X33810952Y9007143D01*
X33810952Y8864286D01*
X33763333Y8769048D01*
X33715714Y8721429D01*
X33620476Y8673810D01*
X33239523Y8673810D01*
X34191904Y8483334D02*
X34668095Y8483334D01*
X34096666Y8197620D02*
X34430000Y9197620D01*
X34763333Y8197620D01*
X35572857Y8197620D02*
X35096666Y8197620D01*
X35096666Y9197620D01*
X37239523Y8292858D02*
X37191904Y8245239D01*
X37049047Y8197620D01*
X36953809Y8197620D01*
X36810952Y8245239D01*
X36715714Y8340477D01*
X36668095Y8435715D01*
X36620476Y8626191D01*
X36620476Y8769048D01*
X36668095Y8959524D01*
X36715714Y9054762D01*
X36810952Y9150000D01*
X36953809Y9197620D01*
X37049047Y9197620D01*
X37191904Y9150000D01*
X37239523Y9102381D01*
X37858571Y9197620D02*
X38049047Y9197620D01*
X38144285Y9150000D01*
X38239523Y9054762D01*
X38287142Y8864286D01*
X38287142Y8530953D01*
X38239523Y8340477D01*
X38144285Y8245239D01*
X38049047Y8197620D01*
X37858571Y8197620D01*
X37763333Y8245239D01*
X37668095Y8340477D01*
X37620476Y8530953D01*
X37620476Y8864286D01*
X37668095Y9054762D01*
X37763333Y9150000D01*
X37858571Y9197620D01*
X38715714Y8197620D02*
X38715714Y9197620D01*
X39287142Y8197620D01*
X39287142Y9197620D01*
X39763333Y8197620D02*
X39763333Y9197620D01*
X40334761Y8197620D01*
X40334761Y9197620D01*
X40810952Y8721429D02*
X41144285Y8721429D01*
X41287142Y8197620D02*
X40810952Y8197620D01*
X40810952Y9197620D01*
X41287142Y9197620D01*
X42287142Y8292858D02*
X42239523Y8245239D01*
X42096666Y8197620D01*
X42001428Y8197620D01*
X41858571Y8245239D01*
X41763333Y8340477D01*
X41715714Y8435715D01*
X41668095Y8626191D01*
X41668095Y8769048D01*
X41715714Y8959524D01*
X41763333Y9054762D01*
X41858571Y9150000D01*
X42001428Y9197620D01*
X42096666Y9197620D01*
X42239523Y9150000D01*
X42287142Y9102381D01*
X42572857Y9197620D02*
X43144285Y9197620D01*
X42858571Y8197620D02*
X42858571Y9197620D01*
X43477619Y8721429D02*
X43810952Y8721429D01*
X43953809Y8197620D02*
X43477619Y8197620D01*
X43477619Y9197620D01*
X43953809Y9197620D01*
X44382380Y8197620D02*
X44382380Y9197620D01*
X44620476Y9197620D01*
X44763333Y9150000D01*
X44858571Y9054762D01*
X44906190Y8959524D01*
X44953809Y8769048D01*
X44953809Y8626191D01*
X44906190Y8435715D01*
X44858571Y8340477D01*
X44763333Y8245239D01*
X44620476Y8197620D01*
X44382380Y8197620D01*
X46001428Y9197620D02*
X46572857Y9197620D01*
X46287142Y8197620D02*
X46287142Y9197620D01*
X47096666Y9197620D02*
X47287142Y9197620D01*
X47382380Y9150000D01*
X47477619Y9054762D01*
X47525238Y8864286D01*
X47525238Y8530953D01*
X47477619Y8340477D01*
X47382380Y8245239D01*
X47287142Y8197620D01*
X47096666Y8197620D01*
X47001428Y8245239D01*
X46906190Y8340477D01*
X46858571Y8530953D01*
X46858571Y8864286D01*
X46906190Y9054762D01*
X47001428Y9150000D01*
X47096666Y9197620D01*
X49239523Y9150000D02*
X49144285Y9197620D01*
X49001428Y9197620D01*
X48858571Y9150000D01*
X48763333Y9054762D01*
X48715714Y8959524D01*
X48668095Y8769048D01*
X48668095Y8626191D01*
X48715714Y8435715D01*
X48763333Y8340477D01*
X48858571Y8245239D01*
X49001428Y8197620D01*
X49096666Y8197620D01*
X49239523Y8245239D01*
X49287142Y8292858D01*
X49287142Y8626191D01*
X49096666Y8626191D01*
X49715714Y8197620D02*
X49715714Y9197620D01*
X50287142Y8197620D01*
X50287142Y9197620D01*
X50763333Y8197620D02*
X50763333Y9197620D01*
X51001428Y9197620D01*
X51144285Y9150000D01*
X51239523Y9054762D01*
X51287142Y8959524D01*
X51334761Y8769048D01*
X51334761Y8626191D01*
X51287142Y8435715D01*
X51239523Y8340477D01*
X51144285Y8245239D01*
X51001428Y8197620D01*
X50763333Y8197620D01*
X51763333Y8292858D02*
X51810952Y8245239D01*
X51763333Y8197620D01*
X51715714Y8245239D01*
X51763333Y8292858D01*
X51763333Y8197620D01*
X22239523Y6592858D02*
X22191904Y6545239D01*
X22049047Y6497620D01*
X21953809Y6497620D01*
X21810952Y6545239D01*
X21715714Y6640477D01*
X21668095Y6735715D01*
X21620476Y6926191D01*
X21620476Y7069048D01*
X21668095Y7259524D01*
X21715714Y7354762D01*
X21810952Y7450000D01*
X21953809Y7497620D01*
X22049047Y7497620D01*
X22191904Y7450000D01*
X22239523Y7402381D01*
X22668095Y6497620D02*
X22668095Y7497620D01*
X23096666Y6497620D02*
X23096666Y7021429D01*
X23049047Y7116667D01*
X22953809Y7164286D01*
X22810952Y7164286D01*
X22715714Y7116667D01*
X22668095Y7069048D01*
X23953809Y6545239D02*
X23858571Y6497620D01*
X23668095Y6497620D01*
X23572857Y6545239D01*
X23525238Y6640477D01*
X23525238Y7021429D01*
X23572857Y7116667D01*
X23668095Y7164286D01*
X23858571Y7164286D01*
X23953809Y7116667D01*
X24001428Y7021429D01*
X24001428Y6926191D01*
X23525238Y6830953D01*
X24858571Y6545239D02*
X24763333Y6497620D01*
X24572857Y6497620D01*
X24477619Y6545239D01*
X24430000Y6592858D01*
X24382380Y6688096D01*
X24382380Y6973810D01*
X24430000Y7069048D01*
X24477619Y7116667D01*
X24572857Y7164286D01*
X24763333Y7164286D01*
X24858571Y7116667D01*
X25287142Y6497620D02*
X25287142Y7497620D01*
X25382380Y6878572D02*
X25668095Y6497620D01*
X25668095Y7164286D02*
X25287142Y6783334D01*
X26715714Y7164286D02*
X27096666Y7164286D01*
X26858571Y7497620D02*
X26858571Y6640477D01*
X26906190Y6545239D01*
X27001428Y6497620D01*
X27096666Y6497620D01*
X27430000Y6497620D02*
X27430000Y7497620D01*
X27858571Y6497620D02*
X27858571Y7021429D01*
X27810952Y7116667D01*
X27715714Y7164286D01*
X27572857Y7164286D01*
X27477619Y7116667D01*
X27430000Y7069048D01*
X28715714Y6545239D02*
X28620476Y6497620D01*
X28430000Y6497620D01*
X28334761Y6545239D01*
X28287142Y6640477D01*
X28287142Y7021429D01*
X28334761Y7116667D01*
X28430000Y7164286D01*
X28620476Y7164286D01*
X28715714Y7116667D01*
X28763333Y7021429D01*
X28763333Y6926191D01*
X28287142Y6830953D01*
X29953809Y7497620D02*
X29953809Y6688096D01*
X30001428Y6592858D01*
X30049047Y6545239D01*
X30144285Y6497620D01*
X30334761Y6497620D01*
X30430000Y6545239D01*
X30477619Y6592858D01*
X30525238Y6688096D01*
X30525238Y7497620D01*
X30953809Y6545239D02*
X31096666Y6497620D01*
X31334761Y6497620D01*
X31430000Y6545239D01*
X31477619Y6592858D01*
X31525238Y6688096D01*
X31525238Y6783334D01*
X31477619Y6878572D01*
X31430000Y6926191D01*
X31334761Y6973810D01*
X31144285Y7021429D01*
X31049047Y7069048D01*
X31001428Y7116667D01*
X30953809Y7211905D01*
X30953809Y7307143D01*
X31001428Y7402381D01*
X31049047Y7450000D01*
X31144285Y7497620D01*
X31382380Y7497620D01*
X31525238Y7450000D01*
X32287142Y7021429D02*
X32430000Y6973810D01*
X32477619Y6926191D01*
X32525238Y6830953D01*
X32525238Y6688096D01*
X32477619Y6592858D01*
X32430000Y6545239D01*
X32334761Y6497620D01*
X31953809Y6497620D01*
X31953809Y7497620D01*
X32287142Y7497620D01*
X32382380Y7450000D01*
X32430000Y7402381D01*
X32477619Y7307143D01*
X32477619Y7211905D01*
X32430000Y7116667D01*
X32382380Y7069048D01*
X32287142Y7021429D01*
X31953809Y7021429D01*
X34239523Y7450000D02*
X34144285Y7497620D01*
X34001428Y7497620D01*
X33858571Y7450000D01*
X33763333Y7354762D01*
X33715714Y7259524D01*
X33668095Y7069048D01*
X33668095Y6926191D01*
X33715714Y6735715D01*
X33763333Y6640477D01*
X33858571Y6545239D01*
X34001428Y6497620D01*
X34096666Y6497620D01*
X34239523Y6545239D01*
X34287142Y6592858D01*
X34287142Y6926191D01*
X34096666Y6926191D01*
X34715714Y6497620D02*
X34715714Y7497620D01*
X35287142Y6497620D01*
X35287142Y7497620D01*
X35763333Y6497620D02*
X35763333Y7497620D01*
X36001428Y7497620D01*
X36144285Y7450000D01*
X36239523Y7354762D01*
X36287142Y7259524D01*
X36334761Y7069048D01*
X36334761Y6926191D01*
X36287142Y6735715D01*
X36239523Y6640477D01*
X36144285Y6545239D01*
X36001428Y6497620D01*
X35763333Y6497620D01*
X37953809Y6545239D02*
X37858571Y6497620D01*
X37668095Y6497620D01*
X37572857Y6545239D01*
X37525238Y6592858D01*
X37477619Y6688096D01*
X37477619Y6973810D01*
X37525238Y7069048D01*
X37572857Y7116667D01*
X37668095Y7164286D01*
X37858571Y7164286D01*
X37953809Y7116667D01*
X38525238Y6497620D02*
X38430000Y6545239D01*
X38382380Y6592858D01*
X38334761Y6688096D01*
X38334761Y6973810D01*
X38382380Y7069048D01*
X38430000Y7116667D01*
X38525238Y7164286D01*
X38668095Y7164286D01*
X38763333Y7116667D01*
X38810952Y7069048D01*
X38858571Y6973810D01*
X38858571Y6688096D01*
X38810952Y6592858D01*
X38763333Y6545239D01*
X38668095Y6497620D01*
X38525238Y6497620D01*
X39287142Y7164286D02*
X39287142Y6497620D01*
X39287142Y7069048D02*
X39334761Y7116667D01*
X39430000Y7164286D01*
X39572857Y7164286D01*
X39668095Y7116667D01*
X39715714Y7021429D01*
X39715714Y6497620D01*
X40191904Y7164286D02*
X40191904Y6497620D01*
X40191904Y7069048D02*
X40239523Y7116667D01*
X40334761Y7164286D01*
X40477619Y7164286D01*
X40572857Y7116667D01*
X40620476Y7021429D01*
X40620476Y6497620D01*
X41477619Y6545239D02*
X41382380Y6497620D01*
X41191904Y6497620D01*
X41096666Y6545239D01*
X41049047Y6640477D01*
X41049047Y7021429D01*
X41096666Y7116667D01*
X41191904Y7164286D01*
X41382380Y7164286D01*
X41477619Y7116667D01*
X41525238Y7021429D01*
X41525238Y6926191D01*
X41049047Y6830953D01*
X42382380Y6545239D02*
X42287142Y6497620D01*
X42096666Y6497620D01*
X42001428Y6545239D01*
X41953809Y6592858D01*
X41906190Y6688096D01*
X41906190Y6973810D01*
X41953809Y7069048D01*
X42001428Y7116667D01*
X42096666Y7164286D01*
X42287142Y7164286D01*
X42382380Y7116667D01*
X42668095Y7164286D02*
X43049047Y7164286D01*
X42810952Y7497620D02*
X42810952Y6640477D01*
X42858571Y6545239D01*
X42953809Y6497620D01*
X43049047Y6497620D01*
X43382380Y6497620D02*
X43382380Y7164286D01*
X43382380Y7497620D02*
X43334761Y7450000D01*
X43382380Y7402381D01*
X43430000Y7450000D01*
X43382380Y7497620D01*
X43382380Y7402381D01*
X44001428Y6497620D02*
X43906190Y6545239D01*
X43858571Y6592858D01*
X43810952Y6688096D01*
X43810952Y6973810D01*
X43858571Y7069048D01*
X43906190Y7116667D01*
X44001428Y7164286D01*
X44144285Y7164286D01*
X44239523Y7116667D01*
X44287142Y7069048D01*
X44334761Y6973810D01*
X44334761Y6688096D01*
X44287142Y6592858D01*
X44239523Y6545239D01*
X44144285Y6497620D01*
X44001428Y6497620D01*
X44763333Y7164286D02*
X44763333Y6497620D01*
X44763333Y7069048D02*
X44810952Y7116667D01*
X44906190Y7164286D01*
X45049047Y7164286D01*
X45144285Y7116667D01*
X45191904Y7021429D01*
X45191904Y6497620D01*
X46287142Y7164286D02*
X46668095Y7164286D01*
X46430000Y7497620D02*
X46430000Y6640477D01*
X46477619Y6545239D01*
X46572857Y6497620D01*
X46668095Y6497620D01*
X47144285Y6497620D02*
X47049047Y6545239D01*
X47001428Y6592858D01*
X46953809Y6688096D01*
X46953809Y6973810D01*
X47001428Y7069048D01*
X47049047Y7116667D01*
X47144285Y7164286D01*
X47287142Y7164286D01*
X47382380Y7116667D01*
X47430000Y7069048D01*
X47477619Y6973810D01*
X47477619Y6688096D01*
X47430000Y6592858D01*
X47382380Y6545239D01*
X47287142Y6497620D01*
X47144285Y6497620D01*
X48668095Y6497620D02*
X48668095Y7497620D01*
X49049047Y7497620D01*
X49144285Y7450000D01*
X49191904Y7402381D01*
X49239523Y7307143D01*
X49239523Y7164286D01*
X49191904Y7069048D01*
X49144285Y7021429D01*
X49049047Y6973810D01*
X48668095Y6973810D01*
X49668095Y7021429D02*
X50001428Y7021429D01*
X50144285Y6497620D02*
X49668095Y6497620D01*
X49668095Y7497620D01*
X50144285Y7497620D01*
D11*
X10600000Y60650000D02*
X11314285Y60650000D01*
X10457142Y60221429D02*
X10957142Y61721429D01*
X11457142Y60221429D01*
X11957142Y60221429D02*
X11957142Y61721429D01*
X12814285Y60221429D01*
X12814285Y61721429D01*
X13457142Y60650000D02*
X14171428Y60650000D01*
X13314285Y60221429D02*
X13814285Y61721429D01*
X14314285Y60221429D01*
X15528571Y60221429D02*
X14814285Y60221429D01*
X14814285Y61721429D01*
X16314285Y61721429D02*
X16600000Y61721429D01*
X16742857Y61650000D01*
X16885714Y61507143D01*
X16957142Y61221429D01*
X16957142Y60721429D01*
X16885714Y60435715D01*
X16742857Y60292858D01*
X16600000Y60221429D01*
X16314285Y60221429D01*
X16171428Y60292858D01*
X16028571Y60435715D01*
X15957142Y60721429D01*
X15957142Y61221429D01*
X16028571Y61507143D01*
X16171428Y61650000D01*
X16314285Y61721429D01*
X18385714Y61650000D02*
X18242857Y61721429D01*
X18028571Y61721429D01*
X17814285Y61650000D01*
X17671428Y61507143D01*
X17600000Y61364286D01*
X17528571Y61078572D01*
X17528571Y60864286D01*
X17600000Y60578572D01*
X17671428Y60435715D01*
X17814285Y60292858D01*
X18028571Y60221429D01*
X18171428Y60221429D01*
X18385714Y60292858D01*
X18457142Y60364286D01*
X18457142Y60864286D01*
X18171428Y60864286D01*
X20242857Y60221429D02*
X20242857Y61721429D01*
X20600000Y61721429D01*
X20814285Y61650000D01*
X20957142Y61507143D01*
X21028571Y61364286D01*
X21100000Y61078572D01*
X21100000Y60864286D01*
X21028571Y60578572D01*
X20957142Y60435715D01*
X20814285Y60292858D01*
X20600000Y60221429D01*
X20242857Y60221429D01*
X21742857Y60221429D02*
X21742857Y61721429D01*
X22385714Y60292858D02*
X22600000Y60221429D01*
X22957142Y60221429D01*
X23100000Y60292858D01*
X23171428Y60364286D01*
X23242857Y60507143D01*
X23242857Y60650000D01*
X23171428Y60792858D01*
X23100000Y60864286D01*
X22957142Y60935715D01*
X22671428Y61007143D01*
X22528571Y61078572D01*
X22457142Y61150000D01*
X22385714Y61292858D01*
X22385714Y61435715D01*
X22457142Y61578572D01*
X22528571Y61650000D01*
X22671428Y61721429D01*
X23028571Y61721429D01*
X23242857Y61650000D01*
X24742857Y60364286D02*
X24671428Y60292858D01*
X24457142Y60221429D01*
X24314285Y60221429D01*
X24100000Y60292858D01*
X23957142Y60435715D01*
X23885714Y60578572D01*
X23814285Y60864286D01*
X23814285Y61078572D01*
X23885714Y61364286D01*
X23957142Y61507143D01*
X24100000Y61650000D01*
X24314285Y61721429D01*
X24457142Y61721429D01*
X24671428Y61650000D01*
X24742857Y61578572D01*
X25671428Y61721429D02*
X25957142Y61721429D01*
X26100000Y61650000D01*
X26242857Y61507143D01*
X26314285Y61221429D01*
X26314285Y60721429D01*
X26242857Y60435715D01*
X26100000Y60292858D01*
X25957142Y60221429D01*
X25671428Y60221429D01*
X25528571Y60292858D01*
X25385714Y60435715D01*
X25314285Y60721429D01*
X25314285Y61221429D01*
X25385714Y61507143D01*
X25528571Y61650000D01*
X25671428Y61721429D01*
X26742857Y61721429D02*
X27242857Y60221429D01*
X27742857Y61721429D01*
X28242857Y61007143D02*
X28742857Y61007143D01*
X28957142Y60221429D02*
X28242857Y60221429D01*
X28242857Y61721429D01*
X28957142Y61721429D01*
X30457142Y60221429D02*
X29957142Y60935715D01*
X29600000Y60221429D02*
X29600000Y61721429D01*
X30171428Y61721429D01*
X30314285Y61650000D01*
X30385714Y61578572D01*
X30457142Y61435715D01*
X30457142Y61221429D01*
X30385714Y61078572D01*
X30314285Y61007143D01*
X30171428Y60935715D01*
X29600000Y60935715D01*
X31385714Y60935715D02*
X31385714Y60221429D01*
X30885714Y61721429D02*
X31385714Y60935715D01*
X31885714Y61721429D01*
X33385714Y61721429D02*
X34385714Y60221429D01*
X34385714Y61721429D02*
X33385714Y60221429D01*
X34885714Y61578572D02*
X34957142Y61650000D01*
X35100000Y61721429D01*
X35457142Y61721429D01*
X35600000Y61650000D01*
X35671428Y61578572D01*
X35742857Y61435715D01*
X35742857Y61292858D01*
X35671428Y61078572D01*
X34814285Y60221429D01*
X35742857Y60221429D01*
X36671428Y61721429D02*
X36814285Y61721429D01*
X36957142Y61650000D01*
X37028571Y61578572D01*
X37100000Y61435715D01*
X37171428Y61150000D01*
X37171428Y60792858D01*
X37100000Y60507143D01*
X37028571Y60364286D01*
X36957142Y60292858D01*
X36814285Y60221429D01*
X36671428Y60221429D01*
X36528571Y60292858D01*
X36457142Y60364286D01*
X36385714Y60507143D01*
X36314285Y60792858D01*
X36314285Y61150000D01*
X36385714Y61435715D01*
X36457142Y61578572D01*
X36528571Y61650000D01*
X36671428Y61721429D01*
X38957142Y60221429D02*
X38957142Y61721429D01*
X39457142Y60650000D01*
X39957142Y61721429D01*
X39957142Y60221429D01*
X40600000Y60650000D02*
X41314285Y60650000D01*
X40457142Y60221429D02*
X40957142Y61721429D01*
X41457142Y60221429D01*
X41957142Y60221429D02*
X41957142Y61721429D01*
X42671428Y60221429D02*
X42671428Y61721429D01*
X43528571Y60221429D01*
X43528571Y61721429D01*
X44171428Y60292858D02*
X44385714Y60221429D01*
X44742857Y60221429D01*
X44885714Y60292858D01*
X44957142Y60364286D01*
X45028571Y60507143D01*
X45028571Y60650000D01*
X44957142Y60792858D01*
X44885714Y60864286D01*
X44742857Y60935715D01*
X44457142Y61007143D01*
X44314285Y61078572D01*
X44242857Y61150000D01*
X44171428Y61292858D01*
X44171428Y61435715D01*
X44242857Y61578572D01*
X44314285Y61650000D01*
X44457142Y61721429D01*
X44814285Y61721429D01*
X45028571Y61650000D01*
X46814285Y60221429D02*
X46814285Y61721429D01*
X47385714Y61721429D01*
X47528571Y61650000D01*
X47600000Y61578572D01*
X47671428Y61435715D01*
X47671428Y61221429D01*
X47600000Y61078572D01*
X47528571Y61007143D01*
X47385714Y60935715D01*
X46814285Y60935715D01*
X49171428Y60221429D02*
X48671428Y60935715D01*
X48314285Y60221429D02*
X48314285Y61721429D01*
X48885714Y61721429D01*
X49028571Y61650000D01*
X49100000Y61578572D01*
X49171428Y61435715D01*
X49171428Y61221429D01*
X49100000Y61078572D01*
X49028571Y61007143D01*
X48885714Y60935715D01*
X48314285Y60935715D01*
X50100000Y61721429D02*
X50385714Y61721429D01*
X50528571Y61650000D01*
X50671428Y61507143D01*
X50742857Y61221429D01*
X50742857Y60721429D01*
X50671428Y60435715D01*
X50528571Y60292858D01*
X50385714Y60221429D01*
X50100000Y60221429D01*
X49957142Y60292858D01*
X49814285Y60435715D01*
X49742857Y60721429D01*
X49742857Y61221429D01*
X49814285Y61507143D01*
X49957142Y61650000D01*
X50100000Y61721429D01*
X51885714Y61007143D02*
X52100000Y60935715D01*
X52171428Y60864286D01*
X52242857Y60721429D01*
X52242857Y60507143D01*
X52171428Y60364286D01*
X52100000Y60292858D01*
X51957142Y60221429D01*
X51385714Y60221429D01*
X51385714Y61721429D01*
X51885714Y61721429D01*
X52028571Y61650000D01*
X52100000Y61578572D01*
X52171428Y61435715D01*
X52171428Y61292858D01*
X52100000Y61150000D01*
X52028571Y61078572D01*
X51885714Y61007143D01*
X51385714Y61007143D01*
X52885714Y61007143D02*
X53385714Y61007143D01*
X53600000Y60221429D02*
X52885714Y60221429D01*
X52885714Y61721429D01*
X53600000Y61721429D01*
X52392857Y11464286D02*
X52321428Y11392858D01*
X52107142Y11321429D01*
X51964285Y11321429D01*
X51750000Y11392858D01*
X51607142Y11535715D01*
X51535714Y11678572D01*
X51464285Y11964286D01*
X51464285Y12178572D01*
X51535714Y12464286D01*
X51607142Y12607143D01*
X51750000Y12750000D01*
X51964285Y12821429D01*
X52107142Y12821429D01*
X52321428Y12750000D01*
X52392857Y12678572D01*
X53035714Y11321429D02*
X53035714Y12821429D01*
X53035714Y12107143D02*
X53892857Y12107143D01*
X53892857Y11321429D02*
X53892857Y12821429D01*
X54535714Y11750000D02*
X55250000Y11750000D01*
X54392857Y11321429D02*
X54892857Y12821429D01*
X55392857Y11321429D01*
X55892857Y11321429D02*
X55892857Y12821429D01*
X56750000Y11321429D01*
X56750000Y12821429D01*
X57464285Y11321429D02*
X57464285Y12821429D01*
X58321428Y11321429D01*
X58321428Y12821429D01*
X59035714Y12107143D02*
X59535714Y12107143D01*
X59750000Y11321429D02*
X59035714Y11321429D01*
X59035714Y12821429D01*
X59750000Y12821429D01*
X61107142Y11321429D02*
X60392857Y11321429D01*
X60392857Y12821429D01*
X63535714Y11321429D02*
X62678571Y11321429D01*
X63107142Y11321429D02*
X63107142Y12821429D01*
X62964285Y12607143D01*
X62821428Y12464286D01*
X62678571Y12392858D01*
X52192857Y50914286D02*
X52121428Y50842858D01*
X51907142Y50771429D01*
X51764285Y50771429D01*
X51550000Y50842858D01*
X51407142Y50985715D01*
X51335714Y51128572D01*
X51264285Y51414286D01*
X51264285Y51628572D01*
X51335714Y51914286D01*
X51407142Y52057143D01*
X51550000Y52200000D01*
X51764285Y52271429D01*
X51907142Y52271429D01*
X52121428Y52200000D01*
X52192857Y52128572D01*
X52835714Y50771429D02*
X52835714Y52271429D01*
X52835714Y51557143D02*
X53692857Y51557143D01*
X53692857Y50771429D02*
X53692857Y52271429D01*
X54335714Y51200000D02*
X55050000Y51200000D01*
X54192857Y50771429D02*
X54692857Y52271429D01*
X55192857Y50771429D01*
X55692857Y50771429D02*
X55692857Y52271429D01*
X56550000Y50771429D01*
X56550000Y52271429D01*
X57264285Y50771429D02*
X57264285Y52271429D01*
X58121428Y50771429D01*
X58121428Y52271429D01*
X58835714Y51557143D02*
X59335714Y51557143D01*
X59550000Y50771429D02*
X58835714Y50771429D01*
X58835714Y52271429D01*
X59550000Y52271429D01*
X60907142Y50771429D02*
X60192857Y50771429D01*
X60192857Y52271429D01*
X62478571Y52128572D02*
X62550000Y52200000D01*
X62692857Y52271429D01*
X63050000Y52271429D01*
X63192857Y52200000D01*
X63264285Y52128572D01*
X63335714Y51985715D01*
X63335714Y51842858D01*
X63264285Y51628572D01*
X62407142Y50771429D01*
X63335714Y50771429D01*
D13*
X48793452Y46426191D02*
X48793452Y48026191D01*
X49936309Y46426191D01*
X49936309Y48026191D01*
X47079166Y41126191D02*
X47079166Y42726191D01*
X47841071Y42726191D01*
X48031547Y42650000D01*
X48126785Y42573810D01*
X48222023Y42421429D01*
X48222023Y42192858D01*
X48126785Y42040477D01*
X48031547Y41964286D01*
X47841071Y41888096D01*
X47079166Y41888096D01*
X49079166Y41964286D02*
X49745833Y41964286D01*
X50031547Y41126191D02*
X49079166Y41126191D01*
X49079166Y42726191D01*
X50031547Y42726191D01*
X49079166Y36283334D02*
X50031547Y36283334D01*
X48888690Y35826191D02*
X49555357Y37426191D01*
X50222023Y35826191D01*
X48968452Y25876191D02*
X48968452Y27476191D01*
X50111309Y25876191D01*
X50111309Y27476191D01*
X47254166Y20576191D02*
X47254166Y22176191D01*
X48016071Y22176191D01*
X48206547Y22100000D01*
X48301785Y22023810D01*
X48397023Y21871429D01*
X48397023Y21642858D01*
X48301785Y21490477D01*
X48206547Y21414286D01*
X48016071Y21338096D01*
X47254166Y21338096D01*
X49254166Y21414286D02*
X49920833Y21414286D01*
X50206547Y20576191D02*
X49254166Y20576191D01*
X49254166Y22176191D01*
X50206547Y22176191D01*
X49254166Y15733334D02*
X50206547Y15733334D01*
X49063690Y15276191D02*
X49730357Y16876191D01*
X50397023Y15276191D01*
D10*
X3739404Y53002381D02*
X3787023Y53050000D01*
X3882261Y53097620D01*
X4120357Y53097620D01*
X4215595Y53050000D01*
X4263214Y53002381D01*
X4310833Y52907143D01*
X4310833Y52811905D01*
X4263214Y52669048D01*
X3691785Y52097620D01*
X4310833Y52097620D01*
X6787023Y52097620D02*
X6215595Y52097620D01*
X6501309Y52097620D02*
X6501309Y53097620D01*
X6406071Y52954762D01*
X6310833Y52859524D01*
X6215595Y52811905D01*
D14*
X12230000Y7740000D02*
X12230000Y9070000D01*
X12230000Y9070000D02*
X13560000Y9070000D01*
X12230000Y6470000D02*
X14830000Y6470000D01*
X14830000Y6470000D02*
X14830000Y9070000D01*
X14830000Y9070000D02*
X19970000Y9070000D01*
X19970000Y3870000D02*
X19970000Y9070000D01*
X12230000Y3870000D02*
X19970000Y3870000D01*
X12230000Y3870000D02*
X12230000Y6470000D01*
X12630000Y43430000D02*
X13960000Y43430000D01*
X12630000Y42100000D02*
X12630000Y43430000D01*
X12630000Y40830000D02*
X15290000Y40830000D01*
X15290000Y40830000D02*
X15290000Y35690000D01*
X12630000Y40830000D02*
X12630000Y35690000D01*
X12630000Y35690000D02*
X15290000Y35690000D01*
X24970000Y34480000D02*
X21230000Y34480000D01*
X24970000Y41720000D02*
X21230000Y41720000D01*
X21230000Y41720000D02*
X21230000Y34480000D01*
X24970000Y41720000D02*
X24970000Y34480000D01*
X12630000Y20840000D02*
X13960000Y20840000D01*
X12630000Y19510000D02*
X12630000Y20840000D01*
X12630000Y18240000D02*
X15290000Y18240000D01*
X15290000Y18240000D02*
X15290000Y13100000D01*
X12630000Y18240000D02*
X12630000Y13100000D01*
X12630000Y13100000D02*
X15290000Y13100000D01*
X24720000Y12120000D02*
X20980000Y12120000D01*
X24720000Y19360000D02*
X20980000Y19360000D01*
X20980000Y19360000D02*
X20980000Y12120000D01*
X24720000Y19360000D02*
X24720000Y12120000D01*
X22820000Y48030000D02*
G75*
G03X22820000Y48030000I-4120000J0D01*
G01*
X22890000Y25130000D02*
G75*
G03X22890000Y25130000I-4120000J0D01*
G01*
D10*
X40450000Y45150000D02*
X45250000Y45150000D01*
X40450000Y52150000D02*
X45250000Y52150000D01*
X40450000Y45150000D02*
X40450000Y52150000D01*
X45250000Y45150000D02*
X45250000Y52150000D01*
D14*
X30410000Y44940000D02*
X28990000Y44940000D01*
X28990000Y45140000D02*
X25410000Y45140000D01*
X25410000Y45140000D02*
X25410000Y44940000D01*
X25410000Y44940000D02*
X23990000Y44940000D01*
X23990000Y44940000D02*
X23990000Y45140000D01*
X27710000Y52160000D02*
X29200000Y52160000D01*
X30510000Y50850000D02*
X30510000Y47310000D01*
X23890000Y46870000D02*
X23890000Y50850000D01*
X25200000Y52160000D02*
X26690000Y52160000D01*
X29200000Y52160000D02*
G75*
G02X30510000Y50850000I0J-1310000D01*
G01*
X23890000Y50850000D02*
G75*
G02X25200000Y52160000I1310000J0D01*
G01*
X28990000Y45140000D02*
X28990000Y44940000D01*
X30410000Y44940000D02*
X30410000Y45140000D01*
X30410000Y45140000D02*
X30510000Y45140000D01*
X30510000Y45140000D02*
X30510000Y45390000D01*
X23990000Y45140000D02*
X23890000Y45140000D01*
X23890000Y45140000D02*
X23890000Y45830000D01*
X30480000Y22340000D02*
X29060000Y22340000D01*
X29060000Y22540000D02*
X25480000Y22540000D01*
X25480000Y22540000D02*
X25480000Y22340000D01*
X25480000Y22340000D02*
X24060000Y22340000D01*
X24060000Y22340000D02*
X24060000Y22540000D01*
X27780000Y29560000D02*
X29270000Y29560000D01*
X30580000Y28250000D02*
X30580000Y24710000D01*
X23960000Y24270000D02*
X23960000Y28250000D01*
X25270000Y29560000D02*
X26760000Y29560000D01*
X29270000Y29560000D02*
G75*
G02X30580000Y28250000I0J-1310000D01*
G01*
X23960000Y28250000D02*
G75*
G02X25270000Y29560000I1310000J0D01*
G01*
X29060000Y22540000D02*
X29060000Y22340000D01*
X30480000Y22340000D02*
X30480000Y22540000D01*
X30480000Y22540000D02*
X30580000Y22540000D01*
X30580000Y22540000D02*
X30580000Y22790000D01*
X24060000Y22540000D02*
X23960000Y22540000D01*
X23960000Y22540000D02*
X23960000Y23230000D01*
D10*
X40520000Y22550000D02*
X45320000Y22550000D01*
X40520000Y29550000D02*
X45320000Y29550000D01*
X40520000Y22550000D02*
X40520000Y29550000D01*
X45320000Y22550000D02*
X45320000Y29550000D01*
D14*
X31770000Y41380000D02*
X31440000Y41380000D01*
X31770000Y34840000D02*
X31770000Y41380000D01*
X31440000Y34840000D02*
X31770000Y34840000D01*
X29030000Y41380000D02*
X29360000Y41380000D01*
X29030000Y34840000D02*
X29030000Y41380000D01*
X29360000Y34840000D02*
X29030000Y34840000D01*
X35330000Y34920000D02*
X35660000Y34920000D01*
X35330000Y41460000D02*
X35330000Y34920000D01*
X35660000Y41460000D02*
X35330000Y41460000D01*
X38070000Y34920000D02*
X37740000Y34920000D01*
X38070000Y41460000D02*
X38070000Y34920000D01*
X37740000Y41460000D02*
X38070000Y41460000D01*
X44270000Y41480000D02*
X43940000Y41480000D01*
X44270000Y34940000D02*
X44270000Y41480000D01*
X43940000Y34940000D02*
X44270000Y34940000D01*
X41530000Y41480000D02*
X41860000Y41480000D01*
X41530000Y34940000D02*
X41530000Y41480000D01*
X41860000Y34940000D02*
X41530000Y34940000D01*
X31840000Y18970000D02*
X31510000Y18970000D01*
X31840000Y12430000D02*
X31840000Y18970000D01*
X31510000Y12430000D02*
X31840000Y12430000D01*
X29100000Y18970000D02*
X29430000Y18970000D01*
X29100000Y12430000D02*
X29100000Y18970000D01*
X29430000Y12430000D02*
X29100000Y12430000D01*
X35450000Y12430000D02*
X35780000Y12430000D01*
X35450000Y18970000D02*
X35450000Y12430000D01*
X35780000Y18970000D02*
X35450000Y18970000D01*
X38190000Y12430000D02*
X37860000Y12430000D01*
X38190000Y18970000D02*
X38190000Y12430000D01*
X37860000Y18970000D02*
X38190000Y18970000D01*
X44540000Y18970000D02*
X44210000Y18970000D01*
X44540000Y12430000D02*
X44540000Y18970000D01*
X44210000Y12430000D02*
X44540000Y12430000D01*
X41800000Y18970000D02*
X42130000Y18970000D01*
X41800000Y12430000D02*
X41800000Y18970000D01*
X42130000Y12430000D02*
X41800000Y12430000D01*
X51225000Y49900000D02*
X51225000Y34000000D01*
X56275000Y49900000D02*
X51225000Y49900000D01*
X56025000Y49400000D02*
X56275000Y49900000D01*
X61425000Y49400000D02*
X56025000Y49400000D01*
X61175000Y49900000D02*
X61425000Y49400000D01*
X63175000Y49900000D02*
X61175000Y49900000D01*
X62875000Y49400000D02*
X63175000Y49900000D01*
X63825000Y49400000D02*
X62875000Y49400000D01*
X63825000Y34000000D02*
X63825000Y49400000D01*
X51225000Y34000000D02*
X63825000Y34000000D01*
X38021000Y44530000D02*
X33379000Y44530000D01*
X38021000Y52270000D02*
X33379000Y52270000D01*
X33379000Y52270000D02*
X33379000Y44530000D01*
X38021000Y52270000D02*
X38021000Y44530000D01*
X38091000Y21930000D02*
X33449000Y21930000D01*
X38091000Y29670000D02*
X33449000Y29670000D01*
X33449000Y29670000D02*
X33449000Y21930000D01*
X38091000Y29670000D02*
X38091000Y21930000D01*
X51300000Y29750000D02*
X51300000Y13850000D01*
X56350000Y29750000D02*
X51300000Y29750000D01*
X56100000Y29250000D02*
X56350000Y29750000D01*
X61500000Y29250000D02*
X56100000Y29250000D01*
X61250000Y29750000D02*
X61500000Y29250000D01*
X63250000Y29750000D02*
X61250000Y29750000D01*
X62950000Y29250000D02*
X63250000Y29750000D01*
X63900000Y29250000D02*
X62950000Y29250000D01*
X63900000Y13850000D02*
X63900000Y29250000D01*
X51300000Y13850000D02*
X63900000Y13850000D01*
X6500000Y51330000D02*
X7610000Y51330000D01*
X7610000Y51330000D02*
X7610000Y50000000D01*
X-6130000Y51330000D02*
X-6130000Y13110000D01*
X-6130000Y13110000D02*
X2500000Y13110000D01*
X2500000Y51330000D02*
X2500000Y13110000D01*
X-6130000Y51330000D02*
X2500000Y51330000D01*
X-6130000Y15710000D02*
X2500000Y15710000D01*
X-6130000Y18250000D02*
X2500000Y18250000D01*
X-6130000Y20790000D02*
X2500000Y20790000D01*
X-6130000Y23330000D02*
X2500000Y23330000D01*
X-6130000Y25870000D02*
X2500000Y25870000D01*
X-6130000Y28410000D02*
X2500000Y28410000D01*
X-6130000Y30950000D02*
X2500000Y30950000D01*
X-6130000Y33490000D02*
X2500000Y33490000D01*
X-6130000Y36030000D02*
X2500000Y36030000D01*
X-6130000Y38570000D02*
X2500000Y38570000D01*
X-6130000Y41110000D02*
X2500000Y41110000D01*
X-6130000Y43650000D02*
X2500000Y43650000D01*
X-6130000Y46190000D02*
X2500000Y46190000D01*
X-6130000Y48730000D02*
X2500000Y48730000D01*
X5010000Y14080000D02*
X5450000Y14080000D01*
X2500000Y14080000D02*
X2910000Y14080000D01*
X5010000Y14800000D02*
X5450000Y14800000D01*
X2500000Y14800000D02*
X2910000Y14800000D01*
X5010000Y16620000D02*
X5450000Y16620000D01*
X2500000Y16620000D02*
X2910000Y16620000D01*
X5010000Y17340000D02*
X5450000Y17340000D01*
X2500000Y17340000D02*
X2910000Y17340000D01*
X5010000Y19160000D02*
X5450000Y19160000D01*
X2500000Y19160000D02*
X2910000Y19160000D01*
X5010000Y19880000D02*
X5450000Y19880000D01*
X2500000Y19880000D02*
X2910000Y19880000D01*
X5010000Y21700000D02*
X5450000Y21700000D01*
X2500000Y21700000D02*
X2910000Y21700000D01*
X5010000Y22420000D02*
X5450000Y22420000D01*
X2500000Y22420000D02*
X2910000Y22420000D01*
X5010000Y24240000D02*
X5450000Y24240000D01*
X2500000Y24240000D02*
X2910000Y24240000D01*
X5010000Y24960000D02*
X5450000Y24960000D01*
X2500000Y24960000D02*
X2910000Y24960000D01*
X5010000Y26780000D02*
X5450000Y26780000D01*
X2500000Y26780000D02*
X2910000Y26780000D01*
X5010000Y27500000D02*
X5450000Y27500000D01*
X2500000Y27500000D02*
X2910000Y27500000D01*
X5010000Y29320000D02*
X5450000Y29320000D01*
X2500000Y29320000D02*
X2910000Y29320000D01*
X5010000Y30040000D02*
X5450000Y30040000D01*
X2500000Y30040000D02*
X2910000Y30040000D01*
X5010000Y31860000D02*
X5450000Y31860000D01*
X2500000Y31860000D02*
X2910000Y31860000D01*
X5010000Y32580000D02*
X5450000Y32580000D01*
X2500000Y32580000D02*
X2910000Y32580000D01*
X5010000Y34400000D02*
X5450000Y34400000D01*
X2500000Y34400000D02*
X2910000Y34400000D01*
X5010000Y35120000D02*
X5450000Y35120000D01*
X2500000Y35120000D02*
X2910000Y35120000D01*
X5010000Y36940000D02*
X5450000Y36940000D01*
X2500000Y36940000D02*
X2910000Y36940000D01*
X5010000Y37660000D02*
X5450000Y37660000D01*
X2500000Y37660000D02*
X2910000Y37660000D01*
X5010000Y39480000D02*
X5450000Y39480000D01*
X2500000Y39480000D02*
X2910000Y39480000D01*
X5010000Y40200000D02*
X5450000Y40200000D01*
X2500000Y40200000D02*
X2910000Y40200000D01*
X5010000Y42020000D02*
X5450000Y42020000D01*
X2500000Y42020000D02*
X2910000Y42020000D01*
X5010000Y42740000D02*
X5450000Y42740000D01*
X2500000Y42740000D02*
X2910000Y42740000D01*
X5010000Y44560000D02*
X5450000Y44560000D01*
X2500000Y44560000D02*
X2910000Y44560000D01*
X5010000Y45280000D02*
X5450000Y45280000D01*
X2500000Y45280000D02*
X2910000Y45280000D01*
X5010000Y47100000D02*
X5450000Y47100000D01*
X2500000Y47100000D02*
X2910000Y47100000D01*
X5010000Y47820000D02*
X5450000Y47820000D01*
X2500000Y47820000D02*
X2910000Y47820000D01*
X5010000Y49640000D02*
X5390000Y49640000D01*
X2500000Y49640000D02*
X2910000Y49640000D01*
X5010000Y50360000D02*
X5390000Y50360000D01*
X2500000Y50360000D02*
X2910000Y50360000D01*
X-6130000Y48848100D02*
X2500000Y48848100D01*
X-6130000Y48966195D02*
X2500000Y48966195D01*
X-6130000Y49084290D02*
X2500000Y49084290D01*
X-6130000Y49202385D02*
X2500000Y49202385D01*
X-6130000Y49320480D02*
X2500000Y49320480D01*
X-6130000Y49438575D02*
X2500000Y49438575D01*
X-6130000Y49556670D02*
X2500000Y49556670D01*
X-6130000Y49674765D02*
X2500000Y49674765D01*
X-6130000Y49792860D02*
X2500000Y49792860D01*
X-6130000Y49910955D02*
X2500000Y49910955D01*
X-6130000Y50029050D02*
X2500000Y50029050D01*
X-6130000Y50147145D02*
X2500000Y50147145D01*
X-6130000Y50265240D02*
X2500000Y50265240D01*
X-6130000Y50383335D02*
X2500000Y50383335D01*
X-6130000Y50501430D02*
X2500000Y50501430D01*
X-6130000Y50619525D02*
X2500000Y50619525D01*
X-6130000Y50737620D02*
X2500000Y50737620D01*
X-6130000Y50855715D02*
X2500000Y50855715D01*
X-6130000Y50973810D02*
X2500000Y50973810D01*
X-6130000Y51091905D02*
X2500000Y51091905D01*
X-6130000Y51210000D02*
X2500000Y51210000D01*
D10*
X10242380Y6136667D02*
X10956666Y6136667D01*
X11099523Y6089048D01*
X11194761Y5993810D01*
X11242380Y5850953D01*
X11242380Y5755715D01*
X10242380Y7041429D02*
X10242380Y6850953D01*
X10290000Y6755715D01*
X10337619Y6708096D01*
X10480476Y6612858D01*
X10670952Y6565239D01*
X11051904Y6565239D01*
X11147142Y6612858D01*
X11194761Y6660477D01*
X11242380Y6755715D01*
X11242380Y6946191D01*
X11194761Y7041429D01*
X11147142Y7089048D01*
X11051904Y7136667D01*
X10813809Y7136667D01*
X10718571Y7089048D01*
X10670952Y7041429D01*
X10623333Y6946191D01*
X10623333Y6755715D01*
X10670952Y6660477D01*
X10718571Y6612858D01*
X10813809Y6565239D01*
X13626666Y44977620D02*
X13626666Y44263334D01*
X13579047Y44120477D01*
X13483809Y44025239D01*
X13340952Y43977620D01*
X13245714Y43977620D01*
X14579047Y44977620D02*
X14102857Y44977620D01*
X14055238Y44501429D01*
X14102857Y44549048D01*
X14198095Y44596667D01*
X14436190Y44596667D01*
X14531428Y44549048D01*
X14579047Y44501429D01*
X14626666Y44406191D01*
X14626666Y44168096D01*
X14579047Y44072858D01*
X14531428Y44025239D01*
X14436190Y43977620D01*
X14198095Y43977620D01*
X14102857Y44025239D01*
X14055238Y44072858D01*
X20457142Y38033334D02*
X20504761Y37985715D01*
X20552380Y37842858D01*
X20552380Y37747620D01*
X20504761Y37604762D01*
X20409523Y37509524D01*
X20314285Y37461905D01*
X20123809Y37414286D01*
X19980952Y37414286D01*
X19790476Y37461905D01*
X19695238Y37509524D01*
X19600000Y37604762D01*
X19552380Y37747620D01*
X19552380Y37842858D01*
X19600000Y37985715D01*
X19647619Y38033334D01*
X19552380Y38890477D02*
X19552380Y38700000D01*
X19600000Y38604762D01*
X19647619Y38557143D01*
X19790476Y38461905D01*
X19980952Y38414286D01*
X20361904Y38414286D01*
X20457142Y38461905D01*
X20504761Y38509524D01*
X20552380Y38604762D01*
X20552380Y38795239D01*
X20504761Y38890477D01*
X20457142Y38938096D01*
X20361904Y38985715D01*
X20123809Y38985715D01*
X20028571Y38938096D01*
X19980952Y38890477D01*
X19933333Y38795239D01*
X19933333Y38604762D01*
X19980952Y38509524D01*
X20028571Y38461905D01*
X20123809Y38414286D01*
X13626666Y22387620D02*
X13626666Y21673334D01*
X13579047Y21530477D01*
X13483809Y21435239D01*
X13340952Y21387620D01*
X13245714Y21387620D01*
X14531428Y22054286D02*
X14531428Y21387620D01*
X14293333Y22435239D02*
X14055238Y21720953D01*
X14674285Y21720953D01*
X20157142Y15573334D02*
X20204761Y15525715D01*
X20252380Y15382858D01*
X20252380Y15287620D01*
X20204761Y15144762D01*
X20109523Y15049524D01*
X20014285Y15001905D01*
X19823809Y14954286D01*
X19680952Y14954286D01*
X19490476Y15001905D01*
X19395238Y15049524D01*
X19300000Y15144762D01*
X19252380Y15287620D01*
X19252380Y15382858D01*
X19300000Y15525715D01*
X19347619Y15573334D01*
X19252380Y16478096D02*
X19252380Y16001905D01*
X19728571Y15954286D01*
X19680952Y16001905D01*
X19633333Y16097143D01*
X19633333Y16335239D01*
X19680952Y16430477D01*
X19728571Y16478096D01*
X19823809Y16525715D01*
X20061904Y16525715D01*
X20157142Y16478096D01*
X20204761Y16430477D01*
X20252380Y16335239D01*
X20252380Y16097143D01*
X20204761Y16001905D01*
X20157142Y15954286D01*
X18633333Y53742858D02*
X18585714Y53695239D01*
X18442857Y53647620D01*
X18347619Y53647620D01*
X18204761Y53695239D01*
X18109523Y53790477D01*
X18061904Y53885715D01*
X18014285Y54076191D01*
X18014285Y54219048D01*
X18061904Y54409524D01*
X18109523Y54504762D01*
X18204761Y54600000D01*
X18347619Y54647620D01*
X18442857Y54647620D01*
X18585714Y54600000D01*
X18633333Y54552381D01*
X19490476Y54314286D02*
X19490476Y53647620D01*
X19252380Y54695239D02*
X19014285Y53980953D01*
X19633333Y53980953D01*
X18533333Y30642858D02*
X18485714Y30595239D01*
X18342857Y30547620D01*
X18247619Y30547620D01*
X18104761Y30595239D01*
X18009523Y30690477D01*
X17961904Y30785715D01*
X17914285Y30976191D01*
X17914285Y31119048D01*
X17961904Y31309524D01*
X18009523Y31404762D01*
X18104761Y31500000D01*
X18247619Y31547620D01*
X18342857Y31547620D01*
X18485714Y31500000D01*
X18533333Y31452381D01*
X18914285Y31452381D02*
X18961904Y31500000D01*
X19057142Y31547620D01*
X19295238Y31547620D01*
X19390476Y31500000D01*
X19438095Y31452381D01*
X19485714Y31357143D01*
X19485714Y31261905D01*
X19438095Y31119048D01*
X18866666Y30547620D01*
X19485714Y30547620D01*
X42404761Y52947620D02*
X42071428Y53423810D01*
X41833333Y52947620D02*
X41833333Y53947620D01*
X42214285Y53947620D01*
X42309523Y53900000D01*
X42357142Y53852381D01*
X42404761Y53757143D01*
X42404761Y53614286D01*
X42357142Y53519048D01*
X42309523Y53471429D01*
X42214285Y53423810D01*
X41833333Y53423810D01*
X42690476Y53947620D02*
X43023809Y52947620D01*
X43357142Y53947620D01*
X44119047Y53614286D02*
X44119047Y52947620D01*
X43880952Y53995239D02*
X43642857Y53280953D01*
X44261904Y53280953D01*
X26604761Y53147620D02*
X26271428Y53623810D01*
X26033333Y53147620D02*
X26033333Y54147620D01*
X26414285Y54147620D01*
X26509523Y54100000D01*
X26557142Y54052381D01*
X26604761Y53957143D01*
X26604761Y53814286D01*
X26557142Y53719048D01*
X26509523Y53671429D01*
X26414285Y53623810D01*
X26033333Y53623810D01*
X26890476Y54147620D02*
X27223809Y53147620D01*
X27557142Y54147620D01*
X27795238Y54147620D02*
X28414285Y54147620D01*
X28080952Y53766667D01*
X28223809Y53766667D01*
X28319047Y53719048D01*
X28366666Y53671429D01*
X28414285Y53576191D01*
X28414285Y53338096D01*
X28366666Y53242858D01*
X28319047Y53195239D01*
X28223809Y53147620D01*
X27938095Y53147620D01*
X27842857Y53195239D01*
X27795238Y53242858D01*
X26704761Y30347620D02*
X26371428Y30823810D01*
X26133333Y30347620D02*
X26133333Y31347620D01*
X26514285Y31347620D01*
X26609523Y31300000D01*
X26657142Y31252381D01*
X26704761Y31157143D01*
X26704761Y31014286D01*
X26657142Y30919048D01*
X26609523Y30871429D01*
X26514285Y30823810D01*
X26133333Y30823810D01*
X26990476Y31347620D02*
X27323809Y30347620D01*
X27657142Y31347620D01*
X27942857Y31252381D02*
X27990476Y31300000D01*
X28085714Y31347620D01*
X28323809Y31347620D01*
X28419047Y31300000D01*
X28466666Y31252381D01*
X28514285Y31157143D01*
X28514285Y31061905D01*
X28466666Y30919048D01*
X27895238Y30347620D01*
X28514285Y30347620D01*
X42204761Y29947620D02*
X41871428Y30423810D01*
X41633333Y29947620D02*
X41633333Y30947620D01*
X42014285Y30947620D01*
X42109523Y30900000D01*
X42157142Y30852381D01*
X42204761Y30757143D01*
X42204761Y30614286D01*
X42157142Y30519048D01*
X42109523Y30471429D01*
X42014285Y30423810D01*
X41633333Y30423810D01*
X42490476Y30947620D02*
X42823809Y29947620D01*
X43157142Y30947620D01*
X44014285Y29947620D02*
X43442857Y29947620D01*
X43728571Y29947620D02*
X43728571Y30947620D01*
X43633333Y30804762D01*
X43538095Y30709524D01*
X43442857Y30661905D01*
X28482380Y37943334D02*
X28006190Y37610000D01*
X28482380Y37371905D02*
X27482380Y37371905D01*
X27482380Y37752858D01*
X27530000Y37848096D01*
X27577619Y37895715D01*
X27672857Y37943334D01*
X27815714Y37943334D01*
X27910952Y37895715D01*
X27958571Y37848096D01*
X28006190Y37752858D01*
X28006190Y37371905D01*
X27482380Y38800477D02*
X27482380Y38610000D01*
X27530000Y38514762D01*
X27577619Y38467143D01*
X27720476Y38371905D01*
X27910952Y38324286D01*
X28291904Y38324286D01*
X28387142Y38371905D01*
X28434761Y38419524D01*
X28482380Y38514762D01*
X28482380Y38705239D01*
X28434761Y38800477D01*
X28387142Y38848096D01*
X28291904Y38895715D01*
X28053809Y38895715D01*
X27958571Y38848096D01*
X27910952Y38800477D01*
X27863333Y38705239D01*
X27863333Y38514762D01*
X27910952Y38419524D01*
X27958571Y38371905D01*
X28053809Y38324286D01*
X34752380Y38033334D02*
X34276190Y37700000D01*
X34752380Y37461905D02*
X33752380Y37461905D01*
X33752380Y37842858D01*
X33800000Y37938096D01*
X33847619Y37985715D01*
X33942857Y38033334D01*
X34085714Y38033334D01*
X34180952Y37985715D01*
X34228571Y37938096D01*
X34276190Y37842858D01*
X34276190Y37461905D01*
X33752380Y38938096D02*
X33752380Y38461905D01*
X34228571Y38414286D01*
X34180952Y38461905D01*
X34133333Y38557143D01*
X34133333Y38795239D01*
X34180952Y38890477D01*
X34228571Y38938096D01*
X34323809Y38985715D01*
X34561904Y38985715D01*
X34657142Y38938096D01*
X34704761Y38890477D01*
X34752380Y38795239D01*
X34752380Y38557143D01*
X34704761Y38461905D01*
X34657142Y38414286D01*
X40982380Y38043334D02*
X40506190Y37710000D01*
X40982380Y37471905D02*
X39982380Y37471905D01*
X39982380Y37852858D01*
X40030000Y37948096D01*
X40077619Y37995715D01*
X40172857Y38043334D01*
X40315714Y38043334D01*
X40410952Y37995715D01*
X40458571Y37948096D01*
X40506190Y37852858D01*
X40506190Y37471905D01*
X40315714Y38900477D02*
X40982380Y38900477D01*
X39934761Y38662381D02*
X40649047Y38424286D01*
X40649047Y39043334D01*
X28552380Y15533334D02*
X28076190Y15200000D01*
X28552380Y14961905D02*
X27552380Y14961905D01*
X27552380Y15342858D01*
X27600000Y15438096D01*
X27647619Y15485715D01*
X27742857Y15533334D01*
X27885714Y15533334D01*
X27980952Y15485715D01*
X28028571Y15438096D01*
X28076190Y15342858D01*
X28076190Y14961905D01*
X27552380Y15866667D02*
X27552380Y16485715D01*
X27933333Y16152381D01*
X27933333Y16295239D01*
X27980952Y16390477D01*
X28028571Y16438096D01*
X28123809Y16485715D01*
X28361904Y16485715D01*
X28457142Y16438096D01*
X28504761Y16390477D01*
X28552380Y16295239D01*
X28552380Y16009524D01*
X28504761Y15914286D01*
X28457142Y15866667D01*
X34852380Y15433334D02*
X34376190Y15100000D01*
X34852380Y14861905D02*
X33852380Y14861905D01*
X33852380Y15242858D01*
X33900000Y15338096D01*
X33947619Y15385715D01*
X34042857Y15433334D01*
X34185714Y15433334D01*
X34280952Y15385715D01*
X34328571Y15338096D01*
X34376190Y15242858D01*
X34376190Y14861905D01*
X33947619Y15814286D02*
X33900000Y15861905D01*
X33852380Y15957143D01*
X33852380Y16195239D01*
X33900000Y16290477D01*
X33947619Y16338096D01*
X34042857Y16385715D01*
X34138095Y16385715D01*
X34280952Y16338096D01*
X34852380Y15766667D01*
X34852380Y16385715D01*
X41252380Y15533334D02*
X40776190Y15200000D01*
X41252380Y14961905D02*
X40252380Y14961905D01*
X40252380Y15342858D01*
X40300000Y15438096D01*
X40347619Y15485715D01*
X40442857Y15533334D01*
X40585714Y15533334D01*
X40680952Y15485715D01*
X40728571Y15438096D01*
X40776190Y15342858D01*
X40776190Y14961905D01*
X41252380Y16485715D02*
X41252380Y15914286D01*
X41252380Y16200000D02*
X40252380Y16200000D01*
X40395238Y16104762D01*
X40490476Y16009524D01*
X40538095Y15914286D01*
X57141666Y33397620D02*
X57141666Y32683334D01*
X57094047Y32540477D01*
X56998809Y32445239D01*
X56855952Y32397620D01*
X56760714Y32397620D01*
X57522619Y33397620D02*
X58141666Y33397620D01*
X57808333Y33016667D01*
X57951190Y33016667D01*
X58046428Y32969048D01*
X58094047Y32921429D01*
X58141666Y32826191D01*
X58141666Y32588096D01*
X58094047Y32492858D01*
X58046428Y32445239D01*
X57951190Y32397620D01*
X57665476Y32397620D01*
X57570238Y32445239D01*
X57522619Y32492858D01*
X35433333Y53117858D02*
X35385714Y53070239D01*
X35242857Y53022620D01*
X35147619Y53022620D01*
X35004761Y53070239D01*
X34909523Y53165477D01*
X34861904Y53260715D01*
X34814285Y53451191D01*
X34814285Y53594048D01*
X34861904Y53784524D01*
X34909523Y53879762D01*
X35004761Y53975000D01*
X35147619Y54022620D01*
X35242857Y54022620D01*
X35385714Y53975000D01*
X35433333Y53927381D01*
X35766666Y54022620D02*
X36385714Y54022620D01*
X36052380Y53641667D01*
X36195238Y53641667D01*
X36290476Y53594048D01*
X36338095Y53546429D01*
X36385714Y53451191D01*
X36385714Y53213096D01*
X36338095Y53117858D01*
X36290476Y53070239D01*
X36195238Y53022620D01*
X35909523Y53022620D01*
X35814285Y53070239D01*
X35766666Y53117858D01*
X35503333Y30467858D02*
X35455714Y30420239D01*
X35312857Y30372620D01*
X35217619Y30372620D01*
X35074761Y30420239D01*
X34979523Y30515477D01*
X34931904Y30610715D01*
X34884285Y30801191D01*
X34884285Y30944048D01*
X34931904Y31134524D01*
X34979523Y31229762D01*
X35074761Y31325000D01*
X35217619Y31372620D01*
X35312857Y31372620D01*
X35455714Y31325000D01*
X35503333Y31277381D01*
X36455714Y30372620D02*
X35884285Y30372620D01*
X36170000Y30372620D02*
X36170000Y31372620D01*
X36074761Y31229762D01*
X35979523Y31134524D01*
X35884285Y31086905D01*
X57166666Y31147620D02*
X57166666Y30433334D01*
X57119047Y30290477D01*
X57023809Y30195239D01*
X56880952Y30147620D01*
X56785714Y30147620D01*
X57595238Y31052381D02*
X57642857Y31100000D01*
X57738095Y31147620D01*
X57976190Y31147620D01*
X58071428Y31100000D01*
X58119047Y31052381D01*
X58166666Y30957143D01*
X58166666Y30861905D01*
X58119047Y30719048D01*
X57547619Y30147620D01*
X58166666Y30147620D01*
X516666Y53317620D02*
X516666Y52603334D01*
X469047Y52460477D01*
X373809Y52365239D01*
X230952Y52317620D01*
X135714Y52317620D01*
X1516666Y52317620D02*
X945238Y52317620D01*
X1230952Y52317620D02*
X1230952Y53317620D01*
X1135714Y53174762D01*
X1040476Y53079524D01*
X945238Y53031905D01*
M02*
