G04 #@! TF.GenerationSoftware,KiCad,Pcbnew,(5.1.2)-1*
G04 #@! TF.CreationDate,2019-10-08T11:37:34+11:00*
G04 #@! TF.ProjectId,AnalogDiscovery_x20_powerMainsProbe,416e616c-6f67-4446-9973-636f76657279,rev?*
G04 #@! TF.SameCoordinates,PX69618a0PY7bfa480*
G04 #@! TF.FileFunction,Soldermask,Top*
G04 #@! TF.FilePolarity,Negative*
%FSLAX46Y46*%
G04 Gerber Fmt 4.6, Leading zero omitted, Abs format (unit mm)*
G04 Created by KiCad (PCBNEW (5.1.2)-1) date 2019-10-08 11:37:34*
%MOMM*%
%LPD*%
G04 APERTURE LIST*
%ADD10C,0.100000*%
G04 APERTURE END LIST*
D10*
G36*
X58642007Y8116418D02*
G01*
X59042563Y7950502D01*
X59042565Y7950501D01*
X59403056Y7709629D01*
X59709629Y7403056D01*
X59950501Y7042565D01*
X59950502Y7042563D01*
X60116418Y6642007D01*
X60201000Y6216781D01*
X60201000Y5783219D01*
X60116418Y5357993D01*
X59950502Y4957437D01*
X59950501Y4957435D01*
X59709629Y4596944D01*
X59403056Y4290371D01*
X59042565Y4049499D01*
X59042564Y4049498D01*
X59042563Y4049498D01*
X58642007Y3883582D01*
X58216781Y3799000D01*
X57783219Y3799000D01*
X57357993Y3883582D01*
X56957437Y4049498D01*
X56957436Y4049498D01*
X56957435Y4049499D01*
X56596944Y4290371D01*
X56290371Y4596944D01*
X56049499Y4957435D01*
X56049498Y4957437D01*
X55883582Y5357993D01*
X55799000Y5783219D01*
X55799000Y6216781D01*
X55883582Y6642007D01*
X56049498Y7042563D01*
X56049499Y7042565D01*
X56290371Y7403056D01*
X56596944Y7709629D01*
X56957435Y7950501D01*
X56957437Y7950502D01*
X57357993Y8116418D01*
X57783219Y8201000D01*
X58216781Y8201000D01*
X58642007Y8116418D01*
X58642007Y8116418D01*
G37*
G36*
X6642007Y8116418D02*
G01*
X7042563Y7950502D01*
X7042565Y7950501D01*
X7403056Y7709629D01*
X7709629Y7403056D01*
X7950501Y7042565D01*
X7950502Y7042563D01*
X8116418Y6642007D01*
X8201000Y6216781D01*
X8201000Y5783219D01*
X8116418Y5357993D01*
X7950502Y4957437D01*
X7950501Y4957435D01*
X7709629Y4596944D01*
X7403056Y4290371D01*
X7042565Y4049499D01*
X7042564Y4049498D01*
X7042563Y4049498D01*
X6642007Y3883582D01*
X6216781Y3799000D01*
X5783219Y3799000D01*
X5357993Y3883582D01*
X4957437Y4049498D01*
X4957436Y4049498D01*
X4957435Y4049499D01*
X4596944Y4290371D01*
X4290371Y4596944D01*
X4049499Y4957435D01*
X4049498Y4957437D01*
X3883582Y5357993D01*
X3799000Y5783219D01*
X3799000Y6216781D01*
X3883582Y6642007D01*
X4049498Y7042563D01*
X4049499Y7042565D01*
X4290371Y7403056D01*
X4596944Y7709629D01*
X4957435Y7950501D01*
X4957437Y7950502D01*
X5357993Y8116418D01*
X5783219Y8201000D01*
X6216781Y8201000D01*
X6642007Y8116418D01*
X6642007Y8116418D01*
G37*
G36*
X13670442Y6094482D02*
G01*
X13736627Y6087963D01*
X13906466Y6036443D01*
X14062991Y5952778D01*
X14098729Y5923448D01*
X14200186Y5840186D01*
X14283448Y5738729D01*
X14312778Y5702991D01*
X14396443Y5546466D01*
X14447963Y5376627D01*
X14465359Y5200000D01*
X14447963Y5023373D01*
X14396443Y4853534D01*
X14312778Y4697009D01*
X14283448Y4661271D01*
X14200186Y4559814D01*
X14098729Y4476552D01*
X14062991Y4447222D01*
X13906466Y4363557D01*
X13736627Y4312037D01*
X13670442Y4305518D01*
X13604260Y4299000D01*
X13515740Y4299000D01*
X13449558Y4305518D01*
X13383373Y4312037D01*
X13213534Y4363557D01*
X13057009Y4447222D01*
X13021271Y4476552D01*
X12919814Y4559814D01*
X12836552Y4661271D01*
X12807222Y4697009D01*
X12723557Y4853534D01*
X12672037Y5023373D01*
X12654641Y5200000D01*
X12672037Y5376627D01*
X12723557Y5546466D01*
X12807222Y5702991D01*
X12836552Y5738729D01*
X12919814Y5840186D01*
X13021271Y5923448D01*
X13057009Y5952778D01*
X13213534Y6036443D01*
X13383373Y6087963D01*
X13449558Y6094482D01*
X13515740Y6101000D01*
X13604260Y6101000D01*
X13670442Y6094482D01*
X13670442Y6094482D01*
G37*
G36*
X16210442Y6094482D02*
G01*
X16276627Y6087963D01*
X16446466Y6036443D01*
X16602991Y5952778D01*
X16638729Y5923448D01*
X16740186Y5840186D01*
X16823448Y5738729D01*
X16852778Y5702991D01*
X16936443Y5546466D01*
X16987963Y5376627D01*
X17005359Y5200000D01*
X16987963Y5023373D01*
X16936443Y4853534D01*
X16852778Y4697009D01*
X16823448Y4661271D01*
X16740186Y4559814D01*
X16638729Y4476552D01*
X16602991Y4447222D01*
X16446466Y4363557D01*
X16276627Y4312037D01*
X16210442Y4305518D01*
X16144260Y4299000D01*
X16055740Y4299000D01*
X15989558Y4305518D01*
X15923373Y4312037D01*
X15753534Y4363557D01*
X15597009Y4447222D01*
X15561271Y4476552D01*
X15459814Y4559814D01*
X15376552Y4661271D01*
X15347222Y4697009D01*
X15263557Y4853534D01*
X15212037Y5023373D01*
X15194641Y5200000D01*
X15212037Y5376627D01*
X15263557Y5546466D01*
X15347222Y5702991D01*
X15376552Y5738729D01*
X15459814Y5840186D01*
X15561271Y5923448D01*
X15597009Y5952778D01*
X15753534Y6036443D01*
X15923373Y6087963D01*
X15989558Y6094482D01*
X16055740Y6101000D01*
X16144260Y6101000D01*
X16210442Y6094482D01*
X16210442Y6094482D01*
G37*
G36*
X18750442Y6094482D02*
G01*
X18816627Y6087963D01*
X18986466Y6036443D01*
X19142991Y5952778D01*
X19178729Y5923448D01*
X19280186Y5840186D01*
X19363448Y5738729D01*
X19392778Y5702991D01*
X19476443Y5546466D01*
X19527963Y5376627D01*
X19545359Y5200000D01*
X19527963Y5023373D01*
X19476443Y4853534D01*
X19392778Y4697009D01*
X19363448Y4661271D01*
X19280186Y4559814D01*
X19178729Y4476552D01*
X19142991Y4447222D01*
X18986466Y4363557D01*
X18816627Y4312037D01*
X18750442Y4305518D01*
X18684260Y4299000D01*
X18595740Y4299000D01*
X18529558Y4305518D01*
X18463373Y4312037D01*
X18293534Y4363557D01*
X18137009Y4447222D01*
X18101271Y4476552D01*
X17999814Y4559814D01*
X17916552Y4661271D01*
X17887222Y4697009D01*
X17803557Y4853534D01*
X17752037Y5023373D01*
X17734641Y5200000D01*
X17752037Y5376627D01*
X17803557Y5546466D01*
X17887222Y5702991D01*
X17916552Y5738729D01*
X17999814Y5840186D01*
X18101271Y5923448D01*
X18137009Y5952778D01*
X18293534Y6036443D01*
X18463373Y6087963D01*
X18529558Y6094482D01*
X18595740Y6101000D01*
X18684260Y6101000D01*
X18750442Y6094482D01*
X18750442Y6094482D01*
G37*
G36*
X14461000Y6839000D02*
G01*
X12659000Y6839000D01*
X12659000Y8641000D01*
X14461000Y8641000D01*
X14461000Y6839000D01*
X14461000Y6839000D01*
G37*
G36*
X16210442Y8634482D02*
G01*
X16276627Y8627963D01*
X16446466Y8576443D01*
X16602991Y8492778D01*
X16638729Y8463448D01*
X16740186Y8380186D01*
X16823448Y8278729D01*
X16852778Y8242991D01*
X16936443Y8086466D01*
X16987963Y7916627D01*
X17005359Y7740000D01*
X16987963Y7563373D01*
X16936443Y7393534D01*
X16852778Y7237009D01*
X16823448Y7201271D01*
X16740186Y7099814D01*
X16670424Y7042563D01*
X16602991Y6987222D01*
X16446466Y6903557D01*
X16276627Y6852037D01*
X16210442Y6845518D01*
X16144260Y6839000D01*
X16055740Y6839000D01*
X15989558Y6845518D01*
X15923373Y6852037D01*
X15753534Y6903557D01*
X15597009Y6987222D01*
X15529576Y7042563D01*
X15459814Y7099814D01*
X15376552Y7201271D01*
X15347222Y7237009D01*
X15263557Y7393534D01*
X15212037Y7563373D01*
X15194641Y7740000D01*
X15212037Y7916627D01*
X15263557Y8086466D01*
X15347222Y8242991D01*
X15376552Y8278729D01*
X15459814Y8380186D01*
X15561271Y8463448D01*
X15597009Y8492778D01*
X15753534Y8576443D01*
X15923373Y8627963D01*
X15989558Y8634482D01*
X16055740Y8641000D01*
X16144260Y8641000D01*
X16210442Y8634482D01*
X16210442Y8634482D01*
G37*
G36*
X18750442Y8634482D02*
G01*
X18816627Y8627963D01*
X18986466Y8576443D01*
X19142991Y8492778D01*
X19178729Y8463448D01*
X19280186Y8380186D01*
X19363448Y8278729D01*
X19392778Y8242991D01*
X19476443Y8086466D01*
X19527963Y7916627D01*
X19545359Y7740000D01*
X19527963Y7563373D01*
X19476443Y7393534D01*
X19392778Y7237009D01*
X19363448Y7201271D01*
X19280186Y7099814D01*
X19210424Y7042563D01*
X19142991Y6987222D01*
X18986466Y6903557D01*
X18816627Y6852037D01*
X18750442Y6845518D01*
X18684260Y6839000D01*
X18595740Y6839000D01*
X18529558Y6845518D01*
X18463373Y6852037D01*
X18293534Y6903557D01*
X18137009Y6987222D01*
X18069576Y7042563D01*
X17999814Y7099814D01*
X17916552Y7201271D01*
X17887222Y7237009D01*
X17803557Y7393534D01*
X17752037Y7563373D01*
X17734641Y7740000D01*
X17752037Y7916627D01*
X17803557Y8086466D01*
X17887222Y8242991D01*
X17916552Y8278729D01*
X17999814Y8380186D01*
X18101271Y8463448D01*
X18137009Y8492778D01*
X18293534Y8576443D01*
X18463373Y8627963D01*
X18529558Y8634482D01*
X18595740Y8641000D01*
X18684260Y8641000D01*
X18750442Y8634482D01*
X18750442Y8634482D01*
G37*
G36*
X43418228Y12708297D02*
G01*
X43573100Y12644147D01*
X43712481Y12551015D01*
X43831015Y12432481D01*
X43924147Y12293100D01*
X43988297Y12138228D01*
X44021000Y11973816D01*
X44021000Y11806184D01*
X43988297Y11641772D01*
X43924147Y11486900D01*
X43831015Y11347519D01*
X43712481Y11228985D01*
X43573100Y11135853D01*
X43418228Y11071703D01*
X43253816Y11039000D01*
X43086184Y11039000D01*
X42921772Y11071703D01*
X42766900Y11135853D01*
X42627519Y11228985D01*
X42508985Y11347519D01*
X42415853Y11486900D01*
X42351703Y11641772D01*
X42319000Y11806184D01*
X42319000Y11973816D01*
X42351703Y12138228D01*
X42415853Y12293100D01*
X42508985Y12432481D01*
X42627519Y12551015D01*
X42766900Y12644147D01*
X42921772Y12708297D01*
X43086184Y12741000D01*
X43253816Y12741000D01*
X43418228Y12708297D01*
X43418228Y12708297D01*
G37*
G36*
X36986823Y12728687D02*
G01*
X37147242Y12680024D01*
X37214361Y12644148D01*
X37295078Y12601004D01*
X37424659Y12494659D01*
X37531004Y12365078D01*
X37531005Y12365076D01*
X37610024Y12217242D01*
X37658687Y12056823D01*
X37675117Y11890000D01*
X37658687Y11723177D01*
X37610024Y11562758D01*
X37569477Y11486900D01*
X37531004Y11414922D01*
X37424659Y11285341D01*
X37295078Y11178996D01*
X37295076Y11178995D01*
X37147242Y11099976D01*
X36986823Y11051313D01*
X36861804Y11039000D01*
X36778196Y11039000D01*
X36653177Y11051313D01*
X36492758Y11099976D01*
X36344924Y11178995D01*
X36344922Y11178996D01*
X36215341Y11285341D01*
X36108996Y11414922D01*
X36070523Y11486900D01*
X36029976Y11562758D01*
X35981313Y11723177D01*
X35964883Y11890000D01*
X35981313Y12056823D01*
X36029976Y12217242D01*
X36108995Y12365076D01*
X36108996Y12365078D01*
X36215341Y12494659D01*
X36344922Y12601004D01*
X36425639Y12644148D01*
X36492758Y12680024D01*
X36653177Y12728687D01*
X36778196Y12741000D01*
X36861804Y12741000D01*
X36986823Y12728687D01*
X36986823Y12728687D01*
G37*
G36*
X30718228Y12708297D02*
G01*
X30873100Y12644147D01*
X31012481Y12551015D01*
X31131015Y12432481D01*
X31224147Y12293100D01*
X31288297Y12138228D01*
X31321000Y11973816D01*
X31321000Y11806184D01*
X31288297Y11641772D01*
X31224147Y11486900D01*
X31131015Y11347519D01*
X31012481Y11228985D01*
X30873100Y11135853D01*
X30718228Y11071703D01*
X30553816Y11039000D01*
X30386184Y11039000D01*
X30221772Y11071703D01*
X30066900Y11135853D01*
X29927519Y11228985D01*
X29808985Y11347519D01*
X29715853Y11486900D01*
X29651703Y11641772D01*
X29619000Y11806184D01*
X29619000Y11973816D01*
X29651703Y12138228D01*
X29715853Y12293100D01*
X29808985Y12432481D01*
X29927519Y12551015D01*
X30066900Y12644147D01*
X30221772Y12708297D01*
X30386184Y12741000D01*
X30553816Y12741000D01*
X30718228Y12708297D01*
X30718228Y12708297D01*
G37*
G36*
X23098228Y14058297D02*
G01*
X23253100Y13994147D01*
X23392481Y13901015D01*
X23511015Y13782481D01*
X23604147Y13643100D01*
X23668297Y13488228D01*
X23701000Y13323816D01*
X23701000Y13156184D01*
X23668297Y12991772D01*
X23604147Y12836900D01*
X23511015Y12697519D01*
X23392481Y12578985D01*
X23253100Y12485853D01*
X23098228Y12421703D01*
X22933816Y12389000D01*
X22766184Y12389000D01*
X22601772Y12421703D01*
X22446900Y12485853D01*
X22307519Y12578985D01*
X22188985Y12697519D01*
X22095853Y12836900D01*
X22031703Y12991772D01*
X21999000Y13156184D01*
X21999000Y13323816D01*
X22031703Y13488228D01*
X22095853Y13643100D01*
X22188985Y13782481D01*
X22307519Y13901015D01*
X22446900Y13994147D01*
X22601772Y14058297D01*
X22766184Y14091000D01*
X22933816Y14091000D01*
X23098228Y14058297D01*
X23098228Y14058297D01*
G37*
G36*
X14070443Y15324481D02*
G01*
X14136627Y15317963D01*
X14306466Y15266443D01*
X14462991Y15182778D01*
X14498729Y15153448D01*
X14600186Y15070186D01*
X14683448Y14968729D01*
X14712778Y14932991D01*
X14796443Y14776466D01*
X14847963Y14606627D01*
X14865359Y14430000D01*
X14847963Y14253373D01*
X14796443Y14083534D01*
X14712778Y13927009D01*
X14691445Y13901015D01*
X14600186Y13789814D01*
X14498729Y13706552D01*
X14462991Y13677222D01*
X14462989Y13677221D01*
X14325177Y13603558D01*
X14306466Y13593557D01*
X14136627Y13542037D01*
X14070442Y13535518D01*
X14004260Y13529000D01*
X13915740Y13529000D01*
X13849558Y13535518D01*
X13783373Y13542037D01*
X13613534Y13593557D01*
X13594824Y13603558D01*
X13457011Y13677221D01*
X13457009Y13677222D01*
X13421271Y13706552D01*
X13319814Y13789814D01*
X13228555Y13901015D01*
X13207222Y13927009D01*
X13123557Y14083534D01*
X13072037Y14253373D01*
X13054641Y14430000D01*
X13072037Y14606627D01*
X13123557Y14776466D01*
X13207222Y14932991D01*
X13236552Y14968729D01*
X13319814Y15070186D01*
X13421271Y15153448D01*
X13457009Y15182778D01*
X13613534Y15266443D01*
X13783373Y15317963D01*
X13849557Y15324481D01*
X13915740Y15331000D01*
X14004260Y15331000D01*
X14070443Y15324481D01*
X14070443Y15324481D01*
G37*
G36*
X4070443Y15334481D02*
G01*
X4136627Y15327963D01*
X4306466Y15276443D01*
X4306468Y15276442D01*
X4384728Y15234611D01*
X4462991Y15192778D01*
X4498729Y15163448D01*
X4600186Y15080186D01*
X4683448Y14978729D01*
X4712778Y14942991D01*
X4796443Y14786466D01*
X4847963Y14616627D01*
X4865359Y14440000D01*
X4847963Y14263373D01*
X4796443Y14093534D01*
X4712778Y13937009D01*
X4704571Y13927009D01*
X4600186Y13799814D01*
X4498729Y13716552D01*
X4462991Y13687222D01*
X4306466Y13603557D01*
X4136627Y13552037D01*
X4070443Y13545519D01*
X4004260Y13539000D01*
X3915740Y13539000D01*
X3849557Y13545519D01*
X3783373Y13552037D01*
X3613534Y13603557D01*
X3457009Y13687222D01*
X3421271Y13716552D01*
X3319814Y13799814D01*
X3215429Y13927009D01*
X3207222Y13937009D01*
X3123557Y14093534D01*
X3072037Y14263373D01*
X3054641Y14440000D01*
X3072037Y14616627D01*
X3123557Y14786466D01*
X3207222Y14942991D01*
X3236552Y14978729D01*
X3319814Y15080186D01*
X3421271Y15163448D01*
X3457009Y15192778D01*
X3535272Y15234611D01*
X3613532Y15276442D01*
X3613534Y15276443D01*
X3783373Y15327963D01*
X3849557Y15334481D01*
X3915740Y15341000D01*
X4004260Y15341000D01*
X4070443Y15334481D01*
X4070443Y15334481D01*
G37*
G36*
X6610443Y15334481D02*
G01*
X6676627Y15327963D01*
X6846466Y15276443D01*
X6846468Y15276442D01*
X6924728Y15234611D01*
X7002991Y15192778D01*
X7038729Y15163448D01*
X7140186Y15080186D01*
X7223448Y14978729D01*
X7252778Y14942991D01*
X7336443Y14786466D01*
X7387963Y14616627D01*
X7405359Y14440000D01*
X7387963Y14263373D01*
X7336443Y14093534D01*
X7252778Y13937009D01*
X7244571Y13927009D01*
X7140186Y13799814D01*
X7038729Y13716552D01*
X7002991Y13687222D01*
X6846466Y13603557D01*
X6676627Y13552037D01*
X6610443Y13545519D01*
X6544260Y13539000D01*
X6455740Y13539000D01*
X6389557Y13545519D01*
X6323373Y13552037D01*
X6153534Y13603557D01*
X5997009Y13687222D01*
X5961271Y13716552D01*
X5859814Y13799814D01*
X5755429Y13927009D01*
X5747222Y13937009D01*
X5663557Y14093534D01*
X5612037Y14263373D01*
X5594641Y14440000D01*
X5612037Y14616627D01*
X5663557Y14786466D01*
X5747222Y14942991D01*
X5776552Y14978729D01*
X5859814Y15080186D01*
X5961271Y15163448D01*
X5997009Y15192778D01*
X6075272Y15234611D01*
X6153532Y15276442D01*
X6153534Y15276443D01*
X6323373Y15327963D01*
X6389557Y15334481D01*
X6455740Y15341000D01*
X6544260Y15341000D01*
X6610443Y15334481D01*
X6610443Y15334481D01*
G37*
G36*
X59631000Y15459000D02*
G01*
X55569000Y15459000D01*
X55569000Y17541000D01*
X59631000Y17541000D01*
X59631000Y15459000D01*
X59631000Y15459000D01*
G37*
G36*
X14070443Y17864481D02*
G01*
X14136627Y17857963D01*
X14306466Y17806443D01*
X14462991Y17722778D01*
X14493768Y17697520D01*
X14600186Y17610186D01*
X14683448Y17508729D01*
X14712778Y17472991D01*
X14796443Y17316466D01*
X14847963Y17146627D01*
X14865359Y16970000D01*
X14847963Y16793373D01*
X14796443Y16623534D01*
X14712778Y16467009D01*
X14683448Y16431271D01*
X14600186Y16329814D01*
X14498729Y16246552D01*
X14462991Y16217222D01*
X14462989Y16217221D01*
X14325177Y16143558D01*
X14306466Y16133557D01*
X14136627Y16082037D01*
X14070443Y16075519D01*
X14004260Y16069000D01*
X13915740Y16069000D01*
X13849557Y16075519D01*
X13783373Y16082037D01*
X13613534Y16133557D01*
X13594824Y16143558D01*
X13457011Y16217221D01*
X13457009Y16217222D01*
X13421271Y16246552D01*
X13319814Y16329814D01*
X13236552Y16431271D01*
X13207222Y16467009D01*
X13123557Y16623534D01*
X13072037Y16793373D01*
X13054641Y16970000D01*
X13072037Y17146627D01*
X13123557Y17316466D01*
X13207222Y17472991D01*
X13236552Y17508729D01*
X13319814Y17610186D01*
X13426232Y17697520D01*
X13457009Y17722778D01*
X13613534Y17806443D01*
X13783373Y17857963D01*
X13849557Y17864481D01*
X13915740Y17871000D01*
X14004260Y17871000D01*
X14070443Y17864481D01*
X14070443Y17864481D01*
G37*
G36*
X6610442Y17874482D02*
G01*
X6676627Y17867963D01*
X6846466Y17816443D01*
X6846468Y17816442D01*
X6924729Y17774610D01*
X7002991Y17732778D01*
X7038729Y17703448D01*
X7140186Y17620186D01*
X7205171Y17541000D01*
X7252778Y17482991D01*
X7336443Y17326466D01*
X7387963Y17156627D01*
X7405359Y16980000D01*
X7387963Y16803373D01*
X7336443Y16633534D01*
X7252778Y16477009D01*
X7244571Y16467009D01*
X7140186Y16339814D01*
X7038729Y16256552D01*
X7002991Y16227222D01*
X6846466Y16143557D01*
X6676627Y16092037D01*
X6610443Y16085519D01*
X6544260Y16079000D01*
X6455740Y16079000D01*
X6389557Y16085519D01*
X6323373Y16092037D01*
X6153534Y16143557D01*
X5997009Y16227222D01*
X5961271Y16256552D01*
X5859814Y16339814D01*
X5755429Y16467009D01*
X5747222Y16477009D01*
X5663557Y16633534D01*
X5612037Y16803373D01*
X5594641Y16980000D01*
X5612037Y17156627D01*
X5663557Y17326466D01*
X5747222Y17482991D01*
X5794829Y17541000D01*
X5859814Y17620186D01*
X5961271Y17703448D01*
X5997009Y17732778D01*
X6075272Y17774611D01*
X6153532Y17816442D01*
X6153534Y17816443D01*
X6323373Y17867963D01*
X6389558Y17874482D01*
X6455740Y17881000D01*
X6544260Y17881000D01*
X6610442Y17874482D01*
X6610442Y17874482D01*
G37*
G36*
X4070442Y17874482D02*
G01*
X4136627Y17867963D01*
X4306466Y17816443D01*
X4306468Y17816442D01*
X4384729Y17774610D01*
X4462991Y17732778D01*
X4498729Y17703448D01*
X4600186Y17620186D01*
X4665171Y17541000D01*
X4712778Y17482991D01*
X4796443Y17326466D01*
X4847963Y17156627D01*
X4865359Y16980000D01*
X4847963Y16803373D01*
X4796443Y16633534D01*
X4712778Y16477009D01*
X4704571Y16467009D01*
X4600186Y16339814D01*
X4498729Y16256552D01*
X4462991Y16227222D01*
X4306466Y16143557D01*
X4136627Y16092037D01*
X4070443Y16085519D01*
X4004260Y16079000D01*
X3915740Y16079000D01*
X3849557Y16085519D01*
X3783373Y16092037D01*
X3613534Y16143557D01*
X3457009Y16227222D01*
X3421271Y16256552D01*
X3319814Y16339814D01*
X3215429Y16467009D01*
X3207222Y16477009D01*
X3123557Y16633534D01*
X3072037Y16803373D01*
X3054641Y16980000D01*
X3072037Y17156627D01*
X3123557Y17326466D01*
X3207222Y17482991D01*
X3254829Y17541000D01*
X3319814Y17620186D01*
X3421271Y17703448D01*
X3457009Y17732778D01*
X3535272Y17774611D01*
X3613532Y17816442D01*
X3613534Y17816443D01*
X3783373Y17867963D01*
X3849558Y17874482D01*
X3915740Y17881000D01*
X4004260Y17881000D01*
X4070442Y17874482D01*
X4070442Y17874482D01*
G37*
G36*
X23098228Y19058297D02*
G01*
X23253100Y18994147D01*
X23392481Y18901015D01*
X23511015Y18782481D01*
X23604147Y18643100D01*
X23668297Y18488228D01*
X23701000Y18323816D01*
X23701000Y18156184D01*
X23668297Y17991772D01*
X23604147Y17836900D01*
X23511015Y17697519D01*
X23392481Y17578985D01*
X23253100Y17485853D01*
X23098228Y17421703D01*
X22933816Y17389000D01*
X22766184Y17389000D01*
X22601772Y17421703D01*
X22446900Y17485853D01*
X22307519Y17578985D01*
X22188985Y17697519D01*
X22095853Y17836900D01*
X22031703Y17991772D01*
X21999000Y18156184D01*
X21999000Y18323816D01*
X22031703Y18488228D01*
X22095853Y18643100D01*
X22188985Y18782481D01*
X22307519Y18901015D01*
X22446900Y18994147D01*
X22601772Y19058297D01*
X22766184Y19091000D01*
X22933816Y19091000D01*
X23098228Y19058297D01*
X23098228Y19058297D01*
G37*
G36*
X14861000Y18609000D02*
G01*
X13059000Y18609000D01*
X13059000Y20411000D01*
X14861000Y20411000D01*
X14861000Y18609000D01*
X14861000Y18609000D01*
G37*
G36*
X6610443Y20414481D02*
G01*
X6676627Y20407963D01*
X6846466Y20356443D01*
X7002991Y20272778D01*
X7038729Y20243448D01*
X7140186Y20160186D01*
X7223448Y20058729D01*
X7252778Y20022991D01*
X7336443Y19866466D01*
X7387963Y19696627D01*
X7405359Y19520000D01*
X7387963Y19343373D01*
X7336443Y19173534D01*
X7252778Y19017009D01*
X7223448Y18981271D01*
X7140186Y18879814D01*
X7041706Y18798995D01*
X7002991Y18767222D01*
X6846466Y18683557D01*
X6676627Y18632037D01*
X6610443Y18625519D01*
X6544260Y18619000D01*
X6455740Y18619000D01*
X6389557Y18625519D01*
X6323373Y18632037D01*
X6153534Y18683557D01*
X5997009Y18767222D01*
X5958294Y18798995D01*
X5859814Y18879814D01*
X5776552Y18981271D01*
X5747222Y19017009D01*
X5663557Y19173534D01*
X5612037Y19343373D01*
X5594641Y19520000D01*
X5612037Y19696627D01*
X5663557Y19866466D01*
X5747222Y20022991D01*
X5776552Y20058729D01*
X5859814Y20160186D01*
X5961271Y20243448D01*
X5997009Y20272778D01*
X6153534Y20356443D01*
X6323373Y20407963D01*
X6389557Y20414481D01*
X6455740Y20421000D01*
X6544260Y20421000D01*
X6610443Y20414481D01*
X6610443Y20414481D01*
G37*
G36*
X4070443Y20414481D02*
G01*
X4136627Y20407963D01*
X4306466Y20356443D01*
X4462991Y20272778D01*
X4498729Y20243448D01*
X4600186Y20160186D01*
X4683448Y20058729D01*
X4712778Y20022991D01*
X4796443Y19866466D01*
X4847963Y19696627D01*
X4865359Y19520000D01*
X4847963Y19343373D01*
X4796443Y19173534D01*
X4712778Y19017009D01*
X4683448Y18981271D01*
X4600186Y18879814D01*
X4501706Y18798995D01*
X4462991Y18767222D01*
X4306466Y18683557D01*
X4136627Y18632037D01*
X4070443Y18625519D01*
X4004260Y18619000D01*
X3915740Y18619000D01*
X3849557Y18625519D01*
X3783373Y18632037D01*
X3613534Y18683557D01*
X3457009Y18767222D01*
X3418294Y18798995D01*
X3319814Y18879814D01*
X3236552Y18981271D01*
X3207222Y19017009D01*
X3123557Y19173534D01*
X3072037Y19343373D01*
X3054641Y19520000D01*
X3072037Y19696627D01*
X3123557Y19866466D01*
X3207222Y20022991D01*
X3236552Y20058729D01*
X3319814Y20160186D01*
X3421271Y20243448D01*
X3457009Y20272778D01*
X3613534Y20356443D01*
X3783373Y20407963D01*
X3849557Y20414481D01*
X3915740Y20421000D01*
X4004260Y20421000D01*
X4070443Y20414481D01*
X4070443Y20414481D01*
G37*
G36*
X43336823Y20348687D02*
G01*
X43497242Y20300024D01*
X43564361Y20264148D01*
X43645078Y20221004D01*
X43774659Y20114659D01*
X43881004Y19985078D01*
X43881005Y19985076D01*
X43960024Y19837242D01*
X44008687Y19676823D01*
X44025117Y19510000D01*
X44008687Y19343177D01*
X43960024Y19182758D01*
X43919477Y19106900D01*
X43881004Y19034922D01*
X43774659Y18905341D01*
X43645078Y18798996D01*
X43645076Y18798995D01*
X43497242Y18719976D01*
X43336823Y18671313D01*
X43211804Y18659000D01*
X43128196Y18659000D01*
X43003177Y18671313D01*
X42842758Y18719976D01*
X42694924Y18798995D01*
X42694922Y18798996D01*
X42565341Y18905341D01*
X42458996Y19034922D01*
X42420523Y19106900D01*
X42379976Y19182758D01*
X42331313Y19343177D01*
X42314883Y19510000D01*
X42331313Y19676823D01*
X42379976Y19837242D01*
X42458995Y19985076D01*
X42458996Y19985078D01*
X42565341Y20114659D01*
X42694922Y20221004D01*
X42775639Y20264148D01*
X42842758Y20300024D01*
X43003177Y20348687D01*
X43128196Y20361000D01*
X43211804Y20361000D01*
X43336823Y20348687D01*
X43336823Y20348687D01*
G37*
G36*
X30636823Y20348687D02*
G01*
X30797242Y20300024D01*
X30864361Y20264148D01*
X30945078Y20221004D01*
X31074659Y20114659D01*
X31181004Y19985078D01*
X31181005Y19985076D01*
X31260024Y19837242D01*
X31308687Y19676823D01*
X31325117Y19510000D01*
X31308687Y19343177D01*
X31260024Y19182758D01*
X31219477Y19106900D01*
X31181004Y19034922D01*
X31074659Y18905341D01*
X30945078Y18798996D01*
X30945076Y18798995D01*
X30797242Y18719976D01*
X30636823Y18671313D01*
X30511804Y18659000D01*
X30428196Y18659000D01*
X30303177Y18671313D01*
X30142758Y18719976D01*
X29994924Y18798995D01*
X29994922Y18798996D01*
X29865341Y18905341D01*
X29758996Y19034922D01*
X29720523Y19106900D01*
X29679976Y19182758D01*
X29631313Y19343177D01*
X29614883Y19510000D01*
X29631313Y19676823D01*
X29679976Y19837242D01*
X29758995Y19985076D01*
X29758996Y19985078D01*
X29865341Y20114659D01*
X29994922Y20221004D01*
X30075639Y20264148D01*
X30142758Y20300024D01*
X30303177Y20348687D01*
X30428196Y20361000D01*
X30511804Y20361000D01*
X30636823Y20348687D01*
X30636823Y20348687D01*
G37*
G36*
X37068228Y20328297D02*
G01*
X37223100Y20264147D01*
X37362481Y20171015D01*
X37481015Y20052481D01*
X37574147Y19913100D01*
X37638297Y19758228D01*
X37671000Y19593816D01*
X37671000Y19426184D01*
X37638297Y19261772D01*
X37574147Y19106900D01*
X37481015Y18967519D01*
X37362481Y18848985D01*
X37223100Y18755853D01*
X37068228Y18691703D01*
X36903816Y18659000D01*
X36736184Y18659000D01*
X36571772Y18691703D01*
X36416900Y18755853D01*
X36277519Y18848985D01*
X36158985Y18967519D01*
X36065853Y19106900D01*
X36001703Y19261772D01*
X35969000Y19426184D01*
X35969000Y19593816D01*
X36001703Y19758228D01*
X36065853Y19913100D01*
X36158985Y20052481D01*
X36277519Y20171015D01*
X36416900Y20264147D01*
X36571772Y20328297D01*
X36736184Y20361000D01*
X36903816Y20361000D01*
X37068228Y20328297D01*
X37068228Y20328297D01*
G37*
G36*
X58692112Y22535979D02*
G01*
X58794072Y22525937D01*
X58990301Y22466411D01*
X58990303Y22466410D01*
X59171145Y22369748D01*
X59329660Y22239660D01*
X59459748Y22081145D01*
X59556410Y21900303D01*
X59556411Y21900301D01*
X59615937Y21704072D01*
X59636036Y21500000D01*
X59615937Y21295928D01*
X59556411Y21099699D01*
X59556410Y21099697D01*
X59459748Y20918855D01*
X59329660Y20760340D01*
X59171145Y20630252D01*
X58990303Y20533590D01*
X58990301Y20533589D01*
X58794072Y20474063D01*
X58692112Y20464021D01*
X58641133Y20459000D01*
X56558867Y20459000D01*
X56507888Y20464021D01*
X56405928Y20474063D01*
X56209699Y20533589D01*
X56209697Y20533590D01*
X56028855Y20630252D01*
X55870340Y20760340D01*
X55740252Y20918855D01*
X55643590Y21099697D01*
X55643589Y21099699D01*
X55584063Y21295928D01*
X55563964Y21500000D01*
X55584063Y21704072D01*
X55643589Y21900301D01*
X55643590Y21900303D01*
X55740252Y22081145D01*
X55870340Y22239660D01*
X56028855Y22369748D01*
X56209697Y22466410D01*
X56209699Y22466411D01*
X56405928Y22525937D01*
X56507888Y22535979D01*
X56558867Y22541000D01*
X58641133Y22541000D01*
X58692112Y22535979D01*
X58692112Y22535979D01*
G37*
G36*
X4070442Y22954482D02*
G01*
X4136627Y22947963D01*
X4306466Y22896443D01*
X4462991Y22812778D01*
X4483614Y22795853D01*
X4600186Y22700186D01*
X4683448Y22598729D01*
X4712778Y22562991D01*
X4796443Y22406466D01*
X4847963Y22236627D01*
X4865359Y22060000D01*
X4847963Y21883373D01*
X4796443Y21713534D01*
X4712778Y21557009D01*
X4683448Y21521271D01*
X4600186Y21419814D01*
X4498729Y21336552D01*
X4462991Y21307222D01*
X4306466Y21223557D01*
X4136627Y21172037D01*
X4070442Y21165518D01*
X4004260Y21159000D01*
X3915740Y21159000D01*
X3849558Y21165518D01*
X3783373Y21172037D01*
X3613534Y21223557D01*
X3457009Y21307222D01*
X3421271Y21336552D01*
X3319814Y21419814D01*
X3236552Y21521271D01*
X3207222Y21557009D01*
X3123557Y21713534D01*
X3072037Y21883373D01*
X3054641Y22060000D01*
X3072037Y22236627D01*
X3123557Y22406466D01*
X3207222Y22562991D01*
X3236552Y22598729D01*
X3319814Y22700186D01*
X3436386Y22795853D01*
X3457009Y22812778D01*
X3613534Y22896443D01*
X3783373Y22947963D01*
X3849558Y22954482D01*
X3915740Y22961000D01*
X4004260Y22961000D01*
X4070442Y22954482D01*
X4070442Y22954482D01*
G37*
G36*
X6610442Y22954482D02*
G01*
X6676627Y22947963D01*
X6846466Y22896443D01*
X7002991Y22812778D01*
X7023614Y22795853D01*
X7140186Y22700186D01*
X7223448Y22598729D01*
X7252778Y22562991D01*
X7336443Y22406466D01*
X7387963Y22236627D01*
X7405359Y22060000D01*
X7387963Y21883373D01*
X7336443Y21713534D01*
X7252778Y21557009D01*
X7223448Y21521271D01*
X7140186Y21419814D01*
X7038729Y21336552D01*
X7002991Y21307222D01*
X6846466Y21223557D01*
X6676627Y21172037D01*
X6610442Y21165518D01*
X6544260Y21159000D01*
X6455740Y21159000D01*
X6389558Y21165518D01*
X6323373Y21172037D01*
X6153534Y21223557D01*
X5997009Y21307222D01*
X5961271Y21336552D01*
X5859814Y21419814D01*
X5776552Y21521271D01*
X5747222Y21557009D01*
X5663557Y21713534D01*
X5612037Y21883373D01*
X5594641Y22060000D01*
X5612037Y22236627D01*
X5663557Y22406466D01*
X5747222Y22562991D01*
X5776552Y22598729D01*
X5859814Y22700186D01*
X5976386Y22795853D01*
X5997009Y22812778D01*
X6153534Y22896443D01*
X6323373Y22947963D01*
X6389558Y22954482D01*
X6455740Y22961000D01*
X6544260Y22961000D01*
X6610442Y22954482D01*
X6610442Y22954482D01*
G37*
G36*
X18873097Y23275931D02*
G01*
X18976032Y23265793D01*
X19174146Y23205695D01*
X19174149Y23205694D01*
X19270975Y23153939D01*
X19356729Y23108103D01*
X19516765Y22976765D01*
X19648103Y22816729D01*
X19679751Y22757519D01*
X19745694Y22634149D01*
X19745695Y22634146D01*
X19805793Y22436032D01*
X19826085Y22230000D01*
X19805793Y22023968D01*
X19763144Y21883375D01*
X19745694Y21825851D01*
X19693939Y21729025D01*
X19648103Y21643271D01*
X19516765Y21483235D01*
X19356729Y21351897D01*
X19273147Y21307222D01*
X19174149Y21254306D01*
X19174146Y21254305D01*
X18976032Y21194207D01*
X18873097Y21184069D01*
X18821631Y21179000D01*
X18718369Y21179000D01*
X18666903Y21184069D01*
X18563968Y21194207D01*
X18365854Y21254305D01*
X18365851Y21254306D01*
X18266853Y21307222D01*
X18183271Y21351897D01*
X18023235Y21483235D01*
X17891897Y21643271D01*
X17846061Y21729025D01*
X17794306Y21825851D01*
X17776856Y21883375D01*
X17734207Y22023968D01*
X17713915Y22230000D01*
X17734207Y22436032D01*
X17794305Y22634146D01*
X17794306Y22634149D01*
X17860249Y22757519D01*
X17891897Y22816729D01*
X18023235Y22976765D01*
X18183271Y23108103D01*
X18269025Y23153939D01*
X18365851Y23205694D01*
X18365854Y23205695D01*
X18563968Y23265793D01*
X18666903Y23275931D01*
X18718369Y23281000D01*
X18821631Y23281000D01*
X18873097Y23275931D01*
X18873097Y23275931D01*
G37*
G36*
X36018228Y24118297D02*
G01*
X36173100Y24054147D01*
X36312481Y23961015D01*
X36431015Y23842481D01*
X36524147Y23703100D01*
X36588297Y23548228D01*
X36621000Y23383816D01*
X36621000Y23216184D01*
X36588297Y23051772D01*
X36524147Y22896900D01*
X36431015Y22757519D01*
X36312481Y22638985D01*
X36173100Y22545853D01*
X36018228Y22481703D01*
X35853816Y22449000D01*
X35686184Y22449000D01*
X35521772Y22481703D01*
X35366900Y22545853D01*
X35227519Y22638985D01*
X35108985Y22757519D01*
X35015853Y22896900D01*
X34951703Y23051772D01*
X34919000Y23216184D01*
X34919000Y23383816D01*
X34951703Y23548228D01*
X35015853Y23703100D01*
X35108985Y23842481D01*
X35227519Y23961015D01*
X35366900Y24054147D01*
X35521772Y24118297D01*
X35686184Y24151000D01*
X35853816Y24151000D01*
X36018228Y24118297D01*
X36018228Y24118297D01*
G37*
G36*
X42018228Y24368297D02*
G01*
X42173100Y24304147D01*
X42312481Y24211015D01*
X42431015Y24092481D01*
X42524147Y23953100D01*
X42588297Y23798228D01*
X42621000Y23633816D01*
X42621000Y23466184D01*
X42588297Y23301772D01*
X42524147Y23146900D01*
X42431015Y23007519D01*
X42312481Y22888985D01*
X42173100Y22795853D01*
X42018228Y22731703D01*
X41853816Y22699000D01*
X41686184Y22699000D01*
X41521772Y22731703D01*
X41366900Y22795853D01*
X41227519Y22888985D01*
X41108985Y23007519D01*
X41015853Y23146900D01*
X40951703Y23301772D01*
X40919000Y23466184D01*
X40919000Y23633816D01*
X40951703Y23798228D01*
X41015853Y23953100D01*
X41108985Y24092481D01*
X41227519Y24211015D01*
X41366900Y24304147D01*
X41521772Y24368297D01*
X41686184Y24401000D01*
X41853816Y24401000D01*
X42018228Y24368297D01*
X42018228Y24368297D01*
G37*
G36*
X25010935Y24544258D02*
G01*
X25161258Y24481992D01*
X25296545Y24391596D01*
X25411596Y24276545D01*
X25501992Y24141258D01*
X25564258Y23990935D01*
X25596000Y23831354D01*
X25596000Y23668646D01*
X25564258Y23509065D01*
X25501992Y23358742D01*
X25411596Y23223455D01*
X25296545Y23108404D01*
X25161258Y23018008D01*
X25010935Y22955742D01*
X24851354Y22924000D01*
X24688646Y22924000D01*
X24529065Y22955742D01*
X24378742Y23018008D01*
X24243455Y23108404D01*
X24128404Y23223455D01*
X24038008Y23358742D01*
X23975742Y23509065D01*
X23944000Y23668646D01*
X23944000Y23831354D01*
X23975742Y23990935D01*
X24038008Y24141258D01*
X24128404Y24276545D01*
X24243455Y24391596D01*
X24378742Y24481992D01*
X24529065Y24544258D01*
X24688646Y24576000D01*
X24851354Y24576000D01*
X25010935Y24544258D01*
X25010935Y24544258D01*
G37*
G36*
X30596000Y22924000D02*
G01*
X28944000Y22924000D01*
X28944000Y24576000D01*
X30596000Y24576000D01*
X30596000Y22924000D01*
X30596000Y22924000D01*
G37*
G36*
X6610443Y25494481D02*
G01*
X6676627Y25487963D01*
X6846466Y25436443D01*
X7002991Y25352778D01*
X7038729Y25323448D01*
X7140186Y25240186D01*
X7223448Y25138729D01*
X7252778Y25102991D01*
X7336443Y24946466D01*
X7387963Y24776627D01*
X7405359Y24600000D01*
X7387963Y24423373D01*
X7336443Y24253534D01*
X7252778Y24097009D01*
X7249061Y24092480D01*
X7140186Y23959814D01*
X7038729Y23876552D01*
X7002991Y23847222D01*
X6846466Y23763557D01*
X6676627Y23712037D01*
X6610442Y23705518D01*
X6544260Y23699000D01*
X6455740Y23699000D01*
X6389558Y23705518D01*
X6323373Y23712037D01*
X6153534Y23763557D01*
X5997009Y23847222D01*
X5961271Y23876552D01*
X5859814Y23959814D01*
X5750939Y24092480D01*
X5747222Y24097009D01*
X5663557Y24253534D01*
X5612037Y24423373D01*
X5594641Y24600000D01*
X5612037Y24776627D01*
X5663557Y24946466D01*
X5747222Y25102991D01*
X5776552Y25138729D01*
X5859814Y25240186D01*
X5961271Y25323448D01*
X5997009Y25352778D01*
X6153534Y25436443D01*
X6323373Y25487963D01*
X6389557Y25494481D01*
X6455740Y25501000D01*
X6544260Y25501000D01*
X6610443Y25494481D01*
X6610443Y25494481D01*
G37*
G36*
X4070443Y25494481D02*
G01*
X4136627Y25487963D01*
X4306466Y25436443D01*
X4462991Y25352778D01*
X4498729Y25323448D01*
X4600186Y25240186D01*
X4683448Y25138729D01*
X4712778Y25102991D01*
X4796443Y24946466D01*
X4847963Y24776627D01*
X4865359Y24600000D01*
X4847963Y24423373D01*
X4796443Y24253534D01*
X4712778Y24097009D01*
X4709061Y24092480D01*
X4600186Y23959814D01*
X4498729Y23876552D01*
X4462991Y23847222D01*
X4306466Y23763557D01*
X4136627Y23712037D01*
X4070442Y23705518D01*
X4004260Y23699000D01*
X3915740Y23699000D01*
X3849558Y23705518D01*
X3783373Y23712037D01*
X3613534Y23763557D01*
X3457009Y23847222D01*
X3421271Y23876552D01*
X3319814Y23959814D01*
X3210939Y24092480D01*
X3207222Y24097009D01*
X3123557Y24253534D01*
X3072037Y24423373D01*
X3054641Y24600000D01*
X3072037Y24776627D01*
X3123557Y24946466D01*
X3207222Y25102991D01*
X3236552Y25138729D01*
X3319814Y25240186D01*
X3421271Y25323448D01*
X3457009Y25352778D01*
X3613534Y25436443D01*
X3783373Y25487963D01*
X3849557Y25494481D01*
X3915740Y25501000D01*
X4004260Y25501000D01*
X4070443Y25494481D01*
X4070443Y25494481D01*
G37*
G36*
X58692112Y27535979D02*
G01*
X58794072Y27525937D01*
X58990301Y27466411D01*
X58990303Y27466410D01*
X59171145Y27369748D01*
X59329660Y27239660D01*
X59459748Y27081145D01*
X59522697Y26963375D01*
X59556411Y26900301D01*
X59615937Y26704072D01*
X59636036Y26500000D01*
X59615937Y26295928D01*
X59556411Y26099699D01*
X59556410Y26099697D01*
X59459748Y25918855D01*
X59329660Y25760340D01*
X59171145Y25630252D01*
X58990303Y25533590D01*
X58990301Y25533589D01*
X58794072Y25474063D01*
X58692112Y25464021D01*
X58641133Y25459000D01*
X56558867Y25459000D01*
X56507888Y25464021D01*
X56405928Y25474063D01*
X56209699Y25533589D01*
X56209697Y25533590D01*
X56028855Y25630252D01*
X55870340Y25760340D01*
X55740252Y25918855D01*
X55643590Y26099697D01*
X55643589Y26099699D01*
X55584063Y26295928D01*
X55563964Y26500000D01*
X55584063Y26704072D01*
X55643589Y26900301D01*
X55677303Y26963375D01*
X55740252Y27081145D01*
X55870340Y27239660D01*
X56028855Y27369748D01*
X56209697Y27466410D01*
X56209699Y27466411D01*
X56405928Y27525937D01*
X56507888Y27535979D01*
X56558867Y27541000D01*
X58641133Y27541000D01*
X58692112Y27535979D01*
X58692112Y27535979D01*
G37*
G36*
X4070442Y28034482D02*
G01*
X4136627Y28027963D01*
X4306466Y27976443D01*
X4462991Y27892778D01*
X4498729Y27863448D01*
X4600186Y27780186D01*
X4683448Y27678729D01*
X4712778Y27642991D01*
X4796443Y27486466D01*
X4847963Y27316627D01*
X4865359Y27140000D01*
X4847963Y26963373D01*
X4796443Y26793534D01*
X4712778Y26637009D01*
X4683448Y26601271D01*
X4600186Y26499814D01*
X4498729Y26416552D01*
X4462991Y26387222D01*
X4306466Y26303557D01*
X4136627Y26252037D01*
X4070442Y26245518D01*
X4004260Y26239000D01*
X3915740Y26239000D01*
X3849558Y26245518D01*
X3783373Y26252037D01*
X3613534Y26303557D01*
X3457009Y26387222D01*
X3421271Y26416552D01*
X3319814Y26499814D01*
X3236552Y26601271D01*
X3207222Y26637009D01*
X3123557Y26793534D01*
X3072037Y26963373D01*
X3054641Y27140000D01*
X3072037Y27316627D01*
X3123557Y27486466D01*
X3207222Y27642991D01*
X3236552Y27678729D01*
X3319814Y27780186D01*
X3421271Y27863448D01*
X3457009Y27892778D01*
X3613534Y27976443D01*
X3783373Y28027963D01*
X3849557Y28034481D01*
X3915740Y28041000D01*
X4004260Y28041000D01*
X4070442Y28034482D01*
X4070442Y28034482D01*
G37*
G36*
X6610442Y28034482D02*
G01*
X6676627Y28027963D01*
X6846466Y27976443D01*
X7002991Y27892778D01*
X7038729Y27863448D01*
X7140186Y27780186D01*
X7223448Y27678729D01*
X7252778Y27642991D01*
X7336443Y27486466D01*
X7387963Y27316627D01*
X7405359Y27140000D01*
X7387963Y26963373D01*
X7336443Y26793534D01*
X7252778Y26637009D01*
X7223448Y26601271D01*
X7140186Y26499814D01*
X7038729Y26416552D01*
X7002991Y26387222D01*
X6846466Y26303557D01*
X6676627Y26252037D01*
X6610442Y26245518D01*
X6544260Y26239000D01*
X6455740Y26239000D01*
X6389558Y26245518D01*
X6323373Y26252037D01*
X6153534Y26303557D01*
X5997009Y26387222D01*
X5961271Y26416552D01*
X5859814Y26499814D01*
X5776552Y26601271D01*
X5747222Y26637009D01*
X5663557Y26793534D01*
X5612037Y26963373D01*
X5594641Y27140000D01*
X5612037Y27316627D01*
X5663557Y27486466D01*
X5747222Y27642991D01*
X5776552Y27678729D01*
X5859814Y27780186D01*
X5961271Y27863448D01*
X5997009Y27892778D01*
X6153534Y27976443D01*
X6323373Y28027963D01*
X6389557Y28034481D01*
X6455740Y28041000D01*
X6544260Y28041000D01*
X6610442Y28034482D01*
X6610442Y28034482D01*
G37*
G36*
X18873097Y29075931D02*
G01*
X18976032Y29065793D01*
X19174146Y29005695D01*
X19174149Y29005694D01*
X19257737Y28961015D01*
X19356729Y28908103D01*
X19516765Y28776765D01*
X19648103Y28616729D01*
X19684717Y28548229D01*
X19745694Y28434149D01*
X19745695Y28434146D01*
X19805793Y28236032D01*
X19826085Y28030000D01*
X19805793Y27823968D01*
X19750893Y27642989D01*
X19745694Y27625851D01*
X19702934Y27545853D01*
X19648103Y27443271D01*
X19516765Y27283235D01*
X19356729Y27151897D01*
X19270975Y27106061D01*
X19174149Y27054306D01*
X19174146Y27054305D01*
X18976032Y26994207D01*
X18873097Y26984069D01*
X18821631Y26979000D01*
X18718369Y26979000D01*
X18666903Y26984069D01*
X18563968Y26994207D01*
X18365854Y27054305D01*
X18365851Y27054306D01*
X18269025Y27106061D01*
X18183271Y27151897D01*
X18023235Y27283235D01*
X17891897Y27443271D01*
X17837066Y27545853D01*
X17794306Y27625851D01*
X17789107Y27642989D01*
X17734207Y27823968D01*
X17713915Y28030000D01*
X17734207Y28236032D01*
X17794305Y28434146D01*
X17794306Y28434149D01*
X17855283Y28548229D01*
X17891897Y28616729D01*
X18023235Y28776765D01*
X18183271Y28908103D01*
X18282263Y28961015D01*
X18365851Y29005694D01*
X18365854Y29005695D01*
X18563968Y29065793D01*
X18666903Y29075931D01*
X18718369Y29081000D01*
X18821631Y29081000D01*
X18873097Y29075931D01*
X18873097Y29075931D01*
G37*
G36*
X36018228Y29118297D02*
G01*
X36173100Y29054147D01*
X36312481Y28961015D01*
X36431015Y28842481D01*
X36524147Y28703100D01*
X36588297Y28548228D01*
X36621000Y28383816D01*
X36621000Y28216184D01*
X36588297Y28051772D01*
X36524147Y27896900D01*
X36431015Y27757519D01*
X36312481Y27638985D01*
X36173100Y27545853D01*
X36018228Y27481703D01*
X35853816Y27449000D01*
X35686184Y27449000D01*
X35521772Y27481703D01*
X35366900Y27545853D01*
X35227519Y27638985D01*
X35108985Y27757519D01*
X35015853Y27896900D01*
X34951703Y28051772D01*
X34919000Y28216184D01*
X34919000Y28383816D01*
X34951703Y28548228D01*
X35015853Y28703100D01*
X35108985Y28842481D01*
X35227519Y28961015D01*
X35366900Y29054147D01*
X35521772Y29118297D01*
X35686184Y29151000D01*
X35853816Y29151000D01*
X36018228Y29118297D01*
X36018228Y29118297D01*
G37*
G36*
X44318228Y29368297D02*
G01*
X44473100Y29304147D01*
X44612481Y29211015D01*
X44731015Y29092481D01*
X44824147Y28953100D01*
X44888297Y28798228D01*
X44921000Y28633816D01*
X44921000Y28466184D01*
X44888297Y28301772D01*
X44824147Y28146900D01*
X44731015Y28007519D01*
X44612481Y27888985D01*
X44473100Y27795853D01*
X44318228Y27731703D01*
X44153816Y27699000D01*
X43986184Y27699000D01*
X43821772Y27731703D01*
X43666900Y27795853D01*
X43527519Y27888985D01*
X43408985Y28007519D01*
X43315853Y28146900D01*
X43251703Y28301772D01*
X43219000Y28466184D01*
X43219000Y28633816D01*
X43251703Y28798228D01*
X43315853Y28953100D01*
X43408985Y29092481D01*
X43527519Y29211015D01*
X43666900Y29304147D01*
X43821772Y29368297D01*
X43986184Y29401000D01*
X44153816Y29401000D01*
X44318228Y29368297D01*
X44318228Y29368297D01*
G37*
G36*
X27510935Y29544258D02*
G01*
X27661258Y29481992D01*
X27796545Y29391596D01*
X27911596Y29276545D01*
X28001992Y29141258D01*
X28064258Y28990935D01*
X28096000Y28831354D01*
X28096000Y28668646D01*
X28064258Y28509065D01*
X28001992Y28358742D01*
X27911596Y28223455D01*
X27796545Y28108404D01*
X27661258Y28018008D01*
X27510935Y27955742D01*
X27351354Y27924000D01*
X27188646Y27924000D01*
X27029065Y27955742D01*
X26878742Y28018008D01*
X26743455Y28108404D01*
X26628404Y28223455D01*
X26538008Y28358742D01*
X26475742Y28509065D01*
X26444000Y28668646D01*
X26444000Y28831354D01*
X26475742Y28990935D01*
X26538008Y29141258D01*
X26628404Y29276545D01*
X26743455Y29391596D01*
X26878742Y29481992D01*
X27029065Y29544258D01*
X27188646Y29576000D01*
X27351354Y29576000D01*
X27510935Y29544258D01*
X27510935Y29544258D01*
G37*
G36*
X6610443Y30574481D02*
G01*
X6676627Y30567963D01*
X6846466Y30516443D01*
X7002991Y30432778D01*
X7038729Y30403448D01*
X7140186Y30320186D01*
X7223448Y30218729D01*
X7252778Y30182991D01*
X7336443Y30026466D01*
X7387963Y29856627D01*
X7405359Y29680000D01*
X7387963Y29503373D01*
X7336443Y29333534D01*
X7252778Y29177009D01*
X7231433Y29151000D01*
X7140186Y29039814D01*
X7044168Y28961015D01*
X7002991Y28927222D01*
X6846466Y28843557D01*
X6676627Y28792037D01*
X6610442Y28785518D01*
X6544260Y28779000D01*
X6455740Y28779000D01*
X6389558Y28785518D01*
X6323373Y28792037D01*
X6153534Y28843557D01*
X5997009Y28927222D01*
X5955832Y28961015D01*
X5859814Y29039814D01*
X5768567Y29151000D01*
X5747222Y29177009D01*
X5663557Y29333534D01*
X5612037Y29503373D01*
X5594641Y29680000D01*
X5612037Y29856627D01*
X5663557Y30026466D01*
X5747222Y30182991D01*
X5776552Y30218729D01*
X5859814Y30320186D01*
X5961271Y30403448D01*
X5997009Y30432778D01*
X6153534Y30516443D01*
X6323373Y30567963D01*
X6389557Y30574481D01*
X6455740Y30581000D01*
X6544260Y30581000D01*
X6610443Y30574481D01*
X6610443Y30574481D01*
G37*
G36*
X4070443Y30574481D02*
G01*
X4136627Y30567963D01*
X4306466Y30516443D01*
X4462991Y30432778D01*
X4498729Y30403448D01*
X4600186Y30320186D01*
X4683448Y30218729D01*
X4712778Y30182991D01*
X4796443Y30026466D01*
X4847963Y29856627D01*
X4865359Y29680000D01*
X4847963Y29503373D01*
X4796443Y29333534D01*
X4712778Y29177009D01*
X4691433Y29151000D01*
X4600186Y29039814D01*
X4504168Y28961015D01*
X4462991Y28927222D01*
X4306466Y28843557D01*
X4136627Y28792037D01*
X4070442Y28785518D01*
X4004260Y28779000D01*
X3915740Y28779000D01*
X3849558Y28785518D01*
X3783373Y28792037D01*
X3613534Y28843557D01*
X3457009Y28927222D01*
X3415832Y28961015D01*
X3319814Y29039814D01*
X3228567Y29151000D01*
X3207222Y29177009D01*
X3123557Y29333534D01*
X3072037Y29503373D01*
X3054641Y29680000D01*
X3072037Y29856627D01*
X3123557Y30026466D01*
X3207222Y30182991D01*
X3236552Y30218729D01*
X3319814Y30320186D01*
X3421271Y30403448D01*
X3457009Y30432778D01*
X3613534Y30516443D01*
X3783373Y30567963D01*
X3849557Y30574481D01*
X3915740Y30581000D01*
X4004260Y30581000D01*
X4070443Y30574481D01*
X4070443Y30574481D01*
G37*
G36*
X4070442Y33114482D02*
G01*
X4136627Y33107963D01*
X4306466Y33056443D01*
X4462991Y32972778D01*
X4498729Y32943448D01*
X4600186Y32860186D01*
X4683448Y32758729D01*
X4712778Y32722991D01*
X4796443Y32566466D01*
X4847963Y32396627D01*
X4865359Y32220000D01*
X4847963Y32043373D01*
X4796443Y31873534D01*
X4712778Y31717009D01*
X4683448Y31681271D01*
X4600186Y31579814D01*
X4498729Y31496552D01*
X4462991Y31467222D01*
X4306466Y31383557D01*
X4136627Y31332037D01*
X4070443Y31325519D01*
X4004260Y31319000D01*
X3915740Y31319000D01*
X3849557Y31325519D01*
X3783373Y31332037D01*
X3613534Y31383557D01*
X3457009Y31467222D01*
X3421271Y31496552D01*
X3319814Y31579814D01*
X3236552Y31681271D01*
X3207222Y31717009D01*
X3123557Y31873534D01*
X3072037Y32043373D01*
X3054641Y32220000D01*
X3072037Y32396627D01*
X3123557Y32566466D01*
X3207222Y32722991D01*
X3236552Y32758729D01*
X3319814Y32860186D01*
X3421271Y32943448D01*
X3457009Y32972778D01*
X3613534Y33056443D01*
X3783373Y33107963D01*
X3849558Y33114482D01*
X3915740Y33121000D01*
X4004260Y33121000D01*
X4070442Y33114482D01*
X4070442Y33114482D01*
G37*
G36*
X6610442Y33114482D02*
G01*
X6676627Y33107963D01*
X6846466Y33056443D01*
X7002991Y32972778D01*
X7038729Y32943448D01*
X7140186Y32860186D01*
X7223448Y32758729D01*
X7252778Y32722991D01*
X7336443Y32566466D01*
X7387963Y32396627D01*
X7405359Y32220000D01*
X7387963Y32043373D01*
X7336443Y31873534D01*
X7252778Y31717009D01*
X7223448Y31681271D01*
X7140186Y31579814D01*
X7038729Y31496552D01*
X7002991Y31467222D01*
X6846466Y31383557D01*
X6676627Y31332037D01*
X6610443Y31325519D01*
X6544260Y31319000D01*
X6455740Y31319000D01*
X6389557Y31325519D01*
X6323373Y31332037D01*
X6153534Y31383557D01*
X5997009Y31467222D01*
X5961271Y31496552D01*
X5859814Y31579814D01*
X5776552Y31681271D01*
X5747222Y31717009D01*
X5663557Y31873534D01*
X5612037Y32043373D01*
X5594641Y32220000D01*
X5612037Y32396627D01*
X5663557Y32566466D01*
X5747222Y32722991D01*
X5776552Y32758729D01*
X5859814Y32860186D01*
X5961271Y32943448D01*
X5997009Y32972778D01*
X6153534Y33056443D01*
X6323373Y33107963D01*
X6389558Y33114482D01*
X6455740Y33121000D01*
X6544260Y33121000D01*
X6610442Y33114482D01*
X6610442Y33114482D01*
G37*
G36*
X30648228Y35118297D02*
G01*
X30803100Y35054147D01*
X30942481Y34961015D01*
X31061015Y34842481D01*
X31154147Y34703100D01*
X31218297Y34548228D01*
X31251000Y34383816D01*
X31251000Y34216184D01*
X31218297Y34051772D01*
X31154147Y33896900D01*
X31061015Y33757519D01*
X30942481Y33638985D01*
X30803100Y33545853D01*
X30648228Y33481703D01*
X30483816Y33449000D01*
X30316184Y33449000D01*
X30151772Y33481703D01*
X29996900Y33545853D01*
X29857519Y33638985D01*
X29738985Y33757519D01*
X29645853Y33896900D01*
X29581703Y34051772D01*
X29549000Y34216184D01*
X29549000Y34383816D01*
X29581703Y34548228D01*
X29645853Y34703100D01*
X29738985Y34842481D01*
X29857519Y34961015D01*
X29996900Y35054147D01*
X30151772Y35118297D01*
X30316184Y35151000D01*
X30483816Y35151000D01*
X30648228Y35118297D01*
X30648228Y35118297D01*
G37*
G36*
X36866823Y35218687D02*
G01*
X37027242Y35170024D01*
X37159906Y35099114D01*
X37175078Y35091004D01*
X37304659Y34984659D01*
X37411004Y34855078D01*
X37411005Y34855076D01*
X37490024Y34707242D01*
X37490025Y34707239D01*
X37491281Y34703097D01*
X37538687Y34546823D01*
X37555117Y34380000D01*
X37538687Y34213177D01*
X37490024Y34052758D01*
X37489496Y34051771D01*
X37411004Y33904922D01*
X37304659Y33775341D01*
X37175078Y33668996D01*
X37175076Y33668995D01*
X37027242Y33589976D01*
X36866823Y33541313D01*
X36741804Y33529000D01*
X36658196Y33529000D01*
X36533177Y33541313D01*
X36372758Y33589976D01*
X36224924Y33668995D01*
X36224922Y33668996D01*
X36095341Y33775341D01*
X35988996Y33904922D01*
X35910504Y34051771D01*
X35909976Y34052758D01*
X35861313Y34213177D01*
X35844883Y34380000D01*
X35861313Y34546823D01*
X35908719Y34703097D01*
X35909975Y34707239D01*
X35909976Y34707242D01*
X35988995Y34855076D01*
X35988996Y34855078D01*
X36095341Y34984659D01*
X36224922Y35091004D01*
X36240094Y35099114D01*
X36372758Y35170024D01*
X36533177Y35218687D01*
X36658196Y35231000D01*
X36741804Y35231000D01*
X36866823Y35218687D01*
X36866823Y35218687D01*
G37*
G36*
X43148228Y35218297D02*
G01*
X43303100Y35154147D01*
X43442481Y35061015D01*
X43561015Y34942481D01*
X43654147Y34803100D01*
X43718297Y34648228D01*
X43751000Y34483816D01*
X43751000Y34316184D01*
X43718297Y34151772D01*
X43654147Y33996900D01*
X43561015Y33857519D01*
X43442481Y33738985D01*
X43303100Y33645853D01*
X43148228Y33581703D01*
X42983816Y33549000D01*
X42816184Y33549000D01*
X42651772Y33581703D01*
X42496900Y33645853D01*
X42357519Y33738985D01*
X42238985Y33857519D01*
X42145853Y33996900D01*
X42081703Y34151772D01*
X42049000Y34316184D01*
X42049000Y34483816D01*
X42081703Y34648228D01*
X42145853Y34803100D01*
X42238985Y34942481D01*
X42357519Y35061015D01*
X42496900Y35154147D01*
X42651772Y35218297D01*
X42816184Y35251000D01*
X42983816Y35251000D01*
X43148228Y35218297D01*
X43148228Y35218297D01*
G37*
G36*
X6610443Y35654481D02*
G01*
X6676627Y35647963D01*
X6846466Y35596443D01*
X7002991Y35512778D01*
X7038729Y35483448D01*
X7140186Y35400186D01*
X7223448Y35298729D01*
X7252778Y35262991D01*
X7336443Y35106466D01*
X7387963Y34936627D01*
X7405359Y34760000D01*
X7387963Y34583373D01*
X7336443Y34413534D01*
X7252778Y34257009D01*
X7223448Y34221271D01*
X7140186Y34119814D01*
X7057275Y34051772D01*
X7002991Y34007222D01*
X6846466Y33923557D01*
X6676627Y33872037D01*
X6610443Y33865519D01*
X6544260Y33859000D01*
X6455740Y33859000D01*
X6389557Y33865519D01*
X6323373Y33872037D01*
X6153534Y33923557D01*
X5997009Y34007222D01*
X5942725Y34051772D01*
X5859814Y34119814D01*
X5776552Y34221271D01*
X5747222Y34257009D01*
X5663557Y34413534D01*
X5612037Y34583373D01*
X5594641Y34760000D01*
X5612037Y34936627D01*
X5663557Y35106466D01*
X5747222Y35262991D01*
X5776552Y35298729D01*
X5859814Y35400186D01*
X5961271Y35483448D01*
X5997009Y35512778D01*
X6153534Y35596443D01*
X6323373Y35647963D01*
X6389557Y35654481D01*
X6455740Y35661000D01*
X6544260Y35661000D01*
X6610443Y35654481D01*
X6610443Y35654481D01*
G37*
G36*
X4070443Y35654481D02*
G01*
X4136627Y35647963D01*
X4306466Y35596443D01*
X4462991Y35512778D01*
X4498729Y35483448D01*
X4600186Y35400186D01*
X4683448Y35298729D01*
X4712778Y35262991D01*
X4796443Y35106466D01*
X4847963Y34936627D01*
X4865359Y34760000D01*
X4847963Y34583373D01*
X4796443Y34413534D01*
X4712778Y34257009D01*
X4683448Y34221271D01*
X4600186Y34119814D01*
X4517275Y34051772D01*
X4462991Y34007222D01*
X4306466Y33923557D01*
X4136627Y33872037D01*
X4070443Y33865519D01*
X4004260Y33859000D01*
X3915740Y33859000D01*
X3849557Y33865519D01*
X3783373Y33872037D01*
X3613534Y33923557D01*
X3457009Y34007222D01*
X3402725Y34051772D01*
X3319814Y34119814D01*
X3236552Y34221271D01*
X3207222Y34257009D01*
X3123557Y34413534D01*
X3072037Y34583373D01*
X3054641Y34760000D01*
X3072037Y34936627D01*
X3123557Y35106466D01*
X3207222Y35262991D01*
X3236552Y35298729D01*
X3319814Y35400186D01*
X3421271Y35483448D01*
X3457009Y35512778D01*
X3613534Y35596443D01*
X3783373Y35647963D01*
X3849557Y35654481D01*
X3915740Y35661000D01*
X4004260Y35661000D01*
X4070443Y35654481D01*
X4070443Y35654481D01*
G37*
G36*
X23348228Y36418297D02*
G01*
X23503100Y36354147D01*
X23642481Y36261015D01*
X23761015Y36142481D01*
X23854147Y36003100D01*
X23918297Y35848228D01*
X23951000Y35683816D01*
X23951000Y35516184D01*
X23918297Y35351772D01*
X23854147Y35196900D01*
X23761015Y35057519D01*
X23642481Y34938985D01*
X23503100Y34845853D01*
X23348228Y34781703D01*
X23183816Y34749000D01*
X23016184Y34749000D01*
X22851772Y34781703D01*
X22696900Y34845853D01*
X22557519Y34938985D01*
X22438985Y35057519D01*
X22345853Y35196900D01*
X22281703Y35351772D01*
X22249000Y35516184D01*
X22249000Y35683816D01*
X22281703Y35848228D01*
X22345853Y36003100D01*
X22438985Y36142481D01*
X22557519Y36261015D01*
X22696900Y36354147D01*
X22851772Y36418297D01*
X23016184Y36451000D01*
X23183816Y36451000D01*
X23348228Y36418297D01*
X23348228Y36418297D01*
G37*
G36*
X59556000Y35609000D02*
G01*
X55494000Y35609000D01*
X55494000Y37691000D01*
X59556000Y37691000D01*
X59556000Y35609000D01*
X59556000Y35609000D01*
G37*
G36*
X14070442Y37914482D02*
G01*
X14136627Y37907963D01*
X14306466Y37856443D01*
X14462991Y37772778D01*
X14498729Y37743448D01*
X14600186Y37660186D01*
X14683448Y37558729D01*
X14712778Y37522991D01*
X14796443Y37366466D01*
X14847963Y37196627D01*
X14865359Y37020000D01*
X14847963Y36843373D01*
X14796443Y36673534D01*
X14796442Y36673532D01*
X14754611Y36595272D01*
X14712778Y36517009D01*
X14683448Y36481271D01*
X14600186Y36379814D01*
X14498729Y36296552D01*
X14462991Y36267222D01*
X14306466Y36183557D01*
X14136627Y36132037D01*
X14070443Y36125519D01*
X14004260Y36119000D01*
X13915740Y36119000D01*
X13849557Y36125519D01*
X13783373Y36132037D01*
X13613534Y36183557D01*
X13457009Y36267222D01*
X13421271Y36296552D01*
X13319814Y36379814D01*
X13236552Y36481271D01*
X13207222Y36517009D01*
X13165389Y36595272D01*
X13123558Y36673532D01*
X13123557Y36673534D01*
X13072037Y36843373D01*
X13054641Y37020000D01*
X13072037Y37196627D01*
X13123557Y37366466D01*
X13207222Y37522991D01*
X13236552Y37558729D01*
X13319814Y37660186D01*
X13421271Y37743448D01*
X13457009Y37772778D01*
X13613534Y37856443D01*
X13783373Y37907963D01*
X13849558Y37914482D01*
X13915740Y37921000D01*
X14004260Y37921000D01*
X14070442Y37914482D01*
X14070442Y37914482D01*
G37*
G36*
X4070443Y38194481D02*
G01*
X4136627Y38187963D01*
X4306466Y38136443D01*
X4462991Y38052778D01*
X4498729Y38023448D01*
X4600186Y37940186D01*
X4668911Y37856443D01*
X4712778Y37802991D01*
X4712779Y37802989D01*
X4789110Y37660186D01*
X4796443Y37646466D01*
X4847963Y37476627D01*
X4865359Y37300000D01*
X4847963Y37123373D01*
X4796443Y36953534D01*
X4712778Y36797009D01*
X4683448Y36761271D01*
X4600186Y36659814D01*
X4498729Y36576552D01*
X4462991Y36547222D01*
X4306466Y36463557D01*
X4136627Y36412037D01*
X4070442Y36405518D01*
X4004260Y36399000D01*
X3915740Y36399000D01*
X3849558Y36405518D01*
X3783373Y36412037D01*
X3613534Y36463557D01*
X3457009Y36547222D01*
X3421271Y36576552D01*
X3319814Y36659814D01*
X3236552Y36761271D01*
X3207222Y36797009D01*
X3123557Y36953534D01*
X3072037Y37123373D01*
X3054641Y37300000D01*
X3072037Y37476627D01*
X3123557Y37646466D01*
X3130891Y37660186D01*
X3207221Y37802989D01*
X3207222Y37802991D01*
X3251089Y37856443D01*
X3319814Y37940186D01*
X3421271Y38023448D01*
X3457009Y38052778D01*
X3613534Y38136443D01*
X3783373Y38187963D01*
X3849557Y38194481D01*
X3915740Y38201000D01*
X4004260Y38201000D01*
X4070443Y38194481D01*
X4070443Y38194481D01*
G37*
G36*
X6610443Y38194481D02*
G01*
X6676627Y38187963D01*
X6846466Y38136443D01*
X7002991Y38052778D01*
X7038729Y38023448D01*
X7140186Y37940186D01*
X7208911Y37856443D01*
X7252778Y37802991D01*
X7252779Y37802989D01*
X7329110Y37660186D01*
X7336443Y37646466D01*
X7387963Y37476627D01*
X7405359Y37300000D01*
X7387963Y37123373D01*
X7336443Y36953534D01*
X7252778Y36797009D01*
X7223448Y36761271D01*
X7140186Y36659814D01*
X7038729Y36576552D01*
X7002991Y36547222D01*
X6846466Y36463557D01*
X6676627Y36412037D01*
X6610442Y36405518D01*
X6544260Y36399000D01*
X6455740Y36399000D01*
X6389558Y36405518D01*
X6323373Y36412037D01*
X6153534Y36463557D01*
X5997009Y36547222D01*
X5961271Y36576552D01*
X5859814Y36659814D01*
X5776552Y36761271D01*
X5747222Y36797009D01*
X5663557Y36953534D01*
X5612037Y37123373D01*
X5594641Y37300000D01*
X5612037Y37476627D01*
X5663557Y37646466D01*
X5670891Y37660186D01*
X5747221Y37802989D01*
X5747222Y37802991D01*
X5791089Y37856443D01*
X5859814Y37940186D01*
X5961271Y38023448D01*
X5997009Y38052778D01*
X6153534Y38136443D01*
X6323373Y38187963D01*
X6389557Y38194481D01*
X6455740Y38201000D01*
X6544260Y38201000D01*
X6610443Y38194481D01*
X6610443Y38194481D01*
G37*
G36*
X14070443Y40454481D02*
G01*
X14136627Y40447963D01*
X14306466Y40396443D01*
X14462991Y40312778D01*
X14498729Y40283448D01*
X14600186Y40200186D01*
X14683448Y40098729D01*
X14712778Y40062991D01*
X14796443Y39906466D01*
X14847963Y39736627D01*
X14865359Y39560000D01*
X14847963Y39383373D01*
X14796443Y39213534D01*
X14796442Y39213532D01*
X14754611Y39135272D01*
X14712778Y39057009D01*
X14683448Y39021271D01*
X14600186Y38919814D01*
X14498729Y38836552D01*
X14462991Y38807222D01*
X14306466Y38723557D01*
X14136627Y38672037D01*
X14070442Y38665518D01*
X14004260Y38659000D01*
X13915740Y38659000D01*
X13849558Y38665518D01*
X13783373Y38672037D01*
X13613534Y38723557D01*
X13457009Y38807222D01*
X13421271Y38836552D01*
X13319814Y38919814D01*
X13236552Y39021271D01*
X13207222Y39057009D01*
X13165390Y39135271D01*
X13123558Y39213532D01*
X13123557Y39213534D01*
X13072037Y39383373D01*
X13054641Y39560000D01*
X13072037Y39736627D01*
X13123557Y39906466D01*
X13207222Y40062991D01*
X13236552Y40098729D01*
X13319814Y40200186D01*
X13421271Y40283448D01*
X13457009Y40312778D01*
X13613534Y40396443D01*
X13783373Y40447963D01*
X13849557Y40454481D01*
X13915740Y40461000D01*
X14004260Y40461000D01*
X14070443Y40454481D01*
X14070443Y40454481D01*
G37*
G36*
X6610443Y40734481D02*
G01*
X6676627Y40727963D01*
X6846466Y40676443D01*
X7002991Y40592778D01*
X7038729Y40563448D01*
X7140186Y40480186D01*
X7208911Y40396443D01*
X7252778Y40342991D01*
X7252779Y40342989D01*
X7329110Y40200186D01*
X7336443Y40186466D01*
X7387963Y40016627D01*
X7405359Y39840000D01*
X7387963Y39663373D01*
X7336443Y39493534D01*
X7252778Y39337009D01*
X7223448Y39301271D01*
X7140186Y39199814D01*
X7038729Y39116552D01*
X7002991Y39087222D01*
X6846466Y39003557D01*
X6676627Y38952037D01*
X6610443Y38945519D01*
X6544260Y38939000D01*
X6455740Y38939000D01*
X6389557Y38945519D01*
X6323373Y38952037D01*
X6153534Y39003557D01*
X5997009Y39087222D01*
X5961271Y39116552D01*
X5859814Y39199814D01*
X5776552Y39301271D01*
X5747222Y39337009D01*
X5663557Y39493534D01*
X5612037Y39663373D01*
X5594641Y39840000D01*
X5612037Y40016627D01*
X5663557Y40186466D01*
X5670891Y40200186D01*
X5747221Y40342989D01*
X5747222Y40342991D01*
X5791089Y40396443D01*
X5859814Y40480186D01*
X5961271Y40563448D01*
X5997009Y40592778D01*
X6153534Y40676443D01*
X6323373Y40727963D01*
X6389557Y40734481D01*
X6455740Y40741000D01*
X6544260Y40741000D01*
X6610443Y40734481D01*
X6610443Y40734481D01*
G37*
G36*
X4070443Y40734481D02*
G01*
X4136627Y40727963D01*
X4306466Y40676443D01*
X4462991Y40592778D01*
X4498729Y40563448D01*
X4600186Y40480186D01*
X4668911Y40396443D01*
X4712778Y40342991D01*
X4712779Y40342989D01*
X4789110Y40200186D01*
X4796443Y40186466D01*
X4847963Y40016627D01*
X4865359Y39840000D01*
X4847963Y39663373D01*
X4796443Y39493534D01*
X4712778Y39337009D01*
X4683448Y39301271D01*
X4600186Y39199814D01*
X4498729Y39116552D01*
X4462991Y39087222D01*
X4306466Y39003557D01*
X4136627Y38952037D01*
X4070443Y38945519D01*
X4004260Y38939000D01*
X3915740Y38939000D01*
X3849557Y38945519D01*
X3783373Y38952037D01*
X3613534Y39003557D01*
X3457009Y39087222D01*
X3421271Y39116552D01*
X3319814Y39199814D01*
X3236552Y39301271D01*
X3207222Y39337009D01*
X3123557Y39493534D01*
X3072037Y39663373D01*
X3054641Y39840000D01*
X3072037Y40016627D01*
X3123557Y40186466D01*
X3130891Y40200186D01*
X3207221Y40342989D01*
X3207222Y40342991D01*
X3251089Y40396443D01*
X3319814Y40480186D01*
X3421271Y40563448D01*
X3457009Y40592778D01*
X3613534Y40676443D01*
X3783373Y40727963D01*
X3849557Y40734481D01*
X3915740Y40741000D01*
X4004260Y40741000D01*
X4070443Y40734481D01*
X4070443Y40734481D01*
G37*
G36*
X23348228Y41418297D02*
G01*
X23503100Y41354147D01*
X23642481Y41261015D01*
X23761015Y41142481D01*
X23854147Y41003100D01*
X23918297Y40848228D01*
X23951000Y40683816D01*
X23951000Y40516184D01*
X23918297Y40351772D01*
X23854147Y40196900D01*
X23761015Y40057519D01*
X23642481Y39938985D01*
X23503100Y39845853D01*
X23348228Y39781703D01*
X23183816Y39749000D01*
X23016184Y39749000D01*
X22851772Y39781703D01*
X22696900Y39845853D01*
X22557519Y39938985D01*
X22438985Y40057519D01*
X22345853Y40196900D01*
X22281703Y40351772D01*
X22249000Y40516184D01*
X22249000Y40683816D01*
X22281703Y40848228D01*
X22345853Y41003100D01*
X22438985Y41142481D01*
X22557519Y41261015D01*
X22696900Y41354147D01*
X22851772Y41418297D01*
X23016184Y41451000D01*
X23183816Y41451000D01*
X23348228Y41418297D01*
X23348228Y41418297D01*
G37*
G36*
X58617112Y42685979D02*
G01*
X58719072Y42675937D01*
X58915301Y42616411D01*
X58915303Y42616410D01*
X59096145Y42519748D01*
X59254660Y42389660D01*
X59384748Y42231145D01*
X59461890Y42086823D01*
X59481411Y42050301D01*
X59540937Y41854072D01*
X59561036Y41650000D01*
X59540937Y41445928D01*
X59481411Y41249699D01*
X59481410Y41249697D01*
X59384748Y41068855D01*
X59254660Y40910340D01*
X59096145Y40780252D01*
X58998319Y40727963D01*
X58915301Y40683589D01*
X58719072Y40624063D01*
X58617112Y40614021D01*
X58566133Y40609000D01*
X56483867Y40609000D01*
X56432888Y40614021D01*
X56330928Y40624063D01*
X56134699Y40683589D01*
X56051681Y40727963D01*
X55953855Y40780252D01*
X55795340Y40910340D01*
X55665252Y41068855D01*
X55568590Y41249697D01*
X55568589Y41249699D01*
X55509063Y41445928D01*
X55488964Y41650000D01*
X55509063Y41854072D01*
X55568589Y42050301D01*
X55588110Y42086823D01*
X55665252Y42231145D01*
X55795340Y42389660D01*
X55953855Y42519748D01*
X56134697Y42616410D01*
X56134699Y42616411D01*
X56330928Y42675937D01*
X56432888Y42685979D01*
X56483867Y42691000D01*
X58566133Y42691000D01*
X58617112Y42685979D01*
X58617112Y42685979D01*
G37*
G36*
X30566823Y42758687D02*
G01*
X30727242Y42710024D01*
X30762833Y42691000D01*
X30875078Y42631004D01*
X31004659Y42524659D01*
X31111004Y42395078D01*
X31111005Y42395076D01*
X31190024Y42247242D01*
X31238687Y42086823D01*
X31255117Y41920000D01*
X31238687Y41753177D01*
X31234633Y41739814D01*
X31191281Y41596900D01*
X31190024Y41592758D01*
X31164456Y41544924D01*
X31111004Y41444922D01*
X31004659Y41315341D01*
X30875078Y41208996D01*
X30875076Y41208995D01*
X30727242Y41129976D01*
X30566823Y41081313D01*
X30441804Y41069000D01*
X30358196Y41069000D01*
X30233177Y41081313D01*
X30072758Y41129976D01*
X29924924Y41208995D01*
X29924922Y41208996D01*
X29795341Y41315341D01*
X29688996Y41444922D01*
X29635544Y41544924D01*
X29609976Y41592758D01*
X29608720Y41596900D01*
X29565367Y41739814D01*
X29561313Y41753177D01*
X29544883Y41920000D01*
X29561313Y42086823D01*
X29609976Y42247242D01*
X29688995Y42395076D01*
X29688996Y42395078D01*
X29795341Y42524659D01*
X29924922Y42631004D01*
X30037167Y42691000D01*
X30072758Y42710024D01*
X30233177Y42758687D01*
X30358196Y42771000D01*
X30441804Y42771000D01*
X30566823Y42758687D01*
X30566823Y42758687D01*
G37*
G36*
X36948228Y42818297D02*
G01*
X37103100Y42754147D01*
X37242481Y42661015D01*
X37361015Y42542481D01*
X37454147Y42403100D01*
X37518297Y42248228D01*
X37551000Y42083816D01*
X37551000Y41916184D01*
X37518297Y41751772D01*
X37454147Y41596900D01*
X37361015Y41457519D01*
X37242481Y41338985D01*
X37103100Y41245853D01*
X36948228Y41181703D01*
X36783816Y41149000D01*
X36616184Y41149000D01*
X36451772Y41181703D01*
X36296900Y41245853D01*
X36157519Y41338985D01*
X36038985Y41457519D01*
X35945853Y41596900D01*
X35881703Y41751772D01*
X35849000Y41916184D01*
X35849000Y42083816D01*
X35881703Y42248228D01*
X35945853Y42403100D01*
X36038985Y42542481D01*
X36157519Y42661015D01*
X36296900Y42754147D01*
X36451772Y42818297D01*
X36616184Y42851000D01*
X36783816Y42851000D01*
X36948228Y42818297D01*
X36948228Y42818297D01*
G37*
G36*
X43066823Y42858687D02*
G01*
X43227242Y42810024D01*
X43331780Y42754147D01*
X43375078Y42731004D01*
X43504659Y42624659D01*
X43611004Y42495078D01*
X43611005Y42495076D01*
X43690024Y42347242D01*
X43738687Y42186823D01*
X43755117Y42020000D01*
X43738687Y41853177D01*
X43690024Y41692758D01*
X43638788Y41596903D01*
X43611004Y41544922D01*
X43504659Y41415341D01*
X43375078Y41308996D01*
X43375076Y41308995D01*
X43227242Y41229976D01*
X43066823Y41181313D01*
X42941804Y41169000D01*
X42858196Y41169000D01*
X42733177Y41181313D01*
X42572758Y41229976D01*
X42424924Y41308995D01*
X42424922Y41308996D01*
X42295341Y41415341D01*
X42188996Y41544922D01*
X42161212Y41596903D01*
X42109976Y41692758D01*
X42061313Y41853177D01*
X42044883Y42020000D01*
X42061313Y42186823D01*
X42109976Y42347242D01*
X42188995Y42495076D01*
X42188996Y42495078D01*
X42295341Y42624659D01*
X42424922Y42731004D01*
X42468220Y42754147D01*
X42572758Y42810024D01*
X42733177Y42858687D01*
X42858196Y42871000D01*
X42941804Y42871000D01*
X43066823Y42858687D01*
X43066823Y42858687D01*
G37*
G36*
X14861000Y41199000D02*
G01*
X13059000Y41199000D01*
X13059000Y43001000D01*
X14861000Y43001000D01*
X14861000Y41199000D01*
X14861000Y41199000D01*
G37*
G36*
X6610442Y43274482D02*
G01*
X6676627Y43267963D01*
X6846466Y43216443D01*
X7002991Y43132778D01*
X7038729Y43103448D01*
X7140186Y43020186D01*
X7223448Y42918729D01*
X7252778Y42882991D01*
X7336443Y42726466D01*
X7387963Y42556627D01*
X7405359Y42380000D01*
X7387963Y42203373D01*
X7336443Y42033534D01*
X7252778Y41877009D01*
X7233954Y41854072D01*
X7140186Y41739814D01*
X7038729Y41656552D01*
X7002991Y41627222D01*
X6938514Y41592758D01*
X6849024Y41544924D01*
X6846466Y41543557D01*
X6676627Y41492037D01*
X6610443Y41485519D01*
X6544260Y41479000D01*
X6455740Y41479000D01*
X6389557Y41485519D01*
X6323373Y41492037D01*
X6153534Y41543557D01*
X6150977Y41544924D01*
X6061486Y41592758D01*
X5997009Y41627222D01*
X5961271Y41656552D01*
X5859814Y41739814D01*
X5766046Y41854072D01*
X5747222Y41877009D01*
X5663557Y42033534D01*
X5612037Y42203373D01*
X5594641Y42380000D01*
X5612037Y42556627D01*
X5663557Y42726466D01*
X5747222Y42882991D01*
X5776552Y42918729D01*
X5859814Y43020186D01*
X5961271Y43103448D01*
X5997009Y43132778D01*
X6153534Y43216443D01*
X6323373Y43267963D01*
X6389558Y43274482D01*
X6455740Y43281000D01*
X6544260Y43281000D01*
X6610442Y43274482D01*
X6610442Y43274482D01*
G37*
G36*
X4070442Y43274482D02*
G01*
X4136627Y43267963D01*
X4306466Y43216443D01*
X4462991Y43132778D01*
X4498729Y43103448D01*
X4600186Y43020186D01*
X4683448Y42918729D01*
X4712778Y42882991D01*
X4796443Y42726466D01*
X4847963Y42556627D01*
X4865359Y42380000D01*
X4847963Y42203373D01*
X4796443Y42033534D01*
X4712778Y41877009D01*
X4693954Y41854072D01*
X4600186Y41739814D01*
X4498729Y41656552D01*
X4462991Y41627222D01*
X4398514Y41592758D01*
X4309024Y41544924D01*
X4306466Y41543557D01*
X4136627Y41492037D01*
X4070443Y41485519D01*
X4004260Y41479000D01*
X3915740Y41479000D01*
X3849557Y41485519D01*
X3783373Y41492037D01*
X3613534Y41543557D01*
X3610977Y41544924D01*
X3521486Y41592758D01*
X3457009Y41627222D01*
X3421271Y41656552D01*
X3319814Y41739814D01*
X3226046Y41854072D01*
X3207222Y41877009D01*
X3123557Y42033534D01*
X3072037Y42203373D01*
X3054641Y42380000D01*
X3072037Y42556627D01*
X3123557Y42726466D01*
X3207222Y42882991D01*
X3236552Y42918729D01*
X3319814Y43020186D01*
X3421271Y43103448D01*
X3457009Y43132778D01*
X3613534Y43216443D01*
X3783373Y43267963D01*
X3849558Y43274482D01*
X3915740Y43281000D01*
X4004260Y43281000D01*
X4070442Y43274482D01*
X4070442Y43274482D01*
G37*
G36*
X4070443Y45814481D02*
G01*
X4136627Y45807963D01*
X4306466Y45756443D01*
X4462991Y45672778D01*
X4488588Y45651771D01*
X4600186Y45560186D01*
X4658618Y45488985D01*
X4712778Y45422991D01*
X4796443Y45266466D01*
X4847963Y45096627D01*
X4865359Y44920000D01*
X4847963Y44743373D01*
X4796443Y44573534D01*
X4796442Y44573532D01*
X4780267Y44543271D01*
X4712778Y44417009D01*
X4685060Y44383235D01*
X4600186Y44279814D01*
X4498729Y44196552D01*
X4462991Y44167222D01*
X4306466Y44083557D01*
X4136627Y44032037D01*
X4070443Y44025519D01*
X4004260Y44019000D01*
X3915740Y44019000D01*
X3849557Y44025519D01*
X3783373Y44032037D01*
X3613534Y44083557D01*
X3457009Y44167222D01*
X3421271Y44196552D01*
X3319814Y44279814D01*
X3234940Y44383235D01*
X3207222Y44417009D01*
X3139733Y44543271D01*
X3123558Y44573532D01*
X3123557Y44573534D01*
X3072037Y44743373D01*
X3054641Y44920000D01*
X3072037Y45096627D01*
X3123557Y45266466D01*
X3207222Y45422991D01*
X3261382Y45488985D01*
X3319814Y45560186D01*
X3431412Y45651771D01*
X3457009Y45672778D01*
X3613534Y45756443D01*
X3783373Y45807963D01*
X3849557Y45814481D01*
X3915740Y45821000D01*
X4004260Y45821000D01*
X4070443Y45814481D01*
X4070443Y45814481D01*
G37*
G36*
X6610443Y45814481D02*
G01*
X6676627Y45807963D01*
X6846466Y45756443D01*
X7002991Y45672778D01*
X7028588Y45651771D01*
X7140186Y45560186D01*
X7198618Y45488985D01*
X7252778Y45422991D01*
X7336443Y45266466D01*
X7387963Y45096627D01*
X7405359Y44920000D01*
X7387963Y44743373D01*
X7336443Y44573534D01*
X7336442Y44573532D01*
X7320267Y44543271D01*
X7252778Y44417009D01*
X7225060Y44383235D01*
X7140186Y44279814D01*
X7038729Y44196552D01*
X7002991Y44167222D01*
X6846466Y44083557D01*
X6676627Y44032037D01*
X6610443Y44025519D01*
X6544260Y44019000D01*
X6455740Y44019000D01*
X6389557Y44025519D01*
X6323373Y44032037D01*
X6153534Y44083557D01*
X5997009Y44167222D01*
X5961271Y44196552D01*
X5859814Y44279814D01*
X5774940Y44383235D01*
X5747222Y44417009D01*
X5679733Y44543271D01*
X5663558Y44573532D01*
X5663557Y44573534D01*
X5612037Y44743373D01*
X5594641Y44920000D01*
X5612037Y45096627D01*
X5663557Y45266466D01*
X5747222Y45422991D01*
X5801382Y45488985D01*
X5859814Y45560186D01*
X5971412Y45651771D01*
X5997009Y45672778D01*
X6153534Y45756443D01*
X6323373Y45807963D01*
X6389557Y45814481D01*
X6455740Y45821000D01*
X6544260Y45821000D01*
X6610443Y45814481D01*
X6610443Y45814481D01*
G37*
G36*
X18803097Y46175931D02*
G01*
X18906032Y46165793D01*
X19104146Y46105695D01*
X19104149Y46105694D01*
X19200975Y46053939D01*
X19286729Y46008103D01*
X19446765Y45876765D01*
X19578103Y45716729D01*
X19623939Y45630975D01*
X19675694Y45534149D01*
X19675695Y45534146D01*
X19735793Y45336032D01*
X19756085Y45130000D01*
X19735793Y44923968D01*
X19734589Y44920000D01*
X19675694Y44725851D01*
X19623939Y44629025D01*
X19578103Y44543271D01*
X19446765Y44383235D01*
X19286729Y44251897D01*
X19200975Y44206061D01*
X19104149Y44154306D01*
X19104146Y44154305D01*
X18906032Y44094207D01*
X18803097Y44084069D01*
X18751631Y44079000D01*
X18648369Y44079000D01*
X18596903Y44084069D01*
X18493968Y44094207D01*
X18295854Y44154305D01*
X18295851Y44154306D01*
X18199025Y44206061D01*
X18113271Y44251897D01*
X17953235Y44383235D01*
X17821897Y44543271D01*
X17776061Y44629025D01*
X17724306Y44725851D01*
X17665411Y44920000D01*
X17664207Y44923968D01*
X17643915Y45130000D01*
X17664207Y45336032D01*
X17724305Y45534146D01*
X17724306Y45534149D01*
X17776061Y45630975D01*
X17821897Y45716729D01*
X17953235Y45876765D01*
X18113271Y46008103D01*
X18199025Y46053939D01*
X18295851Y46105694D01*
X18295854Y46105695D01*
X18493968Y46165793D01*
X18596903Y46175931D01*
X18648369Y46181000D01*
X18751631Y46181000D01*
X18803097Y46175931D01*
X18803097Y46175931D01*
G37*
G36*
X35948228Y46718297D02*
G01*
X36103100Y46654147D01*
X36242481Y46561015D01*
X36361015Y46442481D01*
X36454147Y46303100D01*
X36518297Y46148228D01*
X36551000Y45983816D01*
X36551000Y45816184D01*
X36518297Y45651772D01*
X36454147Y45496900D01*
X36361015Y45357519D01*
X36242481Y45238985D01*
X36103100Y45145853D01*
X35948228Y45081703D01*
X35783816Y45049000D01*
X35616184Y45049000D01*
X35451772Y45081703D01*
X35296900Y45145853D01*
X35157519Y45238985D01*
X35038985Y45357519D01*
X34945853Y45496900D01*
X34881703Y45651772D01*
X34849000Y45816184D01*
X34849000Y45983816D01*
X34881703Y46148228D01*
X34945853Y46303100D01*
X35038985Y46442481D01*
X35157519Y46561015D01*
X35296900Y46654147D01*
X35451772Y46718297D01*
X35616184Y46751000D01*
X35783816Y46751000D01*
X35948228Y46718297D01*
X35948228Y46718297D01*
G37*
G36*
X41948228Y46968297D02*
G01*
X42103100Y46904147D01*
X42242481Y46811015D01*
X42361015Y46692481D01*
X42454147Y46553100D01*
X42518297Y46398228D01*
X42551000Y46233816D01*
X42551000Y46066184D01*
X42518297Y45901772D01*
X42454147Y45746900D01*
X42361015Y45607519D01*
X42242481Y45488985D01*
X42103100Y45395853D01*
X41948228Y45331703D01*
X41783816Y45299000D01*
X41616184Y45299000D01*
X41451772Y45331703D01*
X41296900Y45395853D01*
X41157519Y45488985D01*
X41038985Y45607519D01*
X40945853Y45746900D01*
X40881703Y45901772D01*
X40849000Y46066184D01*
X40849000Y46233816D01*
X40881703Y46398228D01*
X40945853Y46553100D01*
X41038985Y46692481D01*
X41157519Y46811015D01*
X41296900Y46904147D01*
X41451772Y46968297D01*
X41616184Y47001000D01*
X41783816Y47001000D01*
X41948228Y46968297D01*
X41948228Y46968297D01*
G37*
G36*
X30526000Y45524000D02*
G01*
X28874000Y45524000D01*
X28874000Y47176000D01*
X30526000Y47176000D01*
X30526000Y45524000D01*
X30526000Y45524000D01*
G37*
G36*
X24940935Y47144258D02*
G01*
X25091258Y47081992D01*
X25226545Y46991596D01*
X25341596Y46876545D01*
X25431992Y46741258D01*
X25494258Y46590935D01*
X25526000Y46431354D01*
X25526000Y46268646D01*
X25494258Y46109065D01*
X25431992Y45958742D01*
X25341596Y45823455D01*
X25226545Y45708404D01*
X25091258Y45618008D01*
X24940935Y45555742D01*
X24781354Y45524000D01*
X24618646Y45524000D01*
X24459065Y45555742D01*
X24308742Y45618008D01*
X24173455Y45708404D01*
X24058404Y45823455D01*
X23968008Y45958742D01*
X23905742Y46109065D01*
X23874000Y46268646D01*
X23874000Y46431354D01*
X23905742Y46590935D01*
X23968008Y46741258D01*
X24058404Y46876545D01*
X24173455Y46991596D01*
X24308742Y47081992D01*
X24459065Y47144258D01*
X24618646Y47176000D01*
X24781354Y47176000D01*
X24940935Y47144258D01*
X24940935Y47144258D01*
G37*
G36*
X58617112Y47685979D02*
G01*
X58719072Y47675937D01*
X58915301Y47616411D01*
X58915303Y47616410D01*
X59096145Y47519748D01*
X59254660Y47389660D01*
X59384748Y47231145D01*
X59447612Y47113534D01*
X59481411Y47050301D01*
X59540937Y46854072D01*
X59561036Y46650000D01*
X59540937Y46445928D01*
X59481411Y46249699D01*
X59481410Y46249697D01*
X59384748Y46068855D01*
X59254660Y45910340D01*
X59096145Y45780252D01*
X58915303Y45683590D01*
X58915301Y45683589D01*
X58719072Y45624063D01*
X58657593Y45618008D01*
X58566133Y45609000D01*
X56483867Y45609000D01*
X56392407Y45618008D01*
X56330928Y45624063D01*
X56134699Y45683589D01*
X56134697Y45683590D01*
X55953855Y45780252D01*
X55795340Y45910340D01*
X55665252Y46068855D01*
X55568590Y46249697D01*
X55568589Y46249699D01*
X55509063Y46445928D01*
X55488964Y46650000D01*
X55509063Y46854072D01*
X55568589Y47050301D01*
X55602388Y47113534D01*
X55665252Y47231145D01*
X55795340Y47389660D01*
X55953855Y47519748D01*
X56134697Y47616410D01*
X56134699Y47616411D01*
X56330928Y47675937D01*
X56432888Y47685979D01*
X56483867Y47691000D01*
X58566133Y47691000D01*
X58617112Y47685979D01*
X58617112Y47685979D01*
G37*
G36*
X4070443Y48354481D02*
G01*
X4136627Y48347963D01*
X4306466Y48296443D01*
X4462991Y48212778D01*
X4498729Y48183448D01*
X4600186Y48100186D01*
X4683448Y47998729D01*
X4712778Y47962991D01*
X4796443Y47806466D01*
X4847963Y47636627D01*
X4865359Y47460000D01*
X4847963Y47283373D01*
X4796443Y47113534D01*
X4712778Y46957009D01*
X4683448Y46921271D01*
X4600186Y46819814D01*
X4504464Y46741258D01*
X4462991Y46707222D01*
X4306466Y46623557D01*
X4136627Y46572037D01*
X4070442Y46565518D01*
X4004260Y46559000D01*
X3915740Y46559000D01*
X3849558Y46565518D01*
X3783373Y46572037D01*
X3613534Y46623557D01*
X3457009Y46707222D01*
X3415536Y46741258D01*
X3319814Y46819814D01*
X3236552Y46921271D01*
X3207222Y46957009D01*
X3123557Y47113534D01*
X3072037Y47283373D01*
X3054641Y47460000D01*
X3072037Y47636627D01*
X3123557Y47806466D01*
X3207222Y47962991D01*
X3236552Y47998729D01*
X3319814Y48100186D01*
X3421271Y48183448D01*
X3457009Y48212778D01*
X3613534Y48296443D01*
X3783373Y48347963D01*
X3849557Y48354481D01*
X3915740Y48361000D01*
X4004260Y48361000D01*
X4070443Y48354481D01*
X4070443Y48354481D01*
G37*
G36*
X6610443Y48354481D02*
G01*
X6676627Y48347963D01*
X6846466Y48296443D01*
X7002991Y48212778D01*
X7038729Y48183448D01*
X7140186Y48100186D01*
X7223448Y47998729D01*
X7252778Y47962991D01*
X7336443Y47806466D01*
X7387963Y47636627D01*
X7405359Y47460000D01*
X7387963Y47283373D01*
X7336443Y47113534D01*
X7252778Y46957009D01*
X7223448Y46921271D01*
X7140186Y46819814D01*
X7044464Y46741258D01*
X7002991Y46707222D01*
X6846466Y46623557D01*
X6676627Y46572037D01*
X6610442Y46565518D01*
X6544260Y46559000D01*
X6455740Y46559000D01*
X6389558Y46565518D01*
X6323373Y46572037D01*
X6153534Y46623557D01*
X5997009Y46707222D01*
X5955536Y46741258D01*
X5859814Y46819814D01*
X5776552Y46921271D01*
X5747222Y46957009D01*
X5663557Y47113534D01*
X5612037Y47283373D01*
X5594641Y47460000D01*
X5612037Y47636627D01*
X5663557Y47806466D01*
X5747222Y47962991D01*
X5776552Y47998729D01*
X5859814Y48100186D01*
X5961271Y48183448D01*
X5997009Y48212778D01*
X6153534Y48296443D01*
X6323373Y48347963D01*
X6389557Y48354481D01*
X6455740Y48361000D01*
X6544260Y48361000D01*
X6610443Y48354481D01*
X6610443Y48354481D01*
G37*
G36*
X7401000Y49099000D02*
G01*
X5599000Y49099000D01*
X5599000Y50901000D01*
X7401000Y50901000D01*
X7401000Y49099000D01*
X7401000Y49099000D01*
G37*
G36*
X4070442Y50894482D02*
G01*
X4136627Y50887963D01*
X4306466Y50836443D01*
X4462991Y50752778D01*
X4470153Y50746900D01*
X4600186Y50640186D01*
X4669486Y50555742D01*
X4712778Y50502991D01*
X4712779Y50502989D01*
X4790535Y50357520D01*
X4796443Y50346466D01*
X4847963Y50176627D01*
X4865359Y50000000D01*
X4847963Y49823373D01*
X4796443Y49653534D01*
X4712778Y49497009D01*
X4683448Y49461271D01*
X4600186Y49359814D01*
X4498729Y49276552D01*
X4462991Y49247222D01*
X4306466Y49163557D01*
X4136627Y49112037D01*
X4070442Y49105518D01*
X4004260Y49099000D01*
X3915740Y49099000D01*
X3849558Y49105518D01*
X3783373Y49112037D01*
X3613534Y49163557D01*
X3457009Y49247222D01*
X3421271Y49276552D01*
X3319814Y49359814D01*
X3236552Y49461271D01*
X3207222Y49497009D01*
X3123557Y49653534D01*
X3072037Y49823373D01*
X3054641Y50000000D01*
X3072037Y50176627D01*
X3123557Y50346466D01*
X3129466Y50357520D01*
X3207221Y50502989D01*
X3207222Y50502991D01*
X3250514Y50555742D01*
X3319814Y50640186D01*
X3449847Y50746900D01*
X3457009Y50752778D01*
X3613534Y50836443D01*
X3783373Y50887963D01*
X3849558Y50894482D01*
X3915740Y50901000D01*
X4004260Y50901000D01*
X4070442Y50894482D01*
X4070442Y50894482D01*
G37*
G36*
X18803097Y51975931D02*
G01*
X18906032Y51965793D01*
X19104146Y51905695D01*
X19104149Y51905694D01*
X19158686Y51876543D01*
X19286729Y51808103D01*
X19446765Y51676765D01*
X19578103Y51516729D01*
X19617789Y51442481D01*
X19675694Y51334149D01*
X19675695Y51334146D01*
X19735793Y51136032D01*
X19756085Y50930000D01*
X19735793Y50723968D01*
X19675695Y50525854D01*
X19675694Y50525851D01*
X19623939Y50429025D01*
X19578103Y50343271D01*
X19446765Y50183235D01*
X19286729Y50051897D01*
X19200975Y50006061D01*
X19104149Y49954306D01*
X19104146Y49954305D01*
X18906032Y49894207D01*
X18803097Y49884069D01*
X18751631Y49879000D01*
X18648369Y49879000D01*
X18596903Y49884069D01*
X18493968Y49894207D01*
X18295854Y49954305D01*
X18295851Y49954306D01*
X18199025Y50006061D01*
X18113271Y50051897D01*
X17953235Y50183235D01*
X17821897Y50343271D01*
X17776061Y50429025D01*
X17724306Y50525851D01*
X17724305Y50525854D01*
X17664207Y50723968D01*
X17643915Y50930000D01*
X17664207Y51136032D01*
X17724305Y51334146D01*
X17724306Y51334149D01*
X17782211Y51442481D01*
X17821897Y51516729D01*
X17953235Y51676765D01*
X18113271Y51808103D01*
X18241314Y51876543D01*
X18295851Y51905694D01*
X18295854Y51905695D01*
X18493968Y51965793D01*
X18596903Y51975931D01*
X18648369Y51981000D01*
X18751631Y51981000D01*
X18803097Y51975931D01*
X18803097Y51975931D01*
G37*
G36*
X35948228Y51718297D02*
G01*
X36103100Y51654147D01*
X36242481Y51561015D01*
X36361015Y51442481D01*
X36454147Y51303100D01*
X36518297Y51148228D01*
X36551000Y50983816D01*
X36551000Y50816184D01*
X36518297Y50651772D01*
X36454147Y50496900D01*
X36361015Y50357519D01*
X36242481Y50238985D01*
X36103100Y50145853D01*
X35948228Y50081703D01*
X35783816Y50049000D01*
X35616184Y50049000D01*
X35451772Y50081703D01*
X35296900Y50145853D01*
X35157519Y50238985D01*
X35038985Y50357519D01*
X34945853Y50496900D01*
X34881703Y50651772D01*
X34849000Y50816184D01*
X34849000Y50983816D01*
X34881703Y51148228D01*
X34945853Y51303100D01*
X35038985Y51442481D01*
X35157519Y51561015D01*
X35296900Y51654147D01*
X35451772Y51718297D01*
X35616184Y51751000D01*
X35783816Y51751000D01*
X35948228Y51718297D01*
X35948228Y51718297D01*
G37*
G36*
X44248228Y51968297D02*
G01*
X44403100Y51904147D01*
X44542481Y51811015D01*
X44661015Y51692481D01*
X44754147Y51553100D01*
X44818297Y51398228D01*
X44851000Y51233816D01*
X44851000Y51066184D01*
X44818297Y50901772D01*
X44754147Y50746900D01*
X44661015Y50607519D01*
X44542481Y50488985D01*
X44403100Y50395853D01*
X44248228Y50331703D01*
X44083816Y50299000D01*
X43916184Y50299000D01*
X43751772Y50331703D01*
X43596900Y50395853D01*
X43457519Y50488985D01*
X43338985Y50607519D01*
X43245853Y50746900D01*
X43181703Y50901772D01*
X43149000Y51066184D01*
X43149000Y51233816D01*
X43181703Y51398228D01*
X43245853Y51553100D01*
X43338985Y51692481D01*
X43457519Y51811015D01*
X43596900Y51904147D01*
X43751772Y51968297D01*
X43916184Y52001000D01*
X44083816Y52001000D01*
X44248228Y51968297D01*
X44248228Y51968297D01*
G37*
G36*
X27440935Y52144258D02*
G01*
X27591258Y52081992D01*
X27726545Y51991596D01*
X27841596Y51876545D01*
X27931992Y51741258D01*
X27994258Y51590935D01*
X28026000Y51431354D01*
X28026000Y51268646D01*
X27994258Y51109065D01*
X27931992Y50958742D01*
X27841596Y50823455D01*
X27726545Y50708404D01*
X27591258Y50618008D01*
X27440935Y50555742D01*
X27281354Y50524000D01*
X27118646Y50524000D01*
X26959065Y50555742D01*
X26808742Y50618008D01*
X26673455Y50708404D01*
X26558404Y50823455D01*
X26468008Y50958742D01*
X26405742Y51109065D01*
X26374000Y51268646D01*
X26374000Y51431354D01*
X26405742Y51590935D01*
X26468008Y51741258D01*
X26558404Y51876545D01*
X26673455Y51991596D01*
X26808742Y52081992D01*
X26959065Y52144258D01*
X27118646Y52176000D01*
X27281354Y52176000D01*
X27440935Y52144258D01*
X27440935Y52144258D01*
G37*
G36*
X6642007Y60116418D02*
G01*
X7042563Y59950502D01*
X7042565Y59950501D01*
X7403056Y59709629D01*
X7709629Y59403056D01*
X7950501Y59042565D01*
X7950502Y59042563D01*
X8116418Y58642007D01*
X8201000Y58216781D01*
X8201000Y57783219D01*
X8116418Y57357993D01*
X7950502Y56957437D01*
X7950501Y56957435D01*
X7709629Y56596944D01*
X7403056Y56290371D01*
X7042565Y56049499D01*
X7042564Y56049498D01*
X7042563Y56049498D01*
X6642007Y55883582D01*
X6216781Y55799000D01*
X5783219Y55799000D01*
X5357993Y55883582D01*
X4957437Y56049498D01*
X4957436Y56049498D01*
X4957435Y56049499D01*
X4596944Y56290371D01*
X4290371Y56596944D01*
X4049499Y56957435D01*
X4049498Y56957437D01*
X3883582Y57357993D01*
X3799000Y57783219D01*
X3799000Y58216781D01*
X3883582Y58642007D01*
X4049498Y59042563D01*
X4049499Y59042565D01*
X4290371Y59403056D01*
X4596944Y59709629D01*
X4957435Y59950501D01*
X4957437Y59950502D01*
X5357993Y60116418D01*
X5783219Y60201000D01*
X6216781Y60201000D01*
X6642007Y60116418D01*
X6642007Y60116418D01*
G37*
G36*
X58642007Y60116418D02*
G01*
X59042563Y59950502D01*
X59042565Y59950501D01*
X59403056Y59709629D01*
X59709629Y59403056D01*
X59950501Y59042565D01*
X59950502Y59042563D01*
X60116418Y58642007D01*
X60201000Y58216781D01*
X60201000Y57783219D01*
X60116418Y57357993D01*
X59950502Y56957437D01*
X59950501Y56957435D01*
X59709629Y56596944D01*
X59403056Y56290371D01*
X59042565Y56049499D01*
X59042564Y56049498D01*
X59042563Y56049498D01*
X58642007Y55883582D01*
X58216781Y55799000D01*
X57783219Y55799000D01*
X57357993Y55883582D01*
X56957437Y56049498D01*
X56957436Y56049498D01*
X56957435Y56049499D01*
X56596944Y56290371D01*
X56290371Y56596944D01*
X56049499Y56957435D01*
X56049498Y56957437D01*
X55883582Y57357993D01*
X55799000Y57783219D01*
X55799000Y58216781D01*
X55883582Y58642007D01*
X56049498Y59042563D01*
X56049499Y59042565D01*
X56290371Y59403056D01*
X56596944Y59709629D01*
X56957435Y59950501D01*
X56957437Y59950502D01*
X57357993Y60116418D01*
X57783219Y60201000D01*
X58216781Y60201000D01*
X58642007Y60116418D01*
X58642007Y60116418D01*
G37*
M02*
