G04 #@! TF.GenerationSoftware,KiCad,Pcbnew,(5.1.2)-1*
G04 #@! TF.CreationDate,2019-10-08T11:37:34+11:00*
G04 #@! TF.ProjectId,AnalogDiscovery_x20_powerMainsProbe,416e616c-6f67-4446-9973-636f76657279,rev?*
G04 #@! TF.SameCoordinates,PX69618a0PY7bfa480*
G04 #@! TF.FileFunction,Copper,L2,Bot*
G04 #@! TF.FilePolarity,Positive*
%FSLAX46Y46*%
G04 Gerber Fmt 4.6, Leading zero omitted, Abs format (unit mm)*
G04 Created by KiCad (PCBNEW (5.1.2)-1) date 2019-10-08 11:37:34*
%MOMM*%
%LPD*%
G04 APERTURE LIST*
%ADD10C,0.381000*%
%ADD11O,1.700000X1.700000*%
%ADD12R,1.700000X1.700000*%
%ADD13C,1.600000*%
%ADD14O,2.000000X2.000000*%
%ADD15C,1.550000*%
%ADD16R,1.550000X1.550000*%
%ADD17O,1.600000X1.600000*%
%ADD18O,3.960000X1.980000*%
%ADD19R,3.960000X1.980000*%
%ADD20C,0.800000*%
%ADD21C,1.000000*%
%ADD22C,0.250000*%
%ADD23C,0.254000*%
G04 APERTURE END LIST*
D10*
X48373000Y31774000D02*
X48246000Y31266000D01*
X49516000Y29488000D02*
X48373000Y31774000D01*
X48119000Y29488000D02*
X49516000Y29488000D01*
X49643000Y27202000D02*
X48119000Y29488000D01*
X49897000Y27583000D02*
X49770000Y27075000D01*
X50659000Y27075000D02*
X49897000Y27583000D01*
X48881000Y29107000D02*
X50659000Y27075000D01*
X50151000Y29107000D02*
X48881000Y29107000D01*
X48373000Y31901000D02*
X50151000Y29107000D01*
X48881000Y31647000D02*
X48373000Y31901000D01*
X48119000Y32282000D02*
X48881000Y31647000D01*
X48246000Y31266000D02*
X48119000Y32282000D01*
X48500000Y29361000D02*
X49770000Y29361000D01*
X49897000Y27456000D02*
X48500000Y29361000D01*
X48373000Y56774000D02*
X48246000Y56266000D01*
X49516000Y54488000D02*
X48373000Y56774000D01*
X48119000Y54488000D02*
X49516000Y54488000D01*
X49643000Y52202000D02*
X48119000Y54488000D01*
X49897000Y52583000D02*
X49770000Y52075000D01*
X50659000Y52075000D02*
X49897000Y52583000D01*
X48881000Y54107000D02*
X50659000Y52075000D01*
X50151000Y54107000D02*
X48881000Y54107000D01*
X48373000Y56901000D02*
X50151000Y54107000D01*
X48881000Y56647000D02*
X48373000Y56901000D01*
X48119000Y57282000D02*
X48881000Y56647000D01*
X48246000Y56266000D02*
X48119000Y57282000D01*
X48500000Y54361000D02*
X49770000Y54361000D01*
X49897000Y52456000D02*
X48500000Y54361000D01*
X49897000Y2706000D02*
X48500000Y4611000D01*
X48500000Y4611000D02*
X49770000Y4611000D01*
X48246000Y6516000D02*
X48119000Y7532000D01*
X48119000Y7532000D02*
X48881000Y6897000D01*
X48881000Y6897000D02*
X48373000Y7151000D01*
X48373000Y7151000D02*
X50151000Y4357000D01*
X50151000Y4357000D02*
X48881000Y4357000D01*
X48881000Y4357000D02*
X50659000Y2325000D01*
X50659000Y2325000D02*
X49897000Y2833000D01*
X49897000Y2833000D02*
X49770000Y2325000D01*
X49643000Y2452000D02*
X48119000Y4738000D01*
X48119000Y4738000D02*
X49516000Y4738000D01*
X49516000Y4738000D02*
X48373000Y7024000D01*
X48373000Y7024000D02*
X48246000Y6516000D01*
D11*
X18640000Y5200000D03*
X18640000Y7740000D03*
X16100000Y5200000D03*
X16100000Y7740000D03*
X13560000Y5200000D03*
D12*
X13560000Y7740000D03*
D11*
X13960000Y37020000D03*
X13960000Y39560000D03*
D12*
X13960000Y42100000D03*
D13*
X23100000Y35600000D03*
X23100000Y40600000D03*
D11*
X13960000Y14430000D03*
X13960000Y16970000D03*
D12*
X13960000Y19510000D03*
D13*
X22850000Y13240000D03*
X22850000Y18240000D03*
D14*
X18700000Y50930000D03*
X18700000Y45130000D03*
X18770000Y28030000D03*
X18770000Y22230000D03*
D13*
X44000000Y51150000D03*
X41700000Y46150000D03*
D15*
X27200000Y51350000D03*
D16*
X29700000Y46350000D03*
D15*
X24700000Y46350000D03*
X27270000Y28750000D03*
D16*
X29770000Y23750000D03*
D15*
X24770000Y23750000D03*
D13*
X44070000Y28550000D03*
X41770000Y23550000D03*
D17*
X30400000Y41920000D03*
D13*
X30400000Y34300000D03*
D17*
X36700000Y34380000D03*
D13*
X36700000Y42000000D03*
D17*
X42900000Y42020000D03*
D13*
X42900000Y34400000D03*
D17*
X30470000Y19510000D03*
D13*
X30470000Y11890000D03*
D17*
X36820000Y11890000D03*
D13*
X36820000Y19510000D03*
D17*
X43170000Y19510000D03*
D13*
X43170000Y11890000D03*
D18*
X57525000Y46650000D03*
X57525000Y41650000D03*
D19*
X57525000Y36650000D03*
D13*
X35700000Y45900000D03*
X35700000Y50900000D03*
X35770000Y23300000D03*
X35770000Y28300000D03*
D18*
X57600000Y26500000D03*
X57600000Y21500000D03*
D19*
X57600000Y16500000D03*
D11*
X3960000Y14440000D03*
X6500000Y14440000D03*
X3960000Y16980000D03*
X6500000Y16980000D03*
X3960000Y19520000D03*
X6500000Y19520000D03*
X3960000Y22060000D03*
X6500000Y22060000D03*
X3960000Y24600000D03*
X6500000Y24600000D03*
X3960000Y27140000D03*
X6500000Y27140000D03*
X3960000Y29680000D03*
X6500000Y29680000D03*
X3960000Y32220000D03*
X6500000Y32220000D03*
X3960000Y34760000D03*
X6500000Y34760000D03*
X3960000Y37300000D03*
X6500000Y37300000D03*
X3960000Y39840000D03*
X6500000Y39840000D03*
X3960000Y42380000D03*
X6500000Y42380000D03*
X3960000Y44920000D03*
X6500000Y44920000D03*
X3960000Y47460000D03*
X6500000Y47460000D03*
X3960000Y50000000D03*
D12*
X6500000Y50000000D03*
D20*
X11420000Y61420000D03*
X21420000Y61420000D03*
X31420000Y61420000D03*
X41420000Y61420000D03*
X51420000Y61420000D03*
X11420000Y51420000D03*
X21420000Y51420000D03*
X31420000Y51420000D03*
X41420000Y51420000D03*
X11420000Y41420000D03*
X51420000Y41420000D03*
X22690000Y31420000D03*
X32690000Y31420000D03*
X42690000Y31420000D03*
X51420000Y21420000D03*
X11420000Y11420000D03*
X21400000Y11100000D03*
X51420000Y11420000D03*
X11420000Y1420000D03*
X21420000Y1420000D03*
X31420000Y1420000D03*
X41420000Y1420000D03*
D21*
X5510001Y12889999D02*
X3960000Y14440000D01*
X13960000Y16970000D02*
X9879999Y12889999D01*
X9879999Y12889999D02*
X5510001Y12889999D01*
D22*
X5230000Y15710000D02*
X3960000Y16980000D01*
X7524002Y15710000D02*
X5230000Y15710000D01*
D21*
X8050001Y16235999D02*
X7524002Y15710000D01*
X8880000Y17065998D02*
X8050001Y16235999D01*
X8880000Y35682081D02*
X8880000Y17065998D01*
X12757919Y39560000D02*
X8880000Y35682081D01*
X13960000Y39560000D02*
X12757919Y39560000D01*
X58590000Y21500000D02*
X57600000Y21500000D01*
X61650001Y24560001D02*
X58590000Y21500000D01*
X61650001Y40504999D02*
X61650001Y24560001D01*
X60505000Y41650000D02*
X61650001Y40504999D01*
X57525000Y41650000D02*
X60505000Y41650000D01*
X50790000Y19510000D02*
X43170000Y19510000D01*
X57600000Y16500000D02*
X53800000Y16500000D01*
X53800000Y16500000D02*
X50790000Y19510000D01*
X43170000Y21850000D02*
X41770000Y23250000D01*
X43170000Y19510000D02*
X43170000Y21850000D01*
X36020000Y23250000D02*
X35770000Y23000000D01*
X41770000Y23250000D02*
X36020000Y23250000D01*
X48270000Y36650000D02*
X42900000Y42020000D01*
X57525000Y36650000D02*
X48270000Y36650000D01*
X42900000Y44950000D02*
X41700000Y46150000D01*
X42900000Y42020000D02*
X42900000Y44950000D01*
X35950000Y46150000D02*
X35700000Y45900000D01*
X41700000Y46150000D02*
X35950000Y46150000D01*
X43170000Y11890000D02*
X36820000Y11890000D01*
X36720000Y34400000D02*
X36700000Y34380000D01*
X42900000Y34400000D02*
X36720000Y34400000D01*
X35688630Y19510000D02*
X36820000Y19510000D01*
X34079998Y19510000D02*
X35688630Y19510000D01*
X30139998Y23450000D02*
X34079998Y19510000D01*
X29770000Y23450000D02*
X30139998Y23450000D01*
X34050000Y42000000D02*
X29700000Y46350000D01*
X36700000Y42000000D02*
X34050000Y42000000D01*
X27720000Y28000000D02*
X27270000Y28450000D01*
X35770000Y28000000D02*
X27720000Y28000000D01*
X27270000Y25950000D02*
X24770000Y23450000D01*
X27270000Y28450000D02*
X27270000Y25950000D01*
X28710000Y19510000D02*
X30470000Y19510000D01*
X24770000Y23450000D02*
X28710000Y19510000D01*
X24770000Y20160000D02*
X22850000Y18240000D01*
X24770000Y23450000D02*
X24770000Y20160000D01*
X22760000Y18240000D02*
X18770000Y22230000D01*
X22850000Y18240000D02*
X22760000Y18240000D01*
X16680000Y22230000D02*
X13960000Y19510000D01*
X18770000Y22230000D02*
X16680000Y22230000D01*
X15150000Y13240000D02*
X13960000Y14430000D01*
X22850000Y13240000D02*
X15150000Y13240000D01*
X29130000Y41920000D02*
X24700000Y46350000D01*
X30400000Y41920000D02*
X29130000Y41920000D01*
X27200000Y48850000D02*
X24700000Y46350000D01*
X27200000Y51350000D02*
X27200000Y48850000D01*
X27974999Y50575001D02*
X27200000Y51350000D01*
X29030001Y49519999D02*
X27974999Y50575001D01*
X33188629Y49519999D02*
X29030001Y49519999D01*
X34568630Y50900000D02*
X33188629Y49519999D01*
X35700000Y50900000D02*
X34568630Y50900000D01*
X24700000Y42200000D02*
X23100000Y40600000D01*
X24700000Y46350000D02*
X24700000Y42200000D01*
X19920000Y46350000D02*
X18700000Y45130000D01*
X24700000Y46350000D02*
X19920000Y46350000D01*
X16990000Y45130000D02*
X13960000Y42100000D01*
X18700000Y45130000D02*
X16990000Y45130000D01*
X15380000Y35600000D02*
X13960000Y37020000D01*
X23100000Y35600000D02*
X15380000Y35600000D01*
D23*
G36*
X63340000Y660000D02*
G01*
X660000Y660000D01*
X660000Y6322756D01*
X2723000Y6322756D01*
X2723000Y5677244D01*
X2848933Y5044134D01*
X3095960Y4447758D01*
X3454588Y3911034D01*
X3911034Y3454588D01*
X4447758Y3095960D01*
X5044134Y2848933D01*
X5677244Y2723000D01*
X6322756Y2723000D01*
X6955866Y2848933D01*
X7552242Y3095960D01*
X8088966Y3454588D01*
X8545412Y3911034D01*
X8904040Y4447758D01*
X9151067Y5044134D01*
X9182070Y5200000D01*
X11573435Y5200000D01*
X11611606Y4812440D01*
X11724653Y4439774D01*
X11908232Y4096324D01*
X12155286Y3795286D01*
X12456324Y3548232D01*
X12799774Y3364653D01*
X13172440Y3251606D01*
X13462884Y3223000D01*
X13657116Y3223000D01*
X13947560Y3251606D01*
X14320226Y3364653D01*
X14663676Y3548232D01*
X14830000Y3684730D01*
X14996324Y3548232D01*
X15339774Y3364653D01*
X15712440Y3251606D01*
X16002884Y3223000D01*
X16197116Y3223000D01*
X16487560Y3251606D01*
X16860226Y3364653D01*
X17203676Y3548232D01*
X17370000Y3684730D01*
X17536324Y3548232D01*
X17879774Y3364653D01*
X18252440Y3251606D01*
X18542884Y3223000D01*
X18737116Y3223000D01*
X19027560Y3251606D01*
X19400226Y3364653D01*
X19743676Y3548232D01*
X20044714Y3795286D01*
X20291768Y4096324D01*
X20475347Y4439774D01*
X20565812Y4738000D01*
X46795126Y4738000D01*
X46807811Y4609209D01*
X46820295Y4481084D01*
X46820495Y4480421D01*
X46820564Y4479725D01*
X46858208Y4355629D01*
X46895371Y4232656D01*
X46895697Y4232045D01*
X46895900Y4231375D01*
X46956850Y4117346D01*
X46986876Y4061030D01*
X46987256Y4060460D01*
X47018239Y4002495D01*
X47059058Y3952758D01*
X48582671Y1667336D01*
X48705901Y1516860D01*
X48765411Y1467917D01*
X48789482Y1435492D01*
X48981857Y1261294D01*
X49204520Y1127973D01*
X49448914Y1040654D01*
X49705647Y1002692D01*
X49964853Y1015545D01*
X50216570Y1078719D01*
X50221261Y1080940D01*
X50235211Y1076725D01*
X50314926Y1046620D01*
X50359162Y1039266D01*
X50402083Y1026295D01*
X50486888Y1018032D01*
X50570937Y1004059D01*
X50615751Y1005476D01*
X50660384Y1001127D01*
X50745169Y1009568D01*
X50830332Y1012260D01*
X50874018Y1022395D01*
X50918632Y1026836D01*
X51000133Y1051652D01*
X51083142Y1070909D01*
X51124007Y1089370D01*
X51166903Y1102431D01*
X51242009Y1142677D01*
X51319654Y1177753D01*
X51356129Y1203829D01*
X51395655Y1225009D01*
X51461463Y1279132D01*
X51530777Y1328684D01*
X51561468Y1361379D01*
X51596098Y1389860D01*
X51650082Y1455779D01*
X51708397Y1517903D01*
X51732118Y1555954D01*
X51760529Y1590647D01*
X51800615Y1665832D01*
X51845691Y1738139D01*
X51861534Y1780091D01*
X51882629Y1819656D01*
X51907275Y1901212D01*
X51937380Y1980927D01*
X51944734Y2025163D01*
X51957705Y2068084D01*
X51965968Y2152889D01*
X51979941Y2236938D01*
X51978524Y2281752D01*
X51982873Y2326385D01*
X51974432Y2411170D01*
X51971740Y2496333D01*
X51961605Y2540019D01*
X51957164Y2584633D01*
X51932348Y2666134D01*
X51913091Y2749143D01*
X51894630Y2790008D01*
X51881569Y2832904D01*
X51841324Y2908008D01*
X51806247Y2985655D01*
X51780169Y3022133D01*
X51758991Y3061655D01*
X51704876Y3127454D01*
X51693135Y3143877D01*
X51663737Y3177474D01*
X51594140Y3262098D01*
X51578445Y3274951D01*
X51260657Y3638138D01*
X51306016Y3722998D01*
X51362488Y3823205D01*
X51367107Y3837292D01*
X51374100Y3850375D01*
X51407510Y3960513D01*
X51443348Y4069812D01*
X51445130Y4084530D01*
X51449436Y4098725D01*
X51460716Y4213249D01*
X51474544Y4327455D01*
X51473420Y4342241D01*
X51474874Y4357000D01*
X51463597Y4471501D01*
X51454877Y4586233D01*
X51450889Y4600519D01*
X51449436Y4615275D01*
X51416038Y4725373D01*
X51385102Y4836202D01*
X51378405Y4849433D01*
X51374100Y4863625D01*
X51319854Y4965113D01*
X51297268Y5009735D01*
X51289361Y5022160D01*
X51251761Y5092505D01*
X51219859Y5131377D01*
X50461709Y6322756D01*
X54723000Y6322756D01*
X54723000Y5677244D01*
X54848933Y5044134D01*
X55095960Y4447758D01*
X55454588Y3911034D01*
X55911034Y3454588D01*
X56447758Y3095960D01*
X57044134Y2848933D01*
X57677244Y2723000D01*
X58322756Y2723000D01*
X58955866Y2848933D01*
X59552242Y3095960D01*
X60088966Y3454588D01*
X60545412Y3911034D01*
X60904040Y4447758D01*
X61151067Y5044134D01*
X61277000Y5677244D01*
X61277000Y6322756D01*
X61151067Y6955866D01*
X60904040Y7552242D01*
X60545412Y8088966D01*
X60088966Y8545412D01*
X59552242Y8904040D01*
X58955866Y9151067D01*
X58322756Y9277000D01*
X57677244Y9277000D01*
X57044134Y9151067D01*
X56447758Y8904040D01*
X55911034Y8545412D01*
X55454588Y8088966D01*
X55095960Y7552242D01*
X54848933Y6955866D01*
X54723000Y6322756D01*
X50461709Y6322756D01*
X50194463Y6742714D01*
X50197487Y6757341D01*
X50197660Y6780415D01*
X50201543Y6803153D01*
X50198633Y6909993D01*
X50199436Y7016858D01*
X50195106Y7039514D01*
X50194478Y7062581D01*
X50170782Y7166795D01*
X50150720Y7271770D01*
X50142050Y7293155D01*
X50136936Y7315645D01*
X50093374Y7413212D01*
X50053209Y7512278D01*
X50040534Y7531560D01*
X50031130Y7552622D01*
X49969369Y7639818D01*
X49910651Y7729142D01*
X49894458Y7745581D01*
X49881125Y7764404D01*
X49803534Y7837881D01*
X49774159Y7867701D01*
X49756540Y7882383D01*
X49692686Y7942852D01*
X49657085Y7965263D01*
X48995071Y8516940D01*
X48931779Y8577002D01*
X48840817Y8634395D01*
X48751826Y8694829D01*
X48731215Y8703548D01*
X48712292Y8715488D01*
X48611870Y8754037D01*
X48512809Y8795944D01*
X48490898Y8800474D01*
X48470005Y8808494D01*
X48363982Y8826712D01*
X48258659Y8848486D01*
X48236285Y8848654D01*
X48214229Y8852444D01*
X48106693Y8849628D01*
X47999143Y8850436D01*
X47977165Y8846236D01*
X47954794Y8845650D01*
X47849879Y8821910D01*
X47744231Y8801720D01*
X47723494Y8793312D01*
X47701669Y8788374D01*
X47603412Y8744627D01*
X47503722Y8704209D01*
X47485021Y8691915D01*
X47464581Y8682815D01*
X47376745Y8620739D01*
X47286858Y8561650D01*
X47270917Y8545947D01*
X47252643Y8533032D01*
X47178611Y8455018D01*
X47101972Y8379523D01*
X47089398Y8361007D01*
X47073998Y8344779D01*
X47016610Y8253824D01*
X46956171Y8164826D01*
X46947452Y8144215D01*
X46935512Y8125292D01*
X46896963Y8024870D01*
X46855056Y7925809D01*
X46850526Y7903898D01*
X46842506Y7883005D01*
X46824288Y7776982D01*
X46802514Y7671659D01*
X46802346Y7649285D01*
X46798556Y7627229D01*
X46801372Y7519683D01*
X46800564Y7412143D01*
X46816941Y7326448D01*
X46932561Y6401485D01*
X46936545Y6321147D01*
X46964381Y6210233D01*
X46989626Y6098669D01*
X46995940Y6084488D01*
X46999719Y6069430D01*
X47048671Y5966052D01*
X47095185Y5861581D01*
X47104143Y5848905D01*
X47110788Y5834873D01*
X47178958Y5743044D01*
X47211171Y5697464D01*
X47183860Y5675098D01*
X47183420Y5674564D01*
X47182880Y5674120D01*
X47100592Y5573852D01*
X47019009Y5474655D01*
X47018682Y5474045D01*
X47018239Y5473505D01*
X46957081Y5359086D01*
X46896431Y5245903D01*
X46896230Y5245242D01*
X46895900Y5244625D01*
X46858142Y5120152D01*
X46820836Y4997632D01*
X46820768Y4996947D01*
X46820564Y4996275D01*
X46807839Y4867077D01*
X46795127Y4739384D01*
X46795194Y4738693D01*
X46795126Y4738000D01*
X20565812Y4738000D01*
X20588394Y4812440D01*
X20626565Y5200000D01*
X20588394Y5587560D01*
X20475347Y5960226D01*
X20291768Y6303676D01*
X20155270Y6470000D01*
X20291768Y6636324D01*
X20475347Y6979774D01*
X20588394Y7352440D01*
X20626565Y7740000D01*
X20588394Y8127560D01*
X20475347Y8500226D01*
X20291768Y8843676D01*
X20044714Y9144714D01*
X19743676Y9391768D01*
X19400226Y9575347D01*
X19027560Y9688394D01*
X18737116Y9717000D01*
X18542884Y9717000D01*
X18252440Y9688394D01*
X17879774Y9575347D01*
X17536324Y9391768D01*
X17370000Y9255270D01*
X17203676Y9391768D01*
X16860226Y9575347D01*
X16487560Y9688394D01*
X16197116Y9717000D01*
X16002884Y9717000D01*
X15712440Y9688394D01*
X15339774Y9575347D01*
X15125445Y9460785D01*
X15039157Y9531600D01*
X14843371Y9636250D01*
X14630931Y9700693D01*
X14410000Y9722453D01*
X12710000Y9722453D01*
X12489069Y9700693D01*
X12276629Y9636250D01*
X12080843Y9531600D01*
X11909235Y9390765D01*
X11768400Y9219157D01*
X11663750Y9023371D01*
X11599307Y8810931D01*
X11577547Y8590000D01*
X11577547Y6890000D01*
X11599307Y6669069D01*
X11663750Y6456629D01*
X11768400Y6260843D01*
X11839215Y6174555D01*
X11724653Y5960226D01*
X11611606Y5587560D01*
X11573435Y5200000D01*
X9182070Y5200000D01*
X9277000Y5677244D01*
X9277000Y6322756D01*
X9151067Y6955866D01*
X8904040Y7552242D01*
X8545412Y8088966D01*
X8088966Y8545412D01*
X7552242Y8904040D01*
X6955866Y9151067D01*
X6322756Y9277000D01*
X5677244Y9277000D01*
X5044134Y9151067D01*
X4447758Y8904040D01*
X3911034Y8545412D01*
X3454588Y8088966D01*
X3095960Y7552242D01*
X2848933Y6955866D01*
X2723000Y6322756D01*
X660000Y6322756D01*
X660000Y10897298D01*
X29656903Y10897298D01*
X29728486Y10653329D01*
X29983996Y10532429D01*
X30258184Y10463700D01*
X30540512Y10449783D01*
X30820130Y10491213D01*
X31086292Y10586397D01*
X31211514Y10653329D01*
X31283097Y10897298D01*
X30470000Y11710395D01*
X29656903Y10897298D01*
X660000Y10897298D01*
X660000Y50000000D01*
X1973435Y50000000D01*
X2011606Y49612440D01*
X2124653Y49239774D01*
X2308232Y48896324D01*
X2444730Y48730000D01*
X2308232Y48563676D01*
X2124653Y48220226D01*
X2011606Y47847560D01*
X1973435Y47460000D01*
X2011606Y47072440D01*
X2124653Y46699774D01*
X2308232Y46356324D01*
X2444730Y46190000D01*
X2308232Y46023676D01*
X2124653Y45680226D01*
X2011606Y45307560D01*
X1973435Y44920000D01*
X2011606Y44532440D01*
X2124653Y44159774D01*
X2308232Y43816324D01*
X2444730Y43650000D01*
X2308232Y43483676D01*
X2124653Y43140226D01*
X2011606Y42767560D01*
X1973435Y42380000D01*
X2011606Y41992440D01*
X2124653Y41619774D01*
X2308232Y41276324D01*
X2444730Y41110000D01*
X2308232Y40943676D01*
X2124653Y40600226D01*
X2011606Y40227560D01*
X1973435Y39840000D01*
X2011606Y39452440D01*
X2124653Y39079774D01*
X2308232Y38736324D01*
X2444730Y38570000D01*
X2308232Y38403676D01*
X2124653Y38060226D01*
X2011606Y37687560D01*
X1973435Y37300000D01*
X2011606Y36912440D01*
X2124653Y36539774D01*
X2308232Y36196324D01*
X2444730Y36030000D01*
X2308232Y35863676D01*
X2124653Y35520226D01*
X2011606Y35147560D01*
X1973435Y34760000D01*
X2011606Y34372440D01*
X2124653Y33999774D01*
X2308232Y33656324D01*
X2444730Y33490000D01*
X2308232Y33323676D01*
X2124653Y32980226D01*
X2011606Y32607560D01*
X1973435Y32220000D01*
X2011606Y31832440D01*
X2124653Y31459774D01*
X2308232Y31116324D01*
X2444730Y30950000D01*
X2308232Y30783676D01*
X2124653Y30440226D01*
X2011606Y30067560D01*
X1973435Y29680000D01*
X2011606Y29292440D01*
X2124653Y28919774D01*
X2308232Y28576324D01*
X2555286Y28275286D01*
X2808264Y28067674D01*
X2688359Y27906920D01*
X2563175Y27644099D01*
X2518524Y27496890D01*
X2639845Y27267000D01*
X3833000Y27267000D01*
X3833000Y27287000D01*
X4087000Y27287000D01*
X4087000Y27267000D01*
X6373000Y27267000D01*
X6373000Y27287000D01*
X6627000Y27287000D01*
X6627000Y27267000D01*
X6647000Y27267000D01*
X6647000Y27013000D01*
X6627000Y27013000D01*
X6627000Y26993000D01*
X6373000Y26993000D01*
X6373000Y27013000D01*
X4087000Y27013000D01*
X4087000Y26993000D01*
X3833000Y26993000D01*
X3833000Y27013000D01*
X2639845Y27013000D01*
X2518524Y26783110D01*
X2563175Y26635901D01*
X2688359Y26373080D01*
X2808264Y26212326D01*
X2555286Y26004714D01*
X2308232Y25703676D01*
X2124653Y25360226D01*
X2011606Y24987560D01*
X1973435Y24600000D01*
X2011606Y24212440D01*
X2124653Y23839774D01*
X2308232Y23496324D01*
X2444730Y23330000D01*
X2308232Y23163676D01*
X2124653Y22820226D01*
X2011606Y22447560D01*
X1973435Y22060000D01*
X2011606Y21672440D01*
X2124653Y21299774D01*
X2308232Y20956324D01*
X2555286Y20655286D01*
X2808264Y20447674D01*
X2688359Y20286920D01*
X2563175Y20024099D01*
X2518524Y19876890D01*
X2639845Y19647000D01*
X3833000Y19647000D01*
X3833000Y19667000D01*
X4087000Y19667000D01*
X4087000Y19647000D01*
X6373000Y19647000D01*
X6373000Y19667000D01*
X6627000Y19667000D01*
X6627000Y19647000D01*
X6647000Y19647000D01*
X6647000Y19393000D01*
X6627000Y19393000D01*
X6627000Y17113923D01*
X6475077Y16962000D01*
X6353000Y16962000D01*
X6353000Y17107000D01*
X6373000Y17107000D01*
X6373000Y19393000D01*
X4087000Y19393000D01*
X4087000Y19373000D01*
X3833000Y19373000D01*
X3833000Y19393000D01*
X2639845Y19393000D01*
X2518524Y19163110D01*
X2563175Y19015901D01*
X2688359Y18753080D01*
X2808264Y18592326D01*
X2555286Y18384714D01*
X2308232Y18083676D01*
X2124653Y17740226D01*
X2011606Y17367560D01*
X1973435Y16980000D01*
X2011606Y16592440D01*
X2124653Y16219774D01*
X2308232Y15876324D01*
X2444730Y15710000D01*
X2308232Y15543676D01*
X2124653Y15200226D01*
X2011606Y14827560D01*
X1973435Y14440000D01*
X2011606Y14052440D01*
X2124653Y13679774D01*
X2308232Y13336324D01*
X2555286Y13035286D01*
X2856324Y12788232D01*
X3199774Y12604653D01*
X3572440Y12491606D01*
X3611296Y12487779D01*
X4303021Y11796054D01*
X4353972Y11733970D01*
X4416054Y11683021D01*
X4601714Y11530653D01*
X4636159Y11512242D01*
X4884363Y11379574D01*
X5191053Y11286541D01*
X5430076Y11262999D01*
X5430086Y11262999D01*
X5510000Y11255128D01*
X5589915Y11262999D01*
X9800085Y11262999D01*
X9879999Y11255128D01*
X9959913Y11262999D01*
X9959924Y11262999D01*
X10198947Y11286541D01*
X10505637Y11379574D01*
X10788285Y11530653D01*
X11036028Y11733970D01*
X11086978Y11796053D01*
X12447522Y13156597D01*
X12555286Y13025286D01*
X12856324Y12778232D01*
X13199774Y12594653D01*
X13572440Y12481606D01*
X13611295Y12477779D01*
X13943025Y12146049D01*
X13993971Y12083971D01*
X14056049Y12033025D01*
X14056052Y12033022D01*
X14230326Y11890000D01*
X14241714Y11880654D01*
X14524362Y11729575D01*
X14831052Y11636542D01*
X15070075Y11613000D01*
X15070085Y11613000D01*
X15149999Y11605129D01*
X15229914Y11613000D01*
X21816469Y11613000D01*
X21937223Y11532315D01*
X22287915Y11387053D01*
X22660207Y11313000D01*
X23039793Y11313000D01*
X23412085Y11387053D01*
X23762777Y11532315D01*
X24078391Y11743201D01*
X24154678Y11819488D01*
X29029783Y11819488D01*
X29071213Y11539870D01*
X29166397Y11273708D01*
X29233329Y11148486D01*
X29477298Y11076903D01*
X30290395Y11890000D01*
X30649605Y11890000D01*
X31462702Y11076903D01*
X31706671Y11148486D01*
X31827571Y11403996D01*
X31896300Y11678184D01*
X31906741Y11890000D01*
X34883677Y11890000D01*
X34920883Y11512242D01*
X35031071Y11149001D01*
X35210006Y10814237D01*
X35450813Y10520813D01*
X35744237Y10280006D01*
X36079001Y10101071D01*
X36442242Y9990883D01*
X36725342Y9963000D01*
X36914658Y9963000D01*
X37197758Y9990883D01*
X37560999Y10101071D01*
X37863947Y10263000D01*
X42136469Y10263000D01*
X42257223Y10182315D01*
X42607915Y10037053D01*
X42980207Y9963000D01*
X43359793Y9963000D01*
X43732085Y10037053D01*
X44082777Y10182315D01*
X44398391Y10393201D01*
X44666799Y10661609D01*
X44877685Y10977223D01*
X45022947Y11327915D01*
X45097000Y11700207D01*
X45097000Y12079793D01*
X45022947Y12452085D01*
X44877685Y12802777D01*
X44666799Y13118391D01*
X44398391Y13386799D01*
X44082777Y13597685D01*
X43732085Y13742947D01*
X43359793Y13817000D01*
X42980207Y13817000D01*
X42607915Y13742947D01*
X42257223Y13597685D01*
X42136469Y13517000D01*
X37863947Y13517000D01*
X37560999Y13678929D01*
X37197758Y13789117D01*
X36914658Y13817000D01*
X36725342Y13817000D01*
X36442242Y13789117D01*
X36079001Y13678929D01*
X35744237Y13499994D01*
X35450813Y13259187D01*
X35210006Y12965763D01*
X35031071Y12630999D01*
X34920883Y12267758D01*
X34883677Y11890000D01*
X31906741Y11890000D01*
X31910217Y11960512D01*
X31868787Y12240130D01*
X31773603Y12506292D01*
X31706671Y12631514D01*
X31462702Y12703097D01*
X30649605Y11890000D01*
X30290395Y11890000D01*
X29477298Y12703097D01*
X29233329Y12631514D01*
X29112429Y12376004D01*
X29043700Y12101816D01*
X29029783Y11819488D01*
X24154678Y11819488D01*
X24346799Y12011609D01*
X24557685Y12327223D01*
X24702947Y12677915D01*
X24743681Y12882702D01*
X29656903Y12882702D01*
X30470000Y12069605D01*
X31283097Y12882702D01*
X31211514Y13126671D01*
X30956004Y13247571D01*
X30681816Y13316300D01*
X30399488Y13330217D01*
X30119870Y13288787D01*
X29853708Y13193603D01*
X29728486Y13126671D01*
X29656903Y12882702D01*
X24743681Y12882702D01*
X24777000Y13050207D01*
X24777000Y13429793D01*
X24702947Y13802085D01*
X24557685Y14152777D01*
X24346799Y14468391D01*
X24078391Y14736799D01*
X23762777Y14947685D01*
X23412085Y15092947D01*
X23039793Y15167000D01*
X22660207Y15167000D01*
X22287915Y15092947D01*
X21937223Y14947685D01*
X21816469Y14867000D01*
X15893397Y14867000D01*
X15795347Y15190226D01*
X15611768Y15533676D01*
X15475270Y15700000D01*
X15611768Y15866324D01*
X15795347Y16209774D01*
X15908394Y16582440D01*
X15946565Y16970000D01*
X15908394Y17357560D01*
X15795347Y17730226D01*
X15680785Y17944555D01*
X15751600Y18030843D01*
X15856250Y18226629D01*
X15920693Y18439069D01*
X15942453Y18660000D01*
X15942453Y19191528D01*
X17353926Y20603000D01*
X17399696Y20603000D01*
X17582585Y20452907D01*
X17952094Y20255401D01*
X18353035Y20133776D01*
X18588489Y20110586D01*
X20991067Y17708007D01*
X20997053Y17677915D01*
X21142315Y17327223D01*
X21353201Y17011609D01*
X21621609Y16743201D01*
X21937223Y16532315D01*
X22287915Y16387053D01*
X22660207Y16313000D01*
X23039793Y16313000D01*
X23412085Y16387053D01*
X23762777Y16532315D01*
X24078391Y16743201D01*
X24346799Y17011609D01*
X24557685Y17327223D01*
X24702947Y17677915D01*
X24731280Y17820354D01*
X25863951Y18953025D01*
X25926029Y19003971D01*
X25976975Y19066049D01*
X25976978Y19066052D01*
X26129346Y19251714D01*
X26165956Y19320207D01*
X26280425Y19534362D01*
X26304697Y19614378D01*
X27503020Y18416055D01*
X27553971Y18353971D01*
X27630988Y18290765D01*
X27801713Y18150654D01*
X28064063Y18010425D01*
X28084362Y17999575D01*
X28391052Y17906542D01*
X28630075Y17883000D01*
X28630085Y17883000D01*
X28709999Y17875129D01*
X28789914Y17883000D01*
X29426053Y17883000D01*
X29729001Y17721071D01*
X30092242Y17610883D01*
X30375342Y17583000D01*
X30564658Y17583000D01*
X30847758Y17610883D01*
X31210999Y17721071D01*
X31545763Y17900006D01*
X31839187Y18140813D01*
X32079994Y18434237D01*
X32258929Y18769001D01*
X32319709Y18969364D01*
X32873018Y18416055D01*
X32923969Y18353971D01*
X33000986Y18290765D01*
X33171711Y18150654D01*
X33434061Y18010425D01*
X33454360Y17999575D01*
X33761050Y17906542D01*
X34000073Y17883000D01*
X34000083Y17883000D01*
X34079997Y17875129D01*
X34159912Y17883000D01*
X35786469Y17883000D01*
X35907223Y17802315D01*
X36257915Y17657053D01*
X36630207Y17583000D01*
X37009793Y17583000D01*
X37382085Y17657053D01*
X37732777Y17802315D01*
X38048391Y18013201D01*
X38316799Y18281609D01*
X38527685Y18597223D01*
X38672947Y18947915D01*
X38747000Y19320207D01*
X38747000Y19699793D01*
X38672947Y20072085D01*
X38527685Y20422777D01*
X38316799Y20738391D01*
X38048391Y21006799D01*
X37958864Y21066619D01*
X38198899Y21306654D01*
X38410275Y21623000D01*
X41096075Y21623000D01*
X41543001Y21176074D01*
X41543000Y20553948D01*
X41381071Y20250999D01*
X41270883Y19887758D01*
X41233677Y19510000D01*
X41270883Y19132242D01*
X41381071Y18769001D01*
X41560006Y18434237D01*
X41800813Y18140813D01*
X42094237Y17900006D01*
X42429001Y17721071D01*
X42792242Y17610883D01*
X43075342Y17583000D01*
X43264658Y17583000D01*
X43547758Y17610883D01*
X43910999Y17721071D01*
X44213947Y17883000D01*
X50116075Y17883000D01*
X52593025Y15406049D01*
X52643971Y15343971D01*
X52706049Y15293025D01*
X52706052Y15293022D01*
X52810968Y15206920D01*
X52891714Y15140654D01*
X53174362Y14989575D01*
X53481052Y14896542D01*
X53800000Y14865128D01*
X53879925Y14873000D01*
X54684837Y14873000D01*
X54819235Y14709235D01*
X54990843Y14568400D01*
X55186629Y14463750D01*
X55399069Y14399307D01*
X55620000Y14377547D01*
X59580000Y14377547D01*
X59800931Y14399307D01*
X60013371Y14463750D01*
X60209157Y14568400D01*
X60380765Y14709235D01*
X60521600Y14880843D01*
X60626250Y15076629D01*
X60690693Y15289069D01*
X60712453Y15510000D01*
X60712453Y17490000D01*
X60690693Y17710931D01*
X60626250Y17923371D01*
X60521600Y18119157D01*
X60380765Y18290765D01*
X60209157Y18431600D01*
X60013371Y18536250D01*
X59800931Y18600693D01*
X59777581Y18602993D01*
X59788596Y18606334D01*
X60330091Y18895770D01*
X60804716Y19285284D01*
X61194230Y19759909D01*
X61483666Y20301404D01*
X61661899Y20888961D01*
X61722081Y21500000D01*
X61661899Y22111039D01*
X61624675Y22233750D01*
X62743952Y23353026D01*
X62806030Y23403972D01*
X62856976Y23466050D01*
X62856979Y23466053D01*
X63009347Y23651715D01*
X63056763Y23740424D01*
X63160426Y23934363D01*
X63253459Y24241053D01*
X63277001Y24480076D01*
X63277001Y24480084D01*
X63284872Y24560001D01*
X63277001Y24639918D01*
X63277001Y40425082D01*
X63284872Y40504999D01*
X63277001Y40584916D01*
X63277001Y40584924D01*
X63253459Y40823947D01*
X63160426Y41130637D01*
X63009347Y41413285D01*
X62931383Y41508285D01*
X62856979Y41598947D01*
X62856976Y41598950D01*
X62806030Y41661028D01*
X62743953Y41711973D01*
X61711979Y42743946D01*
X61661029Y42806029D01*
X61413286Y43009346D01*
X61286528Y43077100D01*
X61119230Y43390091D01*
X60729716Y43864716D01*
X60255091Y44254230D01*
X59713596Y44543666D01*
X59126039Y44721899D01*
X58668120Y44767000D01*
X56381880Y44767000D01*
X55923961Y44721899D01*
X55336404Y44543666D01*
X54794909Y44254230D01*
X54320284Y43864716D01*
X53930770Y43390091D01*
X53641334Y42848596D01*
X53463101Y42261039D01*
X53402919Y41650000D01*
X53463101Y41038961D01*
X53641334Y40451404D01*
X53930770Y39909909D01*
X54320284Y39435284D01*
X54794909Y39045770D01*
X55336404Y38756334D01*
X55347419Y38752993D01*
X55324069Y38750693D01*
X55111629Y38686250D01*
X54915843Y38581600D01*
X54744235Y38440765D01*
X54609837Y38277000D01*
X48943926Y38277000D01*
X44788645Y42432280D01*
X44688929Y42760999D01*
X44527000Y43063947D01*
X44527000Y44870086D01*
X44534871Y44950001D01*
X44527000Y45029915D01*
X44527000Y45029925D01*
X44503458Y45268948D01*
X44410425Y45575638D01*
X44259346Y45858286D01*
X44175702Y45960207D01*
X44106978Y46043948D01*
X44106975Y46043951D01*
X44056029Y46106029D01*
X43993951Y46156975D01*
X43879791Y46271135D01*
X54954782Y46271135D01*
X54985095Y46145472D01*
X55113304Y45852795D01*
X55296148Y45590754D01*
X55526601Y45369419D01*
X55795806Y45197296D01*
X56093418Y45081000D01*
X56408000Y45025000D01*
X57398000Y45025000D01*
X57398000Y46523000D01*
X57652000Y46523000D01*
X57652000Y45025000D01*
X58642000Y45025000D01*
X58956582Y45081000D01*
X59254194Y45197296D01*
X59523399Y45369419D01*
X59753852Y45590754D01*
X59936696Y45852795D01*
X60064905Y46145472D01*
X60095218Y46271135D01*
X59975740Y46523000D01*
X57652000Y46523000D01*
X57398000Y46523000D01*
X55074260Y46523000D01*
X54954782Y46271135D01*
X43879791Y46271135D01*
X43581280Y46569646D01*
X43552947Y46712085D01*
X43421732Y47028865D01*
X54954782Y47028865D01*
X55074260Y46777000D01*
X57398000Y46777000D01*
X57398000Y48275000D01*
X57652000Y48275000D01*
X57652000Y46777000D01*
X59975740Y46777000D01*
X60095218Y47028865D01*
X60064905Y47154528D01*
X59936696Y47447205D01*
X59753852Y47709246D01*
X59523399Y47930581D01*
X59254194Y48102704D01*
X58956582Y48219000D01*
X58642000Y48275000D01*
X57652000Y48275000D01*
X57398000Y48275000D01*
X56408000Y48275000D01*
X56093418Y48219000D01*
X55795806Y48102704D01*
X55526601Y47930581D01*
X55296148Y47709246D01*
X55113304Y47447205D01*
X54985095Y47154528D01*
X54954782Y47028865D01*
X43421732Y47028865D01*
X43407685Y47062777D01*
X43196799Y47378391D01*
X42928391Y47646799D01*
X42612777Y47857685D01*
X42262085Y48002947D01*
X41889793Y48077000D01*
X41510207Y48077000D01*
X41137915Y48002947D01*
X40787223Y47857685D01*
X40666469Y47777000D01*
X38206639Y47777000D01*
X38128899Y47893346D01*
X37693346Y48328899D01*
X37586936Y48400000D01*
X37693346Y48471101D01*
X38128899Y48906654D01*
X38471111Y49418810D01*
X38706831Y49987888D01*
X38740528Y50157298D01*
X43186903Y50157298D01*
X43258486Y49913329D01*
X43513996Y49792429D01*
X43788184Y49723700D01*
X44070512Y49709783D01*
X44350130Y49751213D01*
X44616292Y49846397D01*
X44741514Y49913329D01*
X44813097Y50157298D01*
X44000000Y50970395D01*
X43186903Y50157298D01*
X38740528Y50157298D01*
X38827000Y50592017D01*
X38827000Y51079488D01*
X42559783Y51079488D01*
X42601213Y50799870D01*
X42696397Y50533708D01*
X42763329Y50408486D01*
X43007298Y50336903D01*
X43820395Y51150000D01*
X44179605Y51150000D01*
X44992702Y50336903D01*
X45236671Y50408486D01*
X45357571Y50663996D01*
X45426300Y50938184D01*
X45440217Y51220512D01*
X45398787Y51500130D01*
X45303603Y51766292D01*
X45236671Y51891514D01*
X44992702Y51963097D01*
X44179605Y51150000D01*
X43820395Y51150000D01*
X43007298Y51963097D01*
X42763329Y51891514D01*
X42642429Y51636004D01*
X42573700Y51361816D01*
X42559783Y51079488D01*
X38827000Y51079488D01*
X38827000Y51207983D01*
X38706831Y51812112D01*
X38569897Y52142702D01*
X43186903Y52142702D01*
X44000000Y51329605D01*
X44813097Y52142702D01*
X44741514Y52386671D01*
X44486004Y52507571D01*
X44211816Y52576300D01*
X43929488Y52590217D01*
X43649870Y52548787D01*
X43383708Y52453603D01*
X43258486Y52386671D01*
X43186903Y52142702D01*
X38569897Y52142702D01*
X38471111Y52381190D01*
X38128899Y52893346D01*
X37693346Y53328899D01*
X37181190Y53671111D01*
X36612112Y53906831D01*
X36007983Y54027000D01*
X35392017Y54027000D01*
X34787888Y53906831D01*
X34218810Y53671111D01*
X33706654Y53328899D01*
X33271101Y52893346D01*
X32928889Y52381190D01*
X32693169Y51812112D01*
X32573000Y51207983D01*
X32573000Y51205295D01*
X32514704Y51146999D01*
X29703926Y51146999D01*
X29049460Y51801465D01*
X29028907Y51904793D01*
X28885531Y52250935D01*
X28677380Y52562454D01*
X28412454Y52827380D01*
X28100935Y53035531D01*
X27754793Y53178907D01*
X27387331Y53252000D01*
X27012669Y53252000D01*
X26645207Y53178907D01*
X26299065Y53035531D01*
X25987546Y52827380D01*
X25722620Y52562454D01*
X25514469Y52250935D01*
X25371093Y51904793D01*
X25298000Y51537331D01*
X25298000Y51162669D01*
X25371093Y50795207D01*
X25514469Y50449065D01*
X25573000Y50361467D01*
X25573001Y49523927D01*
X24248535Y48199460D01*
X24145207Y48178907D01*
X23799065Y48035531D01*
X23711467Y47977000D01*
X19999925Y47977000D01*
X19920000Y47984872D01*
X19840075Y47977000D01*
X19601052Y47953458D01*
X19294362Y47860425D01*
X19011714Y47709346D01*
X18763971Y47506029D01*
X18713022Y47443947D01*
X18518489Y47249414D01*
X18283035Y47226224D01*
X17882094Y47104599D01*
X17512585Y46907093D01*
X17329696Y46757000D01*
X17069914Y46757000D01*
X16989999Y46764871D01*
X16910085Y46757000D01*
X16910075Y46757000D01*
X16671052Y46733458D01*
X16364362Y46640425D01*
X16144676Y46523000D01*
X16081714Y46489346D01*
X15896052Y46336978D01*
X15896049Y46336975D01*
X15833971Y46286029D01*
X15783025Y46223951D01*
X13641528Y44082453D01*
X13110000Y44082453D01*
X12889069Y44060693D01*
X12676629Y43996250D01*
X12480843Y43891600D01*
X12309235Y43750765D01*
X12168400Y43579157D01*
X12063750Y43383371D01*
X11999307Y43170931D01*
X11977547Y42950000D01*
X11977547Y41250000D01*
X11999307Y41029069D01*
X12007065Y41003495D01*
X11849633Y40919346D01*
X11601890Y40716029D01*
X11550939Y40653945D01*
X8460602Y37563608D01*
X8448394Y37687560D01*
X8335347Y38060226D01*
X8151768Y38403676D01*
X8015270Y38570000D01*
X8151768Y38736324D01*
X8335347Y39079774D01*
X8448394Y39452440D01*
X8486565Y39840000D01*
X8448394Y40227560D01*
X8335347Y40600226D01*
X8151768Y40943676D01*
X8015270Y41110000D01*
X8151768Y41276324D01*
X8335347Y41619774D01*
X8448394Y41992440D01*
X8486565Y42380000D01*
X8448394Y42767560D01*
X8335347Y43140226D01*
X8151768Y43483676D01*
X8015270Y43650000D01*
X8151768Y43816324D01*
X8335347Y44159774D01*
X8448394Y44532440D01*
X8486565Y44920000D01*
X8448394Y45307560D01*
X8335347Y45680226D01*
X8151768Y46023676D01*
X8015270Y46190000D01*
X8151768Y46356324D01*
X8335347Y46699774D01*
X8448394Y47072440D01*
X8486565Y47460000D01*
X8448394Y47847560D01*
X8335347Y48220226D01*
X8220785Y48434555D01*
X8291600Y48520843D01*
X8396250Y48716629D01*
X8460693Y48929069D01*
X8482453Y49150000D01*
X8482453Y50549566D01*
X17109876Y50549566D01*
X17166498Y50362893D01*
X17306601Y50074618D01*
X17500252Y49819215D01*
X17740008Y49606499D01*
X18016656Y49444644D01*
X18319565Y49339871D01*
X18573000Y49458685D01*
X18573000Y50803000D01*
X18827000Y50803000D01*
X18827000Y49458685D01*
X19080435Y49339871D01*
X19383344Y49444644D01*
X19659992Y49606499D01*
X19899748Y49819215D01*
X20093399Y50074618D01*
X20233502Y50362893D01*
X20290124Y50549566D01*
X20170777Y50803000D01*
X18827000Y50803000D01*
X18573000Y50803000D01*
X17229223Y50803000D01*
X17109876Y50549566D01*
X8482453Y50549566D01*
X8482453Y50850000D01*
X8460693Y51070931D01*
X8396250Y51283371D01*
X8381785Y51310434D01*
X17109876Y51310434D01*
X17229223Y51057000D01*
X18573000Y51057000D01*
X18573000Y52401315D01*
X18827000Y52401315D01*
X18827000Y51057000D01*
X20170777Y51057000D01*
X20290124Y51310434D01*
X20233502Y51497107D01*
X20093399Y51785382D01*
X19899748Y52040785D01*
X19659992Y52253501D01*
X19383344Y52415356D01*
X19080435Y52520129D01*
X18827000Y52401315D01*
X18573000Y52401315D01*
X18319565Y52520129D01*
X18016656Y52415356D01*
X17740008Y52253501D01*
X17500252Y52040785D01*
X17306601Y51785382D01*
X17166498Y51497107D01*
X17109876Y51310434D01*
X8381785Y51310434D01*
X8291600Y51479157D01*
X8150765Y51650765D01*
X7979157Y51791600D01*
X7783371Y51896250D01*
X7570931Y51960693D01*
X7350000Y51982453D01*
X5650000Y51982453D01*
X5429069Y51960693D01*
X5216629Y51896250D01*
X5020843Y51791600D01*
X4934555Y51720785D01*
X4720226Y51835347D01*
X4347560Y51948394D01*
X4057116Y51977000D01*
X3862884Y51977000D01*
X3572440Y51948394D01*
X3199774Y51835347D01*
X2856324Y51651768D01*
X2555286Y51404714D01*
X2308232Y51103676D01*
X2124653Y50760226D01*
X2011606Y50387560D01*
X1973435Y50000000D01*
X660000Y50000000D01*
X660000Y54488000D01*
X46795126Y54488000D01*
X46807811Y54359209D01*
X46820295Y54231084D01*
X46820495Y54230421D01*
X46820564Y54229725D01*
X46858208Y54105629D01*
X46895371Y53982656D01*
X46895697Y53982045D01*
X46895900Y53981375D01*
X46956850Y53867346D01*
X46986876Y53811030D01*
X46987256Y53810460D01*
X47018239Y53752495D01*
X47059058Y53702758D01*
X48582671Y51417336D01*
X48705901Y51266860D01*
X48765411Y51217917D01*
X48789482Y51185492D01*
X48981857Y51011294D01*
X49204520Y50877973D01*
X49448914Y50790654D01*
X49705647Y50752692D01*
X49964853Y50765545D01*
X50216570Y50828719D01*
X50221261Y50830940D01*
X50235211Y50826725D01*
X50314926Y50796620D01*
X50359162Y50789266D01*
X50402083Y50776295D01*
X50486888Y50768032D01*
X50570937Y50754059D01*
X50615751Y50755476D01*
X50660384Y50751127D01*
X50745169Y50759568D01*
X50830332Y50762260D01*
X50874018Y50772395D01*
X50918632Y50776836D01*
X51000133Y50801652D01*
X51083142Y50820909D01*
X51124007Y50839370D01*
X51166903Y50852431D01*
X51242009Y50892677D01*
X51319654Y50927753D01*
X51356129Y50953829D01*
X51395655Y50975009D01*
X51461463Y51029132D01*
X51530777Y51078684D01*
X51561468Y51111379D01*
X51596098Y51139860D01*
X51650082Y51205779D01*
X51708397Y51267903D01*
X51732118Y51305954D01*
X51760529Y51340647D01*
X51800615Y51415832D01*
X51845691Y51488139D01*
X51861534Y51530091D01*
X51882629Y51569656D01*
X51907275Y51651212D01*
X51937380Y51730927D01*
X51944734Y51775163D01*
X51957705Y51818084D01*
X51965968Y51902889D01*
X51979941Y51986938D01*
X51978524Y52031752D01*
X51982873Y52076385D01*
X51974432Y52161170D01*
X51971740Y52246333D01*
X51961605Y52290019D01*
X51957164Y52334633D01*
X51932348Y52416134D01*
X51913091Y52499143D01*
X51894630Y52540008D01*
X51881569Y52582904D01*
X51841324Y52658008D01*
X51806247Y52735655D01*
X51780169Y52772133D01*
X51758991Y52811655D01*
X51704876Y52877454D01*
X51693135Y52893877D01*
X51663737Y52927474D01*
X51594140Y53012098D01*
X51578445Y53024951D01*
X51260657Y53388138D01*
X51306016Y53472998D01*
X51362488Y53573205D01*
X51367107Y53587292D01*
X51374100Y53600375D01*
X51407510Y53710513D01*
X51443348Y53819812D01*
X51445130Y53834530D01*
X51449436Y53848725D01*
X51460716Y53963249D01*
X51474544Y54077455D01*
X51473420Y54092241D01*
X51474874Y54107000D01*
X51463597Y54221501D01*
X51454877Y54336233D01*
X51450889Y54350519D01*
X51449436Y54365275D01*
X51416038Y54475373D01*
X51385102Y54586202D01*
X51378405Y54599433D01*
X51374100Y54613625D01*
X51319854Y54715113D01*
X51297268Y54759735D01*
X51289361Y54772160D01*
X51251761Y54842505D01*
X51219859Y54881377D01*
X50194463Y56492714D01*
X50197487Y56507341D01*
X50197660Y56530415D01*
X50201543Y56553153D01*
X50198633Y56659993D01*
X50199436Y56766858D01*
X50195106Y56789514D01*
X50194478Y56812581D01*
X50170782Y56916795D01*
X50150720Y57021770D01*
X50142050Y57043155D01*
X50136936Y57065645D01*
X50093374Y57163212D01*
X50053209Y57262278D01*
X50040534Y57281560D01*
X50031130Y57302622D01*
X49969369Y57389818D01*
X49910651Y57479142D01*
X49894458Y57495581D01*
X49881125Y57514404D01*
X49803534Y57587881D01*
X49774159Y57617701D01*
X49756540Y57632383D01*
X49692686Y57692852D01*
X49657085Y57715263D01*
X48995071Y58266940D01*
X48936254Y58322756D01*
X54723000Y58322756D01*
X54723000Y57677244D01*
X54848933Y57044134D01*
X55095960Y56447758D01*
X55454588Y55911034D01*
X55911034Y55454588D01*
X56447758Y55095960D01*
X57044134Y54848933D01*
X57677244Y54723000D01*
X58322756Y54723000D01*
X58955866Y54848933D01*
X59552242Y55095960D01*
X60088966Y55454588D01*
X60545412Y55911034D01*
X60904040Y56447758D01*
X61151067Y57044134D01*
X61277000Y57677244D01*
X61277000Y58322756D01*
X61151067Y58955866D01*
X60904040Y59552242D01*
X60545412Y60088966D01*
X60088966Y60545412D01*
X59552242Y60904040D01*
X58955866Y61151067D01*
X58322756Y61277000D01*
X57677244Y61277000D01*
X57044134Y61151067D01*
X56447758Y60904040D01*
X55911034Y60545412D01*
X55454588Y60088966D01*
X55095960Y59552242D01*
X54848933Y58955866D01*
X54723000Y58322756D01*
X48936254Y58322756D01*
X48931779Y58327002D01*
X48840817Y58384395D01*
X48751826Y58444829D01*
X48731215Y58453548D01*
X48712292Y58465488D01*
X48611870Y58504037D01*
X48512809Y58545944D01*
X48490898Y58550474D01*
X48470005Y58558494D01*
X48363982Y58576712D01*
X48258659Y58598486D01*
X48236285Y58598654D01*
X48214229Y58602444D01*
X48106693Y58599628D01*
X47999143Y58600436D01*
X47977165Y58596236D01*
X47954794Y58595650D01*
X47849879Y58571910D01*
X47744231Y58551720D01*
X47723494Y58543312D01*
X47701669Y58538374D01*
X47603412Y58494627D01*
X47503722Y58454209D01*
X47485021Y58441915D01*
X47464581Y58432815D01*
X47376745Y58370739D01*
X47286858Y58311650D01*
X47270917Y58295947D01*
X47252643Y58283032D01*
X47178611Y58205018D01*
X47101972Y58129523D01*
X47089398Y58111007D01*
X47073998Y58094779D01*
X47016610Y58003824D01*
X46956171Y57914826D01*
X46947452Y57894215D01*
X46935512Y57875292D01*
X46896963Y57774870D01*
X46855056Y57675809D01*
X46850526Y57653898D01*
X46842506Y57633005D01*
X46824288Y57526982D01*
X46802514Y57421659D01*
X46802346Y57399285D01*
X46798556Y57377229D01*
X46801372Y57269683D01*
X46800564Y57162143D01*
X46816941Y57076448D01*
X46932561Y56151485D01*
X46936545Y56071147D01*
X46964381Y55960233D01*
X46989626Y55848669D01*
X46995940Y55834488D01*
X46999719Y55819430D01*
X47048671Y55716052D01*
X47095185Y55611581D01*
X47104143Y55598905D01*
X47110788Y55584873D01*
X47178958Y55493044D01*
X47211171Y55447464D01*
X47183860Y55425098D01*
X47183420Y55424564D01*
X47182880Y55424120D01*
X47100592Y55323852D01*
X47019009Y55224655D01*
X47018682Y55224045D01*
X47018239Y55223505D01*
X46957081Y55109086D01*
X46896431Y54995903D01*
X46896230Y54995242D01*
X46895900Y54994625D01*
X46858142Y54870152D01*
X46820836Y54747632D01*
X46820768Y54746947D01*
X46820564Y54746275D01*
X46807839Y54617077D01*
X46795127Y54489384D01*
X46795194Y54488693D01*
X46795126Y54488000D01*
X660000Y54488000D01*
X660000Y58322756D01*
X2723000Y58322756D01*
X2723000Y57677244D01*
X2848933Y57044134D01*
X3095960Y56447758D01*
X3454588Y55911034D01*
X3911034Y55454588D01*
X4447758Y55095960D01*
X5044134Y54848933D01*
X5677244Y54723000D01*
X6322756Y54723000D01*
X6955866Y54848933D01*
X7552242Y55095960D01*
X8088966Y55454588D01*
X8545412Y55911034D01*
X8904040Y56447758D01*
X9151067Y57044134D01*
X9277000Y57677244D01*
X9277000Y58322756D01*
X9151067Y58955866D01*
X8904040Y59552242D01*
X8545412Y60088966D01*
X8088966Y60545412D01*
X7552242Y60904040D01*
X6955866Y61151067D01*
X6322756Y61277000D01*
X5677244Y61277000D01*
X5044134Y61151067D01*
X4447758Y60904040D01*
X3911034Y60545412D01*
X3454588Y60088966D01*
X3095960Y59552242D01*
X2848933Y58955866D01*
X2723000Y58322756D01*
X660000Y58322756D01*
X660000Y63340000D01*
X63340001Y63340000D01*
X63340000Y660000D01*
X63340000Y660000D01*
G37*
X63340000Y660000D02*
X660000Y660000D01*
X660000Y6322756D01*
X2723000Y6322756D01*
X2723000Y5677244D01*
X2848933Y5044134D01*
X3095960Y4447758D01*
X3454588Y3911034D01*
X3911034Y3454588D01*
X4447758Y3095960D01*
X5044134Y2848933D01*
X5677244Y2723000D01*
X6322756Y2723000D01*
X6955866Y2848933D01*
X7552242Y3095960D01*
X8088966Y3454588D01*
X8545412Y3911034D01*
X8904040Y4447758D01*
X9151067Y5044134D01*
X9182070Y5200000D01*
X11573435Y5200000D01*
X11611606Y4812440D01*
X11724653Y4439774D01*
X11908232Y4096324D01*
X12155286Y3795286D01*
X12456324Y3548232D01*
X12799774Y3364653D01*
X13172440Y3251606D01*
X13462884Y3223000D01*
X13657116Y3223000D01*
X13947560Y3251606D01*
X14320226Y3364653D01*
X14663676Y3548232D01*
X14830000Y3684730D01*
X14996324Y3548232D01*
X15339774Y3364653D01*
X15712440Y3251606D01*
X16002884Y3223000D01*
X16197116Y3223000D01*
X16487560Y3251606D01*
X16860226Y3364653D01*
X17203676Y3548232D01*
X17370000Y3684730D01*
X17536324Y3548232D01*
X17879774Y3364653D01*
X18252440Y3251606D01*
X18542884Y3223000D01*
X18737116Y3223000D01*
X19027560Y3251606D01*
X19400226Y3364653D01*
X19743676Y3548232D01*
X20044714Y3795286D01*
X20291768Y4096324D01*
X20475347Y4439774D01*
X20565812Y4738000D01*
X46795126Y4738000D01*
X46807811Y4609209D01*
X46820295Y4481084D01*
X46820495Y4480421D01*
X46820564Y4479725D01*
X46858208Y4355629D01*
X46895371Y4232656D01*
X46895697Y4232045D01*
X46895900Y4231375D01*
X46956850Y4117346D01*
X46986876Y4061030D01*
X46987256Y4060460D01*
X47018239Y4002495D01*
X47059058Y3952758D01*
X48582671Y1667336D01*
X48705901Y1516860D01*
X48765411Y1467917D01*
X48789482Y1435492D01*
X48981857Y1261294D01*
X49204520Y1127973D01*
X49448914Y1040654D01*
X49705647Y1002692D01*
X49964853Y1015545D01*
X50216570Y1078719D01*
X50221261Y1080940D01*
X50235211Y1076725D01*
X50314926Y1046620D01*
X50359162Y1039266D01*
X50402083Y1026295D01*
X50486888Y1018032D01*
X50570937Y1004059D01*
X50615751Y1005476D01*
X50660384Y1001127D01*
X50745169Y1009568D01*
X50830332Y1012260D01*
X50874018Y1022395D01*
X50918632Y1026836D01*
X51000133Y1051652D01*
X51083142Y1070909D01*
X51124007Y1089370D01*
X51166903Y1102431D01*
X51242009Y1142677D01*
X51319654Y1177753D01*
X51356129Y1203829D01*
X51395655Y1225009D01*
X51461463Y1279132D01*
X51530777Y1328684D01*
X51561468Y1361379D01*
X51596098Y1389860D01*
X51650082Y1455779D01*
X51708397Y1517903D01*
X51732118Y1555954D01*
X51760529Y1590647D01*
X51800615Y1665832D01*
X51845691Y1738139D01*
X51861534Y1780091D01*
X51882629Y1819656D01*
X51907275Y1901212D01*
X51937380Y1980927D01*
X51944734Y2025163D01*
X51957705Y2068084D01*
X51965968Y2152889D01*
X51979941Y2236938D01*
X51978524Y2281752D01*
X51982873Y2326385D01*
X51974432Y2411170D01*
X51971740Y2496333D01*
X51961605Y2540019D01*
X51957164Y2584633D01*
X51932348Y2666134D01*
X51913091Y2749143D01*
X51894630Y2790008D01*
X51881569Y2832904D01*
X51841324Y2908008D01*
X51806247Y2985655D01*
X51780169Y3022133D01*
X51758991Y3061655D01*
X51704876Y3127454D01*
X51693135Y3143877D01*
X51663737Y3177474D01*
X51594140Y3262098D01*
X51578445Y3274951D01*
X51260657Y3638138D01*
X51306016Y3722998D01*
X51362488Y3823205D01*
X51367107Y3837292D01*
X51374100Y3850375D01*
X51407510Y3960513D01*
X51443348Y4069812D01*
X51445130Y4084530D01*
X51449436Y4098725D01*
X51460716Y4213249D01*
X51474544Y4327455D01*
X51473420Y4342241D01*
X51474874Y4357000D01*
X51463597Y4471501D01*
X51454877Y4586233D01*
X51450889Y4600519D01*
X51449436Y4615275D01*
X51416038Y4725373D01*
X51385102Y4836202D01*
X51378405Y4849433D01*
X51374100Y4863625D01*
X51319854Y4965113D01*
X51297268Y5009735D01*
X51289361Y5022160D01*
X51251761Y5092505D01*
X51219859Y5131377D01*
X50461709Y6322756D01*
X54723000Y6322756D01*
X54723000Y5677244D01*
X54848933Y5044134D01*
X55095960Y4447758D01*
X55454588Y3911034D01*
X55911034Y3454588D01*
X56447758Y3095960D01*
X57044134Y2848933D01*
X57677244Y2723000D01*
X58322756Y2723000D01*
X58955866Y2848933D01*
X59552242Y3095960D01*
X60088966Y3454588D01*
X60545412Y3911034D01*
X60904040Y4447758D01*
X61151067Y5044134D01*
X61277000Y5677244D01*
X61277000Y6322756D01*
X61151067Y6955866D01*
X60904040Y7552242D01*
X60545412Y8088966D01*
X60088966Y8545412D01*
X59552242Y8904040D01*
X58955866Y9151067D01*
X58322756Y9277000D01*
X57677244Y9277000D01*
X57044134Y9151067D01*
X56447758Y8904040D01*
X55911034Y8545412D01*
X55454588Y8088966D01*
X55095960Y7552242D01*
X54848933Y6955866D01*
X54723000Y6322756D01*
X50461709Y6322756D01*
X50194463Y6742714D01*
X50197487Y6757341D01*
X50197660Y6780415D01*
X50201543Y6803153D01*
X50198633Y6909993D01*
X50199436Y7016858D01*
X50195106Y7039514D01*
X50194478Y7062581D01*
X50170782Y7166795D01*
X50150720Y7271770D01*
X50142050Y7293155D01*
X50136936Y7315645D01*
X50093374Y7413212D01*
X50053209Y7512278D01*
X50040534Y7531560D01*
X50031130Y7552622D01*
X49969369Y7639818D01*
X49910651Y7729142D01*
X49894458Y7745581D01*
X49881125Y7764404D01*
X49803534Y7837881D01*
X49774159Y7867701D01*
X49756540Y7882383D01*
X49692686Y7942852D01*
X49657085Y7965263D01*
X48995071Y8516940D01*
X48931779Y8577002D01*
X48840817Y8634395D01*
X48751826Y8694829D01*
X48731215Y8703548D01*
X48712292Y8715488D01*
X48611870Y8754037D01*
X48512809Y8795944D01*
X48490898Y8800474D01*
X48470005Y8808494D01*
X48363982Y8826712D01*
X48258659Y8848486D01*
X48236285Y8848654D01*
X48214229Y8852444D01*
X48106693Y8849628D01*
X47999143Y8850436D01*
X47977165Y8846236D01*
X47954794Y8845650D01*
X47849879Y8821910D01*
X47744231Y8801720D01*
X47723494Y8793312D01*
X47701669Y8788374D01*
X47603412Y8744627D01*
X47503722Y8704209D01*
X47485021Y8691915D01*
X47464581Y8682815D01*
X47376745Y8620739D01*
X47286858Y8561650D01*
X47270917Y8545947D01*
X47252643Y8533032D01*
X47178611Y8455018D01*
X47101972Y8379523D01*
X47089398Y8361007D01*
X47073998Y8344779D01*
X47016610Y8253824D01*
X46956171Y8164826D01*
X46947452Y8144215D01*
X46935512Y8125292D01*
X46896963Y8024870D01*
X46855056Y7925809D01*
X46850526Y7903898D01*
X46842506Y7883005D01*
X46824288Y7776982D01*
X46802514Y7671659D01*
X46802346Y7649285D01*
X46798556Y7627229D01*
X46801372Y7519683D01*
X46800564Y7412143D01*
X46816941Y7326448D01*
X46932561Y6401485D01*
X46936545Y6321147D01*
X46964381Y6210233D01*
X46989626Y6098669D01*
X46995940Y6084488D01*
X46999719Y6069430D01*
X47048671Y5966052D01*
X47095185Y5861581D01*
X47104143Y5848905D01*
X47110788Y5834873D01*
X47178958Y5743044D01*
X47211171Y5697464D01*
X47183860Y5675098D01*
X47183420Y5674564D01*
X47182880Y5674120D01*
X47100592Y5573852D01*
X47019009Y5474655D01*
X47018682Y5474045D01*
X47018239Y5473505D01*
X46957081Y5359086D01*
X46896431Y5245903D01*
X46896230Y5245242D01*
X46895900Y5244625D01*
X46858142Y5120152D01*
X46820836Y4997632D01*
X46820768Y4996947D01*
X46820564Y4996275D01*
X46807839Y4867077D01*
X46795127Y4739384D01*
X46795194Y4738693D01*
X46795126Y4738000D01*
X20565812Y4738000D01*
X20588394Y4812440D01*
X20626565Y5200000D01*
X20588394Y5587560D01*
X20475347Y5960226D01*
X20291768Y6303676D01*
X20155270Y6470000D01*
X20291768Y6636324D01*
X20475347Y6979774D01*
X20588394Y7352440D01*
X20626565Y7740000D01*
X20588394Y8127560D01*
X20475347Y8500226D01*
X20291768Y8843676D01*
X20044714Y9144714D01*
X19743676Y9391768D01*
X19400226Y9575347D01*
X19027560Y9688394D01*
X18737116Y9717000D01*
X18542884Y9717000D01*
X18252440Y9688394D01*
X17879774Y9575347D01*
X17536324Y9391768D01*
X17370000Y9255270D01*
X17203676Y9391768D01*
X16860226Y9575347D01*
X16487560Y9688394D01*
X16197116Y9717000D01*
X16002884Y9717000D01*
X15712440Y9688394D01*
X15339774Y9575347D01*
X15125445Y9460785D01*
X15039157Y9531600D01*
X14843371Y9636250D01*
X14630931Y9700693D01*
X14410000Y9722453D01*
X12710000Y9722453D01*
X12489069Y9700693D01*
X12276629Y9636250D01*
X12080843Y9531600D01*
X11909235Y9390765D01*
X11768400Y9219157D01*
X11663750Y9023371D01*
X11599307Y8810931D01*
X11577547Y8590000D01*
X11577547Y6890000D01*
X11599307Y6669069D01*
X11663750Y6456629D01*
X11768400Y6260843D01*
X11839215Y6174555D01*
X11724653Y5960226D01*
X11611606Y5587560D01*
X11573435Y5200000D01*
X9182070Y5200000D01*
X9277000Y5677244D01*
X9277000Y6322756D01*
X9151067Y6955866D01*
X8904040Y7552242D01*
X8545412Y8088966D01*
X8088966Y8545412D01*
X7552242Y8904040D01*
X6955866Y9151067D01*
X6322756Y9277000D01*
X5677244Y9277000D01*
X5044134Y9151067D01*
X4447758Y8904040D01*
X3911034Y8545412D01*
X3454588Y8088966D01*
X3095960Y7552242D01*
X2848933Y6955866D01*
X2723000Y6322756D01*
X660000Y6322756D01*
X660000Y10897298D01*
X29656903Y10897298D01*
X29728486Y10653329D01*
X29983996Y10532429D01*
X30258184Y10463700D01*
X30540512Y10449783D01*
X30820130Y10491213D01*
X31086292Y10586397D01*
X31211514Y10653329D01*
X31283097Y10897298D01*
X30470000Y11710395D01*
X29656903Y10897298D01*
X660000Y10897298D01*
X660000Y50000000D01*
X1973435Y50000000D01*
X2011606Y49612440D01*
X2124653Y49239774D01*
X2308232Y48896324D01*
X2444730Y48730000D01*
X2308232Y48563676D01*
X2124653Y48220226D01*
X2011606Y47847560D01*
X1973435Y47460000D01*
X2011606Y47072440D01*
X2124653Y46699774D01*
X2308232Y46356324D01*
X2444730Y46190000D01*
X2308232Y46023676D01*
X2124653Y45680226D01*
X2011606Y45307560D01*
X1973435Y44920000D01*
X2011606Y44532440D01*
X2124653Y44159774D01*
X2308232Y43816324D01*
X2444730Y43650000D01*
X2308232Y43483676D01*
X2124653Y43140226D01*
X2011606Y42767560D01*
X1973435Y42380000D01*
X2011606Y41992440D01*
X2124653Y41619774D01*
X2308232Y41276324D01*
X2444730Y41110000D01*
X2308232Y40943676D01*
X2124653Y40600226D01*
X2011606Y40227560D01*
X1973435Y39840000D01*
X2011606Y39452440D01*
X2124653Y39079774D01*
X2308232Y38736324D01*
X2444730Y38570000D01*
X2308232Y38403676D01*
X2124653Y38060226D01*
X2011606Y37687560D01*
X1973435Y37300000D01*
X2011606Y36912440D01*
X2124653Y36539774D01*
X2308232Y36196324D01*
X2444730Y36030000D01*
X2308232Y35863676D01*
X2124653Y35520226D01*
X2011606Y35147560D01*
X1973435Y34760000D01*
X2011606Y34372440D01*
X2124653Y33999774D01*
X2308232Y33656324D01*
X2444730Y33490000D01*
X2308232Y33323676D01*
X2124653Y32980226D01*
X2011606Y32607560D01*
X1973435Y32220000D01*
X2011606Y31832440D01*
X2124653Y31459774D01*
X2308232Y31116324D01*
X2444730Y30950000D01*
X2308232Y30783676D01*
X2124653Y30440226D01*
X2011606Y30067560D01*
X1973435Y29680000D01*
X2011606Y29292440D01*
X2124653Y28919774D01*
X2308232Y28576324D01*
X2555286Y28275286D01*
X2808264Y28067674D01*
X2688359Y27906920D01*
X2563175Y27644099D01*
X2518524Y27496890D01*
X2639845Y27267000D01*
X3833000Y27267000D01*
X3833000Y27287000D01*
X4087000Y27287000D01*
X4087000Y27267000D01*
X6373000Y27267000D01*
X6373000Y27287000D01*
X6627000Y27287000D01*
X6627000Y27267000D01*
X6647000Y27267000D01*
X6647000Y27013000D01*
X6627000Y27013000D01*
X6627000Y26993000D01*
X6373000Y26993000D01*
X6373000Y27013000D01*
X4087000Y27013000D01*
X4087000Y26993000D01*
X3833000Y26993000D01*
X3833000Y27013000D01*
X2639845Y27013000D01*
X2518524Y26783110D01*
X2563175Y26635901D01*
X2688359Y26373080D01*
X2808264Y26212326D01*
X2555286Y26004714D01*
X2308232Y25703676D01*
X2124653Y25360226D01*
X2011606Y24987560D01*
X1973435Y24600000D01*
X2011606Y24212440D01*
X2124653Y23839774D01*
X2308232Y23496324D01*
X2444730Y23330000D01*
X2308232Y23163676D01*
X2124653Y22820226D01*
X2011606Y22447560D01*
X1973435Y22060000D01*
X2011606Y21672440D01*
X2124653Y21299774D01*
X2308232Y20956324D01*
X2555286Y20655286D01*
X2808264Y20447674D01*
X2688359Y20286920D01*
X2563175Y20024099D01*
X2518524Y19876890D01*
X2639845Y19647000D01*
X3833000Y19647000D01*
X3833000Y19667000D01*
X4087000Y19667000D01*
X4087000Y19647000D01*
X6373000Y19647000D01*
X6373000Y19667000D01*
X6627000Y19667000D01*
X6627000Y19647000D01*
X6647000Y19647000D01*
X6647000Y19393000D01*
X6627000Y19393000D01*
X6627000Y17113923D01*
X6475077Y16962000D01*
X6353000Y16962000D01*
X6353000Y17107000D01*
X6373000Y17107000D01*
X6373000Y19393000D01*
X4087000Y19393000D01*
X4087000Y19373000D01*
X3833000Y19373000D01*
X3833000Y19393000D01*
X2639845Y19393000D01*
X2518524Y19163110D01*
X2563175Y19015901D01*
X2688359Y18753080D01*
X2808264Y18592326D01*
X2555286Y18384714D01*
X2308232Y18083676D01*
X2124653Y17740226D01*
X2011606Y17367560D01*
X1973435Y16980000D01*
X2011606Y16592440D01*
X2124653Y16219774D01*
X2308232Y15876324D01*
X2444730Y15710000D01*
X2308232Y15543676D01*
X2124653Y15200226D01*
X2011606Y14827560D01*
X1973435Y14440000D01*
X2011606Y14052440D01*
X2124653Y13679774D01*
X2308232Y13336324D01*
X2555286Y13035286D01*
X2856324Y12788232D01*
X3199774Y12604653D01*
X3572440Y12491606D01*
X3611296Y12487779D01*
X4303021Y11796054D01*
X4353972Y11733970D01*
X4416054Y11683021D01*
X4601714Y11530653D01*
X4636159Y11512242D01*
X4884363Y11379574D01*
X5191053Y11286541D01*
X5430076Y11262999D01*
X5430086Y11262999D01*
X5510000Y11255128D01*
X5589915Y11262999D01*
X9800085Y11262999D01*
X9879999Y11255128D01*
X9959913Y11262999D01*
X9959924Y11262999D01*
X10198947Y11286541D01*
X10505637Y11379574D01*
X10788285Y11530653D01*
X11036028Y11733970D01*
X11086978Y11796053D01*
X12447522Y13156597D01*
X12555286Y13025286D01*
X12856324Y12778232D01*
X13199774Y12594653D01*
X13572440Y12481606D01*
X13611295Y12477779D01*
X13943025Y12146049D01*
X13993971Y12083971D01*
X14056049Y12033025D01*
X14056052Y12033022D01*
X14230326Y11890000D01*
X14241714Y11880654D01*
X14524362Y11729575D01*
X14831052Y11636542D01*
X15070075Y11613000D01*
X15070085Y11613000D01*
X15149999Y11605129D01*
X15229914Y11613000D01*
X21816469Y11613000D01*
X21937223Y11532315D01*
X22287915Y11387053D01*
X22660207Y11313000D01*
X23039793Y11313000D01*
X23412085Y11387053D01*
X23762777Y11532315D01*
X24078391Y11743201D01*
X24154678Y11819488D01*
X29029783Y11819488D01*
X29071213Y11539870D01*
X29166397Y11273708D01*
X29233329Y11148486D01*
X29477298Y11076903D01*
X30290395Y11890000D01*
X30649605Y11890000D01*
X31462702Y11076903D01*
X31706671Y11148486D01*
X31827571Y11403996D01*
X31896300Y11678184D01*
X31906741Y11890000D01*
X34883677Y11890000D01*
X34920883Y11512242D01*
X35031071Y11149001D01*
X35210006Y10814237D01*
X35450813Y10520813D01*
X35744237Y10280006D01*
X36079001Y10101071D01*
X36442242Y9990883D01*
X36725342Y9963000D01*
X36914658Y9963000D01*
X37197758Y9990883D01*
X37560999Y10101071D01*
X37863947Y10263000D01*
X42136469Y10263000D01*
X42257223Y10182315D01*
X42607915Y10037053D01*
X42980207Y9963000D01*
X43359793Y9963000D01*
X43732085Y10037053D01*
X44082777Y10182315D01*
X44398391Y10393201D01*
X44666799Y10661609D01*
X44877685Y10977223D01*
X45022947Y11327915D01*
X45097000Y11700207D01*
X45097000Y12079793D01*
X45022947Y12452085D01*
X44877685Y12802777D01*
X44666799Y13118391D01*
X44398391Y13386799D01*
X44082777Y13597685D01*
X43732085Y13742947D01*
X43359793Y13817000D01*
X42980207Y13817000D01*
X42607915Y13742947D01*
X42257223Y13597685D01*
X42136469Y13517000D01*
X37863947Y13517000D01*
X37560999Y13678929D01*
X37197758Y13789117D01*
X36914658Y13817000D01*
X36725342Y13817000D01*
X36442242Y13789117D01*
X36079001Y13678929D01*
X35744237Y13499994D01*
X35450813Y13259187D01*
X35210006Y12965763D01*
X35031071Y12630999D01*
X34920883Y12267758D01*
X34883677Y11890000D01*
X31906741Y11890000D01*
X31910217Y11960512D01*
X31868787Y12240130D01*
X31773603Y12506292D01*
X31706671Y12631514D01*
X31462702Y12703097D01*
X30649605Y11890000D01*
X30290395Y11890000D01*
X29477298Y12703097D01*
X29233329Y12631514D01*
X29112429Y12376004D01*
X29043700Y12101816D01*
X29029783Y11819488D01*
X24154678Y11819488D01*
X24346799Y12011609D01*
X24557685Y12327223D01*
X24702947Y12677915D01*
X24743681Y12882702D01*
X29656903Y12882702D01*
X30470000Y12069605D01*
X31283097Y12882702D01*
X31211514Y13126671D01*
X30956004Y13247571D01*
X30681816Y13316300D01*
X30399488Y13330217D01*
X30119870Y13288787D01*
X29853708Y13193603D01*
X29728486Y13126671D01*
X29656903Y12882702D01*
X24743681Y12882702D01*
X24777000Y13050207D01*
X24777000Y13429793D01*
X24702947Y13802085D01*
X24557685Y14152777D01*
X24346799Y14468391D01*
X24078391Y14736799D01*
X23762777Y14947685D01*
X23412085Y15092947D01*
X23039793Y15167000D01*
X22660207Y15167000D01*
X22287915Y15092947D01*
X21937223Y14947685D01*
X21816469Y14867000D01*
X15893397Y14867000D01*
X15795347Y15190226D01*
X15611768Y15533676D01*
X15475270Y15700000D01*
X15611768Y15866324D01*
X15795347Y16209774D01*
X15908394Y16582440D01*
X15946565Y16970000D01*
X15908394Y17357560D01*
X15795347Y17730226D01*
X15680785Y17944555D01*
X15751600Y18030843D01*
X15856250Y18226629D01*
X15920693Y18439069D01*
X15942453Y18660000D01*
X15942453Y19191528D01*
X17353926Y20603000D01*
X17399696Y20603000D01*
X17582585Y20452907D01*
X17952094Y20255401D01*
X18353035Y20133776D01*
X18588489Y20110586D01*
X20991067Y17708007D01*
X20997053Y17677915D01*
X21142315Y17327223D01*
X21353201Y17011609D01*
X21621609Y16743201D01*
X21937223Y16532315D01*
X22287915Y16387053D01*
X22660207Y16313000D01*
X23039793Y16313000D01*
X23412085Y16387053D01*
X23762777Y16532315D01*
X24078391Y16743201D01*
X24346799Y17011609D01*
X24557685Y17327223D01*
X24702947Y17677915D01*
X24731280Y17820354D01*
X25863951Y18953025D01*
X25926029Y19003971D01*
X25976975Y19066049D01*
X25976978Y19066052D01*
X26129346Y19251714D01*
X26165956Y19320207D01*
X26280425Y19534362D01*
X26304697Y19614378D01*
X27503020Y18416055D01*
X27553971Y18353971D01*
X27630988Y18290765D01*
X27801713Y18150654D01*
X28064063Y18010425D01*
X28084362Y17999575D01*
X28391052Y17906542D01*
X28630075Y17883000D01*
X28630085Y17883000D01*
X28709999Y17875129D01*
X28789914Y17883000D01*
X29426053Y17883000D01*
X29729001Y17721071D01*
X30092242Y17610883D01*
X30375342Y17583000D01*
X30564658Y17583000D01*
X30847758Y17610883D01*
X31210999Y17721071D01*
X31545763Y17900006D01*
X31839187Y18140813D01*
X32079994Y18434237D01*
X32258929Y18769001D01*
X32319709Y18969364D01*
X32873018Y18416055D01*
X32923969Y18353971D01*
X33000986Y18290765D01*
X33171711Y18150654D01*
X33434061Y18010425D01*
X33454360Y17999575D01*
X33761050Y17906542D01*
X34000073Y17883000D01*
X34000083Y17883000D01*
X34079997Y17875129D01*
X34159912Y17883000D01*
X35786469Y17883000D01*
X35907223Y17802315D01*
X36257915Y17657053D01*
X36630207Y17583000D01*
X37009793Y17583000D01*
X37382085Y17657053D01*
X37732777Y17802315D01*
X38048391Y18013201D01*
X38316799Y18281609D01*
X38527685Y18597223D01*
X38672947Y18947915D01*
X38747000Y19320207D01*
X38747000Y19699793D01*
X38672947Y20072085D01*
X38527685Y20422777D01*
X38316799Y20738391D01*
X38048391Y21006799D01*
X37958864Y21066619D01*
X38198899Y21306654D01*
X38410275Y21623000D01*
X41096075Y21623000D01*
X41543001Y21176074D01*
X41543000Y20553948D01*
X41381071Y20250999D01*
X41270883Y19887758D01*
X41233677Y19510000D01*
X41270883Y19132242D01*
X41381071Y18769001D01*
X41560006Y18434237D01*
X41800813Y18140813D01*
X42094237Y17900006D01*
X42429001Y17721071D01*
X42792242Y17610883D01*
X43075342Y17583000D01*
X43264658Y17583000D01*
X43547758Y17610883D01*
X43910999Y17721071D01*
X44213947Y17883000D01*
X50116075Y17883000D01*
X52593025Y15406049D01*
X52643971Y15343971D01*
X52706049Y15293025D01*
X52706052Y15293022D01*
X52810968Y15206920D01*
X52891714Y15140654D01*
X53174362Y14989575D01*
X53481052Y14896542D01*
X53800000Y14865128D01*
X53879925Y14873000D01*
X54684837Y14873000D01*
X54819235Y14709235D01*
X54990843Y14568400D01*
X55186629Y14463750D01*
X55399069Y14399307D01*
X55620000Y14377547D01*
X59580000Y14377547D01*
X59800931Y14399307D01*
X60013371Y14463750D01*
X60209157Y14568400D01*
X60380765Y14709235D01*
X60521600Y14880843D01*
X60626250Y15076629D01*
X60690693Y15289069D01*
X60712453Y15510000D01*
X60712453Y17490000D01*
X60690693Y17710931D01*
X60626250Y17923371D01*
X60521600Y18119157D01*
X60380765Y18290765D01*
X60209157Y18431600D01*
X60013371Y18536250D01*
X59800931Y18600693D01*
X59777581Y18602993D01*
X59788596Y18606334D01*
X60330091Y18895770D01*
X60804716Y19285284D01*
X61194230Y19759909D01*
X61483666Y20301404D01*
X61661899Y20888961D01*
X61722081Y21500000D01*
X61661899Y22111039D01*
X61624675Y22233750D01*
X62743952Y23353026D01*
X62806030Y23403972D01*
X62856976Y23466050D01*
X62856979Y23466053D01*
X63009347Y23651715D01*
X63056763Y23740424D01*
X63160426Y23934363D01*
X63253459Y24241053D01*
X63277001Y24480076D01*
X63277001Y24480084D01*
X63284872Y24560001D01*
X63277001Y24639918D01*
X63277001Y40425082D01*
X63284872Y40504999D01*
X63277001Y40584916D01*
X63277001Y40584924D01*
X63253459Y40823947D01*
X63160426Y41130637D01*
X63009347Y41413285D01*
X62931383Y41508285D01*
X62856979Y41598947D01*
X62856976Y41598950D01*
X62806030Y41661028D01*
X62743953Y41711973D01*
X61711979Y42743946D01*
X61661029Y42806029D01*
X61413286Y43009346D01*
X61286528Y43077100D01*
X61119230Y43390091D01*
X60729716Y43864716D01*
X60255091Y44254230D01*
X59713596Y44543666D01*
X59126039Y44721899D01*
X58668120Y44767000D01*
X56381880Y44767000D01*
X55923961Y44721899D01*
X55336404Y44543666D01*
X54794909Y44254230D01*
X54320284Y43864716D01*
X53930770Y43390091D01*
X53641334Y42848596D01*
X53463101Y42261039D01*
X53402919Y41650000D01*
X53463101Y41038961D01*
X53641334Y40451404D01*
X53930770Y39909909D01*
X54320284Y39435284D01*
X54794909Y39045770D01*
X55336404Y38756334D01*
X55347419Y38752993D01*
X55324069Y38750693D01*
X55111629Y38686250D01*
X54915843Y38581600D01*
X54744235Y38440765D01*
X54609837Y38277000D01*
X48943926Y38277000D01*
X44788645Y42432280D01*
X44688929Y42760999D01*
X44527000Y43063947D01*
X44527000Y44870086D01*
X44534871Y44950001D01*
X44527000Y45029915D01*
X44527000Y45029925D01*
X44503458Y45268948D01*
X44410425Y45575638D01*
X44259346Y45858286D01*
X44175702Y45960207D01*
X44106978Y46043948D01*
X44106975Y46043951D01*
X44056029Y46106029D01*
X43993951Y46156975D01*
X43879791Y46271135D01*
X54954782Y46271135D01*
X54985095Y46145472D01*
X55113304Y45852795D01*
X55296148Y45590754D01*
X55526601Y45369419D01*
X55795806Y45197296D01*
X56093418Y45081000D01*
X56408000Y45025000D01*
X57398000Y45025000D01*
X57398000Y46523000D01*
X57652000Y46523000D01*
X57652000Y45025000D01*
X58642000Y45025000D01*
X58956582Y45081000D01*
X59254194Y45197296D01*
X59523399Y45369419D01*
X59753852Y45590754D01*
X59936696Y45852795D01*
X60064905Y46145472D01*
X60095218Y46271135D01*
X59975740Y46523000D01*
X57652000Y46523000D01*
X57398000Y46523000D01*
X55074260Y46523000D01*
X54954782Y46271135D01*
X43879791Y46271135D01*
X43581280Y46569646D01*
X43552947Y46712085D01*
X43421732Y47028865D01*
X54954782Y47028865D01*
X55074260Y46777000D01*
X57398000Y46777000D01*
X57398000Y48275000D01*
X57652000Y48275000D01*
X57652000Y46777000D01*
X59975740Y46777000D01*
X60095218Y47028865D01*
X60064905Y47154528D01*
X59936696Y47447205D01*
X59753852Y47709246D01*
X59523399Y47930581D01*
X59254194Y48102704D01*
X58956582Y48219000D01*
X58642000Y48275000D01*
X57652000Y48275000D01*
X57398000Y48275000D01*
X56408000Y48275000D01*
X56093418Y48219000D01*
X55795806Y48102704D01*
X55526601Y47930581D01*
X55296148Y47709246D01*
X55113304Y47447205D01*
X54985095Y47154528D01*
X54954782Y47028865D01*
X43421732Y47028865D01*
X43407685Y47062777D01*
X43196799Y47378391D01*
X42928391Y47646799D01*
X42612777Y47857685D01*
X42262085Y48002947D01*
X41889793Y48077000D01*
X41510207Y48077000D01*
X41137915Y48002947D01*
X40787223Y47857685D01*
X40666469Y47777000D01*
X38206639Y47777000D01*
X38128899Y47893346D01*
X37693346Y48328899D01*
X37586936Y48400000D01*
X37693346Y48471101D01*
X38128899Y48906654D01*
X38471111Y49418810D01*
X38706831Y49987888D01*
X38740528Y50157298D01*
X43186903Y50157298D01*
X43258486Y49913329D01*
X43513996Y49792429D01*
X43788184Y49723700D01*
X44070512Y49709783D01*
X44350130Y49751213D01*
X44616292Y49846397D01*
X44741514Y49913329D01*
X44813097Y50157298D01*
X44000000Y50970395D01*
X43186903Y50157298D01*
X38740528Y50157298D01*
X38827000Y50592017D01*
X38827000Y51079488D01*
X42559783Y51079488D01*
X42601213Y50799870D01*
X42696397Y50533708D01*
X42763329Y50408486D01*
X43007298Y50336903D01*
X43820395Y51150000D01*
X44179605Y51150000D01*
X44992702Y50336903D01*
X45236671Y50408486D01*
X45357571Y50663996D01*
X45426300Y50938184D01*
X45440217Y51220512D01*
X45398787Y51500130D01*
X45303603Y51766292D01*
X45236671Y51891514D01*
X44992702Y51963097D01*
X44179605Y51150000D01*
X43820395Y51150000D01*
X43007298Y51963097D01*
X42763329Y51891514D01*
X42642429Y51636004D01*
X42573700Y51361816D01*
X42559783Y51079488D01*
X38827000Y51079488D01*
X38827000Y51207983D01*
X38706831Y51812112D01*
X38569897Y52142702D01*
X43186903Y52142702D01*
X44000000Y51329605D01*
X44813097Y52142702D01*
X44741514Y52386671D01*
X44486004Y52507571D01*
X44211816Y52576300D01*
X43929488Y52590217D01*
X43649870Y52548787D01*
X43383708Y52453603D01*
X43258486Y52386671D01*
X43186903Y52142702D01*
X38569897Y52142702D01*
X38471111Y52381190D01*
X38128899Y52893346D01*
X37693346Y53328899D01*
X37181190Y53671111D01*
X36612112Y53906831D01*
X36007983Y54027000D01*
X35392017Y54027000D01*
X34787888Y53906831D01*
X34218810Y53671111D01*
X33706654Y53328899D01*
X33271101Y52893346D01*
X32928889Y52381190D01*
X32693169Y51812112D01*
X32573000Y51207983D01*
X32573000Y51205295D01*
X32514704Y51146999D01*
X29703926Y51146999D01*
X29049460Y51801465D01*
X29028907Y51904793D01*
X28885531Y52250935D01*
X28677380Y52562454D01*
X28412454Y52827380D01*
X28100935Y53035531D01*
X27754793Y53178907D01*
X27387331Y53252000D01*
X27012669Y53252000D01*
X26645207Y53178907D01*
X26299065Y53035531D01*
X25987546Y52827380D01*
X25722620Y52562454D01*
X25514469Y52250935D01*
X25371093Y51904793D01*
X25298000Y51537331D01*
X25298000Y51162669D01*
X25371093Y50795207D01*
X25514469Y50449065D01*
X25573000Y50361467D01*
X25573001Y49523927D01*
X24248535Y48199460D01*
X24145207Y48178907D01*
X23799065Y48035531D01*
X23711467Y47977000D01*
X19999925Y47977000D01*
X19920000Y47984872D01*
X19840075Y47977000D01*
X19601052Y47953458D01*
X19294362Y47860425D01*
X19011714Y47709346D01*
X18763971Y47506029D01*
X18713022Y47443947D01*
X18518489Y47249414D01*
X18283035Y47226224D01*
X17882094Y47104599D01*
X17512585Y46907093D01*
X17329696Y46757000D01*
X17069914Y46757000D01*
X16989999Y46764871D01*
X16910085Y46757000D01*
X16910075Y46757000D01*
X16671052Y46733458D01*
X16364362Y46640425D01*
X16144676Y46523000D01*
X16081714Y46489346D01*
X15896052Y46336978D01*
X15896049Y46336975D01*
X15833971Y46286029D01*
X15783025Y46223951D01*
X13641528Y44082453D01*
X13110000Y44082453D01*
X12889069Y44060693D01*
X12676629Y43996250D01*
X12480843Y43891600D01*
X12309235Y43750765D01*
X12168400Y43579157D01*
X12063750Y43383371D01*
X11999307Y43170931D01*
X11977547Y42950000D01*
X11977547Y41250000D01*
X11999307Y41029069D01*
X12007065Y41003495D01*
X11849633Y40919346D01*
X11601890Y40716029D01*
X11550939Y40653945D01*
X8460602Y37563608D01*
X8448394Y37687560D01*
X8335347Y38060226D01*
X8151768Y38403676D01*
X8015270Y38570000D01*
X8151768Y38736324D01*
X8335347Y39079774D01*
X8448394Y39452440D01*
X8486565Y39840000D01*
X8448394Y40227560D01*
X8335347Y40600226D01*
X8151768Y40943676D01*
X8015270Y41110000D01*
X8151768Y41276324D01*
X8335347Y41619774D01*
X8448394Y41992440D01*
X8486565Y42380000D01*
X8448394Y42767560D01*
X8335347Y43140226D01*
X8151768Y43483676D01*
X8015270Y43650000D01*
X8151768Y43816324D01*
X8335347Y44159774D01*
X8448394Y44532440D01*
X8486565Y44920000D01*
X8448394Y45307560D01*
X8335347Y45680226D01*
X8151768Y46023676D01*
X8015270Y46190000D01*
X8151768Y46356324D01*
X8335347Y46699774D01*
X8448394Y47072440D01*
X8486565Y47460000D01*
X8448394Y47847560D01*
X8335347Y48220226D01*
X8220785Y48434555D01*
X8291600Y48520843D01*
X8396250Y48716629D01*
X8460693Y48929069D01*
X8482453Y49150000D01*
X8482453Y50549566D01*
X17109876Y50549566D01*
X17166498Y50362893D01*
X17306601Y50074618D01*
X17500252Y49819215D01*
X17740008Y49606499D01*
X18016656Y49444644D01*
X18319565Y49339871D01*
X18573000Y49458685D01*
X18573000Y50803000D01*
X18827000Y50803000D01*
X18827000Y49458685D01*
X19080435Y49339871D01*
X19383344Y49444644D01*
X19659992Y49606499D01*
X19899748Y49819215D01*
X20093399Y50074618D01*
X20233502Y50362893D01*
X20290124Y50549566D01*
X20170777Y50803000D01*
X18827000Y50803000D01*
X18573000Y50803000D01*
X17229223Y50803000D01*
X17109876Y50549566D01*
X8482453Y50549566D01*
X8482453Y50850000D01*
X8460693Y51070931D01*
X8396250Y51283371D01*
X8381785Y51310434D01*
X17109876Y51310434D01*
X17229223Y51057000D01*
X18573000Y51057000D01*
X18573000Y52401315D01*
X18827000Y52401315D01*
X18827000Y51057000D01*
X20170777Y51057000D01*
X20290124Y51310434D01*
X20233502Y51497107D01*
X20093399Y51785382D01*
X19899748Y52040785D01*
X19659992Y52253501D01*
X19383344Y52415356D01*
X19080435Y52520129D01*
X18827000Y52401315D01*
X18573000Y52401315D01*
X18319565Y52520129D01*
X18016656Y52415356D01*
X17740008Y52253501D01*
X17500252Y52040785D01*
X17306601Y51785382D01*
X17166498Y51497107D01*
X17109876Y51310434D01*
X8381785Y51310434D01*
X8291600Y51479157D01*
X8150765Y51650765D01*
X7979157Y51791600D01*
X7783371Y51896250D01*
X7570931Y51960693D01*
X7350000Y51982453D01*
X5650000Y51982453D01*
X5429069Y51960693D01*
X5216629Y51896250D01*
X5020843Y51791600D01*
X4934555Y51720785D01*
X4720226Y51835347D01*
X4347560Y51948394D01*
X4057116Y51977000D01*
X3862884Y51977000D01*
X3572440Y51948394D01*
X3199774Y51835347D01*
X2856324Y51651768D01*
X2555286Y51404714D01*
X2308232Y51103676D01*
X2124653Y50760226D01*
X2011606Y50387560D01*
X1973435Y50000000D01*
X660000Y50000000D01*
X660000Y54488000D01*
X46795126Y54488000D01*
X46807811Y54359209D01*
X46820295Y54231084D01*
X46820495Y54230421D01*
X46820564Y54229725D01*
X46858208Y54105629D01*
X46895371Y53982656D01*
X46895697Y53982045D01*
X46895900Y53981375D01*
X46956850Y53867346D01*
X46986876Y53811030D01*
X46987256Y53810460D01*
X47018239Y53752495D01*
X47059058Y53702758D01*
X48582671Y51417336D01*
X48705901Y51266860D01*
X48765411Y51217917D01*
X48789482Y51185492D01*
X48981857Y51011294D01*
X49204520Y50877973D01*
X49448914Y50790654D01*
X49705647Y50752692D01*
X49964853Y50765545D01*
X50216570Y50828719D01*
X50221261Y50830940D01*
X50235211Y50826725D01*
X50314926Y50796620D01*
X50359162Y50789266D01*
X50402083Y50776295D01*
X50486888Y50768032D01*
X50570937Y50754059D01*
X50615751Y50755476D01*
X50660384Y50751127D01*
X50745169Y50759568D01*
X50830332Y50762260D01*
X50874018Y50772395D01*
X50918632Y50776836D01*
X51000133Y50801652D01*
X51083142Y50820909D01*
X51124007Y50839370D01*
X51166903Y50852431D01*
X51242009Y50892677D01*
X51319654Y50927753D01*
X51356129Y50953829D01*
X51395655Y50975009D01*
X51461463Y51029132D01*
X51530777Y51078684D01*
X51561468Y51111379D01*
X51596098Y51139860D01*
X51650082Y51205779D01*
X51708397Y51267903D01*
X51732118Y51305954D01*
X51760529Y51340647D01*
X51800615Y51415832D01*
X51845691Y51488139D01*
X51861534Y51530091D01*
X51882629Y51569656D01*
X51907275Y51651212D01*
X51937380Y51730927D01*
X51944734Y51775163D01*
X51957705Y51818084D01*
X51965968Y51902889D01*
X51979941Y51986938D01*
X51978524Y52031752D01*
X51982873Y52076385D01*
X51974432Y52161170D01*
X51971740Y52246333D01*
X51961605Y52290019D01*
X51957164Y52334633D01*
X51932348Y52416134D01*
X51913091Y52499143D01*
X51894630Y52540008D01*
X51881569Y52582904D01*
X51841324Y52658008D01*
X51806247Y52735655D01*
X51780169Y52772133D01*
X51758991Y52811655D01*
X51704876Y52877454D01*
X51693135Y52893877D01*
X51663737Y52927474D01*
X51594140Y53012098D01*
X51578445Y53024951D01*
X51260657Y53388138D01*
X51306016Y53472998D01*
X51362488Y53573205D01*
X51367107Y53587292D01*
X51374100Y53600375D01*
X51407510Y53710513D01*
X51443348Y53819812D01*
X51445130Y53834530D01*
X51449436Y53848725D01*
X51460716Y53963249D01*
X51474544Y54077455D01*
X51473420Y54092241D01*
X51474874Y54107000D01*
X51463597Y54221501D01*
X51454877Y54336233D01*
X51450889Y54350519D01*
X51449436Y54365275D01*
X51416038Y54475373D01*
X51385102Y54586202D01*
X51378405Y54599433D01*
X51374100Y54613625D01*
X51319854Y54715113D01*
X51297268Y54759735D01*
X51289361Y54772160D01*
X51251761Y54842505D01*
X51219859Y54881377D01*
X50194463Y56492714D01*
X50197487Y56507341D01*
X50197660Y56530415D01*
X50201543Y56553153D01*
X50198633Y56659993D01*
X50199436Y56766858D01*
X50195106Y56789514D01*
X50194478Y56812581D01*
X50170782Y56916795D01*
X50150720Y57021770D01*
X50142050Y57043155D01*
X50136936Y57065645D01*
X50093374Y57163212D01*
X50053209Y57262278D01*
X50040534Y57281560D01*
X50031130Y57302622D01*
X49969369Y57389818D01*
X49910651Y57479142D01*
X49894458Y57495581D01*
X49881125Y57514404D01*
X49803534Y57587881D01*
X49774159Y57617701D01*
X49756540Y57632383D01*
X49692686Y57692852D01*
X49657085Y57715263D01*
X48995071Y58266940D01*
X48936254Y58322756D01*
X54723000Y58322756D01*
X54723000Y57677244D01*
X54848933Y57044134D01*
X55095960Y56447758D01*
X55454588Y55911034D01*
X55911034Y55454588D01*
X56447758Y55095960D01*
X57044134Y54848933D01*
X57677244Y54723000D01*
X58322756Y54723000D01*
X58955866Y54848933D01*
X59552242Y55095960D01*
X60088966Y55454588D01*
X60545412Y55911034D01*
X60904040Y56447758D01*
X61151067Y57044134D01*
X61277000Y57677244D01*
X61277000Y58322756D01*
X61151067Y58955866D01*
X60904040Y59552242D01*
X60545412Y60088966D01*
X60088966Y60545412D01*
X59552242Y60904040D01*
X58955866Y61151067D01*
X58322756Y61277000D01*
X57677244Y61277000D01*
X57044134Y61151067D01*
X56447758Y60904040D01*
X55911034Y60545412D01*
X55454588Y60088966D01*
X55095960Y59552242D01*
X54848933Y58955866D01*
X54723000Y58322756D01*
X48936254Y58322756D01*
X48931779Y58327002D01*
X48840817Y58384395D01*
X48751826Y58444829D01*
X48731215Y58453548D01*
X48712292Y58465488D01*
X48611870Y58504037D01*
X48512809Y58545944D01*
X48490898Y58550474D01*
X48470005Y58558494D01*
X48363982Y58576712D01*
X48258659Y58598486D01*
X48236285Y58598654D01*
X48214229Y58602444D01*
X48106693Y58599628D01*
X47999143Y58600436D01*
X47977165Y58596236D01*
X47954794Y58595650D01*
X47849879Y58571910D01*
X47744231Y58551720D01*
X47723494Y58543312D01*
X47701669Y58538374D01*
X47603412Y58494627D01*
X47503722Y58454209D01*
X47485021Y58441915D01*
X47464581Y58432815D01*
X47376745Y58370739D01*
X47286858Y58311650D01*
X47270917Y58295947D01*
X47252643Y58283032D01*
X47178611Y58205018D01*
X47101972Y58129523D01*
X47089398Y58111007D01*
X47073998Y58094779D01*
X47016610Y58003824D01*
X46956171Y57914826D01*
X46947452Y57894215D01*
X46935512Y57875292D01*
X46896963Y57774870D01*
X46855056Y57675809D01*
X46850526Y57653898D01*
X46842506Y57633005D01*
X46824288Y57526982D01*
X46802514Y57421659D01*
X46802346Y57399285D01*
X46798556Y57377229D01*
X46801372Y57269683D01*
X46800564Y57162143D01*
X46816941Y57076448D01*
X46932561Y56151485D01*
X46936545Y56071147D01*
X46964381Y55960233D01*
X46989626Y55848669D01*
X46995940Y55834488D01*
X46999719Y55819430D01*
X47048671Y55716052D01*
X47095185Y55611581D01*
X47104143Y55598905D01*
X47110788Y55584873D01*
X47178958Y55493044D01*
X47211171Y55447464D01*
X47183860Y55425098D01*
X47183420Y55424564D01*
X47182880Y55424120D01*
X47100592Y55323852D01*
X47019009Y55224655D01*
X47018682Y55224045D01*
X47018239Y55223505D01*
X46957081Y55109086D01*
X46896431Y54995903D01*
X46896230Y54995242D01*
X46895900Y54994625D01*
X46858142Y54870152D01*
X46820836Y54747632D01*
X46820768Y54746947D01*
X46820564Y54746275D01*
X46807839Y54617077D01*
X46795127Y54489384D01*
X46795194Y54488693D01*
X46795126Y54488000D01*
X660000Y54488000D01*
X660000Y58322756D01*
X2723000Y58322756D01*
X2723000Y57677244D01*
X2848933Y57044134D01*
X3095960Y56447758D01*
X3454588Y55911034D01*
X3911034Y55454588D01*
X4447758Y55095960D01*
X5044134Y54848933D01*
X5677244Y54723000D01*
X6322756Y54723000D01*
X6955866Y54848933D01*
X7552242Y55095960D01*
X8088966Y55454588D01*
X8545412Y55911034D01*
X8904040Y56447758D01*
X9151067Y57044134D01*
X9277000Y57677244D01*
X9277000Y58322756D01*
X9151067Y58955866D01*
X8904040Y59552242D01*
X8545412Y60088966D01*
X8088966Y60545412D01*
X7552242Y60904040D01*
X6955866Y61151067D01*
X6322756Y61277000D01*
X5677244Y61277000D01*
X5044134Y61151067D01*
X4447758Y60904040D01*
X3911034Y60545412D01*
X3454588Y60088966D01*
X3095960Y59552242D01*
X2848933Y58955866D01*
X2723000Y58322756D01*
X660000Y58322756D01*
X660000Y63340000D01*
X63340001Y63340000D01*
X63340000Y660000D01*
G36*
X23073001Y42873927D02*
G01*
X22680354Y42481280D01*
X22537915Y42452947D01*
X22187223Y42307685D01*
X21871609Y42096799D01*
X21603201Y41828391D01*
X21392315Y41512777D01*
X21247053Y41162085D01*
X21173000Y40789793D01*
X21173000Y40410207D01*
X21247053Y40037915D01*
X21392315Y39687223D01*
X21603201Y39371609D01*
X21871609Y39103201D01*
X22187223Y38892315D01*
X22537915Y38747053D01*
X22910207Y38673000D01*
X23289793Y38673000D01*
X23662085Y38747053D01*
X24012777Y38892315D01*
X24328391Y39103201D01*
X24596799Y39371609D01*
X24807685Y39687223D01*
X24952947Y40037915D01*
X24981280Y40180354D01*
X25793951Y40993025D01*
X25856029Y41043971D01*
X25906975Y41106049D01*
X25906978Y41106052D01*
X26059346Y41291714D01*
X26137492Y41437915D01*
X26210425Y41574362D01*
X26303458Y41881052D01*
X26327000Y42120075D01*
X26334872Y42200000D01*
X26327000Y42279925D01*
X26327000Y42422074D01*
X27923025Y40826049D01*
X27973971Y40763971D01*
X28036049Y40713025D01*
X28036052Y40713022D01*
X28177984Y40596542D01*
X28221714Y40560654D01*
X28504362Y40409575D01*
X28811052Y40316542D01*
X29050075Y40293000D01*
X29050085Y40293000D01*
X29129999Y40285129D01*
X29209914Y40293000D01*
X29356053Y40293000D01*
X29659001Y40131071D01*
X30022242Y40020883D01*
X30305342Y39993000D01*
X30494658Y39993000D01*
X30777758Y40020883D01*
X31140999Y40131071D01*
X31475763Y40310006D01*
X31769187Y40550813D01*
X32009994Y40844237D01*
X32188929Y41179001D01*
X32277638Y41471436D01*
X32843025Y40906049D01*
X32893971Y40843971D01*
X32956049Y40793025D01*
X32956052Y40793022D01*
X33117344Y40660654D01*
X33141714Y40640654D01*
X33424362Y40489575D01*
X33731052Y40396542D01*
X33970075Y40373000D01*
X33970085Y40373000D01*
X34050000Y40365129D01*
X34129914Y40373000D01*
X35666469Y40373000D01*
X35787223Y40292315D01*
X36137915Y40147053D01*
X36510207Y40073000D01*
X36889793Y40073000D01*
X37262085Y40147053D01*
X37612777Y40292315D01*
X37928391Y40503201D01*
X38196799Y40771609D01*
X38407685Y41087223D01*
X38552947Y41437915D01*
X38627000Y41810207D01*
X38627000Y42189793D01*
X38552947Y42562085D01*
X38407685Y42912777D01*
X38196799Y43228391D01*
X37928391Y43496799D01*
X37802897Y43580652D01*
X38128899Y43906654D01*
X38471111Y44418810D01*
X38514268Y44523000D01*
X40666469Y44523000D01*
X40787223Y44442315D01*
X41137915Y44297053D01*
X41273001Y44270183D01*
X41273000Y43063948D01*
X41111071Y42760999D01*
X41000883Y42397758D01*
X40963677Y42020000D01*
X41000883Y41642242D01*
X41111071Y41279001D01*
X41290006Y40944237D01*
X41530813Y40650813D01*
X41824237Y40410006D01*
X42159001Y40231071D01*
X42487720Y40131355D01*
X47063025Y35556049D01*
X47113971Y35493971D01*
X47176049Y35443025D01*
X47176052Y35443022D01*
X47359218Y35292702D01*
X47361714Y35290654D01*
X47644362Y35139575D01*
X47868427Y35071606D01*
X47951052Y35046542D01*
X48270000Y35015128D01*
X48349925Y35023000D01*
X54609837Y35023000D01*
X54744235Y34859235D01*
X54915843Y34718400D01*
X55111629Y34613750D01*
X55324069Y34549307D01*
X55545000Y34527547D01*
X59505000Y34527547D01*
X59725931Y34549307D01*
X59938371Y34613750D01*
X60023001Y34658986D01*
X60023002Y27271396D01*
X60011696Y27297205D01*
X59828852Y27559246D01*
X59598399Y27780581D01*
X59329194Y27952704D01*
X59031582Y28069000D01*
X58717000Y28125000D01*
X57727000Y28125000D01*
X57727000Y26627000D01*
X57747000Y26627000D01*
X57747000Y26373000D01*
X57727000Y26373000D01*
X57727000Y24875000D01*
X58717000Y24875000D01*
X59031582Y24931000D01*
X59329194Y25047296D01*
X59598399Y25219419D01*
X59828852Y25440754D01*
X60011696Y25702795D01*
X60023002Y25728604D01*
X60023002Y25233928D01*
X59323750Y24534675D01*
X59201039Y24571899D01*
X58743120Y24617000D01*
X56456880Y24617000D01*
X55998961Y24571899D01*
X55411404Y24393666D01*
X54869909Y24104230D01*
X54395284Y23714716D01*
X54005770Y23240091D01*
X53716334Y22698596D01*
X53538101Y22111039D01*
X53477919Y21500000D01*
X53538101Y20888961D01*
X53716334Y20301404D01*
X54005770Y19759909D01*
X54395284Y19285284D01*
X54869909Y18895770D01*
X55411404Y18606334D01*
X55422419Y18602993D01*
X55399069Y18600693D01*
X55186629Y18536250D01*
X54990843Y18431600D01*
X54819235Y18290765D01*
X54684837Y18127000D01*
X54473926Y18127000D01*
X51996977Y20603948D01*
X51946029Y20666029D01*
X51698286Y20869346D01*
X51415638Y21020425D01*
X51108948Y21113458D01*
X50869925Y21137000D01*
X50869914Y21137000D01*
X50790000Y21144871D01*
X50710086Y21137000D01*
X44797000Y21137000D01*
X44797000Y21770086D01*
X44804871Y21850000D01*
X44797000Y21929915D01*
X44797000Y21929925D01*
X44773458Y22168948D01*
X44680425Y22475638D01*
X44529346Y22758286D01*
X44454846Y22849065D01*
X44376978Y22943948D01*
X44376975Y22943951D01*
X44326029Y23006029D01*
X44263951Y23056975D01*
X43697000Y23623926D01*
X43697000Y23739793D01*
X43622947Y24112085D01*
X43477685Y24462777D01*
X43266799Y24778391D01*
X42998391Y25046799D01*
X42682777Y25257685D01*
X42332085Y25402947D01*
X41959793Y25477000D01*
X41580207Y25477000D01*
X41207915Y25402947D01*
X40857223Y25257685D01*
X40541609Y25046799D01*
X40371810Y24877000D01*
X38477093Y24877000D01*
X38198899Y25293346D01*
X37763346Y25728899D01*
X37656936Y25800000D01*
X37763346Y25871101D01*
X38198899Y26306654D01*
X38541111Y26818810D01*
X38776831Y27387888D01*
X38810528Y27557298D01*
X43256903Y27557298D01*
X43328486Y27313329D01*
X43583996Y27192429D01*
X43858184Y27123700D01*
X44140512Y27109783D01*
X44420130Y27151213D01*
X44686292Y27246397D01*
X44811514Y27313329D01*
X44883097Y27557298D01*
X44070000Y28370395D01*
X43256903Y27557298D01*
X38810528Y27557298D01*
X38897000Y27992017D01*
X38897000Y28479488D01*
X42629783Y28479488D01*
X42671213Y28199870D01*
X42766397Y27933708D01*
X42833329Y27808486D01*
X43077298Y27736903D01*
X43890395Y28550000D01*
X44249605Y28550000D01*
X45062702Y27736903D01*
X45306671Y27808486D01*
X45427571Y28063996D01*
X45496300Y28338184D01*
X45510217Y28620512D01*
X45468787Y28900130D01*
X45373603Y29166292D01*
X45306671Y29291514D01*
X45062702Y29363097D01*
X44249605Y28550000D01*
X43890395Y28550000D01*
X43077298Y29363097D01*
X42833329Y29291514D01*
X42712429Y29036004D01*
X42643700Y28761816D01*
X42629783Y28479488D01*
X38897000Y28479488D01*
X38897000Y28607983D01*
X38776831Y29212112D01*
X38639897Y29542702D01*
X43256903Y29542702D01*
X44070000Y28729605D01*
X44828395Y29488000D01*
X46795126Y29488000D01*
X46807811Y29359209D01*
X46820295Y29231084D01*
X46820495Y29230421D01*
X46820564Y29229725D01*
X46858208Y29105629D01*
X46895371Y28982656D01*
X46895697Y28982045D01*
X46895900Y28981375D01*
X46956850Y28867346D01*
X46986876Y28811030D01*
X46987256Y28810460D01*
X47018239Y28752495D01*
X47059058Y28702758D01*
X48582671Y26417336D01*
X48705901Y26266860D01*
X48765411Y26217917D01*
X48789482Y26185492D01*
X48981857Y26011294D01*
X49204520Y25877973D01*
X49448914Y25790654D01*
X49705647Y25752692D01*
X49964853Y25765545D01*
X50216570Y25828719D01*
X50221261Y25830940D01*
X50235211Y25826725D01*
X50314926Y25796620D01*
X50359162Y25789266D01*
X50402083Y25776295D01*
X50486888Y25768032D01*
X50570937Y25754059D01*
X50615751Y25755476D01*
X50660384Y25751127D01*
X50745169Y25759568D01*
X50830332Y25762260D01*
X50874018Y25772395D01*
X50918632Y25776836D01*
X51000133Y25801652D01*
X51083142Y25820909D01*
X51124007Y25839370D01*
X51166903Y25852431D01*
X51242009Y25892677D01*
X51319654Y25927753D01*
X51356129Y25953829D01*
X51395655Y25975009D01*
X51461463Y26029132D01*
X51530777Y26078684D01*
X51561468Y26111379D01*
X51573330Y26121135D01*
X55029782Y26121135D01*
X55060095Y25995472D01*
X55188304Y25702795D01*
X55371148Y25440754D01*
X55601601Y25219419D01*
X55870806Y25047296D01*
X56168418Y24931000D01*
X56483000Y24875000D01*
X57473000Y24875000D01*
X57473000Y26373000D01*
X55149260Y26373000D01*
X55029782Y26121135D01*
X51573330Y26121135D01*
X51596098Y26139860D01*
X51650082Y26205779D01*
X51708397Y26267903D01*
X51732118Y26305954D01*
X51760529Y26340647D01*
X51800615Y26415832D01*
X51845691Y26488139D01*
X51861534Y26530091D01*
X51882629Y26569656D01*
X51907275Y26651212D01*
X51937380Y26730927D01*
X51944734Y26775163D01*
X51957705Y26818084D01*
X51963627Y26878865D01*
X55029782Y26878865D01*
X55149260Y26627000D01*
X57473000Y26627000D01*
X57473000Y28125000D01*
X56483000Y28125000D01*
X56168418Y28069000D01*
X55870806Y27952704D01*
X55601601Y27780581D01*
X55371148Y27559246D01*
X55188304Y27297205D01*
X55060095Y27004528D01*
X55029782Y26878865D01*
X51963627Y26878865D01*
X51965968Y26902889D01*
X51979941Y26986938D01*
X51978524Y27031752D01*
X51982873Y27076385D01*
X51974432Y27161170D01*
X51971740Y27246333D01*
X51961605Y27290019D01*
X51957164Y27334633D01*
X51932348Y27416134D01*
X51913091Y27499143D01*
X51894630Y27540008D01*
X51881569Y27582904D01*
X51841324Y27658008D01*
X51806247Y27735655D01*
X51780169Y27772133D01*
X51758991Y27811655D01*
X51704876Y27877454D01*
X51693135Y27893877D01*
X51663737Y27927474D01*
X51594140Y28012098D01*
X51578445Y28024951D01*
X51260657Y28388138D01*
X51306016Y28472998D01*
X51362488Y28573205D01*
X51367107Y28587292D01*
X51374100Y28600375D01*
X51407510Y28710513D01*
X51443348Y28819812D01*
X51445130Y28834530D01*
X51449436Y28848725D01*
X51460716Y28963249D01*
X51474544Y29077455D01*
X51473420Y29092241D01*
X51474874Y29107000D01*
X51463597Y29221501D01*
X51454877Y29336233D01*
X51450889Y29350519D01*
X51449436Y29365275D01*
X51416038Y29475373D01*
X51385102Y29586202D01*
X51378405Y29599433D01*
X51374100Y29613625D01*
X51319854Y29715113D01*
X51297268Y29759735D01*
X51289361Y29772160D01*
X51251761Y29842505D01*
X51219859Y29881377D01*
X50194463Y31492714D01*
X50197487Y31507341D01*
X50197660Y31530415D01*
X50201543Y31553153D01*
X50198633Y31659993D01*
X50199436Y31766858D01*
X50195106Y31789514D01*
X50194478Y31812581D01*
X50170782Y31916795D01*
X50150720Y32021770D01*
X50142050Y32043155D01*
X50136936Y32065645D01*
X50093374Y32163212D01*
X50053209Y32262278D01*
X50040534Y32281560D01*
X50031130Y32302622D01*
X49969369Y32389818D01*
X49910651Y32479142D01*
X49894458Y32495581D01*
X49881125Y32514404D01*
X49803534Y32587881D01*
X49774159Y32617701D01*
X49756540Y32632383D01*
X49692686Y32692852D01*
X49657085Y32715263D01*
X48995071Y33266940D01*
X48931779Y33327002D01*
X48840817Y33384395D01*
X48751826Y33444829D01*
X48731215Y33453548D01*
X48712292Y33465488D01*
X48611870Y33504037D01*
X48512809Y33545944D01*
X48490898Y33550474D01*
X48470005Y33558494D01*
X48363982Y33576712D01*
X48258659Y33598486D01*
X48236285Y33598654D01*
X48214229Y33602444D01*
X48106693Y33599628D01*
X47999143Y33600436D01*
X47977165Y33596236D01*
X47954794Y33595650D01*
X47849879Y33571910D01*
X47744231Y33551720D01*
X47723494Y33543312D01*
X47701669Y33538374D01*
X47603412Y33494627D01*
X47503722Y33454209D01*
X47485021Y33441915D01*
X47464581Y33432815D01*
X47376745Y33370739D01*
X47286858Y33311650D01*
X47270917Y33295947D01*
X47252643Y33283032D01*
X47178611Y33205018D01*
X47101972Y33129523D01*
X47089398Y33111007D01*
X47073998Y33094779D01*
X47016610Y33003824D01*
X46956171Y32914826D01*
X46947452Y32894215D01*
X46935512Y32875292D01*
X46896963Y32774870D01*
X46855056Y32675809D01*
X46850526Y32653898D01*
X46842506Y32633005D01*
X46824288Y32526982D01*
X46802514Y32421659D01*
X46802346Y32399285D01*
X46798556Y32377229D01*
X46801372Y32269683D01*
X46800564Y32162143D01*
X46816941Y32076448D01*
X46932561Y31151485D01*
X46936545Y31071147D01*
X46964381Y30960233D01*
X46989626Y30848669D01*
X46995940Y30834488D01*
X46999719Y30819430D01*
X47048671Y30716052D01*
X47095185Y30611581D01*
X47104143Y30598905D01*
X47110788Y30584873D01*
X47178958Y30493044D01*
X47211171Y30447464D01*
X47183860Y30425098D01*
X47183420Y30424564D01*
X47182880Y30424120D01*
X47100592Y30323852D01*
X47019009Y30224655D01*
X47018682Y30224045D01*
X47018239Y30223505D01*
X46957081Y30109086D01*
X46896431Y29995903D01*
X46896230Y29995242D01*
X46895900Y29994625D01*
X46858142Y29870152D01*
X46820836Y29747632D01*
X46820768Y29746947D01*
X46820564Y29746275D01*
X46807839Y29617077D01*
X46795127Y29489384D01*
X46795194Y29488693D01*
X46795126Y29488000D01*
X44828395Y29488000D01*
X44883097Y29542702D01*
X44811514Y29786671D01*
X44556004Y29907571D01*
X44281816Y29976300D01*
X43999488Y29990217D01*
X43719870Y29948787D01*
X43453708Y29853603D01*
X43328486Y29786671D01*
X43256903Y29542702D01*
X38639897Y29542702D01*
X38541111Y29781190D01*
X38198899Y30293346D01*
X37763346Y30728899D01*
X37251190Y31071111D01*
X36682112Y31306831D01*
X36077983Y31427000D01*
X35462017Y31427000D01*
X34857888Y31306831D01*
X34288810Y31071111D01*
X33776654Y30728899D01*
X33341101Y30293346D01*
X32998889Y29781190D01*
X32935021Y29627000D01*
X28965445Y29627000D01*
X28955531Y29650935D01*
X28747380Y29962454D01*
X28482454Y30227380D01*
X28170935Y30435531D01*
X27824793Y30578907D01*
X27457331Y30652000D01*
X27082669Y30652000D01*
X26715207Y30578907D01*
X26369065Y30435531D01*
X26057546Y30227380D01*
X25792620Y29962454D01*
X25584469Y29650935D01*
X25441093Y29304793D01*
X25368000Y28937331D01*
X25368000Y28562669D01*
X25441093Y28195207D01*
X25584469Y27849065D01*
X25643000Y27761467D01*
X25643001Y26623927D01*
X24671075Y25652000D01*
X24582669Y25652000D01*
X24215207Y25578907D01*
X23869065Y25435531D01*
X23557546Y25227380D01*
X23292620Y24962454D01*
X23084469Y24650935D01*
X22941093Y24304793D01*
X22868000Y23937331D01*
X22868000Y23562669D01*
X22941093Y23195207D01*
X23084469Y22849065D01*
X23143000Y22761467D01*
X23143001Y20833927D01*
X22805000Y20495926D01*
X20889414Y22411511D01*
X20866224Y22646965D01*
X20744599Y23047906D01*
X20547093Y23417415D01*
X20281293Y23741293D01*
X19957415Y24007093D01*
X19587906Y24204599D01*
X19186965Y24326224D01*
X18874487Y24357000D01*
X18665513Y24357000D01*
X18353035Y24326224D01*
X17952094Y24204599D01*
X17582585Y24007093D01*
X17399696Y23857000D01*
X16759917Y23857000D01*
X16680000Y23864871D01*
X16600083Y23857000D01*
X16600075Y23857000D01*
X16361052Y23833458D01*
X16054362Y23740425D01*
X15806581Y23607983D01*
X15771714Y23589346D01*
X15586052Y23436978D01*
X15586049Y23436975D01*
X15523971Y23386029D01*
X15473025Y23323951D01*
X13641528Y21492453D01*
X13110000Y21492453D01*
X12889069Y21470693D01*
X12676629Y21406250D01*
X12480843Y21301600D01*
X12309235Y21160765D01*
X12168400Y20989157D01*
X12063750Y20793371D01*
X11999307Y20580931D01*
X11977547Y20360000D01*
X11977547Y18660000D01*
X11999307Y18439069D01*
X12063750Y18226629D01*
X12168400Y18030843D01*
X12239215Y17944555D01*
X12124653Y17730226D01*
X12011606Y17357560D01*
X12007779Y17318705D01*
X9206074Y14516999D01*
X8631926Y14516999D01*
X9973945Y15859018D01*
X10036029Y15909969D01*
X10239346Y16157712D01*
X10390425Y16440360D01*
X10483458Y16747050D01*
X10507000Y16986073D01*
X10514872Y17065998D01*
X10507000Y17145923D01*
X10507000Y27649566D01*
X17179876Y27649566D01*
X17236498Y27462893D01*
X17376601Y27174618D01*
X17570252Y26919215D01*
X17810008Y26706499D01*
X18086656Y26544644D01*
X18389565Y26439871D01*
X18643000Y26558685D01*
X18643000Y27903000D01*
X18897000Y27903000D01*
X18897000Y26558685D01*
X19150435Y26439871D01*
X19453344Y26544644D01*
X19729992Y26706499D01*
X19969748Y26919215D01*
X20163399Y27174618D01*
X20303502Y27462893D01*
X20360124Y27649566D01*
X20240777Y27903000D01*
X18897000Y27903000D01*
X18643000Y27903000D01*
X17299223Y27903000D01*
X17179876Y27649566D01*
X10507000Y27649566D01*
X10507000Y28410434D01*
X17179876Y28410434D01*
X17299223Y28157000D01*
X18643000Y28157000D01*
X18643000Y29501315D01*
X18897000Y29501315D01*
X18897000Y28157000D01*
X20240777Y28157000D01*
X20360124Y28410434D01*
X20303502Y28597107D01*
X20163399Y28885382D01*
X19969748Y29140785D01*
X19729992Y29353501D01*
X19453344Y29515356D01*
X19150435Y29620129D01*
X18897000Y29501315D01*
X18643000Y29501315D01*
X18389565Y29620129D01*
X18086656Y29515356D01*
X17810008Y29353501D01*
X17570252Y29140785D01*
X17376601Y28885382D01*
X17236498Y28597107D01*
X17179876Y28410434D01*
X10507000Y28410434D01*
X10507000Y33307298D01*
X29586903Y33307298D01*
X29658486Y33063329D01*
X29913996Y32942429D01*
X30188184Y32873700D01*
X30470512Y32859783D01*
X30750130Y32901213D01*
X31016292Y32996397D01*
X31141514Y33063329D01*
X31213097Y33307298D01*
X30400000Y34120395D01*
X29586903Y33307298D01*
X10507000Y33307298D01*
X10507000Y35008156D01*
X12039460Y36540616D01*
X12124653Y36259774D01*
X12308232Y35916324D01*
X12555286Y35615286D01*
X12856324Y35368232D01*
X13199774Y35184653D01*
X13572440Y35071606D01*
X13611295Y35067779D01*
X14173025Y34506049D01*
X14223971Y34443971D01*
X14286049Y34393025D01*
X14286052Y34393022D01*
X14471714Y34240654D01*
X14606903Y34168394D01*
X14754362Y34089575D01*
X15061052Y33996542D01*
X15300075Y33973000D01*
X15300085Y33973000D01*
X15379999Y33965129D01*
X15459914Y33973000D01*
X22066469Y33973000D01*
X22187223Y33892315D01*
X22537915Y33747053D01*
X22910207Y33673000D01*
X23289793Y33673000D01*
X23662085Y33747053D01*
X24012777Y33892315D01*
X24328391Y34103201D01*
X24454678Y34229488D01*
X28959783Y34229488D01*
X29001213Y33949870D01*
X29096397Y33683708D01*
X29163329Y33558486D01*
X29407298Y33486903D01*
X30220395Y34300000D01*
X30579605Y34300000D01*
X31392702Y33486903D01*
X31636671Y33558486D01*
X31757571Y33813996D01*
X31826300Y34088184D01*
X31840217Y34370512D01*
X31838812Y34380000D01*
X34763677Y34380000D01*
X34800883Y34002242D01*
X34911071Y33639001D01*
X35090006Y33304237D01*
X35330813Y33010813D01*
X35624237Y32770006D01*
X35959001Y32591071D01*
X36322242Y32480883D01*
X36605342Y32453000D01*
X36794658Y32453000D01*
X37077758Y32480883D01*
X37440999Y32591071D01*
X37775763Y32770006D01*
X37779411Y32773000D01*
X41866469Y32773000D01*
X41987223Y32692315D01*
X42337915Y32547053D01*
X42710207Y32473000D01*
X43089793Y32473000D01*
X43462085Y32547053D01*
X43812777Y32692315D01*
X44128391Y32903201D01*
X44396799Y33171609D01*
X44607685Y33487223D01*
X44752947Y33837915D01*
X44827000Y34210207D01*
X44827000Y34589793D01*
X44752947Y34962085D01*
X44607685Y35312777D01*
X44396799Y35628391D01*
X44128391Y35896799D01*
X43812777Y36107685D01*
X43462085Y36252947D01*
X43089793Y36327000D01*
X42710207Y36327000D01*
X42337915Y36252947D01*
X41987223Y36107685D01*
X41866469Y36027000D01*
X37706530Y36027000D01*
X37440999Y36168929D01*
X37077758Y36279117D01*
X36794658Y36307000D01*
X36605342Y36307000D01*
X36322242Y36279117D01*
X35959001Y36168929D01*
X35624237Y35989994D01*
X35330813Y35749187D01*
X35090006Y35455763D01*
X34911071Y35120999D01*
X34800883Y34757758D01*
X34763677Y34380000D01*
X31838812Y34380000D01*
X31798787Y34650130D01*
X31703603Y34916292D01*
X31636671Y35041514D01*
X31392702Y35113097D01*
X30579605Y34300000D01*
X30220395Y34300000D01*
X29407298Y35113097D01*
X29163329Y35041514D01*
X29042429Y34786004D01*
X28973700Y34511816D01*
X28959783Y34229488D01*
X24454678Y34229488D01*
X24596799Y34371609D01*
X24807685Y34687223D01*
X24952947Y35037915D01*
X25003626Y35292702D01*
X29586903Y35292702D01*
X30400000Y34479605D01*
X31213097Y35292702D01*
X31141514Y35536671D01*
X30886004Y35657571D01*
X30611816Y35726300D01*
X30329488Y35740217D01*
X30049870Y35698787D01*
X29783708Y35603603D01*
X29658486Y35536671D01*
X29586903Y35292702D01*
X25003626Y35292702D01*
X25027000Y35410207D01*
X25027000Y35789793D01*
X24952947Y36162085D01*
X24807685Y36512777D01*
X24596799Y36828391D01*
X24328391Y37096799D01*
X24012777Y37307685D01*
X23662085Y37452947D01*
X23289793Y37527000D01*
X22910207Y37527000D01*
X22537915Y37452947D01*
X22187223Y37307685D01*
X22066469Y37227000D01*
X16053926Y37227000D01*
X15912221Y37368705D01*
X15908394Y37407560D01*
X15795347Y37780226D01*
X15611768Y38123676D01*
X15475270Y38290000D01*
X15611768Y38456324D01*
X15795347Y38799774D01*
X15908394Y39172440D01*
X15946565Y39560000D01*
X15908394Y39947560D01*
X15795347Y40320226D01*
X15680785Y40534555D01*
X15751600Y40620843D01*
X15856250Y40816629D01*
X15920693Y41029069D01*
X15942453Y41250000D01*
X15942453Y41781528D01*
X17513398Y43352472D01*
X17882094Y43155401D01*
X18283035Y43033776D01*
X18595513Y43003000D01*
X18804487Y43003000D01*
X19116965Y43033776D01*
X19517906Y43155401D01*
X19887415Y43352907D01*
X20211293Y43618707D01*
X20477093Y43942585D01*
X20674599Y44312094D01*
X20796224Y44713035D01*
X20797205Y44723000D01*
X23073000Y44723000D01*
X23073001Y42873927D01*
X23073001Y42873927D01*
G37*
X23073001Y42873927D02*
X22680354Y42481280D01*
X22537915Y42452947D01*
X22187223Y42307685D01*
X21871609Y42096799D01*
X21603201Y41828391D01*
X21392315Y41512777D01*
X21247053Y41162085D01*
X21173000Y40789793D01*
X21173000Y40410207D01*
X21247053Y40037915D01*
X21392315Y39687223D01*
X21603201Y39371609D01*
X21871609Y39103201D01*
X22187223Y38892315D01*
X22537915Y38747053D01*
X22910207Y38673000D01*
X23289793Y38673000D01*
X23662085Y38747053D01*
X24012777Y38892315D01*
X24328391Y39103201D01*
X24596799Y39371609D01*
X24807685Y39687223D01*
X24952947Y40037915D01*
X24981280Y40180354D01*
X25793951Y40993025D01*
X25856029Y41043971D01*
X25906975Y41106049D01*
X25906978Y41106052D01*
X26059346Y41291714D01*
X26137492Y41437915D01*
X26210425Y41574362D01*
X26303458Y41881052D01*
X26327000Y42120075D01*
X26334872Y42200000D01*
X26327000Y42279925D01*
X26327000Y42422074D01*
X27923025Y40826049D01*
X27973971Y40763971D01*
X28036049Y40713025D01*
X28036052Y40713022D01*
X28177984Y40596542D01*
X28221714Y40560654D01*
X28504362Y40409575D01*
X28811052Y40316542D01*
X29050075Y40293000D01*
X29050085Y40293000D01*
X29129999Y40285129D01*
X29209914Y40293000D01*
X29356053Y40293000D01*
X29659001Y40131071D01*
X30022242Y40020883D01*
X30305342Y39993000D01*
X30494658Y39993000D01*
X30777758Y40020883D01*
X31140999Y40131071D01*
X31475763Y40310006D01*
X31769187Y40550813D01*
X32009994Y40844237D01*
X32188929Y41179001D01*
X32277638Y41471436D01*
X32843025Y40906049D01*
X32893971Y40843971D01*
X32956049Y40793025D01*
X32956052Y40793022D01*
X33117344Y40660654D01*
X33141714Y40640654D01*
X33424362Y40489575D01*
X33731052Y40396542D01*
X33970075Y40373000D01*
X33970085Y40373000D01*
X34050000Y40365129D01*
X34129914Y40373000D01*
X35666469Y40373000D01*
X35787223Y40292315D01*
X36137915Y40147053D01*
X36510207Y40073000D01*
X36889793Y40073000D01*
X37262085Y40147053D01*
X37612777Y40292315D01*
X37928391Y40503201D01*
X38196799Y40771609D01*
X38407685Y41087223D01*
X38552947Y41437915D01*
X38627000Y41810207D01*
X38627000Y42189793D01*
X38552947Y42562085D01*
X38407685Y42912777D01*
X38196799Y43228391D01*
X37928391Y43496799D01*
X37802897Y43580652D01*
X38128899Y43906654D01*
X38471111Y44418810D01*
X38514268Y44523000D01*
X40666469Y44523000D01*
X40787223Y44442315D01*
X41137915Y44297053D01*
X41273001Y44270183D01*
X41273000Y43063948D01*
X41111071Y42760999D01*
X41000883Y42397758D01*
X40963677Y42020000D01*
X41000883Y41642242D01*
X41111071Y41279001D01*
X41290006Y40944237D01*
X41530813Y40650813D01*
X41824237Y40410006D01*
X42159001Y40231071D01*
X42487720Y40131355D01*
X47063025Y35556049D01*
X47113971Y35493971D01*
X47176049Y35443025D01*
X47176052Y35443022D01*
X47359218Y35292702D01*
X47361714Y35290654D01*
X47644362Y35139575D01*
X47868427Y35071606D01*
X47951052Y35046542D01*
X48270000Y35015128D01*
X48349925Y35023000D01*
X54609837Y35023000D01*
X54744235Y34859235D01*
X54915843Y34718400D01*
X55111629Y34613750D01*
X55324069Y34549307D01*
X55545000Y34527547D01*
X59505000Y34527547D01*
X59725931Y34549307D01*
X59938371Y34613750D01*
X60023001Y34658986D01*
X60023002Y27271396D01*
X60011696Y27297205D01*
X59828852Y27559246D01*
X59598399Y27780581D01*
X59329194Y27952704D01*
X59031582Y28069000D01*
X58717000Y28125000D01*
X57727000Y28125000D01*
X57727000Y26627000D01*
X57747000Y26627000D01*
X57747000Y26373000D01*
X57727000Y26373000D01*
X57727000Y24875000D01*
X58717000Y24875000D01*
X59031582Y24931000D01*
X59329194Y25047296D01*
X59598399Y25219419D01*
X59828852Y25440754D01*
X60011696Y25702795D01*
X60023002Y25728604D01*
X60023002Y25233928D01*
X59323750Y24534675D01*
X59201039Y24571899D01*
X58743120Y24617000D01*
X56456880Y24617000D01*
X55998961Y24571899D01*
X55411404Y24393666D01*
X54869909Y24104230D01*
X54395284Y23714716D01*
X54005770Y23240091D01*
X53716334Y22698596D01*
X53538101Y22111039D01*
X53477919Y21500000D01*
X53538101Y20888961D01*
X53716334Y20301404D01*
X54005770Y19759909D01*
X54395284Y19285284D01*
X54869909Y18895770D01*
X55411404Y18606334D01*
X55422419Y18602993D01*
X55399069Y18600693D01*
X55186629Y18536250D01*
X54990843Y18431600D01*
X54819235Y18290765D01*
X54684837Y18127000D01*
X54473926Y18127000D01*
X51996977Y20603948D01*
X51946029Y20666029D01*
X51698286Y20869346D01*
X51415638Y21020425D01*
X51108948Y21113458D01*
X50869925Y21137000D01*
X50869914Y21137000D01*
X50790000Y21144871D01*
X50710086Y21137000D01*
X44797000Y21137000D01*
X44797000Y21770086D01*
X44804871Y21850000D01*
X44797000Y21929915D01*
X44797000Y21929925D01*
X44773458Y22168948D01*
X44680425Y22475638D01*
X44529346Y22758286D01*
X44454846Y22849065D01*
X44376978Y22943948D01*
X44376975Y22943951D01*
X44326029Y23006029D01*
X44263951Y23056975D01*
X43697000Y23623926D01*
X43697000Y23739793D01*
X43622947Y24112085D01*
X43477685Y24462777D01*
X43266799Y24778391D01*
X42998391Y25046799D01*
X42682777Y25257685D01*
X42332085Y25402947D01*
X41959793Y25477000D01*
X41580207Y25477000D01*
X41207915Y25402947D01*
X40857223Y25257685D01*
X40541609Y25046799D01*
X40371810Y24877000D01*
X38477093Y24877000D01*
X38198899Y25293346D01*
X37763346Y25728899D01*
X37656936Y25800000D01*
X37763346Y25871101D01*
X38198899Y26306654D01*
X38541111Y26818810D01*
X38776831Y27387888D01*
X38810528Y27557298D01*
X43256903Y27557298D01*
X43328486Y27313329D01*
X43583996Y27192429D01*
X43858184Y27123700D01*
X44140512Y27109783D01*
X44420130Y27151213D01*
X44686292Y27246397D01*
X44811514Y27313329D01*
X44883097Y27557298D01*
X44070000Y28370395D01*
X43256903Y27557298D01*
X38810528Y27557298D01*
X38897000Y27992017D01*
X38897000Y28479488D01*
X42629783Y28479488D01*
X42671213Y28199870D01*
X42766397Y27933708D01*
X42833329Y27808486D01*
X43077298Y27736903D01*
X43890395Y28550000D01*
X44249605Y28550000D01*
X45062702Y27736903D01*
X45306671Y27808486D01*
X45427571Y28063996D01*
X45496300Y28338184D01*
X45510217Y28620512D01*
X45468787Y28900130D01*
X45373603Y29166292D01*
X45306671Y29291514D01*
X45062702Y29363097D01*
X44249605Y28550000D01*
X43890395Y28550000D01*
X43077298Y29363097D01*
X42833329Y29291514D01*
X42712429Y29036004D01*
X42643700Y28761816D01*
X42629783Y28479488D01*
X38897000Y28479488D01*
X38897000Y28607983D01*
X38776831Y29212112D01*
X38639897Y29542702D01*
X43256903Y29542702D01*
X44070000Y28729605D01*
X44828395Y29488000D01*
X46795126Y29488000D01*
X46807811Y29359209D01*
X46820295Y29231084D01*
X46820495Y29230421D01*
X46820564Y29229725D01*
X46858208Y29105629D01*
X46895371Y28982656D01*
X46895697Y28982045D01*
X46895900Y28981375D01*
X46956850Y28867346D01*
X46986876Y28811030D01*
X46987256Y28810460D01*
X47018239Y28752495D01*
X47059058Y28702758D01*
X48582671Y26417336D01*
X48705901Y26266860D01*
X48765411Y26217917D01*
X48789482Y26185492D01*
X48981857Y26011294D01*
X49204520Y25877973D01*
X49448914Y25790654D01*
X49705647Y25752692D01*
X49964853Y25765545D01*
X50216570Y25828719D01*
X50221261Y25830940D01*
X50235211Y25826725D01*
X50314926Y25796620D01*
X50359162Y25789266D01*
X50402083Y25776295D01*
X50486888Y25768032D01*
X50570937Y25754059D01*
X50615751Y25755476D01*
X50660384Y25751127D01*
X50745169Y25759568D01*
X50830332Y25762260D01*
X50874018Y25772395D01*
X50918632Y25776836D01*
X51000133Y25801652D01*
X51083142Y25820909D01*
X51124007Y25839370D01*
X51166903Y25852431D01*
X51242009Y25892677D01*
X51319654Y25927753D01*
X51356129Y25953829D01*
X51395655Y25975009D01*
X51461463Y26029132D01*
X51530777Y26078684D01*
X51561468Y26111379D01*
X51573330Y26121135D01*
X55029782Y26121135D01*
X55060095Y25995472D01*
X55188304Y25702795D01*
X55371148Y25440754D01*
X55601601Y25219419D01*
X55870806Y25047296D01*
X56168418Y24931000D01*
X56483000Y24875000D01*
X57473000Y24875000D01*
X57473000Y26373000D01*
X55149260Y26373000D01*
X55029782Y26121135D01*
X51573330Y26121135D01*
X51596098Y26139860D01*
X51650082Y26205779D01*
X51708397Y26267903D01*
X51732118Y26305954D01*
X51760529Y26340647D01*
X51800615Y26415832D01*
X51845691Y26488139D01*
X51861534Y26530091D01*
X51882629Y26569656D01*
X51907275Y26651212D01*
X51937380Y26730927D01*
X51944734Y26775163D01*
X51957705Y26818084D01*
X51963627Y26878865D01*
X55029782Y26878865D01*
X55149260Y26627000D01*
X57473000Y26627000D01*
X57473000Y28125000D01*
X56483000Y28125000D01*
X56168418Y28069000D01*
X55870806Y27952704D01*
X55601601Y27780581D01*
X55371148Y27559246D01*
X55188304Y27297205D01*
X55060095Y27004528D01*
X55029782Y26878865D01*
X51963627Y26878865D01*
X51965968Y26902889D01*
X51979941Y26986938D01*
X51978524Y27031752D01*
X51982873Y27076385D01*
X51974432Y27161170D01*
X51971740Y27246333D01*
X51961605Y27290019D01*
X51957164Y27334633D01*
X51932348Y27416134D01*
X51913091Y27499143D01*
X51894630Y27540008D01*
X51881569Y27582904D01*
X51841324Y27658008D01*
X51806247Y27735655D01*
X51780169Y27772133D01*
X51758991Y27811655D01*
X51704876Y27877454D01*
X51693135Y27893877D01*
X51663737Y27927474D01*
X51594140Y28012098D01*
X51578445Y28024951D01*
X51260657Y28388138D01*
X51306016Y28472998D01*
X51362488Y28573205D01*
X51367107Y28587292D01*
X51374100Y28600375D01*
X51407510Y28710513D01*
X51443348Y28819812D01*
X51445130Y28834530D01*
X51449436Y28848725D01*
X51460716Y28963249D01*
X51474544Y29077455D01*
X51473420Y29092241D01*
X51474874Y29107000D01*
X51463597Y29221501D01*
X51454877Y29336233D01*
X51450889Y29350519D01*
X51449436Y29365275D01*
X51416038Y29475373D01*
X51385102Y29586202D01*
X51378405Y29599433D01*
X51374100Y29613625D01*
X51319854Y29715113D01*
X51297268Y29759735D01*
X51289361Y29772160D01*
X51251761Y29842505D01*
X51219859Y29881377D01*
X50194463Y31492714D01*
X50197487Y31507341D01*
X50197660Y31530415D01*
X50201543Y31553153D01*
X50198633Y31659993D01*
X50199436Y31766858D01*
X50195106Y31789514D01*
X50194478Y31812581D01*
X50170782Y31916795D01*
X50150720Y32021770D01*
X50142050Y32043155D01*
X50136936Y32065645D01*
X50093374Y32163212D01*
X50053209Y32262278D01*
X50040534Y32281560D01*
X50031130Y32302622D01*
X49969369Y32389818D01*
X49910651Y32479142D01*
X49894458Y32495581D01*
X49881125Y32514404D01*
X49803534Y32587881D01*
X49774159Y32617701D01*
X49756540Y32632383D01*
X49692686Y32692852D01*
X49657085Y32715263D01*
X48995071Y33266940D01*
X48931779Y33327002D01*
X48840817Y33384395D01*
X48751826Y33444829D01*
X48731215Y33453548D01*
X48712292Y33465488D01*
X48611870Y33504037D01*
X48512809Y33545944D01*
X48490898Y33550474D01*
X48470005Y33558494D01*
X48363982Y33576712D01*
X48258659Y33598486D01*
X48236285Y33598654D01*
X48214229Y33602444D01*
X48106693Y33599628D01*
X47999143Y33600436D01*
X47977165Y33596236D01*
X47954794Y33595650D01*
X47849879Y33571910D01*
X47744231Y33551720D01*
X47723494Y33543312D01*
X47701669Y33538374D01*
X47603412Y33494627D01*
X47503722Y33454209D01*
X47485021Y33441915D01*
X47464581Y33432815D01*
X47376745Y33370739D01*
X47286858Y33311650D01*
X47270917Y33295947D01*
X47252643Y33283032D01*
X47178611Y33205018D01*
X47101972Y33129523D01*
X47089398Y33111007D01*
X47073998Y33094779D01*
X47016610Y33003824D01*
X46956171Y32914826D01*
X46947452Y32894215D01*
X46935512Y32875292D01*
X46896963Y32774870D01*
X46855056Y32675809D01*
X46850526Y32653898D01*
X46842506Y32633005D01*
X46824288Y32526982D01*
X46802514Y32421659D01*
X46802346Y32399285D01*
X46798556Y32377229D01*
X46801372Y32269683D01*
X46800564Y32162143D01*
X46816941Y32076448D01*
X46932561Y31151485D01*
X46936545Y31071147D01*
X46964381Y30960233D01*
X46989626Y30848669D01*
X46995940Y30834488D01*
X46999719Y30819430D01*
X47048671Y30716052D01*
X47095185Y30611581D01*
X47104143Y30598905D01*
X47110788Y30584873D01*
X47178958Y30493044D01*
X47211171Y30447464D01*
X47183860Y30425098D01*
X47183420Y30424564D01*
X47182880Y30424120D01*
X47100592Y30323852D01*
X47019009Y30224655D01*
X47018682Y30224045D01*
X47018239Y30223505D01*
X46957081Y30109086D01*
X46896431Y29995903D01*
X46896230Y29995242D01*
X46895900Y29994625D01*
X46858142Y29870152D01*
X46820836Y29747632D01*
X46820768Y29746947D01*
X46820564Y29746275D01*
X46807839Y29617077D01*
X46795127Y29489384D01*
X46795194Y29488693D01*
X46795126Y29488000D01*
X44828395Y29488000D01*
X44883097Y29542702D01*
X44811514Y29786671D01*
X44556004Y29907571D01*
X44281816Y29976300D01*
X43999488Y29990217D01*
X43719870Y29948787D01*
X43453708Y29853603D01*
X43328486Y29786671D01*
X43256903Y29542702D01*
X38639897Y29542702D01*
X38541111Y29781190D01*
X38198899Y30293346D01*
X37763346Y30728899D01*
X37251190Y31071111D01*
X36682112Y31306831D01*
X36077983Y31427000D01*
X35462017Y31427000D01*
X34857888Y31306831D01*
X34288810Y31071111D01*
X33776654Y30728899D01*
X33341101Y30293346D01*
X32998889Y29781190D01*
X32935021Y29627000D01*
X28965445Y29627000D01*
X28955531Y29650935D01*
X28747380Y29962454D01*
X28482454Y30227380D01*
X28170935Y30435531D01*
X27824793Y30578907D01*
X27457331Y30652000D01*
X27082669Y30652000D01*
X26715207Y30578907D01*
X26369065Y30435531D01*
X26057546Y30227380D01*
X25792620Y29962454D01*
X25584469Y29650935D01*
X25441093Y29304793D01*
X25368000Y28937331D01*
X25368000Y28562669D01*
X25441093Y28195207D01*
X25584469Y27849065D01*
X25643000Y27761467D01*
X25643001Y26623927D01*
X24671075Y25652000D01*
X24582669Y25652000D01*
X24215207Y25578907D01*
X23869065Y25435531D01*
X23557546Y25227380D01*
X23292620Y24962454D01*
X23084469Y24650935D01*
X22941093Y24304793D01*
X22868000Y23937331D01*
X22868000Y23562669D01*
X22941093Y23195207D01*
X23084469Y22849065D01*
X23143000Y22761467D01*
X23143001Y20833927D01*
X22805000Y20495926D01*
X20889414Y22411511D01*
X20866224Y22646965D01*
X20744599Y23047906D01*
X20547093Y23417415D01*
X20281293Y23741293D01*
X19957415Y24007093D01*
X19587906Y24204599D01*
X19186965Y24326224D01*
X18874487Y24357000D01*
X18665513Y24357000D01*
X18353035Y24326224D01*
X17952094Y24204599D01*
X17582585Y24007093D01*
X17399696Y23857000D01*
X16759917Y23857000D01*
X16680000Y23864871D01*
X16600083Y23857000D01*
X16600075Y23857000D01*
X16361052Y23833458D01*
X16054362Y23740425D01*
X15806581Y23607983D01*
X15771714Y23589346D01*
X15586052Y23436978D01*
X15586049Y23436975D01*
X15523971Y23386029D01*
X15473025Y23323951D01*
X13641528Y21492453D01*
X13110000Y21492453D01*
X12889069Y21470693D01*
X12676629Y21406250D01*
X12480843Y21301600D01*
X12309235Y21160765D01*
X12168400Y20989157D01*
X12063750Y20793371D01*
X11999307Y20580931D01*
X11977547Y20360000D01*
X11977547Y18660000D01*
X11999307Y18439069D01*
X12063750Y18226629D01*
X12168400Y18030843D01*
X12239215Y17944555D01*
X12124653Y17730226D01*
X12011606Y17357560D01*
X12007779Y17318705D01*
X9206074Y14516999D01*
X8631926Y14516999D01*
X9973945Y15859018D01*
X10036029Y15909969D01*
X10239346Y16157712D01*
X10390425Y16440360D01*
X10483458Y16747050D01*
X10507000Y16986073D01*
X10514872Y17065998D01*
X10507000Y17145923D01*
X10507000Y27649566D01*
X17179876Y27649566D01*
X17236498Y27462893D01*
X17376601Y27174618D01*
X17570252Y26919215D01*
X17810008Y26706499D01*
X18086656Y26544644D01*
X18389565Y26439871D01*
X18643000Y26558685D01*
X18643000Y27903000D01*
X18897000Y27903000D01*
X18897000Y26558685D01*
X19150435Y26439871D01*
X19453344Y26544644D01*
X19729992Y26706499D01*
X19969748Y26919215D01*
X20163399Y27174618D01*
X20303502Y27462893D01*
X20360124Y27649566D01*
X20240777Y27903000D01*
X18897000Y27903000D01*
X18643000Y27903000D01*
X17299223Y27903000D01*
X17179876Y27649566D01*
X10507000Y27649566D01*
X10507000Y28410434D01*
X17179876Y28410434D01*
X17299223Y28157000D01*
X18643000Y28157000D01*
X18643000Y29501315D01*
X18897000Y29501315D01*
X18897000Y28157000D01*
X20240777Y28157000D01*
X20360124Y28410434D01*
X20303502Y28597107D01*
X20163399Y28885382D01*
X19969748Y29140785D01*
X19729992Y29353501D01*
X19453344Y29515356D01*
X19150435Y29620129D01*
X18897000Y29501315D01*
X18643000Y29501315D01*
X18389565Y29620129D01*
X18086656Y29515356D01*
X17810008Y29353501D01*
X17570252Y29140785D01*
X17376601Y28885382D01*
X17236498Y28597107D01*
X17179876Y28410434D01*
X10507000Y28410434D01*
X10507000Y33307298D01*
X29586903Y33307298D01*
X29658486Y33063329D01*
X29913996Y32942429D01*
X30188184Y32873700D01*
X30470512Y32859783D01*
X30750130Y32901213D01*
X31016292Y32996397D01*
X31141514Y33063329D01*
X31213097Y33307298D01*
X30400000Y34120395D01*
X29586903Y33307298D01*
X10507000Y33307298D01*
X10507000Y35008156D01*
X12039460Y36540616D01*
X12124653Y36259774D01*
X12308232Y35916324D01*
X12555286Y35615286D01*
X12856324Y35368232D01*
X13199774Y35184653D01*
X13572440Y35071606D01*
X13611295Y35067779D01*
X14173025Y34506049D01*
X14223971Y34443971D01*
X14286049Y34393025D01*
X14286052Y34393022D01*
X14471714Y34240654D01*
X14606903Y34168394D01*
X14754362Y34089575D01*
X15061052Y33996542D01*
X15300075Y33973000D01*
X15300085Y33973000D01*
X15379999Y33965129D01*
X15459914Y33973000D01*
X22066469Y33973000D01*
X22187223Y33892315D01*
X22537915Y33747053D01*
X22910207Y33673000D01*
X23289793Y33673000D01*
X23662085Y33747053D01*
X24012777Y33892315D01*
X24328391Y34103201D01*
X24454678Y34229488D01*
X28959783Y34229488D01*
X29001213Y33949870D01*
X29096397Y33683708D01*
X29163329Y33558486D01*
X29407298Y33486903D01*
X30220395Y34300000D01*
X30579605Y34300000D01*
X31392702Y33486903D01*
X31636671Y33558486D01*
X31757571Y33813996D01*
X31826300Y34088184D01*
X31840217Y34370512D01*
X31838812Y34380000D01*
X34763677Y34380000D01*
X34800883Y34002242D01*
X34911071Y33639001D01*
X35090006Y33304237D01*
X35330813Y33010813D01*
X35624237Y32770006D01*
X35959001Y32591071D01*
X36322242Y32480883D01*
X36605342Y32453000D01*
X36794658Y32453000D01*
X37077758Y32480883D01*
X37440999Y32591071D01*
X37775763Y32770006D01*
X37779411Y32773000D01*
X41866469Y32773000D01*
X41987223Y32692315D01*
X42337915Y32547053D01*
X42710207Y32473000D01*
X43089793Y32473000D01*
X43462085Y32547053D01*
X43812777Y32692315D01*
X44128391Y32903201D01*
X44396799Y33171609D01*
X44607685Y33487223D01*
X44752947Y33837915D01*
X44827000Y34210207D01*
X44827000Y34589793D01*
X44752947Y34962085D01*
X44607685Y35312777D01*
X44396799Y35628391D01*
X44128391Y35896799D01*
X43812777Y36107685D01*
X43462085Y36252947D01*
X43089793Y36327000D01*
X42710207Y36327000D01*
X42337915Y36252947D01*
X41987223Y36107685D01*
X41866469Y36027000D01*
X37706530Y36027000D01*
X37440999Y36168929D01*
X37077758Y36279117D01*
X36794658Y36307000D01*
X36605342Y36307000D01*
X36322242Y36279117D01*
X35959001Y36168929D01*
X35624237Y35989994D01*
X35330813Y35749187D01*
X35090006Y35455763D01*
X34911071Y35120999D01*
X34800883Y34757758D01*
X34763677Y34380000D01*
X31838812Y34380000D01*
X31798787Y34650130D01*
X31703603Y34916292D01*
X31636671Y35041514D01*
X31392702Y35113097D01*
X30579605Y34300000D01*
X30220395Y34300000D01*
X29407298Y35113097D01*
X29163329Y35041514D01*
X29042429Y34786004D01*
X28973700Y34511816D01*
X28959783Y34229488D01*
X24454678Y34229488D01*
X24596799Y34371609D01*
X24807685Y34687223D01*
X24952947Y35037915D01*
X25003626Y35292702D01*
X29586903Y35292702D01*
X30400000Y34479605D01*
X31213097Y35292702D01*
X31141514Y35536671D01*
X30886004Y35657571D01*
X30611816Y35726300D01*
X30329488Y35740217D01*
X30049870Y35698787D01*
X29783708Y35603603D01*
X29658486Y35536671D01*
X29586903Y35292702D01*
X25003626Y35292702D01*
X25027000Y35410207D01*
X25027000Y35789793D01*
X24952947Y36162085D01*
X24807685Y36512777D01*
X24596799Y36828391D01*
X24328391Y37096799D01*
X24012777Y37307685D01*
X23662085Y37452947D01*
X23289793Y37527000D01*
X22910207Y37527000D01*
X22537915Y37452947D01*
X22187223Y37307685D01*
X22066469Y37227000D01*
X16053926Y37227000D01*
X15912221Y37368705D01*
X15908394Y37407560D01*
X15795347Y37780226D01*
X15611768Y38123676D01*
X15475270Y38290000D01*
X15611768Y38456324D01*
X15795347Y38799774D01*
X15908394Y39172440D01*
X15946565Y39560000D01*
X15908394Y39947560D01*
X15795347Y40320226D01*
X15680785Y40534555D01*
X15751600Y40620843D01*
X15856250Y40816629D01*
X15920693Y41029069D01*
X15942453Y41250000D01*
X15942453Y41781528D01*
X17513398Y43352472D01*
X17882094Y43155401D01*
X18283035Y43033776D01*
X18595513Y43003000D01*
X18804487Y43003000D01*
X19116965Y43033776D01*
X19517906Y43155401D01*
X19887415Y43352907D01*
X20211293Y43618707D01*
X20477093Y43942585D01*
X20674599Y44312094D01*
X20796224Y44713035D01*
X20797205Y44723000D01*
X23073000Y44723000D01*
X23073001Y42873927D01*
M02*
