G04 #@! TF.GenerationSoftware,KiCad,Pcbnew,(5.1.2)-1*
G04 #@! TF.CreationDate,2019-10-08T11:37:34+11:00*
G04 #@! TF.ProjectId,AnalogDiscovery_x20_powerMainsProbe,416e616c-6f67-4446-9973-636f76657279,rev?*
G04 #@! TF.SameCoordinates,PX69618a0PY7bfa480*
G04 #@! TF.FileFunction,Copper,L1,Top*
G04 #@! TF.FilePolarity,Positive*
%FSLAX46Y46*%
G04 Gerber Fmt 4.6, Leading zero omitted, Abs format (unit mm)*
G04 Created by KiCad (PCBNEW (5.1.2)-1) date 2019-10-08 11:37:34*
%MOMM*%
%LPD*%
G04 APERTURE LIST*
%ADD10C,0.381000*%
%ADD11O,1.700000X1.700000*%
%ADD12R,1.700000X1.700000*%
%ADD13C,1.600000*%
%ADD14O,2.000000X2.000000*%
%ADD15C,1.550000*%
%ADD16R,1.550000X1.550000*%
%ADD17O,1.600000X1.600000*%
%ADD18O,3.960000X1.980000*%
%ADD19R,3.960000X1.980000*%
%ADD20C,0.800000*%
%ADD21C,0.500000*%
%ADD22C,0.250000*%
%ADD23C,0.254000*%
G04 APERTURE END LIST*
D10*
X49897000Y6794000D02*
X48500000Y4889000D01*
X48500000Y4889000D02*
X49770000Y4889000D01*
X48246000Y2984000D02*
X48119000Y1968000D01*
X48119000Y1968000D02*
X48881000Y2603000D01*
X48881000Y2603000D02*
X48373000Y2349000D01*
X48373000Y2349000D02*
X50151000Y5143000D01*
X50151000Y5143000D02*
X48881000Y5143000D01*
X48881000Y5143000D02*
X50659000Y7175000D01*
X50659000Y7175000D02*
X49897000Y6667000D01*
X49897000Y6667000D02*
X49770000Y7175000D01*
X49643000Y7048000D02*
X48119000Y4762000D01*
X48119000Y4762000D02*
X49516000Y4762000D01*
X49516000Y4762000D02*
X48373000Y2476000D01*
X48373000Y2476000D02*
X48246000Y2984000D01*
X49897000Y31794000D02*
X48500000Y29889000D01*
X48500000Y29889000D02*
X49770000Y29889000D01*
X48246000Y27984000D02*
X48119000Y26968000D01*
X48119000Y26968000D02*
X48881000Y27603000D01*
X48881000Y27603000D02*
X48373000Y27349000D01*
X48373000Y27349000D02*
X50151000Y30143000D01*
X50151000Y30143000D02*
X48881000Y30143000D01*
X48881000Y30143000D02*
X50659000Y32175000D01*
X50659000Y32175000D02*
X49897000Y31667000D01*
X49897000Y31667000D02*
X49770000Y32175000D01*
X49643000Y32048000D02*
X48119000Y29762000D01*
X48119000Y29762000D02*
X49516000Y29762000D01*
X49516000Y29762000D02*
X48373000Y27476000D01*
X48373000Y27476000D02*
X48246000Y27984000D01*
X48373000Y52476000D02*
X48246000Y52984000D01*
X49516000Y54762000D02*
X48373000Y52476000D01*
X48119000Y54762000D02*
X49516000Y54762000D01*
X49643000Y57048000D02*
X48119000Y54762000D01*
X49897000Y56667000D02*
X49770000Y57175000D01*
X50659000Y57175000D02*
X49897000Y56667000D01*
X48881000Y55143000D02*
X50659000Y57175000D01*
X50151000Y55143000D02*
X48881000Y55143000D01*
X48373000Y52349000D02*
X50151000Y55143000D01*
X48881000Y52603000D02*
X48373000Y52349000D01*
X48119000Y51968000D02*
X48881000Y52603000D01*
X48246000Y52984000D02*
X48119000Y51968000D01*
X48500000Y54889000D02*
X49770000Y54889000D01*
X49897000Y56794000D02*
X48500000Y54889000D01*
D11*
X18640000Y5200000D03*
X18640000Y7740000D03*
X16100000Y5200000D03*
X16100000Y7740000D03*
X13560000Y5200000D03*
D12*
X13560000Y7740000D03*
D11*
X13960000Y37020000D03*
X13960000Y39560000D03*
D12*
X13960000Y42100000D03*
D13*
X23100000Y35600000D03*
X23100000Y40600000D03*
D11*
X13960000Y14430000D03*
X13960000Y16970000D03*
D12*
X13960000Y19510000D03*
D13*
X22850000Y13240000D03*
X22850000Y18240000D03*
D14*
X18700000Y50930000D03*
X18700000Y45130000D03*
X18770000Y28030000D03*
X18770000Y22230000D03*
D13*
X44000000Y51150000D03*
X41700000Y46150000D03*
D15*
X27200000Y51350000D03*
D16*
X29700000Y46350000D03*
D15*
X24700000Y46350000D03*
X27270000Y28750000D03*
D16*
X29770000Y23750000D03*
D15*
X24770000Y23750000D03*
D13*
X44070000Y28550000D03*
X41770000Y23550000D03*
D17*
X30400000Y41920000D03*
D13*
X30400000Y34300000D03*
D17*
X36700000Y34380000D03*
D13*
X36700000Y42000000D03*
D17*
X42900000Y42020000D03*
D13*
X42900000Y34400000D03*
D17*
X30470000Y19510000D03*
D13*
X30470000Y11890000D03*
D17*
X36820000Y11890000D03*
D13*
X36820000Y19510000D03*
D17*
X43170000Y19510000D03*
D13*
X43170000Y11890000D03*
D18*
X57525000Y46650000D03*
X57525000Y41650000D03*
D19*
X57525000Y36650000D03*
D13*
X35700000Y45900000D03*
X35700000Y50900000D03*
X35770000Y23300000D03*
X35770000Y28300000D03*
D18*
X57600000Y26500000D03*
X57600000Y21500000D03*
D19*
X57600000Y16500000D03*
D11*
X3960000Y14440000D03*
X6500000Y14440000D03*
X3960000Y16980000D03*
X6500000Y16980000D03*
X3960000Y19520000D03*
X6500000Y19520000D03*
X3960000Y22060000D03*
X6500000Y22060000D03*
X3960000Y24600000D03*
X6500000Y24600000D03*
X3960000Y27140000D03*
X6500000Y27140000D03*
X3960000Y29680000D03*
X6500000Y29680000D03*
X3960000Y32220000D03*
X6500000Y32220000D03*
X3960000Y34760000D03*
X6500000Y34760000D03*
X3960000Y37300000D03*
X6500000Y37300000D03*
X3960000Y39840000D03*
X6500000Y39840000D03*
X3960000Y42380000D03*
X6500000Y42380000D03*
X3960000Y44920000D03*
X6500000Y44920000D03*
X3960000Y47460000D03*
X6500000Y47460000D03*
X3960000Y50000000D03*
D12*
X6500000Y50000000D03*
D20*
X11420000Y61420000D03*
X21420000Y61420000D03*
X31420000Y61420000D03*
X41420000Y61420000D03*
X51420000Y61420000D03*
X11420000Y51420000D03*
X21420000Y51420000D03*
X31420000Y51420000D03*
X41420000Y51420000D03*
X11420000Y41420000D03*
X51420000Y41420000D03*
X22690000Y31420000D03*
X32690000Y31420000D03*
X42690000Y31420000D03*
X51420000Y21420000D03*
X11420000Y11420000D03*
X21400000Y11100000D03*
X51420000Y11420000D03*
X11420000Y1420000D03*
X21420000Y1420000D03*
X31420000Y1420000D03*
X41420000Y1420000D03*
D21*
X16100000Y5200000D02*
X16100000Y7740000D01*
X4809999Y13590001D02*
X3960000Y14440000D01*
X5260001Y13139999D02*
X4809999Y13590001D01*
X16100000Y7740000D02*
X14070001Y9769999D01*
X14070001Y9769999D02*
X10627999Y9769999D01*
X10627999Y9769999D02*
X9769999Y10627999D01*
X9769999Y10627999D02*
X9769999Y12330001D01*
X9769999Y12330001D02*
X8960001Y13139999D01*
X8960001Y13139999D02*
X5260001Y13139999D01*
X18640000Y7740000D02*
X18640000Y5200000D01*
X10700001Y15679999D02*
X7124001Y15679999D01*
X18640000Y7740000D02*
X10700001Y15679999D01*
D22*
X4809999Y16130001D02*
X3960000Y16980000D01*
X5135001Y15804999D02*
X4809999Y16130001D01*
X7064001Y15804999D02*
X5135001Y15804999D01*
X7124001Y15744999D02*
X7064001Y15804999D01*
X7124001Y15679999D02*
X7124001Y15744999D01*
D21*
X13560000Y5200000D02*
X13560000Y7740000D01*
X3110001Y23750001D02*
X3960000Y24600000D01*
X2659999Y23299999D02*
X3110001Y23750001D01*
X2659999Y13815999D02*
X2659999Y23299999D01*
X8735998Y7740000D02*
X2659999Y13815999D01*
X13560000Y7740000D02*
X8735998Y7740000D01*
D23*
G36*
X63340000Y660000D02*
G01*
X48299706Y660000D01*
X48363982Y673288D01*
X48470005Y691506D01*
X48490898Y699526D01*
X48512809Y704056D01*
X48611870Y745963D01*
X48712292Y784512D01*
X48731215Y796452D01*
X48751826Y805171D01*
X48840817Y865605D01*
X48931779Y922998D01*
X48995071Y983060D01*
X49657085Y1534737D01*
X49692686Y1557148D01*
X49756540Y1617617D01*
X49774159Y1632299D01*
X49803534Y1662119D01*
X49881125Y1735596D01*
X49894458Y1754419D01*
X49910651Y1770858D01*
X49969369Y1860182D01*
X50031130Y1947378D01*
X50040534Y1968440D01*
X50053209Y1987722D01*
X50093374Y2086788D01*
X50136936Y2184355D01*
X50142050Y2206845D01*
X50150720Y2228230D01*
X50170782Y2333205D01*
X50194478Y2437419D01*
X50195106Y2460486D01*
X50199436Y2483142D01*
X50198633Y2590007D01*
X50201543Y2696847D01*
X50197660Y2719585D01*
X50197487Y2742659D01*
X50194463Y2757286D01*
X51219859Y4368623D01*
X51251761Y4407495D01*
X51289361Y4477840D01*
X51297268Y4490265D01*
X51319854Y4534887D01*
X51374100Y4636375D01*
X51378405Y4650567D01*
X51385102Y4663798D01*
X51416038Y4774627D01*
X51449436Y4884725D01*
X51450889Y4899481D01*
X51454877Y4913767D01*
X51463597Y5028499D01*
X51474874Y5143000D01*
X51473420Y5157759D01*
X51474544Y5172545D01*
X51460716Y5286751D01*
X51449436Y5401275D01*
X51445130Y5415470D01*
X51443348Y5430188D01*
X51407510Y5539487D01*
X51374100Y5649625D01*
X51367107Y5662708D01*
X51362488Y5676795D01*
X51306016Y5777002D01*
X51260657Y5861862D01*
X51578445Y6225049D01*
X51594140Y6237902D01*
X51663737Y6322526D01*
X51663938Y6322756D01*
X54723000Y6322756D01*
X54723000Y5677244D01*
X54848933Y5044134D01*
X55095960Y4447758D01*
X55454588Y3911034D01*
X55911034Y3454588D01*
X56447758Y3095960D01*
X57044134Y2848933D01*
X57677244Y2723000D01*
X58322756Y2723000D01*
X58955866Y2848933D01*
X59552242Y3095960D01*
X60088966Y3454588D01*
X60545412Y3911034D01*
X60904040Y4447758D01*
X61151067Y5044134D01*
X61277000Y5677244D01*
X61277000Y6322756D01*
X61151067Y6955866D01*
X60904040Y7552242D01*
X60545412Y8088966D01*
X60088966Y8545412D01*
X59552242Y8904040D01*
X58955866Y9151067D01*
X58322756Y9277000D01*
X57677244Y9277000D01*
X57044134Y9151067D01*
X56447758Y8904040D01*
X55911034Y8545412D01*
X55454588Y8088966D01*
X55095960Y7552242D01*
X54848933Y6955866D01*
X54723000Y6322756D01*
X51663938Y6322756D01*
X51693135Y6356123D01*
X51704876Y6372546D01*
X51758991Y6438345D01*
X51780169Y6477867D01*
X51806247Y6514345D01*
X51841324Y6591992D01*
X51881569Y6667096D01*
X51894630Y6709992D01*
X51913091Y6750857D01*
X51932348Y6833866D01*
X51957164Y6915367D01*
X51961605Y6959981D01*
X51971740Y7003667D01*
X51974432Y7088830D01*
X51982873Y7173615D01*
X51978524Y7218248D01*
X51979941Y7263062D01*
X51965968Y7347111D01*
X51957705Y7431916D01*
X51944734Y7474837D01*
X51937380Y7519073D01*
X51907275Y7598788D01*
X51882629Y7680344D01*
X51861534Y7719909D01*
X51845691Y7761861D01*
X51800615Y7834168D01*
X51760529Y7909353D01*
X51732118Y7944046D01*
X51708397Y7982097D01*
X51650082Y8044221D01*
X51596098Y8110140D01*
X51561468Y8138621D01*
X51530777Y8171316D01*
X51461463Y8220868D01*
X51395655Y8274991D01*
X51356129Y8296171D01*
X51319654Y8322247D01*
X51242009Y8357323D01*
X51166903Y8397569D01*
X51124007Y8410630D01*
X51083142Y8429091D01*
X51000133Y8448348D01*
X50918632Y8473164D01*
X50874018Y8477605D01*
X50830332Y8487740D01*
X50745169Y8490432D01*
X50660384Y8498873D01*
X50615751Y8494524D01*
X50570937Y8495941D01*
X50486888Y8481968D01*
X50402083Y8473705D01*
X50359162Y8460734D01*
X50314926Y8453380D01*
X50235211Y8423275D01*
X50221261Y8419060D01*
X50216570Y8421281D01*
X49964853Y8484455D01*
X49705647Y8497308D01*
X49448914Y8459346D01*
X49204520Y8372027D01*
X48981857Y8238706D01*
X48789482Y8064508D01*
X48765411Y8032083D01*
X48705901Y7983140D01*
X48582671Y7832664D01*
X47059058Y5547242D01*
X47018239Y5497505D01*
X46987256Y5439540D01*
X46986876Y5438970D01*
X46957031Y5382993D01*
X46895900Y5268625D01*
X46895697Y5267955D01*
X46895371Y5267344D01*
X46858208Y5144371D01*
X46820564Y5020275D01*
X46820495Y5019579D01*
X46820295Y5018916D01*
X46807811Y4890791D01*
X46795126Y4762000D01*
X46795194Y4761307D01*
X46795127Y4760616D01*
X46807839Y4632923D01*
X46820564Y4503725D01*
X46820768Y4503053D01*
X46820836Y4502368D01*
X46858142Y4379848D01*
X46895900Y4255375D01*
X46896230Y4254758D01*
X46896431Y4254097D01*
X46957081Y4140914D01*
X47018239Y4026495D01*
X47018682Y4025955D01*
X47019009Y4025345D01*
X47100592Y3926148D01*
X47182880Y3825880D01*
X47183420Y3825436D01*
X47183860Y3824902D01*
X47211171Y3802536D01*
X47178958Y3756956D01*
X47110788Y3665127D01*
X47104143Y3651095D01*
X47095185Y3638419D01*
X47048671Y3533948D01*
X46999719Y3430570D01*
X46995940Y3415512D01*
X46989626Y3401331D01*
X46964381Y3289767D01*
X46936545Y3178853D01*
X46932561Y3098515D01*
X46816941Y2173552D01*
X46800564Y2087857D01*
X46801372Y1980317D01*
X46798556Y1872771D01*
X46802346Y1850715D01*
X46802514Y1828341D01*
X46824288Y1723018D01*
X46842506Y1616995D01*
X46850526Y1596102D01*
X46855056Y1574191D01*
X46896963Y1475130D01*
X46935512Y1374708D01*
X46947452Y1355785D01*
X46956171Y1335174D01*
X47016610Y1246176D01*
X47073998Y1155221D01*
X47089398Y1138993D01*
X47101972Y1120477D01*
X47178611Y1044982D01*
X47252643Y966968D01*
X47270917Y954053D01*
X47286858Y938350D01*
X47376745Y879261D01*
X47464581Y817185D01*
X47485021Y808085D01*
X47503722Y795791D01*
X47603412Y755373D01*
X47701669Y711626D01*
X47723494Y706688D01*
X47744231Y698280D01*
X47849879Y678090D01*
X47929824Y660000D01*
X660000Y660000D01*
X660000Y23299999D01*
X1276337Y23299999D01*
X1283000Y23232349D01*
X1282999Y13883639D01*
X1276337Y13815999D01*
X1302924Y13546060D01*
X1338193Y13429793D01*
X1381662Y13286495D01*
X1509526Y13047279D01*
X1681602Y12837603D01*
X1734145Y12794482D01*
X5322241Y9206386D01*
X5044134Y9151067D01*
X4447758Y8904040D01*
X3911034Y8545412D01*
X3454588Y8088966D01*
X3095960Y7552242D01*
X2848933Y6955866D01*
X2723000Y6322756D01*
X2723000Y5677244D01*
X2848933Y5044134D01*
X3095960Y4447758D01*
X3454588Y3911034D01*
X3911034Y3454588D01*
X4447758Y3095960D01*
X5044134Y2848933D01*
X5677244Y2723000D01*
X6322756Y2723000D01*
X6955866Y2848933D01*
X7552242Y3095960D01*
X8088966Y3454588D01*
X8545412Y3911034D01*
X8904040Y4447758D01*
X9151067Y5044134D01*
X9277000Y5677244D01*
X9277000Y6322756D01*
X9268995Y6363000D01*
X11713796Y6363000D01*
X11768400Y6260843D01*
X11839215Y6174555D01*
X11724653Y5960226D01*
X11611606Y5587560D01*
X11573435Y5200000D01*
X11611606Y4812440D01*
X11724653Y4439774D01*
X11908232Y4096324D01*
X12155286Y3795286D01*
X12456324Y3548232D01*
X12799774Y3364653D01*
X13172440Y3251606D01*
X13462884Y3223000D01*
X13657116Y3223000D01*
X13947560Y3251606D01*
X14320226Y3364653D01*
X14663676Y3548232D01*
X14830000Y3684730D01*
X14996324Y3548232D01*
X15339774Y3364653D01*
X15712440Y3251606D01*
X16002884Y3223000D01*
X16197116Y3223000D01*
X16487560Y3251606D01*
X16860226Y3364653D01*
X17203676Y3548232D01*
X17370000Y3684730D01*
X17536324Y3548232D01*
X17879774Y3364653D01*
X18252440Y3251606D01*
X18542884Y3223000D01*
X18737116Y3223000D01*
X19027560Y3251606D01*
X19400226Y3364653D01*
X19743676Y3548232D01*
X20044714Y3795286D01*
X20291768Y4096324D01*
X20475347Y4439774D01*
X20588394Y4812440D01*
X20626565Y5200000D01*
X20588394Y5587560D01*
X20475347Y5960226D01*
X20291768Y6303676D01*
X20155270Y6470000D01*
X20291768Y6636324D01*
X20475347Y6979774D01*
X20588394Y7352440D01*
X20626565Y7740000D01*
X20588394Y8127560D01*
X20475347Y8500226D01*
X20291768Y8843676D01*
X20044714Y9144714D01*
X19743676Y9391768D01*
X19400226Y9575347D01*
X19027560Y9688394D01*
X18737116Y9717000D01*
X18610372Y9717000D01*
X17430074Y10897298D01*
X29656903Y10897298D01*
X29728486Y10653329D01*
X29983996Y10532429D01*
X30258184Y10463700D01*
X30540512Y10449783D01*
X30820130Y10491213D01*
X31086292Y10586397D01*
X31211514Y10653329D01*
X31283097Y10897298D01*
X30470000Y11710395D01*
X29656903Y10897298D01*
X17430074Y10897298D01*
X15330315Y12997056D01*
X15364714Y13025286D01*
X15611768Y13326324D01*
X15667073Y13429793D01*
X20923000Y13429793D01*
X20923000Y13050207D01*
X20997053Y12677915D01*
X21142315Y12327223D01*
X21353201Y12011609D01*
X21621609Y11743201D01*
X21937223Y11532315D01*
X22287915Y11387053D01*
X22660207Y11313000D01*
X23039793Y11313000D01*
X23412085Y11387053D01*
X23762777Y11532315D01*
X24078391Y11743201D01*
X24154678Y11819488D01*
X29029783Y11819488D01*
X29071213Y11539870D01*
X29166397Y11273708D01*
X29233329Y11148486D01*
X29477298Y11076903D01*
X30290395Y11890000D01*
X30649605Y11890000D01*
X31462702Y11076903D01*
X31706671Y11148486D01*
X31827571Y11403996D01*
X31896300Y11678184D01*
X31906741Y11890000D01*
X34883677Y11890000D01*
X34920883Y11512242D01*
X35031071Y11149001D01*
X35210006Y10814237D01*
X35450813Y10520813D01*
X35744237Y10280006D01*
X36079001Y10101071D01*
X36442242Y9990883D01*
X36725342Y9963000D01*
X36914658Y9963000D01*
X37197758Y9990883D01*
X37560999Y10101071D01*
X37895763Y10280006D01*
X38189187Y10520813D01*
X38429994Y10814237D01*
X38608929Y11149001D01*
X38719117Y11512242D01*
X38756323Y11890000D01*
X38737630Y12079793D01*
X41243000Y12079793D01*
X41243000Y11700207D01*
X41317053Y11327915D01*
X41462315Y10977223D01*
X41673201Y10661609D01*
X41941609Y10393201D01*
X42257223Y10182315D01*
X42607915Y10037053D01*
X42980207Y9963000D01*
X43359793Y9963000D01*
X43732085Y10037053D01*
X44082777Y10182315D01*
X44398391Y10393201D01*
X44666799Y10661609D01*
X44877685Y10977223D01*
X45022947Y11327915D01*
X45097000Y11700207D01*
X45097000Y12079793D01*
X45022947Y12452085D01*
X44877685Y12802777D01*
X44666799Y13118391D01*
X44398391Y13386799D01*
X44082777Y13597685D01*
X43732085Y13742947D01*
X43359793Y13817000D01*
X42980207Y13817000D01*
X42607915Y13742947D01*
X42257223Y13597685D01*
X41941609Y13386799D01*
X41673201Y13118391D01*
X41462315Y12802777D01*
X41317053Y12452085D01*
X41243000Y12079793D01*
X38737630Y12079793D01*
X38719117Y12267758D01*
X38608929Y12630999D01*
X38429994Y12965763D01*
X38189187Y13259187D01*
X37895763Y13499994D01*
X37560999Y13678929D01*
X37197758Y13789117D01*
X36914658Y13817000D01*
X36725342Y13817000D01*
X36442242Y13789117D01*
X36079001Y13678929D01*
X35744237Y13499994D01*
X35450813Y13259187D01*
X35210006Y12965763D01*
X35031071Y12630999D01*
X34920883Y12267758D01*
X34883677Y11890000D01*
X31906741Y11890000D01*
X31910217Y11960512D01*
X31868787Y12240130D01*
X31773603Y12506292D01*
X31706671Y12631514D01*
X31462702Y12703097D01*
X30649605Y11890000D01*
X30290395Y11890000D01*
X29477298Y12703097D01*
X29233329Y12631514D01*
X29112429Y12376004D01*
X29043700Y12101816D01*
X29029783Y11819488D01*
X24154678Y11819488D01*
X24346799Y12011609D01*
X24557685Y12327223D01*
X24702947Y12677915D01*
X24743681Y12882702D01*
X29656903Y12882702D01*
X30470000Y12069605D01*
X31283097Y12882702D01*
X31211514Y13126671D01*
X30956004Y13247571D01*
X30681816Y13316300D01*
X30399488Y13330217D01*
X30119870Y13288787D01*
X29853708Y13193603D01*
X29728486Y13126671D01*
X29656903Y12882702D01*
X24743681Y12882702D01*
X24777000Y13050207D01*
X24777000Y13429793D01*
X24702947Y13802085D01*
X24557685Y14152777D01*
X24346799Y14468391D01*
X24078391Y14736799D01*
X23762777Y14947685D01*
X23412085Y15092947D01*
X23039793Y15167000D01*
X22660207Y15167000D01*
X22287915Y15092947D01*
X21937223Y14947685D01*
X21621609Y14736799D01*
X21353201Y14468391D01*
X21142315Y14152777D01*
X20997053Y13802085D01*
X20923000Y13429793D01*
X15667073Y13429793D01*
X15795347Y13669774D01*
X15908394Y14042440D01*
X15946565Y14430000D01*
X15908394Y14817560D01*
X15795347Y15190226D01*
X15611768Y15533676D01*
X15475270Y15700000D01*
X15611768Y15866324D01*
X15795347Y16209774D01*
X15908394Y16582440D01*
X15946565Y16970000D01*
X15908394Y17357560D01*
X15795347Y17730226D01*
X15680785Y17944555D01*
X15751600Y18030843D01*
X15856250Y18226629D01*
X15917879Y18429793D01*
X20923000Y18429793D01*
X20923000Y18050207D01*
X20997053Y17677915D01*
X21142315Y17327223D01*
X21353201Y17011609D01*
X21621609Y16743201D01*
X21937223Y16532315D01*
X22287915Y16387053D01*
X22660207Y16313000D01*
X23039793Y16313000D01*
X23412085Y16387053D01*
X23762777Y16532315D01*
X24078391Y16743201D01*
X24346799Y17011609D01*
X24557685Y17327223D01*
X24702947Y17677915D01*
X24777000Y18050207D01*
X24777000Y18429793D01*
X24702947Y18802085D01*
X24557685Y19152777D01*
X24346799Y19468391D01*
X24305190Y19510000D01*
X28533677Y19510000D01*
X28570883Y19132242D01*
X28681071Y18769001D01*
X28860006Y18434237D01*
X29100813Y18140813D01*
X29394237Y17900006D01*
X29729001Y17721071D01*
X30092242Y17610883D01*
X30375342Y17583000D01*
X30564658Y17583000D01*
X30847758Y17610883D01*
X31210999Y17721071D01*
X31545763Y17900006D01*
X31839187Y18140813D01*
X32079994Y18434237D01*
X32258929Y18769001D01*
X32369117Y19132242D01*
X32406323Y19510000D01*
X32369117Y19887758D01*
X32258929Y20250999D01*
X32079994Y20585763D01*
X31839187Y20879187D01*
X31545763Y21119994D01*
X31210999Y21298929D01*
X30847758Y21409117D01*
X30564658Y21437000D01*
X30375342Y21437000D01*
X30092242Y21409117D01*
X29729001Y21298929D01*
X29394237Y21119994D01*
X29100813Y20879187D01*
X28860006Y20585763D01*
X28681071Y20250999D01*
X28570883Y19887758D01*
X28533677Y19510000D01*
X24305190Y19510000D01*
X24078391Y19736799D01*
X23762777Y19947685D01*
X23412085Y20092947D01*
X23039793Y20167000D01*
X22660207Y20167000D01*
X22287915Y20092947D01*
X21937223Y19947685D01*
X21621609Y19736799D01*
X21353201Y19468391D01*
X21142315Y19152777D01*
X20997053Y18802085D01*
X20923000Y18429793D01*
X15917879Y18429793D01*
X15920693Y18439069D01*
X15942453Y18660000D01*
X15942453Y20360000D01*
X15920693Y20580931D01*
X15856250Y20793371D01*
X15751600Y20989157D01*
X15610765Y21160765D01*
X15439157Y21301600D01*
X15243371Y21406250D01*
X15030931Y21470693D01*
X14810000Y21492453D01*
X13110000Y21492453D01*
X12889069Y21470693D01*
X12676629Y21406250D01*
X12480843Y21301600D01*
X12309235Y21160765D01*
X12168400Y20989157D01*
X12063750Y20793371D01*
X11999307Y20580931D01*
X11977547Y20360000D01*
X11977547Y18660000D01*
X11999307Y18439069D01*
X12063750Y18226629D01*
X12168400Y18030843D01*
X12239215Y17944555D01*
X12124653Y17730226D01*
X12011606Y17357560D01*
X11973435Y16970000D01*
X12011606Y16582440D01*
X12124653Y16209774D01*
X12132755Y16194616D01*
X11721522Y16605849D01*
X11678398Y16658396D01*
X11468722Y16830472D01*
X11229506Y16958336D01*
X10969940Y17037074D01*
X10767641Y17056999D01*
X10700001Y17063661D01*
X10632361Y17056999D01*
X7985000Y17056999D01*
X7985000Y17107002D01*
X7820156Y17107002D01*
X7941476Y17336890D01*
X7896825Y17484099D01*
X7771641Y17746920D01*
X7597588Y17980269D01*
X7381355Y18175178D01*
X7255745Y18250000D01*
X7381355Y18324822D01*
X7597588Y18519731D01*
X7771641Y18753080D01*
X7896825Y19015901D01*
X7941476Y19163110D01*
X7820155Y19393000D01*
X6627000Y19393000D01*
X6627000Y17107000D01*
X6647000Y17107000D01*
X6647000Y17056999D01*
X6353000Y17056999D01*
X6353000Y17107000D01*
X6373000Y17107000D01*
X6373000Y19393000D01*
X4087000Y19393000D01*
X4087000Y19373000D01*
X4036999Y19373000D01*
X4036999Y19667000D01*
X4087000Y19667000D01*
X4087000Y19647000D01*
X6373000Y19647000D01*
X6373000Y19667000D01*
X6627000Y19667000D01*
X6627000Y19647000D01*
X7820155Y19647000D01*
X7941476Y19876890D01*
X7896825Y20024099D01*
X7771641Y20286920D01*
X7651736Y20447674D01*
X7904714Y20655286D01*
X8151768Y20956324D01*
X8335347Y21299774D01*
X8448394Y21672440D01*
X8486565Y22060000D01*
X8469822Y22230000D01*
X16632709Y22230000D01*
X16673776Y21813035D01*
X16795401Y21412094D01*
X16992907Y21042585D01*
X17258707Y20718707D01*
X17582585Y20452907D01*
X17952094Y20255401D01*
X18353035Y20133776D01*
X18665513Y20103000D01*
X18874487Y20103000D01*
X19186965Y20133776D01*
X19587906Y20255401D01*
X19957415Y20452907D01*
X20281293Y20718707D01*
X20547093Y21042585D01*
X20744599Y21412094D01*
X20866224Y21813035D01*
X20907291Y22230000D01*
X20866224Y22646965D01*
X20744599Y23047906D01*
X20547093Y23417415D01*
X20281293Y23741293D01*
X20042421Y23937331D01*
X22868000Y23937331D01*
X22868000Y23562669D01*
X22941093Y23195207D01*
X23084469Y22849065D01*
X23292620Y22537546D01*
X23557546Y22272620D01*
X23869065Y22064469D01*
X24215207Y21921093D01*
X24582669Y21848000D01*
X24957331Y21848000D01*
X25324793Y21921093D01*
X25670935Y22064469D01*
X25982454Y22272620D01*
X26247380Y22537546D01*
X26455531Y22849065D01*
X26598907Y23195207D01*
X26672000Y23562669D01*
X26672000Y23937331D01*
X26598907Y24304793D01*
X26507695Y24525000D01*
X27862547Y24525000D01*
X27862547Y22975000D01*
X27884307Y22754069D01*
X27948750Y22541629D01*
X28053400Y22345843D01*
X28194235Y22174235D01*
X28365843Y22033400D01*
X28561629Y21928750D01*
X28774069Y21864307D01*
X28995000Y21842547D01*
X30545000Y21842547D01*
X30765931Y21864307D01*
X30978371Y21928750D01*
X31174157Y22033400D01*
X31345765Y22174235D01*
X31486600Y22345843D01*
X31591250Y22541629D01*
X31655693Y22754069D01*
X31677453Y22975000D01*
X31677453Y24525000D01*
X31655693Y24745931D01*
X31591250Y24958371D01*
X31486600Y25154157D01*
X31345765Y25325765D01*
X31174157Y25466600D01*
X30978371Y25571250D01*
X30765931Y25635693D01*
X30545000Y25657453D01*
X28995000Y25657453D01*
X28774069Y25635693D01*
X28561629Y25571250D01*
X28365843Y25466600D01*
X28194235Y25325765D01*
X28053400Y25154157D01*
X27948750Y24958371D01*
X27884307Y24745931D01*
X27862547Y24525000D01*
X26507695Y24525000D01*
X26455531Y24650935D01*
X26247380Y24962454D01*
X25982454Y25227380D01*
X25670935Y25435531D01*
X25324793Y25578907D01*
X24957331Y25652000D01*
X24582669Y25652000D01*
X24215207Y25578907D01*
X23869065Y25435531D01*
X23557546Y25227380D01*
X23292620Y24962454D01*
X23084469Y24650935D01*
X22941093Y24304793D01*
X22868000Y23937331D01*
X20042421Y23937331D01*
X19957415Y24007093D01*
X19587906Y24204599D01*
X19186965Y24326224D01*
X18874487Y24357000D01*
X18665513Y24357000D01*
X18353035Y24326224D01*
X17952094Y24204599D01*
X17582585Y24007093D01*
X17258707Y23741293D01*
X16992907Y23417415D01*
X16795401Y23047906D01*
X16673776Y22646965D01*
X16632709Y22230000D01*
X8469822Y22230000D01*
X8448394Y22447560D01*
X8335347Y22820226D01*
X8151768Y23163676D01*
X8015270Y23330000D01*
X8151768Y23496324D01*
X8335347Y23839774D01*
X8448394Y24212440D01*
X8486565Y24600000D01*
X8448394Y24987560D01*
X8335347Y25360226D01*
X8151768Y25703676D01*
X7904714Y26004714D01*
X7651736Y26212326D01*
X7771641Y26373080D01*
X7896825Y26635901D01*
X7941476Y26783110D01*
X7820155Y27013000D01*
X6627000Y27013000D01*
X6627000Y26993000D01*
X6373000Y26993000D01*
X6373000Y27013000D01*
X4087000Y27013000D01*
X4087000Y26993000D01*
X3833000Y26993000D01*
X3833000Y27013000D01*
X2639845Y27013000D01*
X2518524Y26783110D01*
X2563175Y26635901D01*
X2688359Y26373080D01*
X2808264Y26212326D01*
X2555286Y26004714D01*
X2308232Y25703676D01*
X2124653Y25360226D01*
X2011606Y24987560D01*
X1973435Y24600000D01*
X1976949Y24564320D01*
X1734145Y24321516D01*
X1681603Y24278396D01*
X1621040Y24204599D01*
X1509527Y24068720D01*
X1381662Y23829503D01*
X1302924Y23569938D01*
X1276337Y23299999D01*
X660000Y23299999D01*
X660000Y50000000D01*
X1973435Y50000000D01*
X2011606Y49612440D01*
X2124653Y49239774D01*
X2308232Y48896324D01*
X2444730Y48730000D01*
X2308232Y48563676D01*
X2124653Y48220226D01*
X2011606Y47847560D01*
X1973435Y47460000D01*
X2011606Y47072440D01*
X2124653Y46699774D01*
X2308232Y46356324D01*
X2444730Y46190000D01*
X2308232Y46023676D01*
X2124653Y45680226D01*
X2011606Y45307560D01*
X1973435Y44920000D01*
X2011606Y44532440D01*
X2124653Y44159774D01*
X2308232Y43816324D01*
X2444730Y43650000D01*
X2308232Y43483676D01*
X2124653Y43140226D01*
X2011606Y42767560D01*
X1973435Y42380000D01*
X2011606Y41992440D01*
X2124653Y41619774D01*
X2308232Y41276324D01*
X2444730Y41110000D01*
X2308232Y40943676D01*
X2124653Y40600226D01*
X2011606Y40227560D01*
X1973435Y39840000D01*
X2011606Y39452440D01*
X2124653Y39079774D01*
X2308232Y38736324D01*
X2444730Y38570000D01*
X2308232Y38403676D01*
X2124653Y38060226D01*
X2011606Y37687560D01*
X1973435Y37300000D01*
X2011606Y36912440D01*
X2124653Y36539774D01*
X2308232Y36196324D01*
X2444730Y36030000D01*
X2308232Y35863676D01*
X2124653Y35520226D01*
X2011606Y35147560D01*
X1973435Y34760000D01*
X2011606Y34372440D01*
X2124653Y33999774D01*
X2308232Y33656324D01*
X2444730Y33490000D01*
X2308232Y33323676D01*
X2124653Y32980226D01*
X2011606Y32607560D01*
X1973435Y32220000D01*
X2011606Y31832440D01*
X2124653Y31459774D01*
X2308232Y31116324D01*
X2444730Y30950000D01*
X2308232Y30783676D01*
X2124653Y30440226D01*
X2011606Y30067560D01*
X1973435Y29680000D01*
X2011606Y29292440D01*
X2124653Y28919774D01*
X2308232Y28576324D01*
X2555286Y28275286D01*
X2808264Y28067674D01*
X2688359Y27906920D01*
X2563175Y27644099D01*
X2518524Y27496890D01*
X2639845Y27267000D01*
X3833000Y27267000D01*
X3833000Y27287000D01*
X4087000Y27287000D01*
X4087000Y27267000D01*
X6373000Y27267000D01*
X6373000Y27287000D01*
X6627000Y27287000D01*
X6627000Y27267000D01*
X7820155Y27267000D01*
X7941476Y27496890D01*
X7896825Y27644099D01*
X7894222Y27649566D01*
X17179876Y27649566D01*
X17236498Y27462893D01*
X17376601Y27174618D01*
X17570252Y26919215D01*
X17810008Y26706499D01*
X18086656Y26544644D01*
X18389565Y26439871D01*
X18643000Y26558685D01*
X18643000Y27903000D01*
X18897000Y27903000D01*
X18897000Y26558685D01*
X19150435Y26439871D01*
X19453344Y26544644D01*
X19729992Y26706499D01*
X19969748Y26919215D01*
X20163399Y27174618D01*
X20303502Y27462893D01*
X20360124Y27649566D01*
X20240777Y27903000D01*
X18897000Y27903000D01*
X18643000Y27903000D01*
X17299223Y27903000D01*
X17179876Y27649566D01*
X7894222Y27649566D01*
X7771641Y27906920D01*
X7651736Y28067674D01*
X7904714Y28275286D01*
X8015626Y28410434D01*
X17179876Y28410434D01*
X17299223Y28157000D01*
X18643000Y28157000D01*
X18643000Y29501315D01*
X18897000Y29501315D01*
X18897000Y28157000D01*
X20240777Y28157000D01*
X20360124Y28410434D01*
X20303502Y28597107D01*
X20163399Y28885382D01*
X20124011Y28937331D01*
X25368000Y28937331D01*
X25368000Y28562669D01*
X25441093Y28195207D01*
X25584469Y27849065D01*
X25792620Y27537546D01*
X26057546Y27272620D01*
X26369065Y27064469D01*
X26715207Y26921093D01*
X27082669Y26848000D01*
X27457331Y26848000D01*
X27824793Y26921093D01*
X28170935Y27064469D01*
X28482454Y27272620D01*
X28747380Y27537546D01*
X28955531Y27849065D01*
X29098907Y28195207D01*
X29172000Y28562669D01*
X29172000Y28607983D01*
X32643000Y28607983D01*
X32643000Y27992017D01*
X32763169Y27387888D01*
X32998889Y26818810D01*
X33341101Y26306654D01*
X33776654Y25871101D01*
X33883064Y25800000D01*
X33776654Y25728899D01*
X33341101Y25293346D01*
X32998889Y24781190D01*
X32763169Y24212112D01*
X32643000Y23607983D01*
X32643000Y22992017D01*
X32763169Y22387888D01*
X32998889Y21818810D01*
X33341101Y21306654D01*
X33776654Y20871101D01*
X34288810Y20528889D01*
X34857888Y20293169D01*
X35043349Y20256278D01*
X34967053Y20072085D01*
X34893000Y19699793D01*
X34893000Y19320207D01*
X34967053Y18947915D01*
X35112315Y18597223D01*
X35323201Y18281609D01*
X35591609Y18013201D01*
X35907223Y17802315D01*
X36257915Y17657053D01*
X36630207Y17583000D01*
X37009793Y17583000D01*
X37382085Y17657053D01*
X37732777Y17802315D01*
X38048391Y18013201D01*
X38316799Y18281609D01*
X38527685Y18597223D01*
X38672947Y18947915D01*
X38747000Y19320207D01*
X38747000Y19510000D01*
X41233677Y19510000D01*
X41270883Y19132242D01*
X41381071Y18769001D01*
X41560006Y18434237D01*
X41800813Y18140813D01*
X42094237Y17900006D01*
X42429001Y17721071D01*
X42792242Y17610883D01*
X43075342Y17583000D01*
X43264658Y17583000D01*
X43547758Y17610883D01*
X43910999Y17721071D01*
X44245763Y17900006D01*
X44539187Y18140813D01*
X44779994Y18434237D01*
X44958929Y18769001D01*
X45069117Y19132242D01*
X45106323Y19510000D01*
X45069117Y19887758D01*
X44958929Y20250999D01*
X44779994Y20585763D01*
X44539187Y20879187D01*
X44245763Y21119994D01*
X43910999Y21298929D01*
X43547758Y21409117D01*
X43264658Y21437000D01*
X43075342Y21437000D01*
X42792242Y21409117D01*
X42429001Y21298929D01*
X42094237Y21119994D01*
X41800813Y20879187D01*
X41560006Y20585763D01*
X41381071Y20250999D01*
X41270883Y19887758D01*
X41233677Y19510000D01*
X38747000Y19510000D01*
X38747000Y19699793D01*
X38672947Y20072085D01*
X38527685Y20422777D01*
X38316799Y20738391D01*
X38048391Y21006799D01*
X37958864Y21066619D01*
X38198899Y21306654D01*
X38328088Y21500000D01*
X53477919Y21500000D01*
X53538101Y20888961D01*
X53716334Y20301404D01*
X54005770Y19759909D01*
X54395284Y19285284D01*
X54869909Y18895770D01*
X55411404Y18606334D01*
X55422419Y18602993D01*
X55399069Y18600693D01*
X55186629Y18536250D01*
X54990843Y18431600D01*
X54819235Y18290765D01*
X54678400Y18119157D01*
X54573750Y17923371D01*
X54509307Y17710931D01*
X54487547Y17490000D01*
X54487547Y15510000D01*
X54509307Y15289069D01*
X54573750Y15076629D01*
X54678400Y14880843D01*
X54819235Y14709235D01*
X54990843Y14568400D01*
X55186629Y14463750D01*
X55399069Y14399307D01*
X55620000Y14377547D01*
X59580000Y14377547D01*
X59800931Y14399307D01*
X60013371Y14463750D01*
X60209157Y14568400D01*
X60380765Y14709235D01*
X60521600Y14880843D01*
X60626250Y15076629D01*
X60690693Y15289069D01*
X60712453Y15510000D01*
X60712453Y17490000D01*
X60690693Y17710931D01*
X60626250Y17923371D01*
X60521600Y18119157D01*
X60380765Y18290765D01*
X60209157Y18431600D01*
X60013371Y18536250D01*
X59800931Y18600693D01*
X59777581Y18602993D01*
X59788596Y18606334D01*
X60330091Y18895770D01*
X60804716Y19285284D01*
X61194230Y19759909D01*
X61483666Y20301404D01*
X61661899Y20888961D01*
X61722081Y21500000D01*
X61661899Y22111039D01*
X61483666Y22698596D01*
X61194230Y23240091D01*
X60804716Y23714716D01*
X60330091Y24104230D01*
X59788596Y24393666D01*
X59201039Y24571899D01*
X58743120Y24617000D01*
X56456880Y24617000D01*
X55998961Y24571899D01*
X55411404Y24393666D01*
X54869909Y24104230D01*
X54395284Y23714716D01*
X54005770Y23240091D01*
X53716334Y22698596D01*
X53538101Y22111039D01*
X53477919Y21500000D01*
X38328088Y21500000D01*
X38541111Y21818810D01*
X38776831Y22387888D01*
X38897000Y22992017D01*
X38897000Y23607983D01*
X38870782Y23739793D01*
X39843000Y23739793D01*
X39843000Y23360207D01*
X39917053Y22987915D01*
X40062315Y22637223D01*
X40273201Y22321609D01*
X40541609Y22053201D01*
X40857223Y21842315D01*
X41207915Y21697053D01*
X41580207Y21623000D01*
X41959793Y21623000D01*
X42332085Y21697053D01*
X42682777Y21842315D01*
X42998391Y22053201D01*
X43266799Y22321609D01*
X43477685Y22637223D01*
X43622947Y22987915D01*
X43697000Y23360207D01*
X43697000Y23739793D01*
X43622947Y24112085D01*
X43477685Y24462777D01*
X43266799Y24778391D01*
X42998391Y25046799D01*
X42682777Y25257685D01*
X42332085Y25402947D01*
X41959793Y25477000D01*
X41580207Y25477000D01*
X41207915Y25402947D01*
X40857223Y25257685D01*
X40541609Y25046799D01*
X40273201Y24778391D01*
X40062315Y24462777D01*
X39917053Y24112085D01*
X39843000Y23739793D01*
X38870782Y23739793D01*
X38776831Y24212112D01*
X38541111Y24781190D01*
X38198899Y25293346D01*
X37763346Y25728899D01*
X37656936Y25800000D01*
X37763346Y25871101D01*
X38198899Y26306654D01*
X38541111Y26818810D01*
X38776831Y27387888D01*
X38810528Y27557298D01*
X43256903Y27557298D01*
X43328486Y27313329D01*
X43583996Y27192429D01*
X43858184Y27123700D01*
X44140512Y27109783D01*
X44420130Y27151213D01*
X44686292Y27246397D01*
X44811514Y27313329D01*
X44883097Y27557298D01*
X44070000Y28370395D01*
X43256903Y27557298D01*
X38810528Y27557298D01*
X38897000Y27992017D01*
X38897000Y28479488D01*
X42629783Y28479488D01*
X42671213Y28199870D01*
X42766397Y27933708D01*
X42833329Y27808486D01*
X43077298Y27736903D01*
X43890395Y28550000D01*
X44249605Y28550000D01*
X45062702Y27736903D01*
X45306671Y27808486D01*
X45427571Y28063996D01*
X45496300Y28338184D01*
X45510217Y28620512D01*
X45468787Y28900130D01*
X45373603Y29166292D01*
X45306671Y29291514D01*
X45062702Y29363097D01*
X44249605Y28550000D01*
X43890395Y28550000D01*
X43077298Y29363097D01*
X42833329Y29291514D01*
X42712429Y29036004D01*
X42643700Y28761816D01*
X42629783Y28479488D01*
X38897000Y28479488D01*
X38897000Y28607983D01*
X38776831Y29212112D01*
X38639897Y29542702D01*
X43256903Y29542702D01*
X44070000Y28729605D01*
X44883097Y29542702D01*
X44818753Y29762000D01*
X46795126Y29762000D01*
X46795194Y29761307D01*
X46795127Y29760616D01*
X46807839Y29632923D01*
X46820564Y29503725D01*
X46820768Y29503053D01*
X46820836Y29502368D01*
X46858142Y29379848D01*
X46895900Y29255375D01*
X46896230Y29254758D01*
X46896431Y29254097D01*
X46957081Y29140914D01*
X47018239Y29026495D01*
X47018682Y29025955D01*
X47019009Y29025345D01*
X47100592Y28926148D01*
X47182880Y28825880D01*
X47183420Y28825436D01*
X47183860Y28824902D01*
X47211171Y28802536D01*
X47178958Y28756956D01*
X47110788Y28665127D01*
X47104143Y28651095D01*
X47095185Y28638419D01*
X47048671Y28533948D01*
X46999719Y28430570D01*
X46995940Y28415512D01*
X46989626Y28401331D01*
X46964381Y28289767D01*
X46936545Y28178853D01*
X46932561Y28098515D01*
X46816941Y27173552D01*
X46800564Y27087857D01*
X46801372Y26980317D01*
X46798556Y26872771D01*
X46802346Y26850715D01*
X46802514Y26828341D01*
X46824288Y26723018D01*
X46842506Y26616995D01*
X46850526Y26596102D01*
X46855056Y26574191D01*
X46896963Y26475130D01*
X46935512Y26374708D01*
X46947452Y26355785D01*
X46956171Y26335174D01*
X47016610Y26246176D01*
X47073998Y26155221D01*
X47089398Y26138993D01*
X47101972Y26120477D01*
X47178611Y26044982D01*
X47252643Y25966968D01*
X47270917Y25954053D01*
X47286858Y25938350D01*
X47376745Y25879261D01*
X47464581Y25817185D01*
X47485021Y25808085D01*
X47503722Y25795791D01*
X47603412Y25755373D01*
X47701669Y25711626D01*
X47723494Y25706688D01*
X47744231Y25698280D01*
X47849879Y25678090D01*
X47954794Y25654350D01*
X47977165Y25653764D01*
X47999143Y25649564D01*
X48106693Y25650372D01*
X48214229Y25647556D01*
X48236285Y25651346D01*
X48258659Y25651514D01*
X48363982Y25673288D01*
X48470005Y25691506D01*
X48490898Y25699526D01*
X48512809Y25704056D01*
X48611870Y25745963D01*
X48712292Y25784512D01*
X48731215Y25796452D01*
X48751826Y25805171D01*
X48840817Y25865605D01*
X48931779Y25922998D01*
X48995071Y25983060D01*
X49160761Y26121135D01*
X55029782Y26121135D01*
X55060095Y25995472D01*
X55188304Y25702795D01*
X55371148Y25440754D01*
X55601601Y25219419D01*
X55870806Y25047296D01*
X56168418Y24931000D01*
X56483000Y24875000D01*
X57473000Y24875000D01*
X57473000Y26373000D01*
X57727000Y26373000D01*
X57727000Y24875000D01*
X58717000Y24875000D01*
X59031582Y24931000D01*
X59329194Y25047296D01*
X59598399Y25219419D01*
X59828852Y25440754D01*
X60011696Y25702795D01*
X60139905Y25995472D01*
X60170218Y26121135D01*
X60050740Y26373000D01*
X57727000Y26373000D01*
X57473000Y26373000D01*
X55149260Y26373000D01*
X55029782Y26121135D01*
X49160761Y26121135D01*
X49657085Y26534737D01*
X49692686Y26557148D01*
X49756540Y26617617D01*
X49774159Y26632299D01*
X49803534Y26662119D01*
X49881125Y26735596D01*
X49894458Y26754419D01*
X49910651Y26770858D01*
X49969369Y26860182D01*
X49982602Y26878865D01*
X55029782Y26878865D01*
X55149260Y26627000D01*
X57473000Y26627000D01*
X57473000Y28125000D01*
X57727000Y28125000D01*
X57727000Y26627000D01*
X60050740Y26627000D01*
X60170218Y26878865D01*
X60139905Y27004528D01*
X60011696Y27297205D01*
X59828852Y27559246D01*
X59598399Y27780581D01*
X59329194Y27952704D01*
X59031582Y28069000D01*
X58717000Y28125000D01*
X57727000Y28125000D01*
X57473000Y28125000D01*
X56483000Y28125000D01*
X56168418Y28069000D01*
X55870806Y27952704D01*
X55601601Y27780581D01*
X55371148Y27559246D01*
X55188304Y27297205D01*
X55060095Y27004528D01*
X55029782Y26878865D01*
X49982602Y26878865D01*
X50031130Y26947378D01*
X50040534Y26968440D01*
X50053209Y26987722D01*
X50093374Y27086788D01*
X50136936Y27184355D01*
X50142050Y27206845D01*
X50150720Y27228230D01*
X50170782Y27333205D01*
X50194478Y27437419D01*
X50195106Y27460486D01*
X50199436Y27483142D01*
X50198633Y27590007D01*
X50201543Y27696847D01*
X50197660Y27719585D01*
X50197487Y27742659D01*
X50194463Y27757286D01*
X51219859Y29368623D01*
X51251761Y29407495D01*
X51289361Y29477840D01*
X51297268Y29490265D01*
X51319854Y29534887D01*
X51374100Y29636375D01*
X51378405Y29650567D01*
X51385102Y29663798D01*
X51416038Y29774627D01*
X51449436Y29884725D01*
X51450889Y29899481D01*
X51454877Y29913767D01*
X51463597Y30028499D01*
X51474874Y30143000D01*
X51473420Y30157759D01*
X51474544Y30172545D01*
X51460716Y30286751D01*
X51449436Y30401275D01*
X51445130Y30415470D01*
X51443348Y30430188D01*
X51407510Y30539487D01*
X51374100Y30649625D01*
X51367107Y30662708D01*
X51362488Y30676795D01*
X51306016Y30777002D01*
X51260657Y30861862D01*
X51578445Y31225049D01*
X51594140Y31237902D01*
X51663737Y31322526D01*
X51693135Y31356123D01*
X51704876Y31372546D01*
X51758991Y31438345D01*
X51780169Y31477867D01*
X51806247Y31514345D01*
X51841324Y31591992D01*
X51881569Y31667096D01*
X51894630Y31709992D01*
X51913091Y31750857D01*
X51932348Y31833866D01*
X51957164Y31915367D01*
X51961605Y31959981D01*
X51971740Y32003667D01*
X51974432Y32088830D01*
X51982873Y32173615D01*
X51978524Y32218248D01*
X51979941Y32263062D01*
X51965968Y32347111D01*
X51957705Y32431916D01*
X51944734Y32474837D01*
X51937380Y32519073D01*
X51907275Y32598788D01*
X51882629Y32680344D01*
X51861534Y32719909D01*
X51845691Y32761861D01*
X51800615Y32834168D01*
X51760529Y32909353D01*
X51732118Y32944046D01*
X51708397Y32982097D01*
X51650082Y33044221D01*
X51596098Y33110140D01*
X51561468Y33138621D01*
X51530777Y33171316D01*
X51461463Y33220868D01*
X51395655Y33274991D01*
X51356129Y33296171D01*
X51319654Y33322247D01*
X51242009Y33357323D01*
X51166903Y33397569D01*
X51124007Y33410630D01*
X51083142Y33429091D01*
X51000133Y33448348D01*
X50918632Y33473164D01*
X50874018Y33477605D01*
X50830332Y33487740D01*
X50745169Y33490432D01*
X50660384Y33498873D01*
X50615751Y33494524D01*
X50570937Y33495941D01*
X50486888Y33481968D01*
X50402083Y33473705D01*
X50359162Y33460734D01*
X50314926Y33453380D01*
X50235211Y33423275D01*
X50221261Y33419060D01*
X50216570Y33421281D01*
X49964853Y33484455D01*
X49705647Y33497308D01*
X49448914Y33459346D01*
X49204520Y33372027D01*
X48981857Y33238706D01*
X48789482Y33064508D01*
X48765411Y33032083D01*
X48705901Y32983140D01*
X48582671Y32832664D01*
X47059058Y30547242D01*
X47018239Y30497505D01*
X46987256Y30439540D01*
X46986876Y30438970D01*
X46957031Y30382993D01*
X46895900Y30268625D01*
X46895697Y30267955D01*
X46895371Y30267344D01*
X46858208Y30144371D01*
X46820564Y30020275D01*
X46820495Y30019579D01*
X46820295Y30018916D01*
X46807811Y29890791D01*
X46795126Y29762000D01*
X44818753Y29762000D01*
X44811514Y29786671D01*
X44556004Y29907571D01*
X44281816Y29976300D01*
X43999488Y29990217D01*
X43719870Y29948787D01*
X43453708Y29853603D01*
X43328486Y29786671D01*
X43256903Y29542702D01*
X38639897Y29542702D01*
X38541111Y29781190D01*
X38198899Y30293346D01*
X37763346Y30728899D01*
X37251190Y31071111D01*
X36682112Y31306831D01*
X36077983Y31427000D01*
X35462017Y31427000D01*
X34857888Y31306831D01*
X34288810Y31071111D01*
X33776654Y30728899D01*
X33341101Y30293346D01*
X32998889Y29781190D01*
X32763169Y29212112D01*
X32643000Y28607983D01*
X29172000Y28607983D01*
X29172000Y28937331D01*
X29098907Y29304793D01*
X28955531Y29650935D01*
X28747380Y29962454D01*
X28482454Y30227380D01*
X28170935Y30435531D01*
X27824793Y30578907D01*
X27457331Y30652000D01*
X27082669Y30652000D01*
X26715207Y30578907D01*
X26369065Y30435531D01*
X26057546Y30227380D01*
X25792620Y29962454D01*
X25584469Y29650935D01*
X25441093Y29304793D01*
X25368000Y28937331D01*
X20124011Y28937331D01*
X19969748Y29140785D01*
X19729992Y29353501D01*
X19453344Y29515356D01*
X19150435Y29620129D01*
X18897000Y29501315D01*
X18643000Y29501315D01*
X18389565Y29620129D01*
X18086656Y29515356D01*
X17810008Y29353501D01*
X17570252Y29140785D01*
X17376601Y28885382D01*
X17236498Y28597107D01*
X17179876Y28410434D01*
X8015626Y28410434D01*
X8151768Y28576324D01*
X8335347Y28919774D01*
X8448394Y29292440D01*
X8486565Y29680000D01*
X8448394Y30067560D01*
X8335347Y30440226D01*
X8151768Y30783676D01*
X8015270Y30950000D01*
X8151768Y31116324D01*
X8335347Y31459774D01*
X8448394Y31832440D01*
X8486565Y32220000D01*
X8448394Y32607560D01*
X8335347Y32980226D01*
X8160523Y33307298D01*
X29586903Y33307298D01*
X29658486Y33063329D01*
X29913996Y32942429D01*
X30188184Y32873700D01*
X30470512Y32859783D01*
X30750130Y32901213D01*
X31016292Y32996397D01*
X31141514Y33063329D01*
X31213097Y33307298D01*
X30400000Y34120395D01*
X29586903Y33307298D01*
X8160523Y33307298D01*
X8151768Y33323676D01*
X8015270Y33490000D01*
X8151768Y33656324D01*
X8335347Y33999774D01*
X8448394Y34372440D01*
X8486565Y34760000D01*
X8448394Y35147560D01*
X8335347Y35520226D01*
X8151768Y35863676D01*
X8015270Y36030000D01*
X8151768Y36196324D01*
X8335347Y36539774D01*
X8448394Y36912440D01*
X8486565Y37300000D01*
X8448394Y37687560D01*
X8335347Y38060226D01*
X8151768Y38403676D01*
X8015270Y38570000D01*
X8151768Y38736324D01*
X8335347Y39079774D01*
X8448394Y39452440D01*
X8458987Y39560000D01*
X11973435Y39560000D01*
X12011606Y39172440D01*
X12124653Y38799774D01*
X12308232Y38456324D01*
X12444730Y38290000D01*
X12308232Y38123676D01*
X12124653Y37780226D01*
X12011606Y37407560D01*
X11973435Y37020000D01*
X12011606Y36632440D01*
X12124653Y36259774D01*
X12308232Y35916324D01*
X12555286Y35615286D01*
X12856324Y35368232D01*
X13199774Y35184653D01*
X13572440Y35071606D01*
X13862884Y35043000D01*
X14057116Y35043000D01*
X14347560Y35071606D01*
X14720226Y35184653D01*
X15063676Y35368232D01*
X15364714Y35615286D01*
X15507927Y35789793D01*
X21173000Y35789793D01*
X21173000Y35410207D01*
X21247053Y35037915D01*
X21392315Y34687223D01*
X21603201Y34371609D01*
X21871609Y34103201D01*
X22187223Y33892315D01*
X22537915Y33747053D01*
X22910207Y33673000D01*
X23289793Y33673000D01*
X23662085Y33747053D01*
X24012777Y33892315D01*
X24328391Y34103201D01*
X24454678Y34229488D01*
X28959783Y34229488D01*
X29001213Y33949870D01*
X29096397Y33683708D01*
X29163329Y33558486D01*
X29407298Y33486903D01*
X30220395Y34300000D01*
X30579605Y34300000D01*
X31392702Y33486903D01*
X31636671Y33558486D01*
X31757571Y33813996D01*
X31826300Y34088184D01*
X31840217Y34370512D01*
X31838812Y34380000D01*
X34763677Y34380000D01*
X34800883Y34002242D01*
X34911071Y33639001D01*
X35090006Y33304237D01*
X35330813Y33010813D01*
X35624237Y32770006D01*
X35959001Y32591071D01*
X36322242Y32480883D01*
X36605342Y32453000D01*
X36794658Y32453000D01*
X37077758Y32480883D01*
X37440999Y32591071D01*
X37775763Y32770006D01*
X38069187Y33010813D01*
X38309994Y33304237D01*
X38488929Y33639001D01*
X38599117Y34002242D01*
X38636323Y34380000D01*
X38615661Y34589793D01*
X40973000Y34589793D01*
X40973000Y34210207D01*
X41047053Y33837915D01*
X41192315Y33487223D01*
X41403201Y33171609D01*
X41671609Y32903201D01*
X41987223Y32692315D01*
X42337915Y32547053D01*
X42710207Y32473000D01*
X43089793Y32473000D01*
X43462085Y32547053D01*
X43812777Y32692315D01*
X44128391Y32903201D01*
X44396799Y33171609D01*
X44607685Y33487223D01*
X44752947Y33837915D01*
X44827000Y34210207D01*
X44827000Y34589793D01*
X44752947Y34962085D01*
X44607685Y35312777D01*
X44396799Y35628391D01*
X44128391Y35896799D01*
X43812777Y36107685D01*
X43462085Y36252947D01*
X43089793Y36327000D01*
X42710207Y36327000D01*
X42337915Y36252947D01*
X41987223Y36107685D01*
X41671609Y35896799D01*
X41403201Y35628391D01*
X41192315Y35312777D01*
X41047053Y34962085D01*
X40973000Y34589793D01*
X38615661Y34589793D01*
X38599117Y34757758D01*
X38488929Y35120999D01*
X38309994Y35455763D01*
X38069187Y35749187D01*
X37775763Y35989994D01*
X37440999Y36168929D01*
X37077758Y36279117D01*
X36794658Y36307000D01*
X36605342Y36307000D01*
X36322242Y36279117D01*
X35959001Y36168929D01*
X35624237Y35989994D01*
X35330813Y35749187D01*
X35090006Y35455763D01*
X34911071Y35120999D01*
X34800883Y34757758D01*
X34763677Y34380000D01*
X31838812Y34380000D01*
X31798787Y34650130D01*
X31703603Y34916292D01*
X31636671Y35041514D01*
X31392702Y35113097D01*
X30579605Y34300000D01*
X30220395Y34300000D01*
X29407298Y35113097D01*
X29163329Y35041514D01*
X29042429Y34786004D01*
X28973700Y34511816D01*
X28959783Y34229488D01*
X24454678Y34229488D01*
X24596799Y34371609D01*
X24807685Y34687223D01*
X24952947Y35037915D01*
X25003626Y35292702D01*
X29586903Y35292702D01*
X30400000Y34479605D01*
X31213097Y35292702D01*
X31141514Y35536671D01*
X30886004Y35657571D01*
X30611816Y35726300D01*
X30329488Y35740217D01*
X30049870Y35698787D01*
X29783708Y35603603D01*
X29658486Y35536671D01*
X29586903Y35292702D01*
X25003626Y35292702D01*
X25027000Y35410207D01*
X25027000Y35789793D01*
X24952947Y36162085D01*
X24807685Y36512777D01*
X24596799Y36828391D01*
X24328391Y37096799D01*
X24012777Y37307685D01*
X23662085Y37452947D01*
X23289793Y37527000D01*
X22910207Y37527000D01*
X22537915Y37452947D01*
X22187223Y37307685D01*
X21871609Y37096799D01*
X21603201Y36828391D01*
X21392315Y36512777D01*
X21247053Y36162085D01*
X21173000Y35789793D01*
X15507927Y35789793D01*
X15611768Y35916324D01*
X15795347Y36259774D01*
X15908394Y36632440D01*
X15946565Y37020000D01*
X15908394Y37407560D01*
X15795347Y37780226D01*
X15611768Y38123676D01*
X15475270Y38290000D01*
X15611768Y38456324D01*
X15795347Y38799774D01*
X15908394Y39172440D01*
X15946565Y39560000D01*
X15908394Y39947560D01*
X15795347Y40320226D01*
X15680785Y40534555D01*
X15751600Y40620843D01*
X15841905Y40789793D01*
X21173000Y40789793D01*
X21173000Y40410207D01*
X21247053Y40037915D01*
X21392315Y39687223D01*
X21603201Y39371609D01*
X21871609Y39103201D01*
X22187223Y38892315D01*
X22537915Y38747053D01*
X22910207Y38673000D01*
X23289793Y38673000D01*
X23662085Y38747053D01*
X24012777Y38892315D01*
X24328391Y39103201D01*
X24596799Y39371609D01*
X24807685Y39687223D01*
X24952947Y40037915D01*
X25027000Y40410207D01*
X25027000Y40789793D01*
X24952947Y41162085D01*
X24807685Y41512777D01*
X24596799Y41828391D01*
X24505190Y41920000D01*
X28463677Y41920000D01*
X28500883Y41542242D01*
X28611071Y41179001D01*
X28790006Y40844237D01*
X29030813Y40550813D01*
X29324237Y40310006D01*
X29659001Y40131071D01*
X30022242Y40020883D01*
X30305342Y39993000D01*
X30494658Y39993000D01*
X30777758Y40020883D01*
X31140999Y40131071D01*
X31475763Y40310006D01*
X31769187Y40550813D01*
X32009994Y40844237D01*
X32188929Y41179001D01*
X32299117Y41542242D01*
X32336323Y41920000D01*
X32299117Y42297758D01*
X32188929Y42660999D01*
X32009994Y42995763D01*
X31769187Y43289187D01*
X31475763Y43529994D01*
X31140999Y43708929D01*
X30777758Y43819117D01*
X30494658Y43847000D01*
X30305342Y43847000D01*
X30022242Y43819117D01*
X29659001Y43708929D01*
X29324237Y43529994D01*
X29030813Y43289187D01*
X28790006Y42995763D01*
X28611071Y42660999D01*
X28500883Y42297758D01*
X28463677Y41920000D01*
X24505190Y41920000D01*
X24328391Y42096799D01*
X24012777Y42307685D01*
X23662085Y42452947D01*
X23289793Y42527000D01*
X22910207Y42527000D01*
X22537915Y42452947D01*
X22187223Y42307685D01*
X21871609Y42096799D01*
X21603201Y41828391D01*
X21392315Y41512777D01*
X21247053Y41162085D01*
X21173000Y40789793D01*
X15841905Y40789793D01*
X15856250Y40816629D01*
X15920693Y41029069D01*
X15942453Y41250000D01*
X15942453Y42950000D01*
X15920693Y43170931D01*
X15856250Y43383371D01*
X15751600Y43579157D01*
X15610765Y43750765D01*
X15439157Y43891600D01*
X15243371Y43996250D01*
X15030931Y44060693D01*
X14810000Y44082453D01*
X13110000Y44082453D01*
X12889069Y44060693D01*
X12676629Y43996250D01*
X12480843Y43891600D01*
X12309235Y43750765D01*
X12168400Y43579157D01*
X12063750Y43383371D01*
X11999307Y43170931D01*
X11977547Y42950000D01*
X11977547Y41250000D01*
X11999307Y41029069D01*
X12063750Y40816629D01*
X12168400Y40620843D01*
X12239215Y40534555D01*
X12124653Y40320226D01*
X12011606Y39947560D01*
X11973435Y39560000D01*
X8458987Y39560000D01*
X8486565Y39840000D01*
X8448394Y40227560D01*
X8335347Y40600226D01*
X8151768Y40943676D01*
X8015270Y41110000D01*
X8151768Y41276324D01*
X8335347Y41619774D01*
X8448394Y41992440D01*
X8486565Y42380000D01*
X8448394Y42767560D01*
X8335347Y43140226D01*
X8151768Y43483676D01*
X8015270Y43650000D01*
X8151768Y43816324D01*
X8335347Y44159774D01*
X8448394Y44532440D01*
X8486565Y44920000D01*
X8465882Y45130000D01*
X16562709Y45130000D01*
X16603776Y44713035D01*
X16725401Y44312094D01*
X16922907Y43942585D01*
X17188707Y43618707D01*
X17512585Y43352907D01*
X17882094Y43155401D01*
X18283035Y43033776D01*
X18595513Y43003000D01*
X18804487Y43003000D01*
X19116965Y43033776D01*
X19517906Y43155401D01*
X19887415Y43352907D01*
X20211293Y43618707D01*
X20477093Y43942585D01*
X20674599Y44312094D01*
X20796224Y44713035D01*
X20837291Y45130000D01*
X20796224Y45546965D01*
X20674599Y45947906D01*
X20477093Y46317415D01*
X20296613Y46537331D01*
X22798000Y46537331D01*
X22798000Y46162669D01*
X22871093Y45795207D01*
X23014469Y45449065D01*
X23222620Y45137546D01*
X23487546Y44872620D01*
X23799065Y44664469D01*
X24145207Y44521093D01*
X24512669Y44448000D01*
X24887331Y44448000D01*
X25254793Y44521093D01*
X25600935Y44664469D01*
X25912454Y44872620D01*
X26177380Y45137546D01*
X26385531Y45449065D01*
X26528907Y45795207D01*
X26602000Y46162669D01*
X26602000Y46537331D01*
X26528907Y46904793D01*
X26437695Y47125000D01*
X27792547Y47125000D01*
X27792547Y45575000D01*
X27814307Y45354069D01*
X27878750Y45141629D01*
X27983400Y44945843D01*
X28124235Y44774235D01*
X28295843Y44633400D01*
X28491629Y44528750D01*
X28704069Y44464307D01*
X28925000Y44442547D01*
X30475000Y44442547D01*
X30695931Y44464307D01*
X30908371Y44528750D01*
X31104157Y44633400D01*
X31275765Y44774235D01*
X31416600Y44945843D01*
X31521250Y45141629D01*
X31585693Y45354069D01*
X31607453Y45575000D01*
X31607453Y47125000D01*
X31585693Y47345931D01*
X31521250Y47558371D01*
X31416600Y47754157D01*
X31275765Y47925765D01*
X31104157Y48066600D01*
X30908371Y48171250D01*
X30695931Y48235693D01*
X30475000Y48257453D01*
X28925000Y48257453D01*
X28704069Y48235693D01*
X28491629Y48171250D01*
X28295843Y48066600D01*
X28124235Y47925765D01*
X27983400Y47754157D01*
X27878750Y47558371D01*
X27814307Y47345931D01*
X27792547Y47125000D01*
X26437695Y47125000D01*
X26385531Y47250935D01*
X26177380Y47562454D01*
X25912454Y47827380D01*
X25600935Y48035531D01*
X25254793Y48178907D01*
X24887331Y48252000D01*
X24512669Y48252000D01*
X24145207Y48178907D01*
X23799065Y48035531D01*
X23487546Y47827380D01*
X23222620Y47562454D01*
X23014469Y47250935D01*
X22871093Y46904793D01*
X22798000Y46537331D01*
X20296613Y46537331D01*
X20211293Y46641293D01*
X19887415Y46907093D01*
X19517906Y47104599D01*
X19116965Y47226224D01*
X18804487Y47257000D01*
X18595513Y47257000D01*
X18283035Y47226224D01*
X17882094Y47104599D01*
X17512585Y46907093D01*
X17188707Y46641293D01*
X16922907Y46317415D01*
X16725401Y45947906D01*
X16603776Y45546965D01*
X16562709Y45130000D01*
X8465882Y45130000D01*
X8448394Y45307560D01*
X8335347Y45680226D01*
X8151768Y46023676D01*
X8015270Y46190000D01*
X8151768Y46356324D01*
X8335347Y46699774D01*
X8448394Y47072440D01*
X8486565Y47460000D01*
X8448394Y47847560D01*
X8335347Y48220226D01*
X8220785Y48434555D01*
X8291600Y48520843D01*
X8396250Y48716629D01*
X8460693Y48929069D01*
X8482453Y49150000D01*
X8482453Y50549566D01*
X17109876Y50549566D01*
X17166498Y50362893D01*
X17306601Y50074618D01*
X17500252Y49819215D01*
X17740008Y49606499D01*
X18016656Y49444644D01*
X18319565Y49339871D01*
X18573000Y49458685D01*
X18573000Y50803000D01*
X18827000Y50803000D01*
X18827000Y49458685D01*
X19080435Y49339871D01*
X19383344Y49444644D01*
X19659992Y49606499D01*
X19899748Y49819215D01*
X20093399Y50074618D01*
X20233502Y50362893D01*
X20290124Y50549566D01*
X20170777Y50803000D01*
X18827000Y50803000D01*
X18573000Y50803000D01*
X17229223Y50803000D01*
X17109876Y50549566D01*
X8482453Y50549566D01*
X8482453Y50850000D01*
X8460693Y51070931D01*
X8396250Y51283371D01*
X8381785Y51310434D01*
X17109876Y51310434D01*
X17229223Y51057000D01*
X18573000Y51057000D01*
X18573000Y52401315D01*
X18827000Y52401315D01*
X18827000Y51057000D01*
X20170777Y51057000D01*
X20290124Y51310434D01*
X20233502Y51497107D01*
X20213953Y51537331D01*
X25298000Y51537331D01*
X25298000Y51162669D01*
X25371093Y50795207D01*
X25514469Y50449065D01*
X25722620Y50137546D01*
X25987546Y49872620D01*
X26299065Y49664469D01*
X26645207Y49521093D01*
X27012669Y49448000D01*
X27387331Y49448000D01*
X27754793Y49521093D01*
X28100935Y49664469D01*
X28412454Y49872620D01*
X28677380Y50137546D01*
X28885531Y50449065D01*
X29028907Y50795207D01*
X29102000Y51162669D01*
X29102000Y51207983D01*
X32573000Y51207983D01*
X32573000Y50592017D01*
X32693169Y49987888D01*
X32928889Y49418810D01*
X33271101Y48906654D01*
X33706654Y48471101D01*
X33813064Y48400000D01*
X33706654Y48328899D01*
X33271101Y47893346D01*
X32928889Y47381190D01*
X32693169Y46812112D01*
X32573000Y46207983D01*
X32573000Y45592017D01*
X32693169Y44987888D01*
X32928889Y44418810D01*
X33271101Y43906654D01*
X33706654Y43471101D01*
X34218810Y43128889D01*
X34787888Y42893169D01*
X34969250Y42857094D01*
X34847053Y42562085D01*
X34773000Y42189793D01*
X34773000Y41810207D01*
X34847053Y41437915D01*
X34992315Y41087223D01*
X35203201Y40771609D01*
X35471609Y40503201D01*
X35787223Y40292315D01*
X36137915Y40147053D01*
X36510207Y40073000D01*
X36889793Y40073000D01*
X37262085Y40147053D01*
X37612777Y40292315D01*
X37928391Y40503201D01*
X38196799Y40771609D01*
X38407685Y41087223D01*
X38552947Y41437915D01*
X38627000Y41810207D01*
X38627000Y42020000D01*
X40963677Y42020000D01*
X41000883Y41642242D01*
X41111071Y41279001D01*
X41290006Y40944237D01*
X41530813Y40650813D01*
X41824237Y40410006D01*
X42159001Y40231071D01*
X42522242Y40120883D01*
X42805342Y40093000D01*
X42994658Y40093000D01*
X43277758Y40120883D01*
X43640999Y40231071D01*
X43975763Y40410006D01*
X44269187Y40650813D01*
X44509994Y40944237D01*
X44688929Y41279001D01*
X44799117Y41642242D01*
X44799881Y41650000D01*
X53402919Y41650000D01*
X53463101Y41038961D01*
X53641334Y40451404D01*
X53930770Y39909909D01*
X54320284Y39435284D01*
X54794909Y39045770D01*
X55336404Y38756334D01*
X55347419Y38752993D01*
X55324069Y38750693D01*
X55111629Y38686250D01*
X54915843Y38581600D01*
X54744235Y38440765D01*
X54603400Y38269157D01*
X54498750Y38073371D01*
X54434307Y37860931D01*
X54412547Y37640000D01*
X54412547Y35660000D01*
X54434307Y35439069D01*
X54498750Y35226629D01*
X54603400Y35030843D01*
X54744235Y34859235D01*
X54915843Y34718400D01*
X55111629Y34613750D01*
X55324069Y34549307D01*
X55545000Y34527547D01*
X59505000Y34527547D01*
X59725931Y34549307D01*
X59938371Y34613750D01*
X60134157Y34718400D01*
X60305765Y34859235D01*
X60446600Y35030843D01*
X60551250Y35226629D01*
X60615693Y35439069D01*
X60637453Y35660000D01*
X60637453Y37640000D01*
X60615693Y37860931D01*
X60551250Y38073371D01*
X60446600Y38269157D01*
X60305765Y38440765D01*
X60134157Y38581600D01*
X59938371Y38686250D01*
X59725931Y38750693D01*
X59702581Y38752993D01*
X59713596Y38756334D01*
X60255091Y39045770D01*
X60729716Y39435284D01*
X61119230Y39909909D01*
X61408666Y40451404D01*
X61586899Y41038961D01*
X61647081Y41650000D01*
X61586899Y42261039D01*
X61408666Y42848596D01*
X61119230Y43390091D01*
X60729716Y43864716D01*
X60255091Y44254230D01*
X59713596Y44543666D01*
X59126039Y44721899D01*
X58668120Y44767000D01*
X56381880Y44767000D01*
X55923961Y44721899D01*
X55336404Y44543666D01*
X54794909Y44254230D01*
X54320284Y43864716D01*
X53930770Y43390091D01*
X53641334Y42848596D01*
X53463101Y42261039D01*
X53402919Y41650000D01*
X44799881Y41650000D01*
X44836323Y42020000D01*
X44799117Y42397758D01*
X44688929Y42760999D01*
X44509994Y43095763D01*
X44269187Y43389187D01*
X43975763Y43629994D01*
X43640999Y43808929D01*
X43277758Y43919117D01*
X42994658Y43947000D01*
X42805342Y43947000D01*
X42522242Y43919117D01*
X42159001Y43808929D01*
X41824237Y43629994D01*
X41530813Y43389187D01*
X41290006Y43095763D01*
X41111071Y42760999D01*
X41000883Y42397758D01*
X40963677Y42020000D01*
X38627000Y42020000D01*
X38627000Y42189793D01*
X38552947Y42562085D01*
X38407685Y42912777D01*
X38196799Y43228391D01*
X37928391Y43496799D01*
X37802897Y43580652D01*
X38128899Y43906654D01*
X38471111Y44418810D01*
X38706831Y44987888D01*
X38827000Y45592017D01*
X38827000Y46207983D01*
X38800782Y46339793D01*
X39773000Y46339793D01*
X39773000Y45960207D01*
X39847053Y45587915D01*
X39992315Y45237223D01*
X40203201Y44921609D01*
X40471609Y44653201D01*
X40787223Y44442315D01*
X41137915Y44297053D01*
X41510207Y44223000D01*
X41889793Y44223000D01*
X42262085Y44297053D01*
X42612777Y44442315D01*
X42928391Y44653201D01*
X43196799Y44921609D01*
X43407685Y45237223D01*
X43552947Y45587915D01*
X43627000Y45960207D01*
X43627000Y46271135D01*
X54954782Y46271135D01*
X54985095Y46145472D01*
X55113304Y45852795D01*
X55296148Y45590754D01*
X55526601Y45369419D01*
X55795806Y45197296D01*
X56093418Y45081000D01*
X56408000Y45025000D01*
X57398000Y45025000D01*
X57398000Y46523000D01*
X57652000Y46523000D01*
X57652000Y45025000D01*
X58642000Y45025000D01*
X58956582Y45081000D01*
X59254194Y45197296D01*
X59523399Y45369419D01*
X59753852Y45590754D01*
X59936696Y45852795D01*
X60064905Y46145472D01*
X60095218Y46271135D01*
X59975740Y46523000D01*
X57652000Y46523000D01*
X57398000Y46523000D01*
X55074260Y46523000D01*
X54954782Y46271135D01*
X43627000Y46271135D01*
X43627000Y46339793D01*
X43552947Y46712085D01*
X43421732Y47028865D01*
X54954782Y47028865D01*
X55074260Y46777000D01*
X57398000Y46777000D01*
X57398000Y48275000D01*
X57652000Y48275000D01*
X57652000Y46777000D01*
X59975740Y46777000D01*
X60095218Y47028865D01*
X60064905Y47154528D01*
X59936696Y47447205D01*
X59753852Y47709246D01*
X59523399Y47930581D01*
X59254194Y48102704D01*
X58956582Y48219000D01*
X58642000Y48275000D01*
X57652000Y48275000D01*
X57398000Y48275000D01*
X56408000Y48275000D01*
X56093418Y48219000D01*
X55795806Y48102704D01*
X55526601Y47930581D01*
X55296148Y47709246D01*
X55113304Y47447205D01*
X54985095Y47154528D01*
X54954782Y47028865D01*
X43421732Y47028865D01*
X43407685Y47062777D01*
X43196799Y47378391D01*
X42928391Y47646799D01*
X42612777Y47857685D01*
X42262085Y48002947D01*
X41889793Y48077000D01*
X41510207Y48077000D01*
X41137915Y48002947D01*
X40787223Y47857685D01*
X40471609Y47646799D01*
X40203201Y47378391D01*
X39992315Y47062777D01*
X39847053Y46712085D01*
X39773000Y46339793D01*
X38800782Y46339793D01*
X38706831Y46812112D01*
X38471111Y47381190D01*
X38128899Y47893346D01*
X37693346Y48328899D01*
X37586936Y48400000D01*
X37693346Y48471101D01*
X38128899Y48906654D01*
X38471111Y49418810D01*
X38706831Y49987888D01*
X38740528Y50157298D01*
X43186903Y50157298D01*
X43258486Y49913329D01*
X43513996Y49792429D01*
X43788184Y49723700D01*
X44070512Y49709783D01*
X44350130Y49751213D01*
X44616292Y49846397D01*
X44741514Y49913329D01*
X44813097Y50157298D01*
X44000000Y50970395D01*
X43186903Y50157298D01*
X38740528Y50157298D01*
X38827000Y50592017D01*
X38827000Y51079488D01*
X42559783Y51079488D01*
X42601213Y50799870D01*
X42696397Y50533708D01*
X42763329Y50408486D01*
X43007298Y50336903D01*
X43820395Y51150000D01*
X44179605Y51150000D01*
X44992702Y50336903D01*
X45236671Y50408486D01*
X45357571Y50663996D01*
X45426300Y50938184D01*
X45440217Y51220512D01*
X45398787Y51500130D01*
X45303603Y51766292D01*
X45236671Y51891514D01*
X44992702Y51963097D01*
X44179605Y51150000D01*
X43820395Y51150000D01*
X43007298Y51963097D01*
X42763329Y51891514D01*
X42642429Y51636004D01*
X42573700Y51361816D01*
X42559783Y51079488D01*
X38827000Y51079488D01*
X38827000Y51207983D01*
X38706831Y51812112D01*
X38569897Y52142702D01*
X43186903Y52142702D01*
X44000000Y51329605D01*
X44813097Y52142702D01*
X44741514Y52386671D01*
X44486004Y52507571D01*
X44211816Y52576300D01*
X43929488Y52590217D01*
X43649870Y52548787D01*
X43383708Y52453603D01*
X43258486Y52386671D01*
X43186903Y52142702D01*
X38569897Y52142702D01*
X38471111Y52381190D01*
X38128899Y52893346D01*
X37693346Y53328899D01*
X37181190Y53671111D01*
X36612112Y53906831D01*
X36007983Y54027000D01*
X35392017Y54027000D01*
X34787888Y53906831D01*
X34218810Y53671111D01*
X33706654Y53328899D01*
X33271101Y52893346D01*
X32928889Y52381190D01*
X32693169Y51812112D01*
X32573000Y51207983D01*
X29102000Y51207983D01*
X29102000Y51537331D01*
X29028907Y51904793D01*
X28885531Y52250935D01*
X28677380Y52562454D01*
X28412454Y52827380D01*
X28100935Y53035531D01*
X27754793Y53178907D01*
X27387331Y53252000D01*
X27012669Y53252000D01*
X26645207Y53178907D01*
X26299065Y53035531D01*
X25987546Y52827380D01*
X25722620Y52562454D01*
X25514469Y52250935D01*
X25371093Y51904793D01*
X25298000Y51537331D01*
X20213953Y51537331D01*
X20093399Y51785382D01*
X19899748Y52040785D01*
X19659992Y52253501D01*
X19383344Y52415356D01*
X19080435Y52520129D01*
X18827000Y52401315D01*
X18573000Y52401315D01*
X18319565Y52520129D01*
X18016656Y52415356D01*
X17740008Y52253501D01*
X17500252Y52040785D01*
X17306601Y51785382D01*
X17166498Y51497107D01*
X17109876Y51310434D01*
X8381785Y51310434D01*
X8291600Y51479157D01*
X8150765Y51650765D01*
X7979157Y51791600D01*
X7783371Y51896250D01*
X7570931Y51960693D01*
X7350000Y51982453D01*
X5650000Y51982453D01*
X5429069Y51960693D01*
X5216629Y51896250D01*
X5020843Y51791600D01*
X4934555Y51720785D01*
X4720226Y51835347D01*
X4347560Y51948394D01*
X4057116Y51977000D01*
X3862884Y51977000D01*
X3572440Y51948394D01*
X3199774Y51835347D01*
X2856324Y51651768D01*
X2555286Y51404714D01*
X2308232Y51103676D01*
X2124653Y50760226D01*
X2011606Y50387560D01*
X1973435Y50000000D01*
X660000Y50000000D01*
X660000Y58322756D01*
X2723000Y58322756D01*
X2723000Y57677244D01*
X2848933Y57044134D01*
X3095960Y56447758D01*
X3454588Y55911034D01*
X3911034Y55454588D01*
X4447758Y55095960D01*
X5044134Y54848933D01*
X5677244Y54723000D01*
X6322756Y54723000D01*
X6518822Y54762000D01*
X46795126Y54762000D01*
X46795194Y54761307D01*
X46795127Y54760616D01*
X46807839Y54632923D01*
X46820564Y54503725D01*
X46820768Y54503053D01*
X46820836Y54502368D01*
X46858142Y54379848D01*
X46895900Y54255375D01*
X46896230Y54254758D01*
X46896431Y54254097D01*
X46957081Y54140914D01*
X47018239Y54026495D01*
X47018682Y54025955D01*
X47019009Y54025345D01*
X47100592Y53926148D01*
X47182880Y53825880D01*
X47183420Y53825436D01*
X47183860Y53824902D01*
X47211171Y53802536D01*
X47178958Y53756956D01*
X47110788Y53665127D01*
X47104143Y53651095D01*
X47095185Y53638419D01*
X47048671Y53533948D01*
X46999719Y53430570D01*
X46995940Y53415512D01*
X46989626Y53401331D01*
X46964381Y53289767D01*
X46936545Y53178853D01*
X46932561Y53098515D01*
X46816941Y52173552D01*
X46800564Y52087857D01*
X46801372Y51980317D01*
X46798556Y51872771D01*
X46802346Y51850715D01*
X46802514Y51828341D01*
X46824288Y51723018D01*
X46842506Y51616995D01*
X46850526Y51596102D01*
X46855056Y51574191D01*
X46896963Y51475130D01*
X46935512Y51374708D01*
X46947452Y51355785D01*
X46956171Y51335174D01*
X47016610Y51246176D01*
X47073998Y51155221D01*
X47089398Y51138993D01*
X47101972Y51120477D01*
X47178611Y51044982D01*
X47252643Y50966968D01*
X47270917Y50954053D01*
X47286858Y50938350D01*
X47376745Y50879261D01*
X47464581Y50817185D01*
X47485021Y50808085D01*
X47503722Y50795791D01*
X47603412Y50755373D01*
X47701669Y50711626D01*
X47723494Y50706688D01*
X47744231Y50698280D01*
X47849879Y50678090D01*
X47954794Y50654350D01*
X47977165Y50653764D01*
X47999143Y50649564D01*
X48106693Y50650372D01*
X48214229Y50647556D01*
X48236285Y50651346D01*
X48258659Y50651514D01*
X48363982Y50673288D01*
X48470005Y50691506D01*
X48490898Y50699526D01*
X48512809Y50704056D01*
X48611870Y50745963D01*
X48712292Y50784512D01*
X48731215Y50796452D01*
X48751826Y50805171D01*
X48840817Y50865605D01*
X48931779Y50922998D01*
X48995071Y50983060D01*
X49657085Y51534737D01*
X49692686Y51557148D01*
X49756540Y51617617D01*
X49774159Y51632299D01*
X49803534Y51662119D01*
X49881125Y51735596D01*
X49894458Y51754419D01*
X49910651Y51770858D01*
X49969369Y51860182D01*
X50031130Y51947378D01*
X50040534Y51968440D01*
X50053209Y51987722D01*
X50093374Y52086788D01*
X50136936Y52184355D01*
X50142050Y52206845D01*
X50150720Y52228230D01*
X50170782Y52333205D01*
X50194478Y52437419D01*
X50195106Y52460486D01*
X50199436Y52483142D01*
X50198633Y52590007D01*
X50201543Y52696847D01*
X50197660Y52719585D01*
X50197487Y52742659D01*
X50194463Y52757286D01*
X51219859Y54368623D01*
X51251761Y54407495D01*
X51289361Y54477840D01*
X51297268Y54490265D01*
X51319854Y54534887D01*
X51374100Y54636375D01*
X51378405Y54650567D01*
X51385102Y54663798D01*
X51416038Y54774627D01*
X51449436Y54884725D01*
X51450889Y54899481D01*
X51454877Y54913767D01*
X51463597Y55028499D01*
X51474874Y55143000D01*
X51473420Y55157759D01*
X51474544Y55172545D01*
X51460716Y55286751D01*
X51449436Y55401275D01*
X51445130Y55415470D01*
X51443348Y55430188D01*
X51407510Y55539487D01*
X51374100Y55649625D01*
X51367107Y55662708D01*
X51362488Y55676795D01*
X51306016Y55777002D01*
X51260657Y55861862D01*
X51578445Y56225049D01*
X51594140Y56237902D01*
X51663737Y56322526D01*
X51693135Y56356123D01*
X51704876Y56372546D01*
X51758991Y56438345D01*
X51780169Y56477867D01*
X51806247Y56514345D01*
X51841324Y56591992D01*
X51881569Y56667096D01*
X51894630Y56709992D01*
X51913091Y56750857D01*
X51932348Y56833866D01*
X51957164Y56915367D01*
X51961605Y56959981D01*
X51971740Y57003667D01*
X51974432Y57088830D01*
X51982873Y57173615D01*
X51978524Y57218248D01*
X51979941Y57263062D01*
X51965968Y57347111D01*
X51957705Y57431916D01*
X51944734Y57474837D01*
X51937380Y57519073D01*
X51907275Y57598788D01*
X51882629Y57680344D01*
X51861534Y57719909D01*
X51845691Y57761861D01*
X51800615Y57834168D01*
X51760529Y57909353D01*
X51732118Y57944046D01*
X51708397Y57982097D01*
X51650082Y58044221D01*
X51596098Y58110140D01*
X51561468Y58138621D01*
X51530777Y58171316D01*
X51461463Y58220868D01*
X51395655Y58274991D01*
X51356129Y58296171D01*
X51319654Y58322247D01*
X51318528Y58322756D01*
X54723000Y58322756D01*
X54723000Y57677244D01*
X54848933Y57044134D01*
X55095960Y56447758D01*
X55454588Y55911034D01*
X55911034Y55454588D01*
X56447758Y55095960D01*
X57044134Y54848933D01*
X57677244Y54723000D01*
X58322756Y54723000D01*
X58955866Y54848933D01*
X59552242Y55095960D01*
X60088966Y55454588D01*
X60545412Y55911034D01*
X60904040Y56447758D01*
X61151067Y57044134D01*
X61277000Y57677244D01*
X61277000Y58322756D01*
X61151067Y58955866D01*
X60904040Y59552242D01*
X60545412Y60088966D01*
X60088966Y60545412D01*
X59552242Y60904040D01*
X58955866Y61151067D01*
X58322756Y61277000D01*
X57677244Y61277000D01*
X57044134Y61151067D01*
X56447758Y60904040D01*
X55911034Y60545412D01*
X55454588Y60088966D01*
X55095960Y59552242D01*
X54848933Y58955866D01*
X54723000Y58322756D01*
X51318528Y58322756D01*
X51242009Y58357323D01*
X51166903Y58397569D01*
X51124007Y58410630D01*
X51083142Y58429091D01*
X51000133Y58448348D01*
X50918632Y58473164D01*
X50874018Y58477605D01*
X50830332Y58487740D01*
X50745169Y58490432D01*
X50660384Y58498873D01*
X50615751Y58494524D01*
X50570937Y58495941D01*
X50486888Y58481968D01*
X50402083Y58473705D01*
X50359162Y58460734D01*
X50314926Y58453380D01*
X50235211Y58423275D01*
X50221261Y58419060D01*
X50216570Y58421281D01*
X49964853Y58484455D01*
X49705647Y58497308D01*
X49448914Y58459346D01*
X49204520Y58372027D01*
X48981857Y58238706D01*
X48789482Y58064508D01*
X48765411Y58032083D01*
X48705901Y57983140D01*
X48582671Y57832664D01*
X47059058Y55547242D01*
X47018239Y55497505D01*
X46987256Y55439540D01*
X46986876Y55438970D01*
X46957031Y55382993D01*
X46895900Y55268625D01*
X46895697Y55267955D01*
X46895371Y55267344D01*
X46858208Y55144371D01*
X46820564Y55020275D01*
X46820495Y55019579D01*
X46820295Y55018916D01*
X46807811Y54890791D01*
X46795126Y54762000D01*
X6518822Y54762000D01*
X6955866Y54848933D01*
X7552242Y55095960D01*
X8088966Y55454588D01*
X8545412Y55911034D01*
X8904040Y56447758D01*
X9151067Y57044134D01*
X9277000Y57677244D01*
X9277000Y58322756D01*
X9151067Y58955866D01*
X8904040Y59552242D01*
X8545412Y60088966D01*
X8088966Y60545412D01*
X7552242Y60904040D01*
X6955866Y61151067D01*
X6322756Y61277000D01*
X5677244Y61277000D01*
X5044134Y61151067D01*
X4447758Y60904040D01*
X3911034Y60545412D01*
X3454588Y60088966D01*
X3095960Y59552242D01*
X2848933Y58955866D01*
X2723000Y58322756D01*
X660000Y58322756D01*
X660000Y63340000D01*
X63340001Y63340000D01*
X63340000Y660000D01*
X63340000Y660000D01*
G37*
X63340000Y660000D02*
X48299706Y660000D01*
X48363982Y673288D01*
X48470005Y691506D01*
X48490898Y699526D01*
X48512809Y704056D01*
X48611870Y745963D01*
X48712292Y784512D01*
X48731215Y796452D01*
X48751826Y805171D01*
X48840817Y865605D01*
X48931779Y922998D01*
X48995071Y983060D01*
X49657085Y1534737D01*
X49692686Y1557148D01*
X49756540Y1617617D01*
X49774159Y1632299D01*
X49803534Y1662119D01*
X49881125Y1735596D01*
X49894458Y1754419D01*
X49910651Y1770858D01*
X49969369Y1860182D01*
X50031130Y1947378D01*
X50040534Y1968440D01*
X50053209Y1987722D01*
X50093374Y2086788D01*
X50136936Y2184355D01*
X50142050Y2206845D01*
X50150720Y2228230D01*
X50170782Y2333205D01*
X50194478Y2437419D01*
X50195106Y2460486D01*
X50199436Y2483142D01*
X50198633Y2590007D01*
X50201543Y2696847D01*
X50197660Y2719585D01*
X50197487Y2742659D01*
X50194463Y2757286D01*
X51219859Y4368623D01*
X51251761Y4407495D01*
X51289361Y4477840D01*
X51297268Y4490265D01*
X51319854Y4534887D01*
X51374100Y4636375D01*
X51378405Y4650567D01*
X51385102Y4663798D01*
X51416038Y4774627D01*
X51449436Y4884725D01*
X51450889Y4899481D01*
X51454877Y4913767D01*
X51463597Y5028499D01*
X51474874Y5143000D01*
X51473420Y5157759D01*
X51474544Y5172545D01*
X51460716Y5286751D01*
X51449436Y5401275D01*
X51445130Y5415470D01*
X51443348Y5430188D01*
X51407510Y5539487D01*
X51374100Y5649625D01*
X51367107Y5662708D01*
X51362488Y5676795D01*
X51306016Y5777002D01*
X51260657Y5861862D01*
X51578445Y6225049D01*
X51594140Y6237902D01*
X51663737Y6322526D01*
X51663938Y6322756D01*
X54723000Y6322756D01*
X54723000Y5677244D01*
X54848933Y5044134D01*
X55095960Y4447758D01*
X55454588Y3911034D01*
X55911034Y3454588D01*
X56447758Y3095960D01*
X57044134Y2848933D01*
X57677244Y2723000D01*
X58322756Y2723000D01*
X58955866Y2848933D01*
X59552242Y3095960D01*
X60088966Y3454588D01*
X60545412Y3911034D01*
X60904040Y4447758D01*
X61151067Y5044134D01*
X61277000Y5677244D01*
X61277000Y6322756D01*
X61151067Y6955866D01*
X60904040Y7552242D01*
X60545412Y8088966D01*
X60088966Y8545412D01*
X59552242Y8904040D01*
X58955866Y9151067D01*
X58322756Y9277000D01*
X57677244Y9277000D01*
X57044134Y9151067D01*
X56447758Y8904040D01*
X55911034Y8545412D01*
X55454588Y8088966D01*
X55095960Y7552242D01*
X54848933Y6955866D01*
X54723000Y6322756D01*
X51663938Y6322756D01*
X51693135Y6356123D01*
X51704876Y6372546D01*
X51758991Y6438345D01*
X51780169Y6477867D01*
X51806247Y6514345D01*
X51841324Y6591992D01*
X51881569Y6667096D01*
X51894630Y6709992D01*
X51913091Y6750857D01*
X51932348Y6833866D01*
X51957164Y6915367D01*
X51961605Y6959981D01*
X51971740Y7003667D01*
X51974432Y7088830D01*
X51982873Y7173615D01*
X51978524Y7218248D01*
X51979941Y7263062D01*
X51965968Y7347111D01*
X51957705Y7431916D01*
X51944734Y7474837D01*
X51937380Y7519073D01*
X51907275Y7598788D01*
X51882629Y7680344D01*
X51861534Y7719909D01*
X51845691Y7761861D01*
X51800615Y7834168D01*
X51760529Y7909353D01*
X51732118Y7944046D01*
X51708397Y7982097D01*
X51650082Y8044221D01*
X51596098Y8110140D01*
X51561468Y8138621D01*
X51530777Y8171316D01*
X51461463Y8220868D01*
X51395655Y8274991D01*
X51356129Y8296171D01*
X51319654Y8322247D01*
X51242009Y8357323D01*
X51166903Y8397569D01*
X51124007Y8410630D01*
X51083142Y8429091D01*
X51000133Y8448348D01*
X50918632Y8473164D01*
X50874018Y8477605D01*
X50830332Y8487740D01*
X50745169Y8490432D01*
X50660384Y8498873D01*
X50615751Y8494524D01*
X50570937Y8495941D01*
X50486888Y8481968D01*
X50402083Y8473705D01*
X50359162Y8460734D01*
X50314926Y8453380D01*
X50235211Y8423275D01*
X50221261Y8419060D01*
X50216570Y8421281D01*
X49964853Y8484455D01*
X49705647Y8497308D01*
X49448914Y8459346D01*
X49204520Y8372027D01*
X48981857Y8238706D01*
X48789482Y8064508D01*
X48765411Y8032083D01*
X48705901Y7983140D01*
X48582671Y7832664D01*
X47059058Y5547242D01*
X47018239Y5497505D01*
X46987256Y5439540D01*
X46986876Y5438970D01*
X46957031Y5382993D01*
X46895900Y5268625D01*
X46895697Y5267955D01*
X46895371Y5267344D01*
X46858208Y5144371D01*
X46820564Y5020275D01*
X46820495Y5019579D01*
X46820295Y5018916D01*
X46807811Y4890791D01*
X46795126Y4762000D01*
X46795194Y4761307D01*
X46795127Y4760616D01*
X46807839Y4632923D01*
X46820564Y4503725D01*
X46820768Y4503053D01*
X46820836Y4502368D01*
X46858142Y4379848D01*
X46895900Y4255375D01*
X46896230Y4254758D01*
X46896431Y4254097D01*
X46957081Y4140914D01*
X47018239Y4026495D01*
X47018682Y4025955D01*
X47019009Y4025345D01*
X47100592Y3926148D01*
X47182880Y3825880D01*
X47183420Y3825436D01*
X47183860Y3824902D01*
X47211171Y3802536D01*
X47178958Y3756956D01*
X47110788Y3665127D01*
X47104143Y3651095D01*
X47095185Y3638419D01*
X47048671Y3533948D01*
X46999719Y3430570D01*
X46995940Y3415512D01*
X46989626Y3401331D01*
X46964381Y3289767D01*
X46936545Y3178853D01*
X46932561Y3098515D01*
X46816941Y2173552D01*
X46800564Y2087857D01*
X46801372Y1980317D01*
X46798556Y1872771D01*
X46802346Y1850715D01*
X46802514Y1828341D01*
X46824288Y1723018D01*
X46842506Y1616995D01*
X46850526Y1596102D01*
X46855056Y1574191D01*
X46896963Y1475130D01*
X46935512Y1374708D01*
X46947452Y1355785D01*
X46956171Y1335174D01*
X47016610Y1246176D01*
X47073998Y1155221D01*
X47089398Y1138993D01*
X47101972Y1120477D01*
X47178611Y1044982D01*
X47252643Y966968D01*
X47270917Y954053D01*
X47286858Y938350D01*
X47376745Y879261D01*
X47464581Y817185D01*
X47485021Y808085D01*
X47503722Y795791D01*
X47603412Y755373D01*
X47701669Y711626D01*
X47723494Y706688D01*
X47744231Y698280D01*
X47849879Y678090D01*
X47929824Y660000D01*
X660000Y660000D01*
X660000Y23299999D01*
X1276337Y23299999D01*
X1283000Y23232349D01*
X1282999Y13883639D01*
X1276337Y13815999D01*
X1302924Y13546060D01*
X1338193Y13429793D01*
X1381662Y13286495D01*
X1509526Y13047279D01*
X1681602Y12837603D01*
X1734145Y12794482D01*
X5322241Y9206386D01*
X5044134Y9151067D01*
X4447758Y8904040D01*
X3911034Y8545412D01*
X3454588Y8088966D01*
X3095960Y7552242D01*
X2848933Y6955866D01*
X2723000Y6322756D01*
X2723000Y5677244D01*
X2848933Y5044134D01*
X3095960Y4447758D01*
X3454588Y3911034D01*
X3911034Y3454588D01*
X4447758Y3095960D01*
X5044134Y2848933D01*
X5677244Y2723000D01*
X6322756Y2723000D01*
X6955866Y2848933D01*
X7552242Y3095960D01*
X8088966Y3454588D01*
X8545412Y3911034D01*
X8904040Y4447758D01*
X9151067Y5044134D01*
X9277000Y5677244D01*
X9277000Y6322756D01*
X9268995Y6363000D01*
X11713796Y6363000D01*
X11768400Y6260843D01*
X11839215Y6174555D01*
X11724653Y5960226D01*
X11611606Y5587560D01*
X11573435Y5200000D01*
X11611606Y4812440D01*
X11724653Y4439774D01*
X11908232Y4096324D01*
X12155286Y3795286D01*
X12456324Y3548232D01*
X12799774Y3364653D01*
X13172440Y3251606D01*
X13462884Y3223000D01*
X13657116Y3223000D01*
X13947560Y3251606D01*
X14320226Y3364653D01*
X14663676Y3548232D01*
X14830000Y3684730D01*
X14996324Y3548232D01*
X15339774Y3364653D01*
X15712440Y3251606D01*
X16002884Y3223000D01*
X16197116Y3223000D01*
X16487560Y3251606D01*
X16860226Y3364653D01*
X17203676Y3548232D01*
X17370000Y3684730D01*
X17536324Y3548232D01*
X17879774Y3364653D01*
X18252440Y3251606D01*
X18542884Y3223000D01*
X18737116Y3223000D01*
X19027560Y3251606D01*
X19400226Y3364653D01*
X19743676Y3548232D01*
X20044714Y3795286D01*
X20291768Y4096324D01*
X20475347Y4439774D01*
X20588394Y4812440D01*
X20626565Y5200000D01*
X20588394Y5587560D01*
X20475347Y5960226D01*
X20291768Y6303676D01*
X20155270Y6470000D01*
X20291768Y6636324D01*
X20475347Y6979774D01*
X20588394Y7352440D01*
X20626565Y7740000D01*
X20588394Y8127560D01*
X20475347Y8500226D01*
X20291768Y8843676D01*
X20044714Y9144714D01*
X19743676Y9391768D01*
X19400226Y9575347D01*
X19027560Y9688394D01*
X18737116Y9717000D01*
X18610372Y9717000D01*
X17430074Y10897298D01*
X29656903Y10897298D01*
X29728486Y10653329D01*
X29983996Y10532429D01*
X30258184Y10463700D01*
X30540512Y10449783D01*
X30820130Y10491213D01*
X31086292Y10586397D01*
X31211514Y10653329D01*
X31283097Y10897298D01*
X30470000Y11710395D01*
X29656903Y10897298D01*
X17430074Y10897298D01*
X15330315Y12997056D01*
X15364714Y13025286D01*
X15611768Y13326324D01*
X15667073Y13429793D01*
X20923000Y13429793D01*
X20923000Y13050207D01*
X20997053Y12677915D01*
X21142315Y12327223D01*
X21353201Y12011609D01*
X21621609Y11743201D01*
X21937223Y11532315D01*
X22287915Y11387053D01*
X22660207Y11313000D01*
X23039793Y11313000D01*
X23412085Y11387053D01*
X23762777Y11532315D01*
X24078391Y11743201D01*
X24154678Y11819488D01*
X29029783Y11819488D01*
X29071213Y11539870D01*
X29166397Y11273708D01*
X29233329Y11148486D01*
X29477298Y11076903D01*
X30290395Y11890000D01*
X30649605Y11890000D01*
X31462702Y11076903D01*
X31706671Y11148486D01*
X31827571Y11403996D01*
X31896300Y11678184D01*
X31906741Y11890000D01*
X34883677Y11890000D01*
X34920883Y11512242D01*
X35031071Y11149001D01*
X35210006Y10814237D01*
X35450813Y10520813D01*
X35744237Y10280006D01*
X36079001Y10101071D01*
X36442242Y9990883D01*
X36725342Y9963000D01*
X36914658Y9963000D01*
X37197758Y9990883D01*
X37560999Y10101071D01*
X37895763Y10280006D01*
X38189187Y10520813D01*
X38429994Y10814237D01*
X38608929Y11149001D01*
X38719117Y11512242D01*
X38756323Y11890000D01*
X38737630Y12079793D01*
X41243000Y12079793D01*
X41243000Y11700207D01*
X41317053Y11327915D01*
X41462315Y10977223D01*
X41673201Y10661609D01*
X41941609Y10393201D01*
X42257223Y10182315D01*
X42607915Y10037053D01*
X42980207Y9963000D01*
X43359793Y9963000D01*
X43732085Y10037053D01*
X44082777Y10182315D01*
X44398391Y10393201D01*
X44666799Y10661609D01*
X44877685Y10977223D01*
X45022947Y11327915D01*
X45097000Y11700207D01*
X45097000Y12079793D01*
X45022947Y12452085D01*
X44877685Y12802777D01*
X44666799Y13118391D01*
X44398391Y13386799D01*
X44082777Y13597685D01*
X43732085Y13742947D01*
X43359793Y13817000D01*
X42980207Y13817000D01*
X42607915Y13742947D01*
X42257223Y13597685D01*
X41941609Y13386799D01*
X41673201Y13118391D01*
X41462315Y12802777D01*
X41317053Y12452085D01*
X41243000Y12079793D01*
X38737630Y12079793D01*
X38719117Y12267758D01*
X38608929Y12630999D01*
X38429994Y12965763D01*
X38189187Y13259187D01*
X37895763Y13499994D01*
X37560999Y13678929D01*
X37197758Y13789117D01*
X36914658Y13817000D01*
X36725342Y13817000D01*
X36442242Y13789117D01*
X36079001Y13678929D01*
X35744237Y13499994D01*
X35450813Y13259187D01*
X35210006Y12965763D01*
X35031071Y12630999D01*
X34920883Y12267758D01*
X34883677Y11890000D01*
X31906741Y11890000D01*
X31910217Y11960512D01*
X31868787Y12240130D01*
X31773603Y12506292D01*
X31706671Y12631514D01*
X31462702Y12703097D01*
X30649605Y11890000D01*
X30290395Y11890000D01*
X29477298Y12703097D01*
X29233329Y12631514D01*
X29112429Y12376004D01*
X29043700Y12101816D01*
X29029783Y11819488D01*
X24154678Y11819488D01*
X24346799Y12011609D01*
X24557685Y12327223D01*
X24702947Y12677915D01*
X24743681Y12882702D01*
X29656903Y12882702D01*
X30470000Y12069605D01*
X31283097Y12882702D01*
X31211514Y13126671D01*
X30956004Y13247571D01*
X30681816Y13316300D01*
X30399488Y13330217D01*
X30119870Y13288787D01*
X29853708Y13193603D01*
X29728486Y13126671D01*
X29656903Y12882702D01*
X24743681Y12882702D01*
X24777000Y13050207D01*
X24777000Y13429793D01*
X24702947Y13802085D01*
X24557685Y14152777D01*
X24346799Y14468391D01*
X24078391Y14736799D01*
X23762777Y14947685D01*
X23412085Y15092947D01*
X23039793Y15167000D01*
X22660207Y15167000D01*
X22287915Y15092947D01*
X21937223Y14947685D01*
X21621609Y14736799D01*
X21353201Y14468391D01*
X21142315Y14152777D01*
X20997053Y13802085D01*
X20923000Y13429793D01*
X15667073Y13429793D01*
X15795347Y13669774D01*
X15908394Y14042440D01*
X15946565Y14430000D01*
X15908394Y14817560D01*
X15795347Y15190226D01*
X15611768Y15533676D01*
X15475270Y15700000D01*
X15611768Y15866324D01*
X15795347Y16209774D01*
X15908394Y16582440D01*
X15946565Y16970000D01*
X15908394Y17357560D01*
X15795347Y17730226D01*
X15680785Y17944555D01*
X15751600Y18030843D01*
X15856250Y18226629D01*
X15917879Y18429793D01*
X20923000Y18429793D01*
X20923000Y18050207D01*
X20997053Y17677915D01*
X21142315Y17327223D01*
X21353201Y17011609D01*
X21621609Y16743201D01*
X21937223Y16532315D01*
X22287915Y16387053D01*
X22660207Y16313000D01*
X23039793Y16313000D01*
X23412085Y16387053D01*
X23762777Y16532315D01*
X24078391Y16743201D01*
X24346799Y17011609D01*
X24557685Y17327223D01*
X24702947Y17677915D01*
X24777000Y18050207D01*
X24777000Y18429793D01*
X24702947Y18802085D01*
X24557685Y19152777D01*
X24346799Y19468391D01*
X24305190Y19510000D01*
X28533677Y19510000D01*
X28570883Y19132242D01*
X28681071Y18769001D01*
X28860006Y18434237D01*
X29100813Y18140813D01*
X29394237Y17900006D01*
X29729001Y17721071D01*
X30092242Y17610883D01*
X30375342Y17583000D01*
X30564658Y17583000D01*
X30847758Y17610883D01*
X31210999Y17721071D01*
X31545763Y17900006D01*
X31839187Y18140813D01*
X32079994Y18434237D01*
X32258929Y18769001D01*
X32369117Y19132242D01*
X32406323Y19510000D01*
X32369117Y19887758D01*
X32258929Y20250999D01*
X32079994Y20585763D01*
X31839187Y20879187D01*
X31545763Y21119994D01*
X31210999Y21298929D01*
X30847758Y21409117D01*
X30564658Y21437000D01*
X30375342Y21437000D01*
X30092242Y21409117D01*
X29729001Y21298929D01*
X29394237Y21119994D01*
X29100813Y20879187D01*
X28860006Y20585763D01*
X28681071Y20250999D01*
X28570883Y19887758D01*
X28533677Y19510000D01*
X24305190Y19510000D01*
X24078391Y19736799D01*
X23762777Y19947685D01*
X23412085Y20092947D01*
X23039793Y20167000D01*
X22660207Y20167000D01*
X22287915Y20092947D01*
X21937223Y19947685D01*
X21621609Y19736799D01*
X21353201Y19468391D01*
X21142315Y19152777D01*
X20997053Y18802085D01*
X20923000Y18429793D01*
X15917879Y18429793D01*
X15920693Y18439069D01*
X15942453Y18660000D01*
X15942453Y20360000D01*
X15920693Y20580931D01*
X15856250Y20793371D01*
X15751600Y20989157D01*
X15610765Y21160765D01*
X15439157Y21301600D01*
X15243371Y21406250D01*
X15030931Y21470693D01*
X14810000Y21492453D01*
X13110000Y21492453D01*
X12889069Y21470693D01*
X12676629Y21406250D01*
X12480843Y21301600D01*
X12309235Y21160765D01*
X12168400Y20989157D01*
X12063750Y20793371D01*
X11999307Y20580931D01*
X11977547Y20360000D01*
X11977547Y18660000D01*
X11999307Y18439069D01*
X12063750Y18226629D01*
X12168400Y18030843D01*
X12239215Y17944555D01*
X12124653Y17730226D01*
X12011606Y17357560D01*
X11973435Y16970000D01*
X12011606Y16582440D01*
X12124653Y16209774D01*
X12132755Y16194616D01*
X11721522Y16605849D01*
X11678398Y16658396D01*
X11468722Y16830472D01*
X11229506Y16958336D01*
X10969940Y17037074D01*
X10767641Y17056999D01*
X10700001Y17063661D01*
X10632361Y17056999D01*
X7985000Y17056999D01*
X7985000Y17107002D01*
X7820156Y17107002D01*
X7941476Y17336890D01*
X7896825Y17484099D01*
X7771641Y17746920D01*
X7597588Y17980269D01*
X7381355Y18175178D01*
X7255745Y18250000D01*
X7381355Y18324822D01*
X7597588Y18519731D01*
X7771641Y18753080D01*
X7896825Y19015901D01*
X7941476Y19163110D01*
X7820155Y19393000D01*
X6627000Y19393000D01*
X6627000Y17107000D01*
X6647000Y17107000D01*
X6647000Y17056999D01*
X6353000Y17056999D01*
X6353000Y17107000D01*
X6373000Y17107000D01*
X6373000Y19393000D01*
X4087000Y19393000D01*
X4087000Y19373000D01*
X4036999Y19373000D01*
X4036999Y19667000D01*
X4087000Y19667000D01*
X4087000Y19647000D01*
X6373000Y19647000D01*
X6373000Y19667000D01*
X6627000Y19667000D01*
X6627000Y19647000D01*
X7820155Y19647000D01*
X7941476Y19876890D01*
X7896825Y20024099D01*
X7771641Y20286920D01*
X7651736Y20447674D01*
X7904714Y20655286D01*
X8151768Y20956324D01*
X8335347Y21299774D01*
X8448394Y21672440D01*
X8486565Y22060000D01*
X8469822Y22230000D01*
X16632709Y22230000D01*
X16673776Y21813035D01*
X16795401Y21412094D01*
X16992907Y21042585D01*
X17258707Y20718707D01*
X17582585Y20452907D01*
X17952094Y20255401D01*
X18353035Y20133776D01*
X18665513Y20103000D01*
X18874487Y20103000D01*
X19186965Y20133776D01*
X19587906Y20255401D01*
X19957415Y20452907D01*
X20281293Y20718707D01*
X20547093Y21042585D01*
X20744599Y21412094D01*
X20866224Y21813035D01*
X20907291Y22230000D01*
X20866224Y22646965D01*
X20744599Y23047906D01*
X20547093Y23417415D01*
X20281293Y23741293D01*
X20042421Y23937331D01*
X22868000Y23937331D01*
X22868000Y23562669D01*
X22941093Y23195207D01*
X23084469Y22849065D01*
X23292620Y22537546D01*
X23557546Y22272620D01*
X23869065Y22064469D01*
X24215207Y21921093D01*
X24582669Y21848000D01*
X24957331Y21848000D01*
X25324793Y21921093D01*
X25670935Y22064469D01*
X25982454Y22272620D01*
X26247380Y22537546D01*
X26455531Y22849065D01*
X26598907Y23195207D01*
X26672000Y23562669D01*
X26672000Y23937331D01*
X26598907Y24304793D01*
X26507695Y24525000D01*
X27862547Y24525000D01*
X27862547Y22975000D01*
X27884307Y22754069D01*
X27948750Y22541629D01*
X28053400Y22345843D01*
X28194235Y22174235D01*
X28365843Y22033400D01*
X28561629Y21928750D01*
X28774069Y21864307D01*
X28995000Y21842547D01*
X30545000Y21842547D01*
X30765931Y21864307D01*
X30978371Y21928750D01*
X31174157Y22033400D01*
X31345765Y22174235D01*
X31486600Y22345843D01*
X31591250Y22541629D01*
X31655693Y22754069D01*
X31677453Y22975000D01*
X31677453Y24525000D01*
X31655693Y24745931D01*
X31591250Y24958371D01*
X31486600Y25154157D01*
X31345765Y25325765D01*
X31174157Y25466600D01*
X30978371Y25571250D01*
X30765931Y25635693D01*
X30545000Y25657453D01*
X28995000Y25657453D01*
X28774069Y25635693D01*
X28561629Y25571250D01*
X28365843Y25466600D01*
X28194235Y25325765D01*
X28053400Y25154157D01*
X27948750Y24958371D01*
X27884307Y24745931D01*
X27862547Y24525000D01*
X26507695Y24525000D01*
X26455531Y24650935D01*
X26247380Y24962454D01*
X25982454Y25227380D01*
X25670935Y25435531D01*
X25324793Y25578907D01*
X24957331Y25652000D01*
X24582669Y25652000D01*
X24215207Y25578907D01*
X23869065Y25435531D01*
X23557546Y25227380D01*
X23292620Y24962454D01*
X23084469Y24650935D01*
X22941093Y24304793D01*
X22868000Y23937331D01*
X20042421Y23937331D01*
X19957415Y24007093D01*
X19587906Y24204599D01*
X19186965Y24326224D01*
X18874487Y24357000D01*
X18665513Y24357000D01*
X18353035Y24326224D01*
X17952094Y24204599D01*
X17582585Y24007093D01*
X17258707Y23741293D01*
X16992907Y23417415D01*
X16795401Y23047906D01*
X16673776Y22646965D01*
X16632709Y22230000D01*
X8469822Y22230000D01*
X8448394Y22447560D01*
X8335347Y22820226D01*
X8151768Y23163676D01*
X8015270Y23330000D01*
X8151768Y23496324D01*
X8335347Y23839774D01*
X8448394Y24212440D01*
X8486565Y24600000D01*
X8448394Y24987560D01*
X8335347Y25360226D01*
X8151768Y25703676D01*
X7904714Y26004714D01*
X7651736Y26212326D01*
X7771641Y26373080D01*
X7896825Y26635901D01*
X7941476Y26783110D01*
X7820155Y27013000D01*
X6627000Y27013000D01*
X6627000Y26993000D01*
X6373000Y26993000D01*
X6373000Y27013000D01*
X4087000Y27013000D01*
X4087000Y26993000D01*
X3833000Y26993000D01*
X3833000Y27013000D01*
X2639845Y27013000D01*
X2518524Y26783110D01*
X2563175Y26635901D01*
X2688359Y26373080D01*
X2808264Y26212326D01*
X2555286Y26004714D01*
X2308232Y25703676D01*
X2124653Y25360226D01*
X2011606Y24987560D01*
X1973435Y24600000D01*
X1976949Y24564320D01*
X1734145Y24321516D01*
X1681603Y24278396D01*
X1621040Y24204599D01*
X1509527Y24068720D01*
X1381662Y23829503D01*
X1302924Y23569938D01*
X1276337Y23299999D01*
X660000Y23299999D01*
X660000Y50000000D01*
X1973435Y50000000D01*
X2011606Y49612440D01*
X2124653Y49239774D01*
X2308232Y48896324D01*
X2444730Y48730000D01*
X2308232Y48563676D01*
X2124653Y48220226D01*
X2011606Y47847560D01*
X1973435Y47460000D01*
X2011606Y47072440D01*
X2124653Y46699774D01*
X2308232Y46356324D01*
X2444730Y46190000D01*
X2308232Y46023676D01*
X2124653Y45680226D01*
X2011606Y45307560D01*
X1973435Y44920000D01*
X2011606Y44532440D01*
X2124653Y44159774D01*
X2308232Y43816324D01*
X2444730Y43650000D01*
X2308232Y43483676D01*
X2124653Y43140226D01*
X2011606Y42767560D01*
X1973435Y42380000D01*
X2011606Y41992440D01*
X2124653Y41619774D01*
X2308232Y41276324D01*
X2444730Y41110000D01*
X2308232Y40943676D01*
X2124653Y40600226D01*
X2011606Y40227560D01*
X1973435Y39840000D01*
X2011606Y39452440D01*
X2124653Y39079774D01*
X2308232Y38736324D01*
X2444730Y38570000D01*
X2308232Y38403676D01*
X2124653Y38060226D01*
X2011606Y37687560D01*
X1973435Y37300000D01*
X2011606Y36912440D01*
X2124653Y36539774D01*
X2308232Y36196324D01*
X2444730Y36030000D01*
X2308232Y35863676D01*
X2124653Y35520226D01*
X2011606Y35147560D01*
X1973435Y34760000D01*
X2011606Y34372440D01*
X2124653Y33999774D01*
X2308232Y33656324D01*
X2444730Y33490000D01*
X2308232Y33323676D01*
X2124653Y32980226D01*
X2011606Y32607560D01*
X1973435Y32220000D01*
X2011606Y31832440D01*
X2124653Y31459774D01*
X2308232Y31116324D01*
X2444730Y30950000D01*
X2308232Y30783676D01*
X2124653Y30440226D01*
X2011606Y30067560D01*
X1973435Y29680000D01*
X2011606Y29292440D01*
X2124653Y28919774D01*
X2308232Y28576324D01*
X2555286Y28275286D01*
X2808264Y28067674D01*
X2688359Y27906920D01*
X2563175Y27644099D01*
X2518524Y27496890D01*
X2639845Y27267000D01*
X3833000Y27267000D01*
X3833000Y27287000D01*
X4087000Y27287000D01*
X4087000Y27267000D01*
X6373000Y27267000D01*
X6373000Y27287000D01*
X6627000Y27287000D01*
X6627000Y27267000D01*
X7820155Y27267000D01*
X7941476Y27496890D01*
X7896825Y27644099D01*
X7894222Y27649566D01*
X17179876Y27649566D01*
X17236498Y27462893D01*
X17376601Y27174618D01*
X17570252Y26919215D01*
X17810008Y26706499D01*
X18086656Y26544644D01*
X18389565Y26439871D01*
X18643000Y26558685D01*
X18643000Y27903000D01*
X18897000Y27903000D01*
X18897000Y26558685D01*
X19150435Y26439871D01*
X19453344Y26544644D01*
X19729992Y26706499D01*
X19969748Y26919215D01*
X20163399Y27174618D01*
X20303502Y27462893D01*
X20360124Y27649566D01*
X20240777Y27903000D01*
X18897000Y27903000D01*
X18643000Y27903000D01*
X17299223Y27903000D01*
X17179876Y27649566D01*
X7894222Y27649566D01*
X7771641Y27906920D01*
X7651736Y28067674D01*
X7904714Y28275286D01*
X8015626Y28410434D01*
X17179876Y28410434D01*
X17299223Y28157000D01*
X18643000Y28157000D01*
X18643000Y29501315D01*
X18897000Y29501315D01*
X18897000Y28157000D01*
X20240777Y28157000D01*
X20360124Y28410434D01*
X20303502Y28597107D01*
X20163399Y28885382D01*
X20124011Y28937331D01*
X25368000Y28937331D01*
X25368000Y28562669D01*
X25441093Y28195207D01*
X25584469Y27849065D01*
X25792620Y27537546D01*
X26057546Y27272620D01*
X26369065Y27064469D01*
X26715207Y26921093D01*
X27082669Y26848000D01*
X27457331Y26848000D01*
X27824793Y26921093D01*
X28170935Y27064469D01*
X28482454Y27272620D01*
X28747380Y27537546D01*
X28955531Y27849065D01*
X29098907Y28195207D01*
X29172000Y28562669D01*
X29172000Y28607983D01*
X32643000Y28607983D01*
X32643000Y27992017D01*
X32763169Y27387888D01*
X32998889Y26818810D01*
X33341101Y26306654D01*
X33776654Y25871101D01*
X33883064Y25800000D01*
X33776654Y25728899D01*
X33341101Y25293346D01*
X32998889Y24781190D01*
X32763169Y24212112D01*
X32643000Y23607983D01*
X32643000Y22992017D01*
X32763169Y22387888D01*
X32998889Y21818810D01*
X33341101Y21306654D01*
X33776654Y20871101D01*
X34288810Y20528889D01*
X34857888Y20293169D01*
X35043349Y20256278D01*
X34967053Y20072085D01*
X34893000Y19699793D01*
X34893000Y19320207D01*
X34967053Y18947915D01*
X35112315Y18597223D01*
X35323201Y18281609D01*
X35591609Y18013201D01*
X35907223Y17802315D01*
X36257915Y17657053D01*
X36630207Y17583000D01*
X37009793Y17583000D01*
X37382085Y17657053D01*
X37732777Y17802315D01*
X38048391Y18013201D01*
X38316799Y18281609D01*
X38527685Y18597223D01*
X38672947Y18947915D01*
X38747000Y19320207D01*
X38747000Y19510000D01*
X41233677Y19510000D01*
X41270883Y19132242D01*
X41381071Y18769001D01*
X41560006Y18434237D01*
X41800813Y18140813D01*
X42094237Y17900006D01*
X42429001Y17721071D01*
X42792242Y17610883D01*
X43075342Y17583000D01*
X43264658Y17583000D01*
X43547758Y17610883D01*
X43910999Y17721071D01*
X44245763Y17900006D01*
X44539187Y18140813D01*
X44779994Y18434237D01*
X44958929Y18769001D01*
X45069117Y19132242D01*
X45106323Y19510000D01*
X45069117Y19887758D01*
X44958929Y20250999D01*
X44779994Y20585763D01*
X44539187Y20879187D01*
X44245763Y21119994D01*
X43910999Y21298929D01*
X43547758Y21409117D01*
X43264658Y21437000D01*
X43075342Y21437000D01*
X42792242Y21409117D01*
X42429001Y21298929D01*
X42094237Y21119994D01*
X41800813Y20879187D01*
X41560006Y20585763D01*
X41381071Y20250999D01*
X41270883Y19887758D01*
X41233677Y19510000D01*
X38747000Y19510000D01*
X38747000Y19699793D01*
X38672947Y20072085D01*
X38527685Y20422777D01*
X38316799Y20738391D01*
X38048391Y21006799D01*
X37958864Y21066619D01*
X38198899Y21306654D01*
X38328088Y21500000D01*
X53477919Y21500000D01*
X53538101Y20888961D01*
X53716334Y20301404D01*
X54005770Y19759909D01*
X54395284Y19285284D01*
X54869909Y18895770D01*
X55411404Y18606334D01*
X55422419Y18602993D01*
X55399069Y18600693D01*
X55186629Y18536250D01*
X54990843Y18431600D01*
X54819235Y18290765D01*
X54678400Y18119157D01*
X54573750Y17923371D01*
X54509307Y17710931D01*
X54487547Y17490000D01*
X54487547Y15510000D01*
X54509307Y15289069D01*
X54573750Y15076629D01*
X54678400Y14880843D01*
X54819235Y14709235D01*
X54990843Y14568400D01*
X55186629Y14463750D01*
X55399069Y14399307D01*
X55620000Y14377547D01*
X59580000Y14377547D01*
X59800931Y14399307D01*
X60013371Y14463750D01*
X60209157Y14568400D01*
X60380765Y14709235D01*
X60521600Y14880843D01*
X60626250Y15076629D01*
X60690693Y15289069D01*
X60712453Y15510000D01*
X60712453Y17490000D01*
X60690693Y17710931D01*
X60626250Y17923371D01*
X60521600Y18119157D01*
X60380765Y18290765D01*
X60209157Y18431600D01*
X60013371Y18536250D01*
X59800931Y18600693D01*
X59777581Y18602993D01*
X59788596Y18606334D01*
X60330091Y18895770D01*
X60804716Y19285284D01*
X61194230Y19759909D01*
X61483666Y20301404D01*
X61661899Y20888961D01*
X61722081Y21500000D01*
X61661899Y22111039D01*
X61483666Y22698596D01*
X61194230Y23240091D01*
X60804716Y23714716D01*
X60330091Y24104230D01*
X59788596Y24393666D01*
X59201039Y24571899D01*
X58743120Y24617000D01*
X56456880Y24617000D01*
X55998961Y24571899D01*
X55411404Y24393666D01*
X54869909Y24104230D01*
X54395284Y23714716D01*
X54005770Y23240091D01*
X53716334Y22698596D01*
X53538101Y22111039D01*
X53477919Y21500000D01*
X38328088Y21500000D01*
X38541111Y21818810D01*
X38776831Y22387888D01*
X38897000Y22992017D01*
X38897000Y23607983D01*
X38870782Y23739793D01*
X39843000Y23739793D01*
X39843000Y23360207D01*
X39917053Y22987915D01*
X40062315Y22637223D01*
X40273201Y22321609D01*
X40541609Y22053201D01*
X40857223Y21842315D01*
X41207915Y21697053D01*
X41580207Y21623000D01*
X41959793Y21623000D01*
X42332085Y21697053D01*
X42682777Y21842315D01*
X42998391Y22053201D01*
X43266799Y22321609D01*
X43477685Y22637223D01*
X43622947Y22987915D01*
X43697000Y23360207D01*
X43697000Y23739793D01*
X43622947Y24112085D01*
X43477685Y24462777D01*
X43266799Y24778391D01*
X42998391Y25046799D01*
X42682777Y25257685D01*
X42332085Y25402947D01*
X41959793Y25477000D01*
X41580207Y25477000D01*
X41207915Y25402947D01*
X40857223Y25257685D01*
X40541609Y25046799D01*
X40273201Y24778391D01*
X40062315Y24462777D01*
X39917053Y24112085D01*
X39843000Y23739793D01*
X38870782Y23739793D01*
X38776831Y24212112D01*
X38541111Y24781190D01*
X38198899Y25293346D01*
X37763346Y25728899D01*
X37656936Y25800000D01*
X37763346Y25871101D01*
X38198899Y26306654D01*
X38541111Y26818810D01*
X38776831Y27387888D01*
X38810528Y27557298D01*
X43256903Y27557298D01*
X43328486Y27313329D01*
X43583996Y27192429D01*
X43858184Y27123700D01*
X44140512Y27109783D01*
X44420130Y27151213D01*
X44686292Y27246397D01*
X44811514Y27313329D01*
X44883097Y27557298D01*
X44070000Y28370395D01*
X43256903Y27557298D01*
X38810528Y27557298D01*
X38897000Y27992017D01*
X38897000Y28479488D01*
X42629783Y28479488D01*
X42671213Y28199870D01*
X42766397Y27933708D01*
X42833329Y27808486D01*
X43077298Y27736903D01*
X43890395Y28550000D01*
X44249605Y28550000D01*
X45062702Y27736903D01*
X45306671Y27808486D01*
X45427571Y28063996D01*
X45496300Y28338184D01*
X45510217Y28620512D01*
X45468787Y28900130D01*
X45373603Y29166292D01*
X45306671Y29291514D01*
X45062702Y29363097D01*
X44249605Y28550000D01*
X43890395Y28550000D01*
X43077298Y29363097D01*
X42833329Y29291514D01*
X42712429Y29036004D01*
X42643700Y28761816D01*
X42629783Y28479488D01*
X38897000Y28479488D01*
X38897000Y28607983D01*
X38776831Y29212112D01*
X38639897Y29542702D01*
X43256903Y29542702D01*
X44070000Y28729605D01*
X44883097Y29542702D01*
X44818753Y29762000D01*
X46795126Y29762000D01*
X46795194Y29761307D01*
X46795127Y29760616D01*
X46807839Y29632923D01*
X46820564Y29503725D01*
X46820768Y29503053D01*
X46820836Y29502368D01*
X46858142Y29379848D01*
X46895900Y29255375D01*
X46896230Y29254758D01*
X46896431Y29254097D01*
X46957081Y29140914D01*
X47018239Y29026495D01*
X47018682Y29025955D01*
X47019009Y29025345D01*
X47100592Y28926148D01*
X47182880Y28825880D01*
X47183420Y28825436D01*
X47183860Y28824902D01*
X47211171Y28802536D01*
X47178958Y28756956D01*
X47110788Y28665127D01*
X47104143Y28651095D01*
X47095185Y28638419D01*
X47048671Y28533948D01*
X46999719Y28430570D01*
X46995940Y28415512D01*
X46989626Y28401331D01*
X46964381Y28289767D01*
X46936545Y28178853D01*
X46932561Y28098515D01*
X46816941Y27173552D01*
X46800564Y27087857D01*
X46801372Y26980317D01*
X46798556Y26872771D01*
X46802346Y26850715D01*
X46802514Y26828341D01*
X46824288Y26723018D01*
X46842506Y26616995D01*
X46850526Y26596102D01*
X46855056Y26574191D01*
X46896963Y26475130D01*
X46935512Y26374708D01*
X46947452Y26355785D01*
X46956171Y26335174D01*
X47016610Y26246176D01*
X47073998Y26155221D01*
X47089398Y26138993D01*
X47101972Y26120477D01*
X47178611Y26044982D01*
X47252643Y25966968D01*
X47270917Y25954053D01*
X47286858Y25938350D01*
X47376745Y25879261D01*
X47464581Y25817185D01*
X47485021Y25808085D01*
X47503722Y25795791D01*
X47603412Y25755373D01*
X47701669Y25711626D01*
X47723494Y25706688D01*
X47744231Y25698280D01*
X47849879Y25678090D01*
X47954794Y25654350D01*
X47977165Y25653764D01*
X47999143Y25649564D01*
X48106693Y25650372D01*
X48214229Y25647556D01*
X48236285Y25651346D01*
X48258659Y25651514D01*
X48363982Y25673288D01*
X48470005Y25691506D01*
X48490898Y25699526D01*
X48512809Y25704056D01*
X48611870Y25745963D01*
X48712292Y25784512D01*
X48731215Y25796452D01*
X48751826Y25805171D01*
X48840817Y25865605D01*
X48931779Y25922998D01*
X48995071Y25983060D01*
X49160761Y26121135D01*
X55029782Y26121135D01*
X55060095Y25995472D01*
X55188304Y25702795D01*
X55371148Y25440754D01*
X55601601Y25219419D01*
X55870806Y25047296D01*
X56168418Y24931000D01*
X56483000Y24875000D01*
X57473000Y24875000D01*
X57473000Y26373000D01*
X57727000Y26373000D01*
X57727000Y24875000D01*
X58717000Y24875000D01*
X59031582Y24931000D01*
X59329194Y25047296D01*
X59598399Y25219419D01*
X59828852Y25440754D01*
X60011696Y25702795D01*
X60139905Y25995472D01*
X60170218Y26121135D01*
X60050740Y26373000D01*
X57727000Y26373000D01*
X57473000Y26373000D01*
X55149260Y26373000D01*
X55029782Y26121135D01*
X49160761Y26121135D01*
X49657085Y26534737D01*
X49692686Y26557148D01*
X49756540Y26617617D01*
X49774159Y26632299D01*
X49803534Y26662119D01*
X49881125Y26735596D01*
X49894458Y26754419D01*
X49910651Y26770858D01*
X49969369Y26860182D01*
X49982602Y26878865D01*
X55029782Y26878865D01*
X55149260Y26627000D01*
X57473000Y26627000D01*
X57473000Y28125000D01*
X57727000Y28125000D01*
X57727000Y26627000D01*
X60050740Y26627000D01*
X60170218Y26878865D01*
X60139905Y27004528D01*
X60011696Y27297205D01*
X59828852Y27559246D01*
X59598399Y27780581D01*
X59329194Y27952704D01*
X59031582Y28069000D01*
X58717000Y28125000D01*
X57727000Y28125000D01*
X57473000Y28125000D01*
X56483000Y28125000D01*
X56168418Y28069000D01*
X55870806Y27952704D01*
X55601601Y27780581D01*
X55371148Y27559246D01*
X55188304Y27297205D01*
X55060095Y27004528D01*
X55029782Y26878865D01*
X49982602Y26878865D01*
X50031130Y26947378D01*
X50040534Y26968440D01*
X50053209Y26987722D01*
X50093374Y27086788D01*
X50136936Y27184355D01*
X50142050Y27206845D01*
X50150720Y27228230D01*
X50170782Y27333205D01*
X50194478Y27437419D01*
X50195106Y27460486D01*
X50199436Y27483142D01*
X50198633Y27590007D01*
X50201543Y27696847D01*
X50197660Y27719585D01*
X50197487Y27742659D01*
X50194463Y27757286D01*
X51219859Y29368623D01*
X51251761Y29407495D01*
X51289361Y29477840D01*
X51297268Y29490265D01*
X51319854Y29534887D01*
X51374100Y29636375D01*
X51378405Y29650567D01*
X51385102Y29663798D01*
X51416038Y29774627D01*
X51449436Y29884725D01*
X51450889Y29899481D01*
X51454877Y29913767D01*
X51463597Y30028499D01*
X51474874Y30143000D01*
X51473420Y30157759D01*
X51474544Y30172545D01*
X51460716Y30286751D01*
X51449436Y30401275D01*
X51445130Y30415470D01*
X51443348Y30430188D01*
X51407510Y30539487D01*
X51374100Y30649625D01*
X51367107Y30662708D01*
X51362488Y30676795D01*
X51306016Y30777002D01*
X51260657Y30861862D01*
X51578445Y31225049D01*
X51594140Y31237902D01*
X51663737Y31322526D01*
X51693135Y31356123D01*
X51704876Y31372546D01*
X51758991Y31438345D01*
X51780169Y31477867D01*
X51806247Y31514345D01*
X51841324Y31591992D01*
X51881569Y31667096D01*
X51894630Y31709992D01*
X51913091Y31750857D01*
X51932348Y31833866D01*
X51957164Y31915367D01*
X51961605Y31959981D01*
X51971740Y32003667D01*
X51974432Y32088830D01*
X51982873Y32173615D01*
X51978524Y32218248D01*
X51979941Y32263062D01*
X51965968Y32347111D01*
X51957705Y32431916D01*
X51944734Y32474837D01*
X51937380Y32519073D01*
X51907275Y32598788D01*
X51882629Y32680344D01*
X51861534Y32719909D01*
X51845691Y32761861D01*
X51800615Y32834168D01*
X51760529Y32909353D01*
X51732118Y32944046D01*
X51708397Y32982097D01*
X51650082Y33044221D01*
X51596098Y33110140D01*
X51561468Y33138621D01*
X51530777Y33171316D01*
X51461463Y33220868D01*
X51395655Y33274991D01*
X51356129Y33296171D01*
X51319654Y33322247D01*
X51242009Y33357323D01*
X51166903Y33397569D01*
X51124007Y33410630D01*
X51083142Y33429091D01*
X51000133Y33448348D01*
X50918632Y33473164D01*
X50874018Y33477605D01*
X50830332Y33487740D01*
X50745169Y33490432D01*
X50660384Y33498873D01*
X50615751Y33494524D01*
X50570937Y33495941D01*
X50486888Y33481968D01*
X50402083Y33473705D01*
X50359162Y33460734D01*
X50314926Y33453380D01*
X50235211Y33423275D01*
X50221261Y33419060D01*
X50216570Y33421281D01*
X49964853Y33484455D01*
X49705647Y33497308D01*
X49448914Y33459346D01*
X49204520Y33372027D01*
X48981857Y33238706D01*
X48789482Y33064508D01*
X48765411Y33032083D01*
X48705901Y32983140D01*
X48582671Y32832664D01*
X47059058Y30547242D01*
X47018239Y30497505D01*
X46987256Y30439540D01*
X46986876Y30438970D01*
X46957031Y30382993D01*
X46895900Y30268625D01*
X46895697Y30267955D01*
X46895371Y30267344D01*
X46858208Y30144371D01*
X46820564Y30020275D01*
X46820495Y30019579D01*
X46820295Y30018916D01*
X46807811Y29890791D01*
X46795126Y29762000D01*
X44818753Y29762000D01*
X44811514Y29786671D01*
X44556004Y29907571D01*
X44281816Y29976300D01*
X43999488Y29990217D01*
X43719870Y29948787D01*
X43453708Y29853603D01*
X43328486Y29786671D01*
X43256903Y29542702D01*
X38639897Y29542702D01*
X38541111Y29781190D01*
X38198899Y30293346D01*
X37763346Y30728899D01*
X37251190Y31071111D01*
X36682112Y31306831D01*
X36077983Y31427000D01*
X35462017Y31427000D01*
X34857888Y31306831D01*
X34288810Y31071111D01*
X33776654Y30728899D01*
X33341101Y30293346D01*
X32998889Y29781190D01*
X32763169Y29212112D01*
X32643000Y28607983D01*
X29172000Y28607983D01*
X29172000Y28937331D01*
X29098907Y29304793D01*
X28955531Y29650935D01*
X28747380Y29962454D01*
X28482454Y30227380D01*
X28170935Y30435531D01*
X27824793Y30578907D01*
X27457331Y30652000D01*
X27082669Y30652000D01*
X26715207Y30578907D01*
X26369065Y30435531D01*
X26057546Y30227380D01*
X25792620Y29962454D01*
X25584469Y29650935D01*
X25441093Y29304793D01*
X25368000Y28937331D01*
X20124011Y28937331D01*
X19969748Y29140785D01*
X19729992Y29353501D01*
X19453344Y29515356D01*
X19150435Y29620129D01*
X18897000Y29501315D01*
X18643000Y29501315D01*
X18389565Y29620129D01*
X18086656Y29515356D01*
X17810008Y29353501D01*
X17570252Y29140785D01*
X17376601Y28885382D01*
X17236498Y28597107D01*
X17179876Y28410434D01*
X8015626Y28410434D01*
X8151768Y28576324D01*
X8335347Y28919774D01*
X8448394Y29292440D01*
X8486565Y29680000D01*
X8448394Y30067560D01*
X8335347Y30440226D01*
X8151768Y30783676D01*
X8015270Y30950000D01*
X8151768Y31116324D01*
X8335347Y31459774D01*
X8448394Y31832440D01*
X8486565Y32220000D01*
X8448394Y32607560D01*
X8335347Y32980226D01*
X8160523Y33307298D01*
X29586903Y33307298D01*
X29658486Y33063329D01*
X29913996Y32942429D01*
X30188184Y32873700D01*
X30470512Y32859783D01*
X30750130Y32901213D01*
X31016292Y32996397D01*
X31141514Y33063329D01*
X31213097Y33307298D01*
X30400000Y34120395D01*
X29586903Y33307298D01*
X8160523Y33307298D01*
X8151768Y33323676D01*
X8015270Y33490000D01*
X8151768Y33656324D01*
X8335347Y33999774D01*
X8448394Y34372440D01*
X8486565Y34760000D01*
X8448394Y35147560D01*
X8335347Y35520226D01*
X8151768Y35863676D01*
X8015270Y36030000D01*
X8151768Y36196324D01*
X8335347Y36539774D01*
X8448394Y36912440D01*
X8486565Y37300000D01*
X8448394Y37687560D01*
X8335347Y38060226D01*
X8151768Y38403676D01*
X8015270Y38570000D01*
X8151768Y38736324D01*
X8335347Y39079774D01*
X8448394Y39452440D01*
X8458987Y39560000D01*
X11973435Y39560000D01*
X12011606Y39172440D01*
X12124653Y38799774D01*
X12308232Y38456324D01*
X12444730Y38290000D01*
X12308232Y38123676D01*
X12124653Y37780226D01*
X12011606Y37407560D01*
X11973435Y37020000D01*
X12011606Y36632440D01*
X12124653Y36259774D01*
X12308232Y35916324D01*
X12555286Y35615286D01*
X12856324Y35368232D01*
X13199774Y35184653D01*
X13572440Y35071606D01*
X13862884Y35043000D01*
X14057116Y35043000D01*
X14347560Y35071606D01*
X14720226Y35184653D01*
X15063676Y35368232D01*
X15364714Y35615286D01*
X15507927Y35789793D01*
X21173000Y35789793D01*
X21173000Y35410207D01*
X21247053Y35037915D01*
X21392315Y34687223D01*
X21603201Y34371609D01*
X21871609Y34103201D01*
X22187223Y33892315D01*
X22537915Y33747053D01*
X22910207Y33673000D01*
X23289793Y33673000D01*
X23662085Y33747053D01*
X24012777Y33892315D01*
X24328391Y34103201D01*
X24454678Y34229488D01*
X28959783Y34229488D01*
X29001213Y33949870D01*
X29096397Y33683708D01*
X29163329Y33558486D01*
X29407298Y33486903D01*
X30220395Y34300000D01*
X30579605Y34300000D01*
X31392702Y33486903D01*
X31636671Y33558486D01*
X31757571Y33813996D01*
X31826300Y34088184D01*
X31840217Y34370512D01*
X31838812Y34380000D01*
X34763677Y34380000D01*
X34800883Y34002242D01*
X34911071Y33639001D01*
X35090006Y33304237D01*
X35330813Y33010813D01*
X35624237Y32770006D01*
X35959001Y32591071D01*
X36322242Y32480883D01*
X36605342Y32453000D01*
X36794658Y32453000D01*
X37077758Y32480883D01*
X37440999Y32591071D01*
X37775763Y32770006D01*
X38069187Y33010813D01*
X38309994Y33304237D01*
X38488929Y33639001D01*
X38599117Y34002242D01*
X38636323Y34380000D01*
X38615661Y34589793D01*
X40973000Y34589793D01*
X40973000Y34210207D01*
X41047053Y33837915D01*
X41192315Y33487223D01*
X41403201Y33171609D01*
X41671609Y32903201D01*
X41987223Y32692315D01*
X42337915Y32547053D01*
X42710207Y32473000D01*
X43089793Y32473000D01*
X43462085Y32547053D01*
X43812777Y32692315D01*
X44128391Y32903201D01*
X44396799Y33171609D01*
X44607685Y33487223D01*
X44752947Y33837915D01*
X44827000Y34210207D01*
X44827000Y34589793D01*
X44752947Y34962085D01*
X44607685Y35312777D01*
X44396799Y35628391D01*
X44128391Y35896799D01*
X43812777Y36107685D01*
X43462085Y36252947D01*
X43089793Y36327000D01*
X42710207Y36327000D01*
X42337915Y36252947D01*
X41987223Y36107685D01*
X41671609Y35896799D01*
X41403201Y35628391D01*
X41192315Y35312777D01*
X41047053Y34962085D01*
X40973000Y34589793D01*
X38615661Y34589793D01*
X38599117Y34757758D01*
X38488929Y35120999D01*
X38309994Y35455763D01*
X38069187Y35749187D01*
X37775763Y35989994D01*
X37440999Y36168929D01*
X37077758Y36279117D01*
X36794658Y36307000D01*
X36605342Y36307000D01*
X36322242Y36279117D01*
X35959001Y36168929D01*
X35624237Y35989994D01*
X35330813Y35749187D01*
X35090006Y35455763D01*
X34911071Y35120999D01*
X34800883Y34757758D01*
X34763677Y34380000D01*
X31838812Y34380000D01*
X31798787Y34650130D01*
X31703603Y34916292D01*
X31636671Y35041514D01*
X31392702Y35113097D01*
X30579605Y34300000D01*
X30220395Y34300000D01*
X29407298Y35113097D01*
X29163329Y35041514D01*
X29042429Y34786004D01*
X28973700Y34511816D01*
X28959783Y34229488D01*
X24454678Y34229488D01*
X24596799Y34371609D01*
X24807685Y34687223D01*
X24952947Y35037915D01*
X25003626Y35292702D01*
X29586903Y35292702D01*
X30400000Y34479605D01*
X31213097Y35292702D01*
X31141514Y35536671D01*
X30886004Y35657571D01*
X30611816Y35726300D01*
X30329488Y35740217D01*
X30049870Y35698787D01*
X29783708Y35603603D01*
X29658486Y35536671D01*
X29586903Y35292702D01*
X25003626Y35292702D01*
X25027000Y35410207D01*
X25027000Y35789793D01*
X24952947Y36162085D01*
X24807685Y36512777D01*
X24596799Y36828391D01*
X24328391Y37096799D01*
X24012777Y37307685D01*
X23662085Y37452947D01*
X23289793Y37527000D01*
X22910207Y37527000D01*
X22537915Y37452947D01*
X22187223Y37307685D01*
X21871609Y37096799D01*
X21603201Y36828391D01*
X21392315Y36512777D01*
X21247053Y36162085D01*
X21173000Y35789793D01*
X15507927Y35789793D01*
X15611768Y35916324D01*
X15795347Y36259774D01*
X15908394Y36632440D01*
X15946565Y37020000D01*
X15908394Y37407560D01*
X15795347Y37780226D01*
X15611768Y38123676D01*
X15475270Y38290000D01*
X15611768Y38456324D01*
X15795347Y38799774D01*
X15908394Y39172440D01*
X15946565Y39560000D01*
X15908394Y39947560D01*
X15795347Y40320226D01*
X15680785Y40534555D01*
X15751600Y40620843D01*
X15841905Y40789793D01*
X21173000Y40789793D01*
X21173000Y40410207D01*
X21247053Y40037915D01*
X21392315Y39687223D01*
X21603201Y39371609D01*
X21871609Y39103201D01*
X22187223Y38892315D01*
X22537915Y38747053D01*
X22910207Y38673000D01*
X23289793Y38673000D01*
X23662085Y38747053D01*
X24012777Y38892315D01*
X24328391Y39103201D01*
X24596799Y39371609D01*
X24807685Y39687223D01*
X24952947Y40037915D01*
X25027000Y40410207D01*
X25027000Y40789793D01*
X24952947Y41162085D01*
X24807685Y41512777D01*
X24596799Y41828391D01*
X24505190Y41920000D01*
X28463677Y41920000D01*
X28500883Y41542242D01*
X28611071Y41179001D01*
X28790006Y40844237D01*
X29030813Y40550813D01*
X29324237Y40310006D01*
X29659001Y40131071D01*
X30022242Y40020883D01*
X30305342Y39993000D01*
X30494658Y39993000D01*
X30777758Y40020883D01*
X31140999Y40131071D01*
X31475763Y40310006D01*
X31769187Y40550813D01*
X32009994Y40844237D01*
X32188929Y41179001D01*
X32299117Y41542242D01*
X32336323Y41920000D01*
X32299117Y42297758D01*
X32188929Y42660999D01*
X32009994Y42995763D01*
X31769187Y43289187D01*
X31475763Y43529994D01*
X31140999Y43708929D01*
X30777758Y43819117D01*
X30494658Y43847000D01*
X30305342Y43847000D01*
X30022242Y43819117D01*
X29659001Y43708929D01*
X29324237Y43529994D01*
X29030813Y43289187D01*
X28790006Y42995763D01*
X28611071Y42660999D01*
X28500883Y42297758D01*
X28463677Y41920000D01*
X24505190Y41920000D01*
X24328391Y42096799D01*
X24012777Y42307685D01*
X23662085Y42452947D01*
X23289793Y42527000D01*
X22910207Y42527000D01*
X22537915Y42452947D01*
X22187223Y42307685D01*
X21871609Y42096799D01*
X21603201Y41828391D01*
X21392315Y41512777D01*
X21247053Y41162085D01*
X21173000Y40789793D01*
X15841905Y40789793D01*
X15856250Y40816629D01*
X15920693Y41029069D01*
X15942453Y41250000D01*
X15942453Y42950000D01*
X15920693Y43170931D01*
X15856250Y43383371D01*
X15751600Y43579157D01*
X15610765Y43750765D01*
X15439157Y43891600D01*
X15243371Y43996250D01*
X15030931Y44060693D01*
X14810000Y44082453D01*
X13110000Y44082453D01*
X12889069Y44060693D01*
X12676629Y43996250D01*
X12480843Y43891600D01*
X12309235Y43750765D01*
X12168400Y43579157D01*
X12063750Y43383371D01*
X11999307Y43170931D01*
X11977547Y42950000D01*
X11977547Y41250000D01*
X11999307Y41029069D01*
X12063750Y40816629D01*
X12168400Y40620843D01*
X12239215Y40534555D01*
X12124653Y40320226D01*
X12011606Y39947560D01*
X11973435Y39560000D01*
X8458987Y39560000D01*
X8486565Y39840000D01*
X8448394Y40227560D01*
X8335347Y40600226D01*
X8151768Y40943676D01*
X8015270Y41110000D01*
X8151768Y41276324D01*
X8335347Y41619774D01*
X8448394Y41992440D01*
X8486565Y42380000D01*
X8448394Y42767560D01*
X8335347Y43140226D01*
X8151768Y43483676D01*
X8015270Y43650000D01*
X8151768Y43816324D01*
X8335347Y44159774D01*
X8448394Y44532440D01*
X8486565Y44920000D01*
X8465882Y45130000D01*
X16562709Y45130000D01*
X16603776Y44713035D01*
X16725401Y44312094D01*
X16922907Y43942585D01*
X17188707Y43618707D01*
X17512585Y43352907D01*
X17882094Y43155401D01*
X18283035Y43033776D01*
X18595513Y43003000D01*
X18804487Y43003000D01*
X19116965Y43033776D01*
X19517906Y43155401D01*
X19887415Y43352907D01*
X20211293Y43618707D01*
X20477093Y43942585D01*
X20674599Y44312094D01*
X20796224Y44713035D01*
X20837291Y45130000D01*
X20796224Y45546965D01*
X20674599Y45947906D01*
X20477093Y46317415D01*
X20296613Y46537331D01*
X22798000Y46537331D01*
X22798000Y46162669D01*
X22871093Y45795207D01*
X23014469Y45449065D01*
X23222620Y45137546D01*
X23487546Y44872620D01*
X23799065Y44664469D01*
X24145207Y44521093D01*
X24512669Y44448000D01*
X24887331Y44448000D01*
X25254793Y44521093D01*
X25600935Y44664469D01*
X25912454Y44872620D01*
X26177380Y45137546D01*
X26385531Y45449065D01*
X26528907Y45795207D01*
X26602000Y46162669D01*
X26602000Y46537331D01*
X26528907Y46904793D01*
X26437695Y47125000D01*
X27792547Y47125000D01*
X27792547Y45575000D01*
X27814307Y45354069D01*
X27878750Y45141629D01*
X27983400Y44945843D01*
X28124235Y44774235D01*
X28295843Y44633400D01*
X28491629Y44528750D01*
X28704069Y44464307D01*
X28925000Y44442547D01*
X30475000Y44442547D01*
X30695931Y44464307D01*
X30908371Y44528750D01*
X31104157Y44633400D01*
X31275765Y44774235D01*
X31416600Y44945843D01*
X31521250Y45141629D01*
X31585693Y45354069D01*
X31607453Y45575000D01*
X31607453Y47125000D01*
X31585693Y47345931D01*
X31521250Y47558371D01*
X31416600Y47754157D01*
X31275765Y47925765D01*
X31104157Y48066600D01*
X30908371Y48171250D01*
X30695931Y48235693D01*
X30475000Y48257453D01*
X28925000Y48257453D01*
X28704069Y48235693D01*
X28491629Y48171250D01*
X28295843Y48066600D01*
X28124235Y47925765D01*
X27983400Y47754157D01*
X27878750Y47558371D01*
X27814307Y47345931D01*
X27792547Y47125000D01*
X26437695Y47125000D01*
X26385531Y47250935D01*
X26177380Y47562454D01*
X25912454Y47827380D01*
X25600935Y48035531D01*
X25254793Y48178907D01*
X24887331Y48252000D01*
X24512669Y48252000D01*
X24145207Y48178907D01*
X23799065Y48035531D01*
X23487546Y47827380D01*
X23222620Y47562454D01*
X23014469Y47250935D01*
X22871093Y46904793D01*
X22798000Y46537331D01*
X20296613Y46537331D01*
X20211293Y46641293D01*
X19887415Y46907093D01*
X19517906Y47104599D01*
X19116965Y47226224D01*
X18804487Y47257000D01*
X18595513Y47257000D01*
X18283035Y47226224D01*
X17882094Y47104599D01*
X17512585Y46907093D01*
X17188707Y46641293D01*
X16922907Y46317415D01*
X16725401Y45947906D01*
X16603776Y45546965D01*
X16562709Y45130000D01*
X8465882Y45130000D01*
X8448394Y45307560D01*
X8335347Y45680226D01*
X8151768Y46023676D01*
X8015270Y46190000D01*
X8151768Y46356324D01*
X8335347Y46699774D01*
X8448394Y47072440D01*
X8486565Y47460000D01*
X8448394Y47847560D01*
X8335347Y48220226D01*
X8220785Y48434555D01*
X8291600Y48520843D01*
X8396250Y48716629D01*
X8460693Y48929069D01*
X8482453Y49150000D01*
X8482453Y50549566D01*
X17109876Y50549566D01*
X17166498Y50362893D01*
X17306601Y50074618D01*
X17500252Y49819215D01*
X17740008Y49606499D01*
X18016656Y49444644D01*
X18319565Y49339871D01*
X18573000Y49458685D01*
X18573000Y50803000D01*
X18827000Y50803000D01*
X18827000Y49458685D01*
X19080435Y49339871D01*
X19383344Y49444644D01*
X19659992Y49606499D01*
X19899748Y49819215D01*
X20093399Y50074618D01*
X20233502Y50362893D01*
X20290124Y50549566D01*
X20170777Y50803000D01*
X18827000Y50803000D01*
X18573000Y50803000D01*
X17229223Y50803000D01*
X17109876Y50549566D01*
X8482453Y50549566D01*
X8482453Y50850000D01*
X8460693Y51070931D01*
X8396250Y51283371D01*
X8381785Y51310434D01*
X17109876Y51310434D01*
X17229223Y51057000D01*
X18573000Y51057000D01*
X18573000Y52401315D01*
X18827000Y52401315D01*
X18827000Y51057000D01*
X20170777Y51057000D01*
X20290124Y51310434D01*
X20233502Y51497107D01*
X20213953Y51537331D01*
X25298000Y51537331D01*
X25298000Y51162669D01*
X25371093Y50795207D01*
X25514469Y50449065D01*
X25722620Y50137546D01*
X25987546Y49872620D01*
X26299065Y49664469D01*
X26645207Y49521093D01*
X27012669Y49448000D01*
X27387331Y49448000D01*
X27754793Y49521093D01*
X28100935Y49664469D01*
X28412454Y49872620D01*
X28677380Y50137546D01*
X28885531Y50449065D01*
X29028907Y50795207D01*
X29102000Y51162669D01*
X29102000Y51207983D01*
X32573000Y51207983D01*
X32573000Y50592017D01*
X32693169Y49987888D01*
X32928889Y49418810D01*
X33271101Y48906654D01*
X33706654Y48471101D01*
X33813064Y48400000D01*
X33706654Y48328899D01*
X33271101Y47893346D01*
X32928889Y47381190D01*
X32693169Y46812112D01*
X32573000Y46207983D01*
X32573000Y45592017D01*
X32693169Y44987888D01*
X32928889Y44418810D01*
X33271101Y43906654D01*
X33706654Y43471101D01*
X34218810Y43128889D01*
X34787888Y42893169D01*
X34969250Y42857094D01*
X34847053Y42562085D01*
X34773000Y42189793D01*
X34773000Y41810207D01*
X34847053Y41437915D01*
X34992315Y41087223D01*
X35203201Y40771609D01*
X35471609Y40503201D01*
X35787223Y40292315D01*
X36137915Y40147053D01*
X36510207Y40073000D01*
X36889793Y40073000D01*
X37262085Y40147053D01*
X37612777Y40292315D01*
X37928391Y40503201D01*
X38196799Y40771609D01*
X38407685Y41087223D01*
X38552947Y41437915D01*
X38627000Y41810207D01*
X38627000Y42020000D01*
X40963677Y42020000D01*
X41000883Y41642242D01*
X41111071Y41279001D01*
X41290006Y40944237D01*
X41530813Y40650813D01*
X41824237Y40410006D01*
X42159001Y40231071D01*
X42522242Y40120883D01*
X42805342Y40093000D01*
X42994658Y40093000D01*
X43277758Y40120883D01*
X43640999Y40231071D01*
X43975763Y40410006D01*
X44269187Y40650813D01*
X44509994Y40944237D01*
X44688929Y41279001D01*
X44799117Y41642242D01*
X44799881Y41650000D01*
X53402919Y41650000D01*
X53463101Y41038961D01*
X53641334Y40451404D01*
X53930770Y39909909D01*
X54320284Y39435284D01*
X54794909Y39045770D01*
X55336404Y38756334D01*
X55347419Y38752993D01*
X55324069Y38750693D01*
X55111629Y38686250D01*
X54915843Y38581600D01*
X54744235Y38440765D01*
X54603400Y38269157D01*
X54498750Y38073371D01*
X54434307Y37860931D01*
X54412547Y37640000D01*
X54412547Y35660000D01*
X54434307Y35439069D01*
X54498750Y35226629D01*
X54603400Y35030843D01*
X54744235Y34859235D01*
X54915843Y34718400D01*
X55111629Y34613750D01*
X55324069Y34549307D01*
X55545000Y34527547D01*
X59505000Y34527547D01*
X59725931Y34549307D01*
X59938371Y34613750D01*
X60134157Y34718400D01*
X60305765Y34859235D01*
X60446600Y35030843D01*
X60551250Y35226629D01*
X60615693Y35439069D01*
X60637453Y35660000D01*
X60637453Y37640000D01*
X60615693Y37860931D01*
X60551250Y38073371D01*
X60446600Y38269157D01*
X60305765Y38440765D01*
X60134157Y38581600D01*
X59938371Y38686250D01*
X59725931Y38750693D01*
X59702581Y38752993D01*
X59713596Y38756334D01*
X60255091Y39045770D01*
X60729716Y39435284D01*
X61119230Y39909909D01*
X61408666Y40451404D01*
X61586899Y41038961D01*
X61647081Y41650000D01*
X61586899Y42261039D01*
X61408666Y42848596D01*
X61119230Y43390091D01*
X60729716Y43864716D01*
X60255091Y44254230D01*
X59713596Y44543666D01*
X59126039Y44721899D01*
X58668120Y44767000D01*
X56381880Y44767000D01*
X55923961Y44721899D01*
X55336404Y44543666D01*
X54794909Y44254230D01*
X54320284Y43864716D01*
X53930770Y43390091D01*
X53641334Y42848596D01*
X53463101Y42261039D01*
X53402919Y41650000D01*
X44799881Y41650000D01*
X44836323Y42020000D01*
X44799117Y42397758D01*
X44688929Y42760999D01*
X44509994Y43095763D01*
X44269187Y43389187D01*
X43975763Y43629994D01*
X43640999Y43808929D01*
X43277758Y43919117D01*
X42994658Y43947000D01*
X42805342Y43947000D01*
X42522242Y43919117D01*
X42159001Y43808929D01*
X41824237Y43629994D01*
X41530813Y43389187D01*
X41290006Y43095763D01*
X41111071Y42760999D01*
X41000883Y42397758D01*
X40963677Y42020000D01*
X38627000Y42020000D01*
X38627000Y42189793D01*
X38552947Y42562085D01*
X38407685Y42912777D01*
X38196799Y43228391D01*
X37928391Y43496799D01*
X37802897Y43580652D01*
X38128899Y43906654D01*
X38471111Y44418810D01*
X38706831Y44987888D01*
X38827000Y45592017D01*
X38827000Y46207983D01*
X38800782Y46339793D01*
X39773000Y46339793D01*
X39773000Y45960207D01*
X39847053Y45587915D01*
X39992315Y45237223D01*
X40203201Y44921609D01*
X40471609Y44653201D01*
X40787223Y44442315D01*
X41137915Y44297053D01*
X41510207Y44223000D01*
X41889793Y44223000D01*
X42262085Y44297053D01*
X42612777Y44442315D01*
X42928391Y44653201D01*
X43196799Y44921609D01*
X43407685Y45237223D01*
X43552947Y45587915D01*
X43627000Y45960207D01*
X43627000Y46271135D01*
X54954782Y46271135D01*
X54985095Y46145472D01*
X55113304Y45852795D01*
X55296148Y45590754D01*
X55526601Y45369419D01*
X55795806Y45197296D01*
X56093418Y45081000D01*
X56408000Y45025000D01*
X57398000Y45025000D01*
X57398000Y46523000D01*
X57652000Y46523000D01*
X57652000Y45025000D01*
X58642000Y45025000D01*
X58956582Y45081000D01*
X59254194Y45197296D01*
X59523399Y45369419D01*
X59753852Y45590754D01*
X59936696Y45852795D01*
X60064905Y46145472D01*
X60095218Y46271135D01*
X59975740Y46523000D01*
X57652000Y46523000D01*
X57398000Y46523000D01*
X55074260Y46523000D01*
X54954782Y46271135D01*
X43627000Y46271135D01*
X43627000Y46339793D01*
X43552947Y46712085D01*
X43421732Y47028865D01*
X54954782Y47028865D01*
X55074260Y46777000D01*
X57398000Y46777000D01*
X57398000Y48275000D01*
X57652000Y48275000D01*
X57652000Y46777000D01*
X59975740Y46777000D01*
X60095218Y47028865D01*
X60064905Y47154528D01*
X59936696Y47447205D01*
X59753852Y47709246D01*
X59523399Y47930581D01*
X59254194Y48102704D01*
X58956582Y48219000D01*
X58642000Y48275000D01*
X57652000Y48275000D01*
X57398000Y48275000D01*
X56408000Y48275000D01*
X56093418Y48219000D01*
X55795806Y48102704D01*
X55526601Y47930581D01*
X55296148Y47709246D01*
X55113304Y47447205D01*
X54985095Y47154528D01*
X54954782Y47028865D01*
X43421732Y47028865D01*
X43407685Y47062777D01*
X43196799Y47378391D01*
X42928391Y47646799D01*
X42612777Y47857685D01*
X42262085Y48002947D01*
X41889793Y48077000D01*
X41510207Y48077000D01*
X41137915Y48002947D01*
X40787223Y47857685D01*
X40471609Y47646799D01*
X40203201Y47378391D01*
X39992315Y47062777D01*
X39847053Y46712085D01*
X39773000Y46339793D01*
X38800782Y46339793D01*
X38706831Y46812112D01*
X38471111Y47381190D01*
X38128899Y47893346D01*
X37693346Y48328899D01*
X37586936Y48400000D01*
X37693346Y48471101D01*
X38128899Y48906654D01*
X38471111Y49418810D01*
X38706831Y49987888D01*
X38740528Y50157298D01*
X43186903Y50157298D01*
X43258486Y49913329D01*
X43513996Y49792429D01*
X43788184Y49723700D01*
X44070512Y49709783D01*
X44350130Y49751213D01*
X44616292Y49846397D01*
X44741514Y49913329D01*
X44813097Y50157298D01*
X44000000Y50970395D01*
X43186903Y50157298D01*
X38740528Y50157298D01*
X38827000Y50592017D01*
X38827000Y51079488D01*
X42559783Y51079488D01*
X42601213Y50799870D01*
X42696397Y50533708D01*
X42763329Y50408486D01*
X43007298Y50336903D01*
X43820395Y51150000D01*
X44179605Y51150000D01*
X44992702Y50336903D01*
X45236671Y50408486D01*
X45357571Y50663996D01*
X45426300Y50938184D01*
X45440217Y51220512D01*
X45398787Y51500130D01*
X45303603Y51766292D01*
X45236671Y51891514D01*
X44992702Y51963097D01*
X44179605Y51150000D01*
X43820395Y51150000D01*
X43007298Y51963097D01*
X42763329Y51891514D01*
X42642429Y51636004D01*
X42573700Y51361816D01*
X42559783Y51079488D01*
X38827000Y51079488D01*
X38827000Y51207983D01*
X38706831Y51812112D01*
X38569897Y52142702D01*
X43186903Y52142702D01*
X44000000Y51329605D01*
X44813097Y52142702D01*
X44741514Y52386671D01*
X44486004Y52507571D01*
X44211816Y52576300D01*
X43929488Y52590217D01*
X43649870Y52548787D01*
X43383708Y52453603D01*
X43258486Y52386671D01*
X43186903Y52142702D01*
X38569897Y52142702D01*
X38471111Y52381190D01*
X38128899Y52893346D01*
X37693346Y53328899D01*
X37181190Y53671111D01*
X36612112Y53906831D01*
X36007983Y54027000D01*
X35392017Y54027000D01*
X34787888Y53906831D01*
X34218810Y53671111D01*
X33706654Y53328899D01*
X33271101Y52893346D01*
X32928889Y52381190D01*
X32693169Y51812112D01*
X32573000Y51207983D01*
X29102000Y51207983D01*
X29102000Y51537331D01*
X29028907Y51904793D01*
X28885531Y52250935D01*
X28677380Y52562454D01*
X28412454Y52827380D01*
X28100935Y53035531D01*
X27754793Y53178907D01*
X27387331Y53252000D01*
X27012669Y53252000D01*
X26645207Y53178907D01*
X26299065Y53035531D01*
X25987546Y52827380D01*
X25722620Y52562454D01*
X25514469Y52250935D01*
X25371093Y51904793D01*
X25298000Y51537331D01*
X20213953Y51537331D01*
X20093399Y51785382D01*
X19899748Y52040785D01*
X19659992Y52253501D01*
X19383344Y52415356D01*
X19080435Y52520129D01*
X18827000Y52401315D01*
X18573000Y52401315D01*
X18319565Y52520129D01*
X18016656Y52415356D01*
X17740008Y52253501D01*
X17500252Y52040785D01*
X17306601Y51785382D01*
X17166498Y51497107D01*
X17109876Y51310434D01*
X8381785Y51310434D01*
X8291600Y51479157D01*
X8150765Y51650765D01*
X7979157Y51791600D01*
X7783371Y51896250D01*
X7570931Y51960693D01*
X7350000Y51982453D01*
X5650000Y51982453D01*
X5429069Y51960693D01*
X5216629Y51896250D01*
X5020843Y51791600D01*
X4934555Y51720785D01*
X4720226Y51835347D01*
X4347560Y51948394D01*
X4057116Y51977000D01*
X3862884Y51977000D01*
X3572440Y51948394D01*
X3199774Y51835347D01*
X2856324Y51651768D01*
X2555286Y51404714D01*
X2308232Y51103676D01*
X2124653Y50760226D01*
X2011606Y50387560D01*
X1973435Y50000000D01*
X660000Y50000000D01*
X660000Y58322756D01*
X2723000Y58322756D01*
X2723000Y57677244D01*
X2848933Y57044134D01*
X3095960Y56447758D01*
X3454588Y55911034D01*
X3911034Y55454588D01*
X4447758Y55095960D01*
X5044134Y54848933D01*
X5677244Y54723000D01*
X6322756Y54723000D01*
X6518822Y54762000D01*
X46795126Y54762000D01*
X46795194Y54761307D01*
X46795127Y54760616D01*
X46807839Y54632923D01*
X46820564Y54503725D01*
X46820768Y54503053D01*
X46820836Y54502368D01*
X46858142Y54379848D01*
X46895900Y54255375D01*
X46896230Y54254758D01*
X46896431Y54254097D01*
X46957081Y54140914D01*
X47018239Y54026495D01*
X47018682Y54025955D01*
X47019009Y54025345D01*
X47100592Y53926148D01*
X47182880Y53825880D01*
X47183420Y53825436D01*
X47183860Y53824902D01*
X47211171Y53802536D01*
X47178958Y53756956D01*
X47110788Y53665127D01*
X47104143Y53651095D01*
X47095185Y53638419D01*
X47048671Y53533948D01*
X46999719Y53430570D01*
X46995940Y53415512D01*
X46989626Y53401331D01*
X46964381Y53289767D01*
X46936545Y53178853D01*
X46932561Y53098515D01*
X46816941Y52173552D01*
X46800564Y52087857D01*
X46801372Y51980317D01*
X46798556Y51872771D01*
X46802346Y51850715D01*
X46802514Y51828341D01*
X46824288Y51723018D01*
X46842506Y51616995D01*
X46850526Y51596102D01*
X46855056Y51574191D01*
X46896963Y51475130D01*
X46935512Y51374708D01*
X46947452Y51355785D01*
X46956171Y51335174D01*
X47016610Y51246176D01*
X47073998Y51155221D01*
X47089398Y51138993D01*
X47101972Y51120477D01*
X47178611Y51044982D01*
X47252643Y50966968D01*
X47270917Y50954053D01*
X47286858Y50938350D01*
X47376745Y50879261D01*
X47464581Y50817185D01*
X47485021Y50808085D01*
X47503722Y50795791D01*
X47603412Y50755373D01*
X47701669Y50711626D01*
X47723494Y50706688D01*
X47744231Y50698280D01*
X47849879Y50678090D01*
X47954794Y50654350D01*
X47977165Y50653764D01*
X47999143Y50649564D01*
X48106693Y50650372D01*
X48214229Y50647556D01*
X48236285Y50651346D01*
X48258659Y50651514D01*
X48363982Y50673288D01*
X48470005Y50691506D01*
X48490898Y50699526D01*
X48512809Y50704056D01*
X48611870Y50745963D01*
X48712292Y50784512D01*
X48731215Y50796452D01*
X48751826Y50805171D01*
X48840817Y50865605D01*
X48931779Y50922998D01*
X48995071Y50983060D01*
X49657085Y51534737D01*
X49692686Y51557148D01*
X49756540Y51617617D01*
X49774159Y51632299D01*
X49803534Y51662119D01*
X49881125Y51735596D01*
X49894458Y51754419D01*
X49910651Y51770858D01*
X49969369Y51860182D01*
X50031130Y51947378D01*
X50040534Y51968440D01*
X50053209Y51987722D01*
X50093374Y52086788D01*
X50136936Y52184355D01*
X50142050Y52206845D01*
X50150720Y52228230D01*
X50170782Y52333205D01*
X50194478Y52437419D01*
X50195106Y52460486D01*
X50199436Y52483142D01*
X50198633Y52590007D01*
X50201543Y52696847D01*
X50197660Y52719585D01*
X50197487Y52742659D01*
X50194463Y52757286D01*
X51219859Y54368623D01*
X51251761Y54407495D01*
X51289361Y54477840D01*
X51297268Y54490265D01*
X51319854Y54534887D01*
X51374100Y54636375D01*
X51378405Y54650567D01*
X51385102Y54663798D01*
X51416038Y54774627D01*
X51449436Y54884725D01*
X51450889Y54899481D01*
X51454877Y54913767D01*
X51463597Y55028499D01*
X51474874Y55143000D01*
X51473420Y55157759D01*
X51474544Y55172545D01*
X51460716Y55286751D01*
X51449436Y55401275D01*
X51445130Y55415470D01*
X51443348Y55430188D01*
X51407510Y55539487D01*
X51374100Y55649625D01*
X51367107Y55662708D01*
X51362488Y55676795D01*
X51306016Y55777002D01*
X51260657Y55861862D01*
X51578445Y56225049D01*
X51594140Y56237902D01*
X51663737Y56322526D01*
X51693135Y56356123D01*
X51704876Y56372546D01*
X51758991Y56438345D01*
X51780169Y56477867D01*
X51806247Y56514345D01*
X51841324Y56591992D01*
X51881569Y56667096D01*
X51894630Y56709992D01*
X51913091Y56750857D01*
X51932348Y56833866D01*
X51957164Y56915367D01*
X51961605Y56959981D01*
X51971740Y57003667D01*
X51974432Y57088830D01*
X51982873Y57173615D01*
X51978524Y57218248D01*
X51979941Y57263062D01*
X51965968Y57347111D01*
X51957705Y57431916D01*
X51944734Y57474837D01*
X51937380Y57519073D01*
X51907275Y57598788D01*
X51882629Y57680344D01*
X51861534Y57719909D01*
X51845691Y57761861D01*
X51800615Y57834168D01*
X51760529Y57909353D01*
X51732118Y57944046D01*
X51708397Y57982097D01*
X51650082Y58044221D01*
X51596098Y58110140D01*
X51561468Y58138621D01*
X51530777Y58171316D01*
X51461463Y58220868D01*
X51395655Y58274991D01*
X51356129Y58296171D01*
X51319654Y58322247D01*
X51318528Y58322756D01*
X54723000Y58322756D01*
X54723000Y57677244D01*
X54848933Y57044134D01*
X55095960Y56447758D01*
X55454588Y55911034D01*
X55911034Y55454588D01*
X56447758Y55095960D01*
X57044134Y54848933D01*
X57677244Y54723000D01*
X58322756Y54723000D01*
X58955866Y54848933D01*
X59552242Y55095960D01*
X60088966Y55454588D01*
X60545412Y55911034D01*
X60904040Y56447758D01*
X61151067Y57044134D01*
X61277000Y57677244D01*
X61277000Y58322756D01*
X61151067Y58955866D01*
X60904040Y59552242D01*
X60545412Y60088966D01*
X60088966Y60545412D01*
X59552242Y60904040D01*
X58955866Y61151067D01*
X58322756Y61277000D01*
X57677244Y61277000D01*
X57044134Y61151067D01*
X56447758Y60904040D01*
X55911034Y60545412D01*
X55454588Y60088966D01*
X55095960Y59552242D01*
X54848933Y58955866D01*
X54723000Y58322756D01*
X51318528Y58322756D01*
X51242009Y58357323D01*
X51166903Y58397569D01*
X51124007Y58410630D01*
X51083142Y58429091D01*
X51000133Y58448348D01*
X50918632Y58473164D01*
X50874018Y58477605D01*
X50830332Y58487740D01*
X50745169Y58490432D01*
X50660384Y58498873D01*
X50615751Y58494524D01*
X50570937Y58495941D01*
X50486888Y58481968D01*
X50402083Y58473705D01*
X50359162Y58460734D01*
X50314926Y58453380D01*
X50235211Y58423275D01*
X50221261Y58419060D01*
X50216570Y58421281D01*
X49964853Y58484455D01*
X49705647Y58497308D01*
X49448914Y58459346D01*
X49204520Y58372027D01*
X48981857Y58238706D01*
X48789482Y58064508D01*
X48765411Y58032083D01*
X48705901Y57983140D01*
X48582671Y57832664D01*
X47059058Y55547242D01*
X47018239Y55497505D01*
X46987256Y55439540D01*
X46986876Y55438970D01*
X46957031Y55382993D01*
X46895900Y55268625D01*
X46895697Y55267955D01*
X46895371Y55267344D01*
X46858208Y55144371D01*
X46820564Y55020275D01*
X46820495Y55019579D01*
X46820295Y55018916D01*
X46807811Y54890791D01*
X46795126Y54762000D01*
X6518822Y54762000D01*
X6955866Y54848933D01*
X7552242Y55095960D01*
X8088966Y55454588D01*
X8545412Y55911034D01*
X8904040Y56447758D01*
X9151067Y57044134D01*
X9277000Y57677244D01*
X9277000Y58322756D01*
X9151067Y58955866D01*
X8904040Y59552242D01*
X8545412Y60088966D01*
X8088966Y60545412D01*
X7552242Y60904040D01*
X6955866Y61151067D01*
X6322756Y61277000D01*
X5677244Y61277000D01*
X5044134Y61151067D01*
X4447758Y60904040D01*
X3911034Y60545412D01*
X3454588Y60088966D01*
X3095960Y59552242D01*
X2848933Y58955866D01*
X2723000Y58322756D01*
X660000Y58322756D01*
X660000Y63340000D01*
X63340001Y63340000D01*
X63340000Y660000D01*
G36*
X13285630Y11146999D02*
G01*
X11198370Y11146999D01*
X11146999Y11198370D01*
X11146999Y12262365D01*
X11153661Y12330002D01*
X11146999Y12397641D01*
X11127074Y12599940D01*
X11048336Y12859506D01*
X10920472Y13098722D01*
X10748396Y13308398D01*
X10695849Y13351522D01*
X9981522Y14065849D01*
X9938398Y14118396D01*
X9728722Y14290472D01*
X9705286Y14302999D01*
X10129630Y14302999D01*
X13285630Y11146999D01*
X13285630Y11146999D01*
G37*
X13285630Y11146999D02*
X11198370Y11146999D01*
X11146999Y11198370D01*
X11146999Y12262365D01*
X11153661Y12330002D01*
X11146999Y12397641D01*
X11127074Y12599940D01*
X11048336Y12859506D01*
X10920472Y13098722D01*
X10748396Y13308398D01*
X10695849Y13351522D01*
X9981522Y14065849D01*
X9938398Y14118396D01*
X9728722Y14290472D01*
X9705286Y14302999D01*
X10129630Y14302999D01*
X13285630Y11146999D01*
G36*
X6355280Y14529526D02*
G01*
X6378716Y14516999D01*
X6353000Y14516999D01*
X6353000Y14531397D01*
X6355280Y14529526D01*
X6355280Y14529526D01*
G37*
X6355280Y14529526D02*
X6378716Y14516999D01*
X6353000Y14516999D01*
X6353000Y14531397D01*
X6355280Y14529526D01*
M02*
