M48
; DRILL file {KiCad (5.1.2)-1} date 8/10/2019 11:37:37
; FORMAT={2:4/ absolute / inch / keep zeros}
; #@! TF.CreationDate,2019-10-08T11:37:37+11:00
; #@! TF.GenerationSoftware,Kicad,Pcbnew,(5.1.2)-1
FMAT,2
INCH
T1C0.0236
T2C0.0315
T3C0.0394
T4C0.0472
T5C0.0520
T6C0.1693
%
G90
G05
T1
X004496Y024181
X004496Y020244
X004496Y016307
X004496Y004496
X004496Y000559
X008425Y004370
X008433Y024181
X008433Y020244
X008433Y000559
X008933Y012370
X012370Y024181
X012370Y020244
X012370Y000559
X012870Y012370
X016307Y024181
X016307Y020244
X016307Y000559
X016807Y012370
X020244Y024181
X020244Y016307
X020244Y008433
X020244Y004496
X016417Y018169
X017323Y020138
X016445Y009272
X017350Y011240
T2
X016890Y016543
X016890Y013543
X014083Y011142
X014083Y009173
X014449Y016535
X014449Y013535
X014055Y020039
X014055Y018071
X014496Y007681
X014496Y004681
X009094Y015984
X009094Y014016
X011969Y016504
X011969Y013504
X011996Y007681
X011996Y004681
X008996Y007181
X008996Y005213
X016996Y007681
X016996Y004681
T3
X005496Y007681
X005496Y006681
X005496Y005681
X009752Y009350
X010736Y011319
X011720Y009350
X001559Y019685
X001559Y018685
X001559Y017685
X001559Y016685
X001559Y015685
X001559Y014685
X001559Y013685
X001559Y012685
X001559Y011685
X001559Y010685
X001559Y009685
X001559Y008685
X001559Y007685
X001559Y006685
X001559Y005685
X002559Y019685
X002559Y018685
X002559Y017685
X002559Y016685
X002559Y015685
X002559Y014685
X002559Y013685
X002559Y012685
X002559Y011685
X002559Y010685
X002559Y009685
X002559Y008685
X002559Y007685
X002559Y006685
X002559Y005685
X005339Y003047
X005339Y002047
X006339Y003047
X006339Y002047
X007339Y003047
X007339Y002047
X009724Y018248
X010709Y020217
X011693Y018248
X005496Y016575
X005496Y015575
X005496Y014575
T4
X007390Y011035
X007390Y008752
X007362Y020051
X007362Y017768
T5
X022648Y018366
X022648Y016398
X022648Y014429
X022677Y010433
X022677Y008465
X022677Y006496
T6
X002362Y002362
X022835Y002362
X002362Y022835
X022835Y022835
T0
M30
